<svg id="Layer_1" data-name="Layer 1" xmlns="http://www.w3.org/2000/svg" viewBox="0 0 981.06 838"><defs><style>.cls-1{fill:#fbfcfc;}.cls-2{fill:#b9bcd1;}.cls-3{fill:#616679;}.cls-4{fill:#f9fafb;}.cls-5{fill:#54bff8;}.cls-6{fill:#302742;}.cls-7{fill:#8d94ae;}.cls-8{fill:#e6e9f6;}.cls-9{fill:#ce2c61;}.cls-10{fill:#c0c6de;}.cls-11{fill:#0e83c1;}.cls-12{fill:#f2caa6;}.cls-13{fill:#939ab5;}.cls-14{fill:#a3a9c8;}.cls-15{fill:#797f98;}.cls-16{fill:#ced4ea;}.cls-17{fill:#f2477d;}.cls-18{fill:#d9ddef;}.cls-19{fill:#98cff1;}.cls-20{fill:#63b3ea;}.cls-21{fill:#b4e2fa;}.cls-22{fill:#1b9fe4;}</style></defs><path class="cls-1" d="M244.17,441c8.44-6,16.5-12.71,25.4-18,26-15.36,52.34-30.22,78.66-45.08,3.82-2.16,8.27-3.23,12.42-4.8-1.35,4.68-3.37,9.29-3.88,14.07-1,9.36-1.14,18.81-1.64,28.23q2.13,18.45,4.27,36.9L342.49,447l-1.6,4.65,52.41,27.91c.5,3.15,1,6.29,1.49,9.44-18.48-10.28-36.88-20.68-55.49-30.71-3.41-1.84-7.64-2.16-11.5-3.18-.44,1.35-.88,2.7-1.33,4L396.34,499q-1.72,13.92-3.44,27.85Z" transform="translate(-49.47 -121)"/><path class="cls-2" d="M902.13,648.76c-20.35,11.14-40.77,22.17-61,33.49-7.06,3.94-13.71,8.6-20.55,12.94q-12.78,7.5-25.58,15l-10.05,4.88,14.77,11.24c-13.49,7.33-23.76,20.28-40.27,8.2-2.31-1.69-9.63,3.47-14.63,5.46l-27.55,17.72c-4.62,1.14-9.77,1.33-13.76,3.57q-37.93,21.36-75.39,43.6c-5,2.94-9,7.34-13.52,11.08l-22.53,12.52-2.84-2.15-.42-11.12c4.77-2.36,9.69-4.48,14.29-7.13q135.4-78,270.67-156.19c5.74-3.32,10.6-8.17,15.87-12.3,12.25-6.07,24.7-11.76,36.65-18.37,4.94-2.73,8.79-7.43,13.14-11.24L966,599.52c5.95,8.51-1,11.31-6.54,14.66Q930.79,631.49,902.13,648.76Z" transform="translate(-49.47 -121)"/><path class="cls-2" d="M1029,481.45c3.37,7,.84,11.06-5.72,14.76-34.53,19.42-68.86,39.18-103.19,59-3.84,2.21-7.2,5.27-10.79,7.94l-25,14.14-11.58,5.26,14.14,10.68c-2.4,1.7-4,3-5.69,4-10.69,6.28-20.73,15.09-34.19,4.25-1.89-1.52-9.16,3.63-13.94,5.69-16.5,9.19-33,18.34-49.45,27.68-1.11.64-1.38,2.75-2,4.18l-12.07,4.74-10.16,5.21L750,655.79l-8.5,3.39-9.21,7c-4.87,2.09-9.89,3.86-14.57,6.32-15.86,8.33-31.6,16.9-47.39,25.39l-.07-11.18c4.43-2.08,9-3.85,13.28-6.29q110.69-63.78,221.23-127.77c17.6-10.22,34.71-21.28,52-32l49.42-28.62Z" transform="translate(-49.47 -121)"/><path class="cls-3" d="M654.79,262.43l141.72,81.2-2.25,21.9c-2.72-.6-5.81-.57-8.11-1.9q-75-43.1-149.8-86.48,1.24-11.46,2.47-22.93C644.76,255.76,645.47,267.45,654.79,262.43Z" transform="translate(-49.47 -121)"/><path class="cls-4" d="M794.27,365.53q1.11-10.95,2.24-21.9c6.78-7.1,12.26-16.22,24.13-15.32,18.54.43,32.07,11.75,41.42,25,11.39,16.11,18.4,35.31,27.31,53.18l8.35-4.16,13.5,11c-12.52,3.58-15.26,8.86-11.12,21.35l-16-.37-24.25,10-4.3,2.45-29.67-16.87-27.41-44.7-2.55-17.28-2-2.4Zm74,59.78c11.37-12.46,8-25.83,2.41-39.33-6.39-20-18.54-35.2-38.34-43.07-11.46-4.55-22,.89-23.34,11.87-2.11,17.62,1.47,33.92,14.16,47.32,9.17,8.73,17.65,18.42,27.89,25.64C854.47,430.17,862.37,426.3,868.24,425.31Z" transform="translate(-49.47 -121)"/><path class="cls-5" d="M367.37,362.87l12.68-12.12-.25-.07,3.28,2.4c5.54,4.12,5.8,15.6,16.84,12.06q7.44,3.58,14.85,7.18c-15.32,13-10.91,45.51,7.26,53.46.15,2.17.31,4.34.46,6.5l-.48,9.09c-.22,1-.43,2.05-.64,3.07-6.52,1.8-13.16,5.39-19.53,5-9.8-.66-19.43-4.09-29.13-6.34l2-11.24-2.46-36.45Z" transform="translate(-49.47 -121)"/><path class="cls-4" d="M586.58,188.4,600,161.64c7.64,3.59,13.06,15,24.07,6.84l11.85,7.23c-8.94,1.87-8.21,7.41-5.39,13.89,1.91,4.38,3.58,8.87,5.36,13.31-8.74,13.36-4.82,26.7.1,40-14.62,9.83-24.38,8.41-39.44-5.73q-1.73-12.79-3.44-25.58Z" transform="translate(-49.47 -121)"/><path class="cls-6" d="M596.57,237.21c15.06,14.14,24.82,15.56,39.44,5.73l3.07,10.21-.26,1.07q-1.23,11.46-2.47,22.93-1.51,7.1-3,14.19-2.7,8.84-5.39,17.68l-31.13-4.12-2.5-8.2q-1.15-10-2.33-20-1-19.25-2-38.5Z" transform="translate(-49.47 -121)"/><path class="cls-7" d="M590,238.22q1,19.25,2,38.5l-16.8,9.78,19.13,10.2c.84,2.73,1.67,5.47,2.5,8.2q0,3.63,0,7.26l-66.49-38Z" transform="translate(-49.47 -121)"/><path class="cls-6" d="M900.1,434.63c-4.14-12.49-1.4-17.77,11.12-21.35,0,0,.22-.56.22-.56,1,.58,2,1.14,3.07,1.71L973.38,448q-2.42,9.9-4.82,19.81c-4.5-1.06-9.48-1.25-13.44-3.35-17.89-9.51-35.48-19.56-53.19-29.42a7.41,7.41,0,0,1-2.15-.6Z" transform="translate(-49.47 -121)"/><path class="cls-7" d="M276.93,473.27l-35.36-23.64c.87-2.88,1.73-5.76,2.6-8.65L392.9,526.83q-.13,5.35-.26,10.71l-5.65.07c-10.3-6.89-20.29-14.29-31-20.54-18.28-10.7-37-20.67-55.5-31Z" transform="translate(-49.47 -121)"/><path class="cls-6" d="M180,447.18q-1.38,9.21-2.77,18.41l-6.7-5.48c.2,14.07-7.39,18.44-18.34,18.89-15.7,2.81-1.87,14.3-6.37,21L137,501.35q-2.25-3.78-4.49-7.57c0-6.45-.65-13,.26-19.33.7-4.85,3.12-9.54,5.27-14.07s4.92-8.88,7.42-13.3C159.67,435.9,168.5,435.92,180,447.18Z" transform="translate(-49.47 -121)"/><path class="cls-3" d="M884.36,577.24l25-14.13c16.07,9.55,32.21,19,48.16,28.74,3.19,1.95,5.66,5.08,8.46,7.67l-26.55,10.42L914.7,594.73Z" transform="translate(-49.47 -121)"/><path class="cls-8" d="M897.72,402.3l-8.35,4.16c-8.91-17.87-15.92-37.07-27.31-53.18-9.35-13.22-22.88-24.54-41.42-25,6.3-8.71,21.2-10.69,32.3-2.77C879.23,344.3,898.09,367.81,897.72,402.3Z" transform="translate(-49.47 -121)"/><path class="cls-9" d="M399.91,365.15c-11,3.53-11.29-7.95-16.83-12.07l-3.28-2.4.25.07c-5.57-18.21-4.31-26.78,6.9-31.88,5.3-2.42,13-3,18.24-.85,3.12,1.26,3.57,9.26,5.06,14.28a49.49,49.49,0,0,1,1.06,6q-1,4.2-2,8.4Q404.65,355.91,399.91,365.15Z" transform="translate(-49.47 -121)"/><path class="cls-4" d="M409.33,346.7l2-8.4c16.52-8.55,33.19-16.84,49.54-25.7C484.11,300,507.14,287,530.27,274.15l66.48,38c.16,2.21.32,4.43.49,6.64-4.06-1.78-8.33-3.21-12.15-5.41Q561.73,299.94,538.62,286c-6.63-4-12.2-4.08-19.21.16Q483.26,308,446.27,328.48C434.29,335.15,421.67,340.66,409.33,346.7Z" transform="translate(-49.47 -121)"/><path class="cls-3" d="M968.57,467.83q2.4-9.9,4.81-19.81L1029,481.45l-22.81,10.6Z" transform="translate(-49.47 -121)"/><path class="cls-10" d="M635.91,202.91c-1.78-4.44-3.45-8.93-5.36-13.31-2.82-6.48-3.55-12,5.39-13.89,17.76,17.2,26.67,37.36,20.94,62.46-.72,3.15-.93,6.42-1.38,9.63l-9.24-2.46c-.13-6.46.92-13.23-.69-19.3C643.45,218,639.23,210.59,635.91,202.91Z" transform="translate(-49.47 -121)"/><path class="cls-6" d="M599.62,134.4c-3.15-9.83,5.72-11.38,10.81-12.67,5.44-1.39,13.58-.89,17.6,2.38,12.42,10.14,10,28.1-3.81,36.87-.65-5.41-1.31-10.82-1.53-12.64Z" transform="translate(-49.47 -121)"/><path class="cls-11" d="M367.37,362.87l4.92,32.5-4.92,19.51-12.24.55c.5-9.42.65-18.87,1.64-28.23.51-4.78,2.53-9.39,3.88-14.07l-.61.07,2.4-2.56Z" transform="translate(-49.47 -121)"/><path class="cls-12" d="M599.62,134.4l23.07,13.94c.22,1.82.88,7.23,1.53,12.64q-.06,3.75-.14,7.5c-11,8.19-16.42-3.25-24.06-6.84Q599.83,148,599.62,134.4Z" transform="translate(-49.47 -121)"/><path class="cls-13" d="M586.58,188.4l6.55,23.23q-13,11.9-26,23.81l-6.22-5.74Q573.75,209,586.58,188.4Z" transform="translate(-49.47 -121)"/><path class="cls-12" d="M646.26,245.34l9.24,2.46q-.35,7.32-.71,14.63c-9.32,5-10-6.67-16-8.21l.26-1.07Q642.67,249.24,646.26,245.34Z" transform="translate(-49.47 -121)"/><path class="cls-12" d="M560.92,229.7l6.22,5.74-11.53,13.5C548.34,237.19,551.71,232.29,560.92,229.7Z" transform="translate(-49.47 -121)"/><path class="cls-4" d="M914.51,414.43c-1-.57-2-1.13-3.07-1.71Z" transform="translate(-49.47 -121)"/><path class="cls-1" d="M362.44,370.64,360,373.2Z" transform="translate(-49.47 -121)"/><path class="cls-4" d="M51.58,688.59q11.13-6.72,22.27-13.44c.48,1.11.66,2.59,1.49,3.28,3.66,3,7.5,5.81,11.27,8.68,1.14-3.87,2.45-7.7,3.36-11.62.72-3.09.94-6.3,1.39-9.46,13.26-6,26.33-12.55,39.84-18,12-4.8,22.82-10.16,26.45-23.88l12.44-3.51,29.14,20.77q.2,14.05.34,28.1c-2.11.27-4.17.55-6.24.83-12.15-9.43-26.86-12.29-40.2-7.23-18,6.83-34.7,17.38-51.72,26.75-2.5,1.39-3.72,5.1-5.54,7.73a24.93,24.93,0,0,0,13.26-.86c14.72-4.42,29.4-8.92,44.1-13.39,2,2.27,3.62,5.25,6.11,6.71,28.67,16.77,57.47,33.3,86.23,49.91,49.37,28.5,98.67,57.11,148.19,85.34,3.84,2.19,9.17,1.78,13.8,2.58.28-1.24.55-2.48.82-3.72-3-2-5.87-4.2-9-6-39.77-23-79.65-45.76-119.36-68.84-37.54-21.82-74.91-43.92-112.36-65.9l9.86-3,15,3.14,7.87,2.27c1.08,2.64,1.4,6.5,3.37,7.73,12.17,7.6,24.68,14.64,37.12,21.82,46.18,26.64,92.32,53.36,138.67,79.71,4.39,2.5,10.14,2.63,15.26,3.85.46-1.44.92-2.88,1.39-4.31L213.37,688.8c1.19-3.14,2.36-6.27,3.54-9.41l6-9.41-15.72-1.61Q208.6,662.16,210,656c10.5,5.36,20.78,11.2,31.58,15.85,4.31,1.85,9.74,1.06,14.66,1.48l4.06,5.94c1.79,2.3,3.09,5.42,5.42,6.78,35,20.39,70,40.7,105.3,60.51,3.54,2,9,.62,13.53.81q1.26,2.49,2.54,5c7,11,24.38,19.6,34.31,17.08l4.94,4.83c.51,1.83.42,4.63,1.6,5.35,8.71,5.29,17.45,10.61,26.66,14.9,3.06,1.43,7.5-.11,11.32-.3L488.39,809a10.48,10.48,0,0,1-2.33.65l-2.48,2-.15.17c-12,4.88-6.33,12.26-2.75,19.35l-42.06,24.52c28.85,16.57,54.85,31.74,81.21,46.26,2.7,1.49,8.14,0,11.34-1.76q42.69-24.12,84.92-49c2.37-1.4,3.48-4.93,5.18-7.47l17.46-13.08c4.56-.12,10,1.36,13.54-.61,29.57-16.48,58.82-33.53,88-50.7,1.85-1.08,2.32-4.52,3.43-6.86l25.61-17.25,6.74,1.65,25.15,15.4c-2.86,3-5.21,6.95-8.67,9q-134.43,78-269.1,155.49c-7.36,4.24-15.37,7.34-23.08,11q-43.73-25.2-87.44-50.39Q232.23,792.94,51.58,688.59Zm83.57,3.93-1.43,4.55q19.46,11.23,38.93,22.48c47.94,27.74,95.84,55.58,143.94,83.05,3.51,2,8.56,1.32,12.89,1.89.22-1.45.43-2.89.65-4.34q-9-5.22-17.94-10.44-81.51-47.15-163.14-94.12C145.12,693.34,139.82,693.49,135.15,692.52Zm254,145.54.27-3.77c-14.49-8.3-28.83-16.85-43.56-24.68-2.86-1.52-7.22-.22-10.88-.22l-.45,3.67c15.09,8.74,30.07,17.68,45.39,26C382.17,840.26,386,838.46,389.16,838.06Zm38.32-24c-8.92-3.88-15.17-16-27.72-8.74C408.54,809.61,414.57,822.34,427.48,814Z" transform="translate(-49.47 -121)"/><path class="cls-7" d="M51.58,688.59Q232.24,792.93,412.91,897.26q43.69,25.23,87.44,50.38,1.27,5.68,2.56,11.36c-3.4-1.25-7.07-2.06-10.18-3.84-35.07-20.08-70-40.38-105.09-60.47q-57.9-33.2-115.94-66.17l-66.84-36.91-31.22-17.54c-20.73-13-41.29-26.22-62.25-38.81C93.17,724.3,74.57,714,56,703.63,49.21,699.86,47.67,695.18,51.58,688.59Z" transform="translate(-49.47 -121)"/><path class="cls-11" d="M157.65,624.18c-3.63,13.72-14.49,19.08-26.45,23.88-13.51,5.42-26.58,11.93-39.84,18l-5.15-7.73c14.42-9.81,28.29-20.63,43.52-28.95,6.48-3.54,9.38-6.23,9.08-13.28-.59-13.9-.74-27.82-1.08-41.73Q139.86,565,142,555.7l13.68,12c-2.54,10.64,1.67,18.62,9.91,25Z" transform="translate(-49.47 -121)"/><path class="cls-12" d="M142,555.71l-4.26,18.63c-3.74-3.35-8.93-6-10.88-10.21-2.67-5.76-2-13-4.32-19-7.28-19.35-2.24-36,10-51.33q2.24,3.8,4.49,7.57l1.53,11.71c-12.49,12-4,26.54-4.49,40,0,.68,4.38,1.51,6.72,2.27l.71-.1Z" transform="translate(-49.47 -121)"/><path class="cls-8" d="M86.21,658.3,91.36,666c-.45,3.16-.67,6.37-1.39,9.46-.91,3.92-2.22,7.75-3.36,11.62-3.77-2.87-7.61-5.66-11.27-8.68-.83-.69-1-2.17-1.49-3.28,1.24-5.4,2.49-10.79,3.89-16.85Z" transform="translate(-49.47 -121)"/><path class="cls-2" d="M880.24,742.57l-52.1,31.22L793.69,793.9c-4.13,1.81-8.46,3.24-12.34,5.47q-100.83,58-201.57,116.08c-25.53,14.68-51.24,29-76.87,43.55q-1.28-5.68-2.56-11.36c7.71-3.63,15.72-6.73,23.08-11q134.67-77.53,269.1-155.49c3.46-2,5.81-5.93,8.67-9l52-28.84,25.2-11.07Q879.31,737.44,880.24,742.57Z" transform="translate(-49.47 -121)"/><path class="cls-3" d="M878.36,732.31l-25.2,11.07-29.73-17.77L795,710.17q12.79-7.49,25.58-15c16.08,9.51,32.24,18.9,48.19,28.64C872.34,726,875.18,729.45,878.36,732.31Z" transform="translate(-49.47 -121)"/><path class="cls-6" d="M392.64,537.54q.12-5.35.26-10.71,1.73-13.92,3.44-27.85-.78-5-1.55-10c-.5-3.15-1-6.29-1.49-9.44-.22-2.67-.45-5.33-.68-8-1.88-3.42-3.46-7.06-5.73-10.21-3.11-4.32-6.74-8.26-10.15-12.36l-4-5.9c9.7,2.25,19.33,5.68,29.13,6.34,6.37.43,13-3.16,19.53-4.95.19,1.66.37,3.32.55,5l6.95,5.43-.27-.29,2.73,2.59-.47.16,9.94,12.27q0,3.11,0,6.21c.13,3.5.26,7,.38,10.49-.58,2.53-1.17,5-1.75,7.58.06,2.33.11,4.65.17,7l-.39,7.76c.23,3.13.45,6.27.68,9.4q-.45,6.36-.91,12.74l.08-.13-2,2.44-6.81.92-10.4-37.57-2.05.18q-3.65,20.7-7.31,41.41L402,573.15l-9.39-4.64Z" transform="translate(-49.47 -121)"/><path class="cls-12" d="M372.71,443.06c1.34,2,2.69,3.93,4,5.91l-7.55,10-9.79-6.69q-2.13-18.45-4.27-36.9l12.24-.55c3.33,5.27-6.28,16.17,7.38,16.94Z" transform="translate(-49.47 -121)"/><path class="cls-14" d="M394.79,489q.76,5,1.55,10l-69.87-39.86c.45-1.34.89-2.69,1.33-4,3.86,1,8.09,1.34,11.5,3.18C357.91,468.29,376.31,478.69,394.79,489Z" transform="translate(-49.47 -121)"/><path class="cls-14" d="M359.4,452.33l9.8,6.7,23.42,12.5c.23,2.67.46,5.33.68,8l-52.41-27.91,1.6-4.65Z" transform="translate(-49.47 -121)"/><path class="cls-4" d="M889.62,639.55c-5.27,4.13-10.13,9-15.87,12.3Q738.53,730.14,603.08,808c-4.6,2.65-9.52,4.77-14.29,7.13L572,806.63c-.26-.79-.53-1.58-.79-2.36,3.55-1.7,7.65-2.77,10.54-5.24,5.73-4.91,2.91-16.27-4.42-19.54-11.81-11.7-23.81-23.21-35.28-35.23-2.93-3.07-4.15-7.76-6.16-11.7,14.27,8,28.4,16.39,42.94,23.92,3.38,1.75,8.19.73,12.35,1,.16-1.33.31-2.66.47-4C576.75,744.9,562,736,546.89,728c-2.95-1.57-7.56,0-11.4.12q-1.1-22.14-2.18-44.27c-.5-4.89.85-11.71-1.85-14.33-8.19-7.89-6.6-15.34-2.28-24l15.48,6.8-4.41,35.13c-1.15,5.37-2.31,10.74-3.82,17.74,11.46-2.36,14.26-7,12.2-14.75l6.61-19.23c4.19,1.55,8.69,2.55,12.51,4.74,27.29,15.67,55,30.72,81.42,47.75,14.5,9.35,26.13,12.24,41.53,1.59C712.77,710,736.42,697,759.4,683c5.7,1.6,11.58,3.85,14.44-4.23l5.35-5.76c5.59.89,11.35,2.08,11.4-6.59l8.26-5.15,12.45-5.13c2.32-1.55,4.62-3.14,7-4.66l42.24-27.16,4.15.62ZM625.69,772.68c-11-2.45-16.94-14.77-27.47-5.76C606.19,770,611.61,782.75,625.69,772.68Z" transform="translate(-49.47 -121)"/><path class="cls-15" d="M743.7,772.42c-1.11,2.34-1.58,5.78-3.43,6.86-29.18,17.17-58.43,34.22-88,50.7-3.53,2-9,.49-13.54.61l-24.15-14.68c4.49-3.73,8.57-8.13,13.52-11.07q37.47-22.19,75.39-43.6c4-2.24,9.14-2.43,13.76-3.57Z" transform="translate(-49.47 -121)"/><path class="cls-13" d="M589.21,826.29l2.83,2.15,26.71,15.23c-18.73,17-37.93,22.37-59.83,4.67-11.28-9.13-24.13-16.33-36.27-24.41l24.74-22.45Z" transform="translate(-49.47 -121)"/><path class="cls-7" d="M889.62,639.55l-25-14.61,50-30.21,24.71,15.21c-4.35,3.81-8.2,8.51-13.14,11.24C914.32,627.79,901.87,633.48,889.62,639.55Z" transform="translate(-49.47 -121)"/><path class="cls-15" d="M795,710.17l28.46,15.44c-5.25,3.78-10.36,7.78-15.78,11.3-10.45,6.78-21.06,13.29-31.61,19.91l-6.74-1.65L744.8,740c5-2,12.32-7.15,14.63-5.46,16.51,12.08,26.78-.87,40.27-8.2l-14.77-11.24Z" transform="translate(-49.47 -121)"/><path class="cls-16" d="M744.8,740l24.51,15.22L743.7,772.42l-26.45-14.75Z" transform="translate(-49.47 -121)"/><path class="cls-16" d="M618.75,843.67,592,828.44l22.54-12.52,24.15,14.67-17.46,13.08Z" transform="translate(-49.47 -121)"/><path class="cls-7" d="M589.21,826.29l-41.82-24.81,15,.12-.16-.08,5.08,2.56-.16-.09,4.85,2.64,16.83,8.54Z" transform="translate(-49.47 -121)"/><path class="cls-4" d="M440.8,469.59l-9.94-12.27c3.75,1,7.89,1.25,11.19,3.06,14.38,7.87,28.45,16.32,42.82,24.24,3.24,1.79,7.23,2.25,10.87,3.32l1.71-4.19L422,441.37l.48-9.09,13.83,1.83c0,2.14-.76,5.67.19,6.23q53.08,31.07,106.57,61.47c1.92,1.1,5.16-.13,7.79-.28.11-.95.23-1.89.35-2.83l-90.44-52.11c-1.14-5.45-.44-13.16-3.79-15.9-7.8-6.39-17.56-10.37-26.53-15.33-8.2-4.85-7.46-12.41-6.12-20.16,10.38,5.63,20.88,11,31.11,16.91,55.78,32.09,111.41,64.44,167.26,96.39,22.27,12.73,45,24.68,67.49,37q2.32,17.07,4.64,34.15h-7.1c-8.74,4.12-17.76,7.76-26.18,12.46C643.11,602.38,625,613.22,604.64,625c21.63,12.47,40.93,23.74,60.44,34.66a9.56,9.56,0,0,0,7.95.12c25.48-14.4,50.78-29.13,77.47-44.54l-8.46-5.7,22.16-17.36c7.8,3.53,16.09,6.29,23.25,10.83,5.77,3.66,9.75,3.56,15.42.06,14.49-9,29.4-17.23,44.23-25.64,29.13-16.52,58.35-32.87,87.4-49.51,2.59-1.48,6.3-5.12,5.87-6.83-.75-2.9-4-5.76-6.86-7.42-44.41-25.61-88.85-51.19-133.5-76.37-11.54-6.51-23.86-11.65-35.83-17.41h.07l-2.37-5c-1-2.75-2-5.51-3-8.27l197.92,114c-17.34,10.68-34.45,21.74-52,32Q794.29,616.77,683.53,680.41c-4.23,2.44-8.85,4.21-13.28,6.29-17.7-10.21-35.34-20.51-53.1-30.59q-45.75-26-91.63-51.74l2.46-22c3.58-.29,7.23-1.15,10.73-.72,4,.51,8,2.15,11.94,3.31.52-1.47,1.05-2.93,1.57-4.39L527,568.27l-13.95-8.75L439.85,518c-.23-3.13-.45-6.27-.68-9.4,2.58,1.16,5.27,2.11,7.71,3.51,35.54,20.37,71,40.86,106.61,61.13,3.4,1.93,7.56,2.53,11.37,3.74.46-1.28.93-2.56,1.39-3.85-5.92-3.49-11.79-7.06-17.77-10.46Q494,531.72,439.56,500.84c-.06-2.32-.11-4.64-.17-7,3.74,1.36,7.77,2.22,11.17,4.16,39.18,22.4,78.24,45,117.43,67.38,3.43,2,7.63,2.59,11.47,3.84l1.59-4c-4.84-2.91-9.64-5.91-14.53-8.73-24.53-14.14-49-28.4-73.66-42.28-17.08-9.61-34.47-18.67-51.72-28-.12-3.5-.25-7-.38-10.49,36.56,21.07,73.07,42.2,109.72,63.09,3.78,2.16,8.36,2.93,12.56,4.34l1.32-4.05c-18.3-10.63-36.49-21.47-54.94-31.84C486.66,494.55,463.68,482.15,440.8,469.59Zm61.54,21.31c13.35,15.25,60.56,39.58,69.84,36.15C548.13,514.47,527.26,498.76,502.34,490.9Zm52.59,14.65c21.29,14.5,42.24,29.69,67.1,37.2C601,527.83,579.66,513.42,554.93,505.55ZM577.79,531c-.84,1.91-1.69,3.81-2.54,5.72,10.38,5.57,19.35,14.25,31.68,15.48l1.86-4Q593.3,539.61,577.79,531ZM572,544.21c-.57,1.35-1.13,2.71-1.69,4.06,11.64,11.27,16.58,13.1,25.72,8.49Z" transform="translate(-49.47 -121)"/><path class="cls-16" d="M759.4,683c-23,14-46.63,27-68.7,42.26-15.4,10.65-27,7.76-41.53-1.59-26.43-17-54.13-32.08-81.42-47.75-3.82-2.19-8.32-3.19-12.51-4.74q2-5.55,4-11.12l27.92-5.74c5.65,2,11.71,3.17,16.86,6,22.25,12.25,44.24,25,66.32,37.55,15.79-8.49,31.53-17.06,47.39-25.39,4.68-2.46,9.7-4.23,14.57-6.32Z" transform="translate(-49.47 -121)"/><path class="cls-7" d="M956.81,520.68l-197.91-114-4.83-4.82-8.92-14.67c3.73,1.24,7.75,1.95,11.13,3.82,23.28,12.8,46.42,25.84,69.6,38.81l29.67,16.87,9.8,5.26,0,0c15.9,9.85,31.66,20,47.76,29.48,17.58,10.41,25,8.93,40.38-7.73l-36.31-18.24-12.22-6.77-9.9-6.88-10.92-7.5,16,.37-.32-.17,2.15.6c17.71,9.86,35.3,19.91,53.19,29.42,4,2.1,8.94,2.29,13.44,3.35l37.67,24.22Z" transform="translate(-49.47 -121)"/><path class="cls-16" d="M860.51,624.32l-42.24,27.16c-2.35,1.52-4.65,3.11-7,4.66L781.61,639c.67-1.43.94-3.54,2-4.18,16.42-9.34,33-18.49,49.45-27.68Z" transform="translate(-49.47 -121)"/><path class="cls-7" d="M670.32,697.88c-22.08-12.56-44.07-25.3-66.32-37.55-5.15-2.84-11.21-4.05-16.86-6l-35.3-22.09.19-.1-4.55-2.9L523.7,612c.61-2.54,1.21-5.08,1.82-7.63q45.83,25.86,91.63,51.74c17.76,10.08,35.4,20.38,53.1,30.59C670.27,690.43,670.3,694.15,670.32,697.88Z" transform="translate(-49.47 -121)"/><path class="cls-15" d="M860.51,624.32l-27.4-17.19c4.78-2.06,12-7.21,13.94-5.69,13.46,10.84,23.5,2,34.19-4.25,1.73-1,3.29-2.3,5.69-4l-14.14-10.68,11.58-5.26,30.33,17.48-50,30.21Z" transform="translate(-49.47 -121)"/><path class="cls-7" d="M759.4,683l-27.12-16.83,9.22-7,32.34,19.59C771,686.85,765.1,684.6,759.4,683Z" transform="translate(-49.47 -121)"/><path class="cls-7" d="M790.58,666.42c0,8.67-5.8,7.48-11.39,6.59L750,655.79l9.39-6.85Z" transform="translate(-49.47 -121)"/><path class="cls-7" d="M781.61,639l29.69,17.15-12.45,5.13-29.31-17.54Z" transform="translate(-49.47 -121)"/><path class="cls-16" d="M769.54,643.73l29.31,17.54-8.26,5.15-31.21-17.48Z" transform="translate(-49.47 -121)"/><path class="cls-16" d="M750,655.79,779.19,673l-5.35,5.76L741.5,659.18Z" transform="translate(-49.47 -121)"/><path class="cls-4" d="M197,520.76l49.38-27.82A43.75,43.75,0,0,1,252,495.2q46.4,26.57,92.73,53.24c11.73,6.73,23.57,13.26,35.05,20.39,2.23,1.38,3,5.11,4.44,7.75l-7.17,1.32c-10.4-4.84-21-7.6-31.84-1.63-12.92,7.11-25.94,14.13-38.41,22-9.39,5.93-9,18.72.43,24.38,17.25,10.29,34.27,21.26,52.51,29.43,8,3.56,19.68,3.59,27.91.5,13.25-5,25.28-13.45,37.34-21.2,11.36-7.3,11-18.31-.4-25.38-9.05-5.62-18.36-10.83-27.56-16.22,5.4-5.55,10.81-5.56,17.5-1.49,14,8.5,28.69,15.76,42.46,24.55,7.24,4.62,13.12,11.39,19.61,17.19-.34,1.34-.69,2.67-1,4-8.8.08-18.6-2.29-26.18.79-13.87,5.65-26.84,13.91-39.42,22.22-11.31,7.48-10.55,17.82,1.36,25.23,13.19,8.19,26.37,16.65,40.4,23.15,10.38,4.81,22.12,6.67,33.25,9.85l2.61,40.9q-51.72-29.38-103.44-58.77Q304.32,651.8,224.53,606c-6.39-7.18-12.51-14.62-19.24-21.47-7.29-7.42-15.15-14.3-22.76-21.42q-.84-17.33-1.67-34.66c7,11,16.76,13.91,28.88,9.6-12.83,12.25-13.71,21.18-1.88,28.45,16.38,10.07,33.2,19.47,50,28.85,10.91,6.09,22,5.46,32.81-.64s21.4-12.07,31.88-18.48c14.64-9,14.27-20-.88-28.82-14.87-8.64-30.05-16.74-44.76-25.65-12.65-7.66-24.62-6.9-37.06.27-9.88,5.69-20.12,10.76-30.19,16.1,2.85-3.13,5.21-7,8.64-9.22,7.47-4.88,15.74-8.55,23.13-13.53,2.4-1.62,3.06-5.79,4.52-8.79-3.68-.55-7.43-1.76-11-1.37-1.84.2-3.05,4.14-5.08,4.85C219,513.9,207.94,517.25,197,520.76Z" transform="translate(-49.47 -121)"/><path class="cls-16" d="M476.64,630c-6.49-5.8-12.37-12.57-19.61-17.19-13.77-8.79-28.5-16.05-42.46-24.55-6.69-4.07-12.1-4.06-17.5,1.49l-20-11.88,7.17-1.32c-1.44-2.64-2.21-6.37-4.44-7.75-11.48-7.13-23.32-13.66-35.05-20.39Q298.42,521.8,252,495.2a43.75,43.75,0,0,0-5.71-2.26l30.59-19.67,23.62,12.85c-13.21,10.78-12.72,19.47,1.9,28.13,13.67,8.11,27.81,15.48,41.24,24,14.85,9.37,29,9.49,43.31-.59l5.65-.07v31l9.39,4.64c6.77,1.76,14.82.11,19.52,7.36,7.82,5,15.7,9.88,23.45,15,13.82,9,27.38,9,40.78-.82l5,6.9Z" transform="translate(-49.47 -121)"/><path class="cls-17" d="M180.86,528.45q.82,17.34,1.67,34.66l-26.86,4.57L142,555.7l-.48-.52-.71.1c1.6-3.49,4.94-7.23,4.49-10.43-1.51-10.7-4.38-21.21-6.72-31.79L137,501.35l8.81-1.32c4.5-6.73-9.33-18.22,6.37-21,2.47,13.62,3.63,14.3,15.88,9.28L179.21,496c-.9,5.9-2.64,11.83-2.43,17.69C177,518.63,179.41,523.52,180.86,528.45Z" transform="translate(-49.47 -121)"/><path class="cls-12" d="M180.86,528.45c-1.45-4.93-3.9-9.82-4.08-14.79-.21-5.86,1.53-11.79,2.43-17.69L197,520.76c11-3.51,22-6.86,32.9-10.69,2-.71,3.24-4.65,5.08-4.85,3.58-.39,7.33.82,11,1.37-1.46,3-2.12,7.17-4.52,8.79-7.39,5-15.66,8.65-23.13,13.53-3.43,2.23-5.79,6.09-8.64,9.22l.08-.08C197.62,542.36,187.9,539.43,180.86,528.45Z" transform="translate(-49.47 -121)"/><path class="cls-12" d="M168.09,488.28c-12.25,5-13.41,4.34-15.88-9.28,10.95-.45,18.54-4.82,18.34-18.89l6.7,5.48Z" transform="translate(-49.47 -121)"/><path class="cls-7" d="M633.31,291.34q1.52-7.09,3-14.19,74.88,43.29,149.8,86.48c2.3,1.33,5.39,1.3,8.11,1.9l-.37-.1,2,2.4,2.55,17.28L730.9,347.29c-10-6.28-19.76-13-30-18.77C678.49,315.88,655.85,303.7,633.31,291.34Z" transform="translate(-49.47 -121)"/><path class="cls-18" d="M730.91,347.29l67.56,37.82,27.41,44.7c-23.18-13-46.32-26-69.6-38.81-3.38-1.87-7.4-2.58-11.13-3.82l-13.08-6.48q.09-12.46.19-24.92l-3-6.77C729.81,348.44,730.36,347.87,730.91,347.29Z" transform="translate(-49.47 -121)"/><path class="cls-19" d="M823.13,402.09C810.44,388.7,806.86,372.4,809,354.78c1.31-11,11.88-16.42,23.34-11.87,19.8,7.87,32,23,38.34,43.07q-5.21-1.74-10.4-3.44L821.8,360.07c-3.16,19.1,9.75,30.61,14.3,44.86Z" transform="translate(-49.47 -121)"/><path class="cls-19" d="M860.25,382.53l10.4,3.45c5.55,13.5,9,26.87-2.42,39.34q-12.26-9-24.52-18c1.92-2,5.86-5.23,5.47-5.9C841.34,388.16,853,386.67,860.25,382.53Z" transform="translate(-49.47 -121)"/><path class="cls-20" d="M843.71,407.33q12.27,9,24.52,18c-5.86,1-13.76,4.85-17.21,2.42-10.24-7.22-18.72-16.91-27.89-25.65l13,2.84Z" transform="translate(-49.47 -121)"/><path class="cls-14" d="M884.1,434.26l10.92,7.5-12.69,13-17-2.89,0,.05-5.5-7.71Z" transform="translate(-49.47 -121)"/><path class="cls-18" d="M859.85,444.23l5.5,7.71-9.8-5.26Z" transform="translate(-49.47 -121)"/><path class="cls-3" d="M795.92,367.83l-2-2.4Z" transform="translate(-49.47 -121)"/><path class="cls-8" d="M690.2,545.48c-22.51-12.3-45.22-24.25-67.49-37-55.85-31.95-111.48-64.3-167.26-96.39-10.23-5.88-20.73-11.28-31.11-16.91-1.55-8.31,3.81-19.51-9.57-22.88q-7.41-3.6-14.85-7.18,4.71-9.22,9.42-18.44c12.33-6,25-11.55,36.93-18.22q36.9-20.55,73.14-42.28c7-4.24,12.58-4.16,19.21-.16q23.07,13.95,46.47,27.35c3.82,2.2,8.09,3.63,12.14,5.41l1.5,35.79c-21.67-12.36-43.79-24-64.83-37.34-11.13-7.06-19-5.39-28.14,3.56l79.41,47.31c-6.42,6.06-12.52,4.85-19.65.48-17-10.42-34.48-20.12-51.76-30.11l4.53,6.07c-3.44.41-7.2,1.92-10.24,1-11.49-3.42-23.68,6.76-35.21-2.41-1.94-1.55-8.69,2.71-13,4.76-.43.2.75,3.74,1.18,5.74l2.82,8,2.25-3.75,7.25,3.2c-.14,5.26.36,10,7.55,9.4a14.36,14.36,0,0,0,2.74,2.3q18.28,8.78,36.62,17.42c7.33,6.11,14.42,12.57,22.14,18.14,2.66,1.92,7.71,7.42,10-1.19l4.66.59,4.54,2.9c18.67,13,20,13,30.1-.69l6.59,1.25c-.59-4.32-1-7.48-1.47-10.64,12.69,6.16,20.66-3.3,29.77-9l26-8.69-11.14-14Q640,357.43,638.61,346l61.89,32.87V370.6c3.27,2,9.15,3.71,9.39,6,1.27,11.91,8.31,9.14,15.4,7.22-1.95,3.68-4,10.61-5.82,10.53-18.56-.83-25.84,11.59-32.15,25.57l-8.61,34.19-50.26,25.93c14.68,8.48,25.71,15.15,37,21.28,8.11,4.4,16.61,8.08,24.95,12.09Q690.3,529.46,690.2,545.48ZM520.59,410.64c-12.7-7.33-25.23-13.48-36.53-21.39-10.6-7.4-19.11-6.93-28.44,3.46,12.43,7.28,25.14,13.73,36.73,21.81C502.68,421.72,510.94,420.7,520.59,410.64Z" transform="translate(-49.47 -121)"/><path class="cls-11" d="M414.77,372.32c13.38,3.37,8,14.57,9.57,22.88-1.34,7.75-2.08,15.31,6.12,20.15L422,425.78C403.86,417.83,399.45,385.31,414.77,372.32Z" transform="translate(-49.47 -121)"/><path class="cls-14" d="M422,441.37l75.44,42.38-1.71,4.19c-3.64-1.07-7.63-1.53-10.87-3.32-14.37-7.92-28.44-16.37-42.82-24.24-3.3-1.81-7.44-2.08-11.19-3.06l.47-.16-2.73-2.59.27.29-6.95-5.43c-.18-1.66-.36-3.32-.55-5C421.58,443.42,421.79,442.4,422,441.37Z" transform="translate(-49.47 -121)"/><path class="cls-12" d="M422,425.78l8.43-10.43c9,5,18.73,8.95,26.53,15.34,3.35,2.74,2.65,10.45,3.79,15.9l-24.46-12.48-13.83-1.83C422.34,430.12,422.18,428,422,425.78Z" transform="translate(-49.47 -121)"/><path class="cls-8" d="M374.75,431.82c-13.66-.77-4.05-11.67-7.38-16.94l4.92-19.51Z" transform="translate(-49.47 -121)"/><path class="cls-21" d="M379.8,350.68l3.28,2.4Z" transform="translate(-49.47 -121)"/><path class="cls-21" d="M646.26,245.34q-3.6,3.9-7.18,7.81L636,242.94c-4.92-13.33-8.84-26.67-.1-40,3.32,7.68,7.54,15.13,9.66,23.13C647.18,232.11,646.13,238.88,646.26,245.34Z" transform="translate(-49.47 -121)"/><path class="cls-12" d="M638.61,346q1.38,11.46,2.77,22.93c-1.45,6,.52,14.38-10,13.88q-1.12-5.71-2.26-11.41c.63-4.08,2.84-8.72,1.61-12.12-3.66-10.16-8.67-19.84-13.15-29.7l-3.62.2q-1.53,16.35-3.07,32.68l-2,5.43c-6.17,2.77-6.09,16-17.31,10.32,1.69-2.15,3.39-4.29,5.08-6.43q1-8.58,2.08-17.16l-1.5-35.79-.48-6.64q0-3.63,0-7.26L627.93,309q3.93,6.25,7.87,12.51,1.22,7.62,2.41,15.23C638.34,339.82,638.48,342.9,638.61,346Z" transform="translate(-49.47 -121)"/><path class="cls-18" d="M635.8,321.52q-3.94-6.25-7.87-12.51,2.67-8.83,5.38-17.67c22.54,12.36,45.18,24.54,67.56,37.18,10.27,5.8,20,12.49,30,18.77-.54.58-1.09,1.15-1.66,1.72l-23.89-4.11c-14-14.2-52.38-33.08-61.41-28.68l56.72,32.24-.54,4.78a8.06,8.06,0,0,0-.74,2.08c-3.74-1.38-7.74-2.31-11.19-4.22C670.65,341.38,653.25,331.4,635.8,321.52Z" transform="translate(-49.47 -121)"/><path class="cls-18" d="M594.29,296.7l-19.13-10.2,16.8-9.78Q593.13,286.71,594.29,296.7Z" transform="translate(-49.47 -121)"/><path class="cls-4" d="M901.93,435.06l-2.15-.6A7.41,7.41,0,0,0,901.93,435.06Z" transform="translate(-49.47 -121)"/><path class="cls-15" d="M387,537.61c-14.3,10.08-28.46,10-43.31.59-13.43-8.47-27.57-15.84-41.24-24-14.62-8.66-15.11-17.35-1.9-28.13,18.52,10.28,37.21,20.25,55.49,31C366.7,523.32,376.69,530.72,387,537.61Z" transform="translate(-49.47 -121)"/><path class="cls-16" d="M387.1,752.3q-1.28-2.49-2.54-5c-1.3-1.89-2.16-4.51-3.95-5.56-35.89-21-71.82-41.9-108-62.36-3.13-1.77-8.15-.2-12.29-.18l-4.05-5.94c-12-13-26.35-21.68-44.07-24.29l9.75-32.83c12.55,7.64,25,15.51,37.68,22.89,29.43,17.07,59,33.87,88.51,50.83,31.92,18.37,63.74,36.88,95.71,55.16,14.9,8.52,30,16.64,45.07,24.94l5.55,36.37L488.4,809l-22.47-14.83c-9.42-6.56-18.59-13.51-28.39-19.43-2.8-1.7-7.41-.43-11.19-.52l-4.93-4.83C416.24,759,397,749.41,387.1,752.3ZM229,638.24c-.18,1.48-.36,3-.55,4.45q19.15,11,38.3,22.08Q367.32,723,468,781.17c4,2.31,9.41,2.25,14.16,3.29l1.35-4.6c-12.28-7.14-24.55-14.32-36.85-21.44Q344.44,699.28,242.06,640.33C238.47,638.27,233.35,638.87,229,638.24Z" transform="translate(-49.47 -121)"/><path class="cls-2" d="M618.75,843.67h2.52c-1.7,2.54-2.81,6.07-5.18,7.47q-42.26,24.87-84.92,49c-3.2,1.8-8.64,3.25-11.34,1.76-26.36-14.52-52.36-29.69-81.21-46.26l42.06-24.52,6.64-2.58,28.08-4.32,7.25-.33c12.14,8.08,25,15.28,36.27,24.41C580.82,866,600,860.63,618.75,843.67Z" transform="translate(-49.47 -121)"/><path class="cls-14" d="M167.68,683.45c37.45,22,74.82,44.08,112.36,65.9,39.71,23.08,79.59,45.87,119.36,68.84,3.11,1.8,6,4,9,6-.27,1.24-.54,2.48-.82,3.72-4.63-.8-10-.39-13.8-2.58C344.24,797.1,294.94,768.49,245.57,740c-28.76-16.61-57.56-33.14-86.23-49.91-2.49-1.46-4.09-4.44-6.11-6.71l12.11,0,2.46.14Z" transform="translate(-49.47 -121)"/><path class="cls-22" d="M221.94,616.16,212.19,649q-1.08,3.48-2.18,7-1.42,6.21-2.84,12.42l-7.57,1.18q-.18-14.06-.37-28.1c.75-6.43.84-13,2.4-19.26,2.51-10-.34-15.62-10.87-16.7l-25.19-12.82c-8.24-6.37-12.45-14.35-9.91-25l26.87-4.57c7.61,7.12,15.47,14,22.76,21.42,6.73,6.85,12.85,14.29,19.24,21.47Q223.24,611.09,221.94,616.16Z" transform="translate(-49.47 -121)"/><path class="cls-14" d="M135.15,692.52c4.67,1,10,.82,13.9,3.07q81.73,46.77,163.14,94.12,9,5.2,17.94,10.44c-.22,1.45-.43,2.89-.65,4.34-4.33-.57-9.38.11-12.89-1.89-48.1-27.47-96-55.31-143.94-83.05q-19.46-11.26-38.93-22.48Z" transform="translate(-49.47 -121)"/><path class="cls-14" d="M213.36,688.8,396.17,794.67c-.47,1.43-.93,2.87-1.39,4.31-5.12-1.22-10.87-1.35-15.26-3.85-46.35-26.35-92.49-53.07-138.67-79.71-12.44-7.18-24.95-14.22-37.12-21.82-2-1.23-2.29-5.09-3.38-7.73Z" transform="translate(-49.47 -121)"/><path class="cls-7" d="M776.05,756.82c10.55-6.62,21.16-13.13,31.61-19.91,5.42-3.52,10.53-7.52,15.78-11.3l29.72,17.77-52,28.84Z" transform="translate(-49.47 -121)"/><path class="cls-10" d="M165.34,683.41l-12.11,0c-14.7,4.47-29.38,9-44.1,13.39a24.93,24.93,0,0,1-13.26.86c1.82-2.63,3-6.34,5.54-7.73,17-9.37,33.68-19.92,51.72-26.75,13.34-5.06,28.05-2.2,40.19,7.23-.4,2-.79,4-1.18,5.92-2.46-1.28-4.79-3.08-7.4-3.72-3.44-.83-7.1-.75-10.67-1.06q1.74,4.47,3.47,9l-9.86,3,.12.1Z" transform="translate(-49.47 -121)"/><path class="cls-14" d="M260.31,679.22c4.14,0,9.16-1.59,12.29.18,36.19,20.46,72.12,41.39,108,62.36,1.79,1,2.65,3.67,3.95,5.56-4.56-.19-10,1.18-13.53-.81-35.3-19.81-70.32-40.12-105.3-60.51C263.4,684.64,262.1,681.52,260.31,679.22Z" transform="translate(-49.47 -121)"/><path class="cls-14" d="M515.4,824.26l-28.07,4.32c0-1.59.31-4.42-.21-4.6-7.2-2.38-5-7.37-3.69-12.17l.14-.17,2.49-2a10.48,10.48,0,0,0,2.33-.65l6.07-2.64,9.36-4.8,16.63-12.18c.81,0,1.61-.08,2.42-.14l14.57,9-30.81,18.85Z" transform="translate(-49.47 -121)"/><path class="cls-16" d="M190.76,605.49c10.53,1.08,13.38,6.73,10.87,16.7-1.56,6.23-1.65,12.83-2.4,19.26q-14.56-10.4-29.14-20.77Z" transform="translate(-49.47 -121)"/><path class="cls-14" d="M389.16,838.06c-3.12.4-7,2.2-9.23,1-15.32-8.31-30.3-17.25-45.39-26l.45-3.67c3.66,0,8-1.3,10.88.22,14.73,7.83,29.07,16.38,43.56,24.68Z" transform="translate(-49.47 -121)"/><path class="cls-14" d="M210,656q1.1-3.48,2.18-7c17.72,2.61,32.11,11.25,44.07,24.29-4.93-.42-10.36.37-14.67-1.48C230.79,667.15,220.51,661.31,210,656Z" transform="translate(-49.47 -121)"/><path class="cls-14" d="M426.35,774.21c3.78.09,8.39-1.18,11.19.52,9.8,5.92,19,12.87,28.39,19.43-3.82.19-8.26,1.73-11.32.3-9.21-4.29-17.95-9.61-26.66-14.9C426.77,778.84,426.86,776,426.35,774.21Z" transform="translate(-49.47 -121)"/><path class="cls-17" d="M192.14,676.29c.39-2,.78-3.95,1.18-5.92,2.08-.28,4.14-.56,6.25-.83q3.83-.57,7.6-1.17L222.89,670l-6,9.41-23.61.63Z" transform="translate(-49.47 -121)"/><path class="cls-14" d="M387.1,752.3c9.92-2.89,29.14,6.68,34.32,17.08C411.48,771.9,394.09,763.25,387.1,752.3Z" transform="translate(-49.47 -121)"/><path class="cls-14" d="M427.48,814c-12.91,8.31-18.94-4.42-27.72-8.74C412.31,798.07,418.56,810.15,427.48,814Z" transform="translate(-49.47 -121)"/><path class="cls-7" d="M192.14,676.29l1.17,3.74c-.28,1.19-.55,2.38-.82,3.57l-15-3.14q-1.74-4.49-3.47-9c3.57.31,7.23.23,10.67,1.06C187.35,673.21,189.68,675,192.14,676.29Z" transform="translate(-49.47 -121)"/><path class="cls-10" d="M192.49,683.6c.27-1.19.54-2.38.82-3.57l23.61-.64c-1.19,3.14-2.36,6.27-3.55,9.41l-13-2.93Z" transform="translate(-49.47 -121)"/><path class="cls-16" d="M483.43,811.81c-1.31,4.8-3.51,9.79,3.69,12.17.52.18.17,3,.21,4.6l-6.65,2.58C477.1,824.07,471.46,816.69,483.43,811.81Z" transform="translate(-49.47 -121)"/><path class="cls-16" d="M486.06,809.64l-2.49,2Z" transform="translate(-49.47 -121)"/><path class="cls-14" d="M441.14,486.29c17.25,9.3,34.64,18.36,51.72,28,24.67,13.88,49.13,28.14,73.66,42.28,4.89,2.82,9.69,5.82,14.53,8.73l-1.59,4c-3.84-1.25-8-1.88-11.47-3.84-39.19-22.36-78.25-45-117.43-67.38-3.4-1.94-7.43-2.8-11.17-4.16C440,491.34,440.56,488.82,441.14,486.29Z" transform="translate(-49.47 -121)"/><path class="cls-14" d="M439.56,500.84Q494,531.76,548.48,562.67c6,3.4,11.85,7,17.77,10.46-.46,1.29-.93,2.57-1.39,3.85-3.81-1.21-8-1.81-11.37-3.74-35.6-20.27-71.07-40.76-106.61-61.13-2.44-1.4-5.13-2.35-7.71-3.51Z" transform="translate(-49.47 -121)"/><path class="cls-14" d="M440.8,469.59c22.88,12.56,45.86,25,68.62,37.75,18.45,10.37,36.64,21.21,54.94,31.84L563,543.23c-4.2-1.41-8.78-2.18-12.56-4.34-36.65-20.89-73.16-42-109.72-63.09Q440.78,472.7,440.8,469.59Z" transform="translate(-49.47 -121)"/><path class="cls-2" d="M439.85,518l73.22,41.52-12.51,3.15c-11.08-7.19-22.08-14.54-33.36-21.41-1.47-.89-4.86,0-6.58,1.15-6,4.12-11.62,8.73-17.39,13.16l-3.62-.75-15.85-11.24,4.68-1.09c9.58,2.16,18.32,1.65,25.11-8l-14.61-3.73Q439.39,524.37,439.85,518Z" transform="translate(-49.47 -121)"/><path class="cls-15" d="M423.76,543.58l15.85,11.24L434,560.11l-9.78,2.56c-1.05,7.11-1.85,12.48-2.64,17.84-4.7-7.25-12.75-5.6-19.52-7.36L410.4,538Z" transform="translate(-49.47 -121)"/><path class="cls-8" d="M423.76,543.58,410.4,538q3.66-20.7,7.31-41.41l2.05-.18Q425,515.18,430.15,534q-.87,4.26-1.71,8.54Z" transform="translate(-49.47 -121)"/><path class="cls-22" d="M428.44,542.49q.84-4.28,1.71-8.54,3.42-.44,6.82-.9c.68-.81,1.36-1.63,2-2.44l-.08.13,14.61,3.73C446.76,544.14,438,544.65,428.44,542.49Z" transform="translate(-49.47 -121)"/><path class="cls-4" d="M392.62,471.53,369.2,459q3.76-5,7.54-10.06c3.41,4.09,7,8,10.15,12.35C389.16,464.47,390.74,468.11,392.62,471.53Z" transform="translate(-49.47 -121)"/><path class="cls-4" d="M421.92,449.43l6.95,5.43Z" transform="translate(-49.47 -121)"/><path class="cls-2" d="M439,530.61c-.69.81-1.37,1.63-2,2.44Z" transform="translate(-49.47 -121)"/><path class="cls-4" d="M428.6,454.57l2.73,2.59Z" transform="translate(-49.47 -121)"/><path class="cls-5" d="M544.66,652.29l-15.48-6.8c-4.32,8.65-5.91,16.1,2.28,24,2.7,2.62,1.35,9.44,1.85,14.33-1.6-.85-3.25-2.49-4.81-2.41-9.28.44-18.55,1.28-27.82,2q-6.15-4.3-12.28-8.63-.94-14.37-1.88-28.74c1.69-2.66,3.39-5.32,5-7.91-10.95-9.56-11.12-17.87-1.25-32.6l12,1.47,7.07,3.27c1.65,5.32,3,11,10.76,7,3.76,6.53,7.11,13.34,11.39,19.5C535.37,642.33,540.24,647.15,544.66,652.29Z" transform="translate(-49.47 -121)"/><path class="cls-17" d="M500.68,683.38c9.27-.7,18.54-1.54,27.82-2,1.56-.08,3.21,1.56,4.81,2.41q1.1,22.14,2.17,44.27c.12,1.49.25,3,.37,4.48,2,3.94,3.23,8.63,6.16,11.7,11.47,12,23.47,23.53,35.28,35.23l-7.22,5.07c-13.29-8.6-26.85-16.81-39.72-26a43.09,43.09,0,0,1-12-14.07c-4.22-7.65-7-16.1-10.39-24.2Z" transform="translate(-49.47 -121)"/><path class="cls-11" d="M544.66,652.29c-4.42-5.14-9.29-10-13.13-15.5-4.28-6.16-7.63-13-11.39-19.5L523.7,612l23.78,17.23,4.55,2.9-.19.1c3,9.14,14,16.15,7.38,27.83q-2,5.57-4,11.12-3.3,9.62-6.6,19.23l-8.39-3Z" transform="translate(-49.47 -121)"/><path class="cls-10" d="M570.07,784.57l7.22-5.08c7.33,3.27,10.15,14.63,4.42,19.54-2.89,2.47-7,3.54-10.53,5.24l-4.07-.28.16.09-5.08-2.56.16.08-24.83-17Z" transform="translate(-49.47 -121)"/><path class="cls-13" d="M535.85,732.56c-.12-1.5-.25-3-.37-4.48,3.85-.12,8.46-1.69,11.41-.12C562,736,576.75,744.9,591.61,753.49c-.16,1.32-.31,2.65-.47,4-4.16-.26-9,.76-12.35-1C564.25,749,550.12,740.6,535.85,732.56Z" transform="translate(-49.47 -121)"/><path class="cls-13" d="M625.69,772.68c-14.08,10.07-19.5-2.64-27.47-5.76C608.75,757.91,614.68,770.23,625.69,772.68Z" transform="translate(-49.47 -121)"/><path class="cls-12" d="M540.25,687.42l8.39,3c2.05,7.77-.75,12.39-12.21,14.75C537.94,698.16,539.1,692.79,540.25,687.42Z" transform="translate(-49.47 -121)"/><path class="cls-15" d="M567.11,804l4.07.28c.25.78.52,1.57.78,2.36Z" transform="translate(-49.47 -121)"/><path class="cls-15" d="M537.53,784.63l24.82,17-15-.12-24.74,22.45-7.25.33-8.77-7.21,30.81-18.85-14.57-9q2.46-4.08,4.94-8.15Z" transform="translate(-49.47 -121)"/><path class="cls-15" d="M562.19,801.52l5.08,2.56Z" transform="translate(-49.47 -121)"/><path class="cls-8" d="M764.18,419.92c12,5.76,24.29,10.9,35.83,17.41,44.65,25.18,89.09,50.76,133.5,76.37,2.88,1.66,6.11,4.52,6.86,7.42.43,1.71-3.28,5.35-5.87,6.83-29,16.64-58.27,33-87.4,49.51-14.83,8.41-29.74,16.68-44.23,25.64-5.67,3.5-9.65,3.6-15.42-.06-7.16-4.54-15.45-7.3-23.25-10.83-10.33-6.12-19-13.49-20.08-26.62,0-.22-.67-.39-1-.58l-.52-15.66c6,2.54,11.8,5.78,18,7.39,4.62,1.2,10.76,2.08,14.56,0,21.6-11.64,42.75-24.12,63.94-36.51,8.12-4.76,15.93-10.05,26.23-16.58L758.87,441.79Z" transform="translate(-49.47 -121)"/><path class="cls-6" d="M742.58,549.35q.25,7.83.52,15.66c0,9.28.76,18.65-.35,27.8-.44,3.56-5.07,6.62-7.79,9.9l-21.43-4.29c-7,7.11-16.2,6.39-23-1.38l4.36-17.41q-2.31-17.08-4.64-34.15.1-16,.22-32l6.27-31.31c.65-2.22,1.31-4.43,2-6.65,15.35,6.17,29.39,2.85,42.69-5.84.21,4.5.53,9,.59,13.51Q742.31,516.24,742.58,549.35ZM722,509.1l-3.57-.3c-10.72,16.53-12.41,53.38-3.37,79.49.63,1.83,3.34,2.94,6.94,5.92Z" transform="translate(-49.47 -121)"/><path class="cls-14" d="M742,609.57l8.46,5.7c-26.69,15.41-52,30.14-77.47,44.54a9.56,9.56,0,0,1-7.95-.12c-19.51-10.92-38.81-22.19-60.44-34.66,20.32-11.81,38.47-22.65,56.92-32.94,8.42-4.7,17.44-8.34,26.19-12.46-1.59,2.15-2.94,4.53-4.81,6.4-3.77,3.75-7.81,7.21-11.74,10.8,4.85,3.33,9.35,7.44,14.65,9.75,4.7,2,10.25,2.73,15.46,2.88,12.65.37,25.32.08,38,0Z" transform="translate(-49.47 -121)"/><path class="cls-6" d="M523.7,612l-3.56,5.29c-7.71,3.94-9.11-1.73-10.76-7,2.73-8.7,5.46-17.38,7-22.14l-22.65-15.73,6.88-9.7,12.51-3.15L527,568.27q.5,7,1,14.07l-2.46,22C524.91,606.92,524.31,609.46,523.7,612Z" transform="translate(-49.47 -121)"/><path class="cls-12" d="M764.18,419.92q-2.65,10.93-5.3,21.88-8.49,12.38-17,24.77c-.68-4.9-2.28-9.87-1.87-14.68,1-12.09,2.21-24.28,4.84-36.09,1.14-5.08,6-9.32,9.19-13.95l4.83,4.82,3,8.26c.8,1.66,1.59,3.33,2.38,5Z" transform="translate(-49.47 -121)"/><path class="cls-14" d="M436.32,434.11l24.46,12.48,90.44,52.11c-.12.94-.24,1.88-.35,2.83-2.63.15-5.87,1.38-7.79.28q-53.49-30.39-106.57-61.47C435.56,439.78,436.34,436.25,436.32,434.11Z" transform="translate(-49.47 -121)"/><path class="cls-7" d="M739.3,609.51c-12.67,0-25.34.32-38,0-5.21-.15-10.76-.83-15.46-2.88-5.3-2.31-9.8-6.42-14.65-9.75,3.93-3.59,8-7.05,11.74-10.8,1.87-1.87,3.22-4.25,4.81-6.4h7.09L690.48,597c6.85,7.77,16,8.49,23,1.38L735,602.71C736.41,605,737.85,607.25,739.3,609.51Z" transform="translate(-49.47 -121)"/><path class="cls-14" d="M502.34,490.9c24.92,7.86,45.79,23.57,69.84,36.15C562.9,530.48,515.69,506.15,502.34,490.9Z" transform="translate(-49.47 -121)"/><path class="cls-14" d="M554.93,505.55c24.73,7.87,46,22.28,67.1,37.2C597.17,535.24,576.22,520.05,554.93,505.55Z" transform="translate(-49.47 -121)"/><path class="cls-10" d="M739.3,609.51c-1.45-2.26-2.89-4.53-4.34-6.8,2.72-3.28,7.35-6.34,7.79-9.9,1.11-9.15.35-18.52.35-27.8.35.19,1,.36,1,.58,1.06,13.13,9.75,20.5,20.08,26.62L742,609.57Z" transform="translate(-49.47 -121)"/><path class="cls-14" d="M577.79,531q15.51,8.6,31,17.21l-1.86,4c-12.33-1.23-21.3-9.91-31.68-15.48C576.1,534.82,577,532.92,577.79,531Z" transform="translate(-49.47 -121)"/><path class="cls-14" d="M528,582.34q-.48-7-1-14.07l25.21,12.27c-.52,1.46-1.05,2.92-1.57,4.39-4-1.16-7.89-2.8-11.94-3.31C535.21,581.19,531.56,582.05,528,582.34Z" transform="translate(-49.47 -121)"/><path class="cls-14" d="M572,544.21l24,12.55c-9.14,4.61-14.08,2.78-25.72-8.49C570.83,546.92,571.39,545.56,572,544.21Z" transform="translate(-49.47 -121)"/><path class="cls-8" d="M764.25,419.92c-.79-1.66-1.58-3.33-2.38-5Z" transform="translate(-49.47 -121)"/><path class="cls-15" d="M559.22,660.06c6.61-11.68-4.42-18.69-7.38-27.83l35.3,22.09Z" transform="translate(-49.47 -121)"/><path class="cls-17" d="M754.07,401.85c-3.17,4.63-8.05,8.87-9.19,13.95-2.63,11.81-3.82,24-4.84,36.09-.41,4.81,1.19,9.78,1.87,14.68l-.57,3.07c-13.3,8.69-27.34,12-42.69,5.86l2.33-1.35c-1.07-12.4-4.47-24.08-2.36-34.67C701,427.67,697.1,423,687.32,420c6.31-14,13.59-26.41,32.15-25.58,1.78.08,3.87-6.85,5.82-10.53l6.78-3.15,13.08,6.48Z" transform="translate(-49.47 -121)"/><path class="cls-18" d="M865.31,451.9l17,2.87,5.08,4.63c3.92,1.93,7.73,4.13,11.77,5.74,12.39,4.94,14.59,3.67,18-9.73l36.31,18.24c-15.41,16.66-22.8,18.14-40.38,7.73C897,471.85,881.21,461.75,865.31,451.9Z" transform="translate(-49.47 -121)"/><path class="cls-10" d="M917.14,455.41c-3.37,13.4-5.57,14.67-18,9.73-4-1.61-7.85-3.81-11.77-5.74,5.53-4.09,18.19,3.41,17.51-10.76Z" transform="translate(-49.47 -121)"/><path class="cls-2" d="M904.92,448.64c.68,14.17-12,6.67-17.51,10.76l-5.08-4.63,12.69-13Z" transform="translate(-49.47 -121)"/><path class="cls-15" d="M552,632.13l-4.55-2.9Z" transform="translate(-49.47 -121)"/><path class="cls-14" d="M209.66,538.13c10.07-5.34,20.31-10.41,30.19-16.1,12.44-7.17,24.41-7.93,37.06-.27,14.71,8.91,29.89,17,44.76,25.65,15.15,8.81,15.52,19.87.88,28.82-10.48,6.41-21.19,12.43-31.88,18.48s-21.9,6.73-32.81.64c-16.8-9.38-33.62-18.78-50-28.85-11.83-7.27-11-16.2,1.88-28.45Z" transform="translate(-49.47 -121)"/><path class="cls-2" d="M377.09,577.9l20,11.88c9.2,5.39,18.51,10.6,27.56,16.22,11.39,7.07,11.76,18.08.4,25.38-12.06,7.75-24.09,16.23-37.34,21.2-8.23,3.09-20,3.06-27.91-.5-18.24-8.17-35.26-19.14-52.51-29.43-9.48-5.66-9.82-18.45-.43-24.38,12.47-7.87,25.49-14.89,38.41-22C356.09,570.3,366.69,573.06,377.09,577.9Z" transform="translate(-49.47 -121)"/><path class="cls-14" d="M486.52,646q.94,14.37,1.88,28.75L485,715.27c-11.12-3.17-22.86-5-33.24-9.84-14-6.5-27.21-15-40.4-23.15-11.91-7.41-12.67-17.75-1.36-25.23,12.58-8.31,25.55-16.57,39.42-22.22,7.58-3.08,17.38-.71,26.18-.8q-9.8,21.32-19.57,42.62c-1.19,1.08-3,1.94-3.44,3.28A55.49,55.49,0,0,0,449.78,691c-.06.42,4,2.43,4.81,1.85a42.81,42.81,0,0,0,8.3-7.73c.86-1,.44-3.11.6-4.72Q475,663.21,486.52,646Z" transform="translate(-49.47 -121)"/><path class="cls-7" d="M221.94,616.16q1.31-5.08,2.59-10.16,79.83,45.72,159.66,91.41,51.66,29.51,103.44,58.76.63,6.9,1.28,13.81c-15-8.3-30.17-16.42-45.07-24.94-32-18.28-63.79-36.79-95.71-55.16-29.49-17-59.08-33.76-88.51-50.83C246.91,631.67,234.49,623.8,221.94,616.16Z" transform="translate(-49.47 -121)"/><path class="cls-9" d="M488.91,770q-.65-6.91-1.28-13.81L485,715.28q1.68-20.26,3.38-40.52l12.28,8.62,7.26,36.91c-5.85,15.55-4.13,31.43-2,47.32q-.18,6-.37,12l-1.74,22-9.36,4.8Z" transform="translate(-49.47 -121)"/><path class="cls-11" d="M486.52,646l-23,34.38L456,676.65q9.78-21.31,19.57-42.62c.34-1.33.69-2.66,1-4l14.1-28.48,4.78.78,6.79,4.64-12-1.47c-9.87,14.73-9.7,23,1.25,32.6C489.91,640.69,488.21,643.35,486.52,646Z" transform="translate(-49.47 -121)"/><path class="cls-13" d="M421.55,580.51c.79-5.36,1.59-10.73,2.64-17.84l9.78-2.56c5.54,4,10.95,8.11,16.64,11.86,11.64,7.67,23.44,15.13,35.17,22.68-13.4,9.82-27,9.86-40.78.82C437.25,590.39,429.37,585.49,421.55,580.51Z" transform="translate(-49.47 -121)"/><path class="cls-7" d="M485.78,594.65c-11.73-7.55-23.53-15-35.17-22.68-5.69-3.75-11.1-7.89-16.64-11.86l5.64-5.29,3.62.75L491,583.06q2.26,9.63,4.52,19.28l-4.78-.79Z" transform="translate(-49.47 -121)"/><path class="cls-6" d="M732.07,380.7l-6.78,3.15c-7.09,1.92-14.13,4.69-15.4-7.22-.24-2.32-6.12-4-9.4-6,.25-.71.5-1.42.74-2.13q-.91-6.59-1.85-13.15a8.06,8.06,0,0,1,.74-2.08c6.15,1.83,12.2,4.5,18.47,5.2,4.4.5,9.1-1.68,13.67-2.66Q732.17,368.23,732.07,380.7Z" transform="translate(-49.47 -121)"/><path class="cls-3" d="M732.26,355.78c-4.57,1-9.27,3.16-13.67,2.66-6.27-.7-12.32-3.37-18.47-5.2l.54-4.78,4.69-3.56L729.24,349Z" transform="translate(-49.47 -121)"/><path class="cls-19" d="M843.71,407.33l-7.62-2.4c-4.54-14.25-17.45-25.76-14.29-44.86l38.45,22.47c-7.26,4.13-18.91,5.62-11.07,18.89C849.57,402.1,845.63,405.3,843.71,407.33Z" transform="translate(-49.47 -121)"/><path class="cls-18" d="M552.37,407.19c-2.26,8.61-7.31,3.11-10,1.19-7.72-5.57-14.81-12-22.14-18.14-11.08-12.05-23.26-22.51-39.46-27.12l.09.07-5-2.53.08.06c4.73-8.84,11.2-4.77,17.45-2.34,11.54,4.48,23.8,10.12,35.66,5.93,6.38-2.25,9.85-1.17,13.49,2,5,4.34,8.24,11.73,13.83,14.2,10.34,4.58,21.83,6.54,32.84,9.58l7.58,10.53c.44,3.16.88,6.32,1.47,10.64L591.67,410c-6.52-3.28-13-6.67-19.57-9.8-5.62-2.68-15.94-1.1-17.27,2.42ZM552,390.62l1.57.86-1-1.41c-.94-.58-1.87-1.2-2.85-1.71-.09-.05-.51.53-.78.82C549.93,389.66,551,390.15,552,390.62Zm6.79,3.44-.57-.4-.11.57Zm-25.43-.2.62.39.09-.58Zm-3.84-2.35-.6-.36-.07.59Z" transform="translate(-49.47 -121)"/><path class="cls-18" d="M696.69,482.13l-6.27,31.31c-8.34-4-16.84-7.69-24.95-12.09-11.31-6.13-22.34-12.8-37-21.28l50.25-25.92c2.64,3.57,5.51,7,7.88,10.74C690.14,470.52,693.34,476.37,696.69,482.13Z" transform="translate(-49.47 -121)"/><path class="cls-14" d="M589.21,390.07c-11-3-22.5-5-32.84-9.58-5.59-2.47-8.82-9.86-13.83-14.2-3.64-3.15-7.11-4.23-13.49-2-11.86,4.19-24.12-1.45-35.66-5.93-6.25-2.43-12.72-6.5-17.45,2.34l-2.59.4-7.26-3.2L461,353.67c-.43-2-1.61-5.54-1.18-5.74,4.3-2.05,11-6.31,13-4.76,11.53,9.17,23.72-1,35.21,2.41,3,.9,6.8-.61,10.24-1l-4.53-6.07c17.28,10,34.74,19.69,51.76,30.11,7.13,4.37,13.23,5.58,19.65-.49l11.48,3.64c-1.69,2.14-3.39,4.28-5.08,6.43-4.33,2.31-7.79,4.82-2.27,9.49Q589.31,388.87,589.21,390.07Z" transform="translate(-49.47 -121)"/><path class="cls-15" d="M596.65,371.75l-11.48-3.64-79.41-47.3c9.09-8.95,17-10.62,28.14-3.56,21,13.34,43.16,25,64.83,37.34Q597.69,363.17,596.65,371.75Z" transform="translate(-49.47 -121)"/><path class="cls-15" d="M520.59,410.64c-9.65,10.06-17.91,11.08-28.24,3.88-11.59-8.08-24.3-14.53-36.73-21.81,9.33-10.39,17.84-10.86,28.44-3.46C495.36,397.16,507.89,403.31,520.59,410.64Z" transform="translate(-49.47 -121)"/><path class="cls-12" d="M696.69,482.13c-3.35-5.76-6.55-11.61-10.11-17.24-2.37-3.75-5.24-7.17-7.88-10.74q4.32-17.1,8.62-34.2c9.78,3.05,13.64,7.72,11.3,19.53-2.11,10.59,1.29,22.27,2.36,34.67l-2.33,1.35C698,477.7,697.34,479.91,696.69,482.13Z" transform="translate(-49.47 -121)"/><path class="cls-2" d="M589.21,390.07q.1-1.2.09-2.4L608.78,380l16.41,8.54c.46,1,.91,2,1.37,3-9.11,5.68-17.08,15.14-29.77,9Z" transform="translate(-49.47 -121)"/><path class="cls-4" d="M638.61,346c-.13-3.07-.27-6.15-.39-9.21,17.09,9.79,34.08,19.74,51.34,29.2,3.35,1.83,7.76,1.72,11.67,2.51-.24.71-.49,1.42-.74,2.13,0,2,0,4,0,8.24Z" transform="translate(-49.47 -121)"/><path class="cls-14" d="M554.83,402.61c1.33-3.52,11.65-5.1,17.27-2.42,6.59,3.13,13,6.52,19.57,9.8-10.08,13.69-11.43,13.72-30.1.69.28-.34.58-.67.88-1l2.86-.86-3.18-1.37.12.09-7.51-5Z" transform="translate(-49.47 -121)"/><path class="cls-14" d="M480.8,363.12c16.2,4.61,28.38,15.07,39.46,27.12q-18.31-8.69-36.62-17.42a14.73,14.73,0,0,1-2.75-2.3Z" transform="translate(-49.47 -121)"/><path class="cls-6" d="M626.56,391.62c-.46-1-.91-2-1.37-3l6.23-5.8c10.48.5,8.51-7.91,10-13.88l11.14,14Z" transform="translate(-49.47 -121)"/><path class="cls-18" d="M480.8,363.12l.09,7.4c-7.18.61-7.68-4.14-7.54-9.4l2.59-.4-.08-.06,5,2.53Z" transform="translate(-49.47 -121)"/><path class="cls-18" d="M461,353.67l5.06,4.25c-.74,1.25-1.49,2.5-2.24,3.75Z" transform="translate(-49.47 -121)"/><path class="cls-14" d="M552.37,407.19l2.46-4.58-.09-.07,2.6,4.85-.31.4Z" transform="translate(-49.47 -121)"/><path class="cls-14" d="M561.57,410.68l-4.54-2.9.31-.38,4.91.15-.12-.09c.1.74.21,1.49.32,2.23C562.15,410,561.85,410.34,561.57,410.68Z" transform="translate(-49.47 -121)"/><path class="cls-7" d="M701.23,368.47c-3.91-.79-8.32-.68-11.67-2.51-17.26-9.46-34.25-19.41-51.34-29.2-.81-5.09-1.61-10.16-2.42-15.24,17.45,9.88,34.85,19.86,52.39,29.58,3.45,1.91,7.45,2.84,11.19,4.22Q700.31,361.89,701.23,368.47Z" transform="translate(-49.47 -121)"/><path class="cls-8" d="M610.93,362.43q1.53-16.33,3.07-32.68l3.62-.2c4.48,9.86,9.49,19.54,13.15,29.7,1.23,3.4-1,8-1.62,12.11Z" transform="translate(-49.47 -121)"/><path class="cls-3" d="M610.93,362.43l18.22,8.93q1.14,5.72,2.27,11.42l-6.23,5.8L608.78,380q0-6.09.1-12.18Z" transform="translate(-49.47 -121)"/><path class="cls-6" d="M608.88,367.86q0,6.09-.1,12.18l-19.48,7.63c-5.52-4.67-2.06-7.18,2.27-9.49C602.79,383.88,602.71,370.63,608.88,367.86Z" transform="translate(-49.47 -121)"/><path class="cls-2" d="M705.35,344.9l-4.69,3.56-56.72-32.24C653,311.82,691.36,330.7,705.35,344.9Z" transform="translate(-49.47 -121)"/><path class="cls-7" d="M229,638.24c4.4.63,9.52,0,13.11,2.09Q344.54,699.09,446.7,758.42c12.3,7.12,24.57,14.3,36.85,21.44l-1.35,4.6c-4.75-1-10.14-1-14.16-3.29Q367.23,723.24,266.7,664.77q-19.12-11.07-38.3-22.08C228.59,641.2,228.77,639.72,229,638.24Z" transform="translate(-49.47 -121)"/><path class="cls-4" d="M165.34,683.41l2.46.14Z" transform="translate(-49.47 -121)"/><path class="cls-7" d="M505.56,779.57q.19-6,.37-12l21.88,13.48q-2.47,4.06-4.94,8.15c-.81.06-1.61.11-2.42.14Z" transform="translate(-49.47 -121)"/><path class="cls-16" d="M505.56,779.57l14.89,9.8-16.63,12.18Z" transform="translate(-49.47 -121)"/><path class="cls-4" d="M491,583.06l-47.77-27.49c5.77-4.43,11.41-9,17.39-13.16,1.72-1.18,5.11-2,6.58-1.15,11.28,6.87,22.28,14.22,33.36,21.41l-6.89,9.7Z" transform="translate(-49.47 -121)"/><path class="cls-12" d="M491,583.06l2.67-10.69,22.66,15.73c-1.49,4.76-4.22,13.44-7,22.14L502.31,607l-6.79-4.64Q493.27,592.7,491,583.06Z" transform="translate(-49.47 -121)"/><path class="cls-4" d="M527.81,781.08,505.93,767.6c-2.12-15.88-3.84-31.76,2-47.31,3.4,8.1,6.17,16.55,10.39,24.2a43.09,43.09,0,0,0,12,14.07c12.87,9.19,26.43,17.4,39.72,26l-32.55.07Z" transform="translate(-49.47 -121)"/><path class="cls-18" d="M741.34,469.64l.57-3.07q8.49-12.39,17-24.77l106.47,61.87c-10.3,6.53-18.11,11.82-26.23,16.58-21.19,12.39-42.34,24.87-63.94,36.51-3.8,2.06-9.94,1.18-14.56,0-6.24-1.61-12-4.85-18-7.39q-.32-33.11-.65-66.2C741.87,478.64,741.55,474.14,741.34,469.64Z" transform="translate(-49.47 -121)"/><path class="cls-18" d="M722,509.1v85.11c-3.6-3-6.31-4.09-6.94-5.92-9-26.11-7.35-63,3.37-79.49Z" transform="translate(-49.47 -121)"/><path class="cls-12" d="M456,676.65l7.45,3.74c-.16,1.6.26,3.7-.6,4.71a42.81,42.81,0,0,1-8.3,7.73c-.86.58-4.87-1.43-4.81-1.85a55.49,55.49,0,0,1,2.82-11.05C453.09,678.59,454.85,677.73,456,676.65Z" transform="translate(-49.47 -121)"/><path class="cls-14" d="M480.89,363.19l-5-2.53Z" transform="translate(-49.47 -121)"/><path class="cls-14" d="M552,390.63l-3.09-1.45c.27-.29.69-.87.78-.82,1,.51,1.91,1.13,2.85,1.71Z" transform="translate(-49.47 -121)"/><polygon class="cls-14" points="509.32 273.06 508.64 273.23 508.75 272.66 509.32 273.06"/><polygon class="cls-14" points="483.89 272.86 484.6 272.67 484.51 273.25 483.89 272.86"/><path class="cls-14" d="M552.53,390.07l1,1.41-1.57-.85S552.53,390.07,552.53,390.07Z" transform="translate(-49.47 -121)"/><polygon class="cls-14" points="480.05 270.51 479.38 270.74 479.45 270.15 480.05 270.51"/><path class="cls-18" d="M562.25,407.55l-4.91-.15-2.6-4.86Z" transform="translate(-49.47 -121)"/><path class="cls-18" d="M562.45,409.69c-.11-.74-.22-1.49-.32-2.23l3.18,1.37Z" transform="translate(-49.47 -121)"/></svg>