<svg id="Layer_1" data-name="Layer 1" xmlns="http://www.w3.org/2000/svg" viewBox="0 0 951.59 780"><defs><style>.cls-1{fill:#fae4ce;}.cls-2{fill:#414143;}.cls-3{fill:#3d6b82;}.cls-4{fill:#282929;}.cls-5{fill:#cb3f0f;}.cls-6{fill:#213451;}.cls-7{fill:#a8350c;}.cls-8{fill:#f9d5aa;}.cls-9{fill:#dac1ae;}.cls-10{fill:#432012;}.cls-11{fill:#9a9ea2;}.cls-12{fill:#f96641;}.cls-13{fill:#f16cd3;}.cls-14{fill:#f09441;}.cls-15{fill:#c0c4ca;}.cls-16{fill:#99d1ee;}.cls-17{fill:#fce4cf;}.cls-18{fill:#2d2e2e;}.cls-19{fill:#fefefe;}.cls-20{fill:#52d5da;}.cls-21{fill:#497aa1;}.cls-22{fill:#689dd3;}.cls-23{fill:#fcbc2f;}.cls-24{fill:#111224;}.cls-25{fill:#b1b2b5;}.cls-26{fill:#a7a8ab;}.cls-27{fill:#75afe9;}.cls-28{fill:#598db7;}.cls-29{fill:#70cc70;}.cls-30{fill:#d40b0c;}</style></defs><path class="cls-1" d="M404.79,376.3c0-4-1.54-8.84,5.13-9,0,4.85,2.32,8,6.64,10.38,9,4.91,17.67,10.44,26.78,15.14a10.43,10.43,0,0,0,8.39-.1c10.79-5.72,21.28-12,31.84-18.12,1.66-1,3.13-2.29,5.74-4.23h-5.18c1.79-2.16,3.58-4.33,5.38-6.49-7.18,2.63-14.24,5.58-19.91,10.23-10.7,8.76-20,7.08-30.46-.51-6.33-4.6-14.12-7.19-21.25-10.68h0l-4.52-3.11q.75-6.63,1.49-13.26c11.28,6.28,22.7,12.3,33.74,19,4,2.41,6.8,2.93,11.08.43,9.57-5.58,19.66-10.26,29.38-15.59.9-.5.65-3.08.94-4.69,8.53-4.76,17.13-9.4,25.51-14.4,1.51-.91,2.13-3.31,3.16-5l1.84.1c7.73,5.82,22,6.26,29.18.46,1.84-1.48,2.62-4.29,3.88-6.49,1.49-5.8-.79-10.22-5.87-12.58-9.36-4.36-19-4.69-27.63,1.63-2.21,1.62-2.54,5.82-3.73,8.84q.72,3.15,1.43,6.3c-10.36,5.53-20.74,11-31,16.65-.51.28-.35,1.78-.5,2.71l-8.11-4.5-11.66-8.78c5.71-2.52,11.68-4.57,17.07-7.65,13.07-7.47,25.83-15.51,38.81-23.15,7.22-4.26,15-4.92,22.27-.66,11.06,6.48,21.77,13.55,32.62,20.37l-2.76,3.62c-2,1.39-3.79,3.55-6,4-8.86,1.89-7.7,11.66-13.19,16.08,1.83,1.91,3.86,5.6,5.45,5.42,7.61-.86,12.39-5.8,14.89-13L588.76,344l-3,1.17-4.29,4.55h-.08l-6.84,8.62,6.8,4.36c3.69,7.45,11.34,8.93,18,11.9,3,.23,6.34,1.42,8.9.47,4.49-1.66,8.36-4.92,12.73-7,7.84-3.69,11.63-9.27,9.62-18.06l5.21,2.62,1.47,0L670.73,372c.74-6.57,1.34-11.83,1.93-17.08,1.77,5.2,2.18,10.42,3.11,15.54.39,2.14,1.34,5,3,6,9.09,5.67,18.44,10.93,27.83,16.11.71.39,2.4-1,3.63-1.53,1.77,2.33,3.85,4.5,5.22,7,1.27,2.39,1.78,5.18,2.63,7.79a6.35,6.35,0,0,0-2.13.37c-38.13,22-76.3,43.89-114.32,66.06-10,5.8-19,5.55-28.84-.5-16.24-10-32.92-19.28-49.45-28.8q-48.25-27.79-96.58-55.45C419.6,383.43,412.11,380,404.79,376.3ZM652,396.82l18.11-7-.36-2.49c-5.84-3.42-11.51-7.19-17.61-10.07a11,11,0,0,0-8.38.05c-4.61,2.21-8.54,5.79-13,8.31-5.18,2.9-10.66,5.26-17.64,8.65,6.51,3.82,11.27,6.65,16.07,9.42,8.39,4.83,18,1.94,22.84-6.88Zm-111.91,0,5.42-6.52c-7.32-4.93-14.41-10.07-21.91-14.52-1.82-1.08-5.38-.71-7.44.35-10.08,5.24-20,10.83-29.76,16.64-.88.52-.83,4.94-.33,5.13,11.55,4.25,20.49,18.87,35.59,9.28.18-.11.48,0,.73,0l-7.72,6.56c4.77,3.12,9.37,5.62,13.39,8.86,7.69,6.2,14.66,5.82,22.64.07,7.75-5.58,16.4-9.92,24.66-14.81,0-.71,0-1.41,0-2.12C563.84,401.93,555.39,387.83,540.11,396.8Zm125.24,1.68c.91,1.43,1.59,2.49,2.58,4.06-9.81-4.74-14.06,3.68-22.36,6.74,7.2,4.28,12.59,7.55,18,10.71,4.51,2.62,17.75-1.26,19.8-5.92.36-.84-.76-2.32-1.26-3.71,9.17,4.16,13.3-4.07,20.18-6.65C686,388.76,680.77,388.05,665.35,398.48ZM581.68,412.8l-1.19-2.17-41.18,23.61,1.05,1.92Zm-60.09,12.48.66-1.41L485,402.6l-.88,1.61Q502.83,414.76,521.59,425.28ZM479,398.18l-1.4,1.72,4.55,2.82.62-1Z" transform="translate(-64.21 -150)"/><path class="cls-1" d="M1009.85,530.87c6.24,1,6.08,5.62,5.87,10.28-8.38,4.76-16.79,9.47-25.08,14.4-.46.27.11,2.26.21,3.45l9.95,7,4.67,3.05q.71,3.66,1.39,7.32h0c-18.83,10.8-37.72,21.5-56.47,32.44-19.84,11.56-39.54,23.34-59.29,35-8.38,5-16.94,5.8-25.56.82C852.23,637,839,629.1,825.71,621.41Q781.64,596,737.48,570.69c-14.16-8.08-28.49-15.84-42.75-23.75l-.6-5.66c.2-.54.4-1.08.59-1.61l3-2.82,1.72-.1c-.86,5.89,1.7,9.55,7,12.16,5.89,2.91,11.86,6,17,10,9,7,17,7.55,26.54.4,8.82-6.59,19-11.35,28.6-16.92L778.1,541l-5.29.27a9.19,9.19,0,0,1,1.62-2.27c7.73-5.62,9.43-12.49,5.26-21.66l9.11-4.59c-1.11,3-2.82,5.91-3.15,9-.28,2.66,1,5.48,1.73,8.19,0,.08,1.94-.36,3-.56l1.41,1.93,4.19,7.15L779,549.1l15.53,9.55-8.34,7.63c-5.37,2.17-7.7,7.91-3.69,10.62,7.22,4.88,15.26,8.55,23,12.72,2.67.81,6,3.06,7.88,2.17a112.09,112.09,0,0,0,18.09-10.92c7.28-5.35,7.78-10.28,3.22-18.08a7.36,7.36,0,0,1-.93-5c2.6-9.87,5.49-19.66,8.29-29.48l7.39,2.49,7.86,6.07,1-1.6-8.91-4.42-7.05-4.38c0-1.49.07-3,.11-4.46a20.27,20.27,0,0,1,4,1.56c9.52,6.2,18.84,13.21,30.9,5.79l0,0L869,536.61c6.92,4,13.24,8.15,20,11.43,2.51,1.23,6.56,1.65,8.9.46,10.6-5.39,20.87-11.45,31.17-17.43.81-.46.93-2.12,1.37-3.22h2.9l0,.07,2.07,1.24c9,5.05,18.07,10.15,27.17,15.12,1.56.85,4.05,2.14,5.09,1.52,9.7-5.79,19.18-11.95,28.72-18l7.31-1.38q.9,6.58,1.78,13.17C1012.69,539.62,1008.74,534,1009.85,530.87Zm-77.7,76.29c-8.17-4.75-14.36-8.61-20.83-11.93-1.52-.78-4.31-.34-6,.56-9,4.87-17.73,10.1-26.6,15.13a45.64,45.64,0,0,1-5.41,2.09c8.88,5.16,14.9,8.85,21.1,12.2,3.71,2,16.19-3.87,17.44-8.05.15-.49-.72-1.29-1.48-2.55C919.68,617.91,924.07,610.75,932.15,607.16Zm-33.59-12.9c-.11-1-.23-2-.34-3-6.29-3.63-12.49-7.45-19-10.76-1.54-.79-4.33-.48-5.95.41-9.35,5.13-18.54,10.56-27.75,16-.74.43-1.18,1.38-1.72,2,.5.66.71,1.18,1.09,1.4q6.93,4.1,13.91,8.11c6.24,3.59,17.53.53,21.1-5.7.41-.72.59-1.93,1.17-2.15C886.9,598.37,892.74,596.34,898.56,594.26Zm38.22-59L935.52,533l-40.95,23.6,1.06,1.91ZM874,546.2l.71-1.35-14.21-8.58-1.24,2.23Z" transform="translate(-64.21 -150)"/><path class="cls-2" d="M81.2,452.6c-1.85-10.32-4.68-20.59-5.23-31a75.7,75.7,0,0,1,3.29-25.07c2.45-8.24,9.51-12.21,18.29-11.75a10.08,10.08,0,0,1,6.33,2.53c9.72,10.35,21.69,11.91,34.4,8.31,5.54-1.56,9.54-1,14.06,2.2,3.32,2.35,7.4,3.64,10.2,5-3.46,3-8.59,5.53-10.48,9.58A25.84,25.84,0,0,0,150.59,428c1.69,7.48,5.38,14.51,8.22,21.73q5.9,12.54,11.8,25.09c-.56,4.36-.9,8.76-1.72,13.07C166,503.22,163,518.5,160,533.79l-48.43,10.29c-3.12-.51-6.44-.5-9.3-1.64-9.14-3.67-19.29-6.16-23.27-17l2.94-24Q81.57,477,81.2,452.6Z" transform="translate(-64.21 -150)"/><path class="cls-3" d="M616.71,268.69c-1.56-9.58-2.83-19.23-4.76-28.74-2.81-13.9,3-23,15.08-29a38.48,38.48,0,0,1,3.93,1.45c8.25,4.12,17.27.8,21.32-7.9,2.92-.18,5.84-.45,8.76-.51,14.79-.32,26,5.54,30.36,20.16C697.55,245,703.16,266,708,287.1c1.77,7.81.56,16.29.72,24.46a14.27,14.27,0,0,0-2.33,1.59c-18.2,18.2-46.45,22.93-69,11.5l-6.46-8.42c8.64-9.18,4.74-19.86,3.37-30.11-.81-6-3.31-11.24-10.46-12.08Z" transform="translate(-64.21 -150)"/><path class="cls-4" d="M79,525.48c4,10.8,14.13,13.29,23.27,17,2.86,1.14,6.18,1.13,9.3,1.64,0,8.08-.45,16.18,0,24.23.39,6.9,1.78,13.75,2.73,20.62a12,12,0,0,0-1.05,2.64c-2.92,21-5.7,42.07-8.72,63.08-1.83,12.74-4,25.42-6,38.14l-1.09,1.63c-1.35,5.68-2.45,11.43-4.12,17-1.74,5.8-3.37,11.71-11.29,12.42-8.17.74-12.06-3.48-14.28-10.43a6.82,6.82,0,0,1-.79.1c2.17-20.67,4.55-41.32,6.42-62,1.54-17,2.51-34.12,3.61-51.19.14-2.15-.47-4.35-.74-6.52,0-17.82-.3-35.64,0-53.45C76.28,535.38,78,530.43,79,525.48Z" transform="translate(-64.21 -150)"/><path class="cls-5" d="M990.86,399.46l15.18,8.82c-9.63,1.24-10.72,10-11.95,16.34-3.05,15.92-4.14,32.22-6.47,48.3a11.07,11.07,0,0,1-4.73,7.07c-11.57,6.69-24.69,10.3-36,17.58-3.31,2.13-6.31,4.76-9.45,7.17l-2.86-.33q-2.28-3.77-4.57-7.54l0-27.3c.59-8.46,1.24-16.92,1.77-25.38.82-13.06,1.17-26.16,7-38.33,1.12-2.32,1.18-5.14,1.73-7.73l-.09.12c.51-.57,1-1.13,1.55-1.69l-.17.17,1.6-1.71-.18.19,1.76-1.47-.1.07,4.49-1.23,3-.45,4.5.47,1.77.91.14-.15c-1.45,10.28-2.91,20.55-4.46,31.5l6.94-1.84v6.12c2.68-.45,5.73,0,6.79-1.3C975.93,418.57,983.33,409,990.86,399.46Z" transform="translate(-64.21 -150)"/><path class="cls-6" d="M637.39,324.65c22.5,11.43,50.75,6.7,69-11.5a14.27,14.27,0,0,1,2.33-1.59q.57,35.29,1.16,70.59c0,2.94.24,5.88.37,8.82-1.23.55-2.92,1.92-3.63,1.53-9.39-5.18-18.74-10.44-27.83-16.11-1.63-1-2.58-3.83-3-6-.93-5.12-1.34-10.34-3.11-15.54-.59,5.25-1.19,10.51-1.93,17.08l-33.49-19.33-.45-1.45-.12-23.6Z" transform="translate(-64.21 -150)"/><path class="cls-7" d="M937.45,504.74c3.14-2.41,6.14-5,9.45-7.17,11.3-7.28,24.42-10.89,36-17.58a11.07,11.07,0,0,0,4.73-7.07c2.33-16.08,3.42-32.38,6.47-48.3,1.23-6.39,2.32-15.1,11.95-16.34,8,6.9,6.9,16.22,6.72,25.3-.15.16-.42.34-.41.49a7.23,7.23,0,0,0,.29,1.2q-.35,3.54-.71,7.1l-.18,3.14.14,2.65-.3,4.77c-.45,2.86-.71,5.77-1.39,8.57-2.44,10-5,19.93-7.56,29.9l-1.25,1.13c-8,3.69-16.17,7.23-24.12,11.13-5.92,2.9-11.62,6.27-17.42,9.43L941.76,519Q939.62,511.88,937.45,504.74Z" transform="translate(-64.21 -150)"/><path class="cls-8" d="M170.61,474.83l-11.8-25.08,22-9.05c3.15,7.18,6.37,13.95,9.1,20.91,1.56,4,4.15,4.85,8,4.44,17.47-1.86,35-3.1,51.56-10,2.42-1,5.15-1.28,7.74-1.89,1.37.81,2.83,2.4,4.1,2.27,3.11-.32,6.13-1.44,9.18-2.24l6.63.69-3.51,2.9a3.55,3.55,0,0,0,.7.74c1.65.89,3.31,1.74,5,2.61a29.81,29.81,0,0,1-3,4.18c-1.86,1.81-4,3.36-6,5l-6.66.37-6.19,1a55,55,0,0,0-6.45,1.13c-15.85,4.73-31.56,10-47.53,14.23C184.16,492.2,181.71,491,170.61,474.83Z" transform="translate(-64.21 -150)"/><path class="cls-9" d="M718.46,409.71l-8.05,6.42-3.62,1.54-9.1,7.11,0,0-7.19,3.27-1.66,1.14-1.66.24-5,3.91-18.5,9.4L636.9,458.69l-24.8,14.38-14.73,9-18.71-.37-1.73-.93-19.1-10.43,0,0-23.6-13.28h.07l-7.44-4.43.05.07-1.54-1.54.07.05-3.05-1.48.08.05-3-1.57.05,0-4.45-3,0,.06q-2.94-2-5.86-4l-4.47-2v.1l-3-1.52,0,0-3-1.51,0,0L496,435l0,0-1.53-1.51.05,0-3-1.53.05,0-7.49-4.34L440.18,401.4,434,398.32l-5.81-3-2.83-1.54-4.68-2.8c-3.78-2.45-7.84-4.57-11.24-7.47-2.08-1.78-3.14-4.75-4.66-7.18,7.32,3.72,14.81,7.13,21.94,11.19q48.38,27.57,96.58,55.45c16.53,9.52,33.21,18.81,49.45,28.8,9.84,6.05,18.89,6.3,28.84.5,38-22.17,76.19-44.08,114.32-66.06a6.35,6.35,0,0,1,2.13-.37C718.19,407.11,718.32,408.41,718.46,409.71Z" transform="translate(-64.21 -150)"/><path class="cls-7" d="M940.58,398.13c-.55,2.59-.61,5.41-1.73,7.73-5.86,12.17-6.21,25.27-7,38.33-.53,8.46-1.18,16.92-1.77,25.38-3.35,1.31-6.6,3.16-10.07,3.86-18.11,3.66-36.27,7-54.41,10.49l-1.49.22-3-.42q-.68-8.06-1.36-16.11c11.81-2.84,23.49-7,35.46-8.18,15.35-1.47,22.93-8.24,27.18-23.27C926.17,422.84,934.35,410.76,940.58,398.13Z" transform="translate(-64.21 -150)"/><path class="cls-10" d="M111.93,381.8a15.9,15.9,0,0,0-2.1-3.43c-13-12.59-13-32.41,0-45.18,8.12-8,28.37-7.85,35.68.86,1.75,2.09.88,6.39,1.22,9.67l-16.29,17.84c.16-1.46.08-1.21.12-1C133.62,379.52,129.5,384.22,111.93,381.8Z" transform="translate(-64.21 -150)"/><path class="cls-2" d="M951.13,361.59l-.76,2.05c-3.53-13.05,5.69-26.5,20.76-29.45l-1.08-5.11a4.17,4.17,0,0,1,1.57.28c3.72,2.08,7.35,4.33,11.11,6.34s9.69,2.87,11.16,5.93c3.39,7,7,15.35,6.14,22.64s-7,13.91-10.79,20.82c.67-4.23,1.35-8.46,2.12-13.29l-3.43,2c-.52-3.58-1-6.95-1.71-11.89-1.43,3.53-2.18,5.41-3.11,7.71-1.19-4.57-2.2-8.46-3.22-12.35l-1.72.36-1.07,7.52a65.26,65.26,0,0,0-4.32-5.83C966.61,352.76,954.52,354.1,951.13,361.59Z" transform="translate(-64.21 -150)"/><path class="cls-7" d="M606.28,183.59l-10.77-.5,6.23-3.48L597,175.42l5.22-.64-2.23-3.19c2.68-2.51,5.76-4.52,7.65-7.34C616.21,151.38,626.17,147,636.7,152c12.72,6,17.67,19,12.72,33.31l-17.12-10c-2.62.42-6.78-.14-7.94,1.47C619.65,183.28,612.53,182,606.28,183.59Z" transform="translate(-64.21 -150)"/><path class="cls-8" d="M951.13,361.59c3.39-7.49,15.48-8.83,21.65-2.31a65.26,65.26,0,0,1,4.32,5.83l1.07-7.52,1.72-.36c1,3.89,2,7.78,3.22,12.35.93-2.3,1.68-4.18,3.11-7.71.71,4.94,1.19,8.31,1.71,11.89l3.43-2c-.77,4.83-1.45,9.06-2.12,13.29l.09-.14-1.18,1c-.78,1.7-1.56,3.41-2.33,5.11-5.52,6.38-13,6.12-20.41,6l-6.55-3.66-.15.15L957,392.6l-4.5-.47,4.08-1.65C954.71,380.78,952.92,371.19,951.13,361.59Z" transform="translate(-64.21 -150)"/><path class="cls-9" d="M606.28,183.59c6.25-1.58,13.37-.31,18.08-6.85,1.16-1.61,5.32-1.05,7.94-1.47l17.12,10q1.43,9.62,2.86,19.21c-4,8.7-13.07,12-21.32,7.9A38.48,38.48,0,0,0,627,211c-5.84-8.2-11.64-16.43-17.55-24.58A18.89,18.89,0,0,0,606.28,183.59Z" transform="translate(-64.21 -150)"/><path class="cls-11" d="M616.71,268.69l7.13,5.35-14.57,8.69-1.41,12.58q-.55,3.35-1.1,6.69l-2.08-.29v-16L590,287.93l-.24,1.45.11.28-.06,17.18c-.35,7,6.52,2.83,8.84,5.71l-9.84.6-4.48-.27h0l-5.22-4.43c6.8-9.51,1.59-21.82,7.79-31.95,2.65-4.32.6-11.41,1.12-17.2.21-2.34,1-5.64,2.58-6.59a8.34,8.34,0,0,1,7.4.25c1.32.87,1.12,4.38,1.19,6.73.15,5.32,0,10.64,0,17.39Z" transform="translate(-64.21 -150)"/><path class="cls-12" d="M466.48,330.55l11.66,8.78.13,0-1.57,1.55v-.07c-5.75,3-12,5.28-17.16,9.05-7.47,5.45-14,5.83-21.33,0-4-3.15-8.88-5.12-14.11-8v4.85c-4.66-3.58-.43-6,1.13-8.79l0,0,7.41-4.44-.05,0,3-1.52,0,0,9-5.74-.05,0,6.89-2.63Z" transform="translate(-64.21 -150)"/><path class="cls-8" d="M81.2,452.6q.38,24.45.73,48.89c-10.62-6.6-19-14.58-17.56-28.61.1-1,0-1.95,0-2.93C64.52,452.75,64.52,452.75,81.2,452.6Z" transform="translate(-64.21 -150)"/><path class="cls-8" d="M111.93,381.8c17.57,2.42,21.69-2.28,18.58-21.22,0-.23,0-.48-.12,1l16.29-17.84c.57,5.34,1.29,10.67,1.67,16,.65,9.21-1.63,17.47-8.41,24.15-2.35,2.3-4.7,6.78-6.87,6.67-6.41-.32-12.78-2.25-19-4.05C113,386.21,112.61,383.43,111.93,381.8Z" transform="translate(-64.21 -150)"/><path class="cls-13" d="M425.23,337.87c-1.56,2.78-5.79,5.21-1.13,8.79l16.49,10.57c5.27,4.76,10.48,6.63,15.56-.25l-.06,0,17.75-10.35-.08.05,4.13-3.07c-.39-1-.79-1.92-1.19-2.88v.07l1.57-1.55-.13,0,8.11,4.5,3.77,1.8c-.29,1.61,0,4.19-.94,4.69-9.72,5.33-19.81,10-29.38,15.59-4.28,2.5-7.07,2-11.08-.43-11-6.65-22.46-12.67-33.74-19-3.18-4.23,1.34-4.71,3.24-5.95C420.19,339.23,422.83,338.73,425.23,337.87Z" transform="translate(-64.21 -150)"/><path class="cls-7" d="M958.86,393.36l6.55,3.66q-1,10.64-2,21.27c4.84-2.82,8.13-6.64,11.82-10,4-3.69,8.43-7,12.67-10.46l3,1.66c-7.53,9.5-14.93,19.11-22.73,28.38-1.06,1.26-4.11.85-6.79,1.3V423l-6.94,1.84C956,413.91,957.41,403.64,958.86,393.36Z" transform="translate(-64.21 -150)"/><path class="cls-14" d="M484.13,370.34h5.18c-2.61,1.94-4.08,3.26-5.74,4.23C473,380.7,462.52,387,451.73,392.69a10.43,10.43,0,0,1-8.39.1c-9.11-4.7-17.78-10.23-26.78-15.14-4.32-2.34-6.6-5.53-6.64-10.38l4.16-4.75,3.83.38h0c2.78,1.88,5.54,3.78,8.34,5.62q12.25,8,24.54,16c-2.68-.37-5.74,0-8-1.23-9.61-5.15-19-10.75-28.45-16.19l-1.81,1.53c1.34,2,2.21,4.81,4.09,6,8.72,5.35,17.62,10.44,26.68,15.19a9.41,9.41,0,0,0,7.34.25c4.54-2.15,8.64-5.24,12.92-7.95l-.06.05,4.49-2.95,0,0,1.52-1.51-.06.05,14.77-7.43Z" transform="translate(-64.21 -150)"/><path class="cls-11" d="M420.69,391l4.68,2.8c-.54,3.08-1.52,6.15-1.53,9.23-.11,34.73-.06,69.46-.06,104.2-6-3.21-1.56-8.9-3.14-13.17q-.13-49.67-.29-99.33C420.46,393.43,420.57,392.19,420.69,391Z" transform="translate(-64.21 -150)"/><path class="cls-15" d="M1009.9,578.11c0,15.78-.07,31.57,0,47.35,0,4.13-.46,7.47-5.85,6.75q0-23.55,0-47.13c.94-2.88,1.89-5.76,2.83-8.65h0l2.59,0Z" transform="translate(-64.21 -150)"/><path class="cls-9" d="M987.91,397.8c-4.24,3.47-8.64,6.77-12.67,10.46-3.69,3.39-7,7.21-11.82,10q1-10.64,2-21.27c7.43.16,14.89.42,20.41-6C986.51,393.31,987.21,395.55,987.91,397.8Z" transform="translate(-64.21 -150)"/><path class="cls-1" d="M804,475l14.66-7.41,25.4,6.33a.91.91,0,0,1-.44,1l-13.47,1.46A30.76,30.76,0,0,0,804,484Z" transform="translate(-64.21 -150)"/><path class="cls-5" d="M843.64,474.91a.91.91,0,0,0,.44-1l.12-.16,1.5-4.33q5-12.22,9.95-24.44l3,1q-3.66,10.8-7.3,21.6-3.63,10.1-7.24,20.2L842,492.63,839.17,487Z" transform="translate(-64.21 -150)"/><path class="cls-1" d="M1002.64,491.4c2.53-10,5.12-19.91,7.56-29.9.68-2.8.94-5.71,1.39-8.57a52.15,52.15,0,0,1,1.16,7.69c.12,12.61,0,25.22,0,37.82l-3-.07a7,7,0,0,1,0-1.21l-1.35-.35-2.63,0-.3-1.82Z" transform="translate(-64.21 -150)"/><path class="cls-16" d="M270.48,454.2c-3.05.8-6.07,1.92-9.18,2.24-1.27.13-2.73-1.46-4.1-2.27,0-2.89.28-5.8,0-8.67-.4-5,2-7.22,6.7-7.21s7.13,2.2,6.64,7.23C270.3,448.39,270.5,451.3,270.48,454.2Z" transform="translate(-64.21 -150)"/><path class="cls-8" d="M844.12,487.78q3.61-10.09,7.24-20.2l8.41,0q.68,8.06,1.36,16.11l.14.53c-2.56.4-5.13.7-7.66,1.23C850.42,486.15,847.28,487,844.12,487.78Z" transform="translate(-64.21 -150)"/><path class="cls-9" d="M1009.45,576.37l-2.59,0q-.69-3.66-1.39-7.32.93-8.39,1.84-16.78l-2-1.07-4.42,3.3-10,4.45c-.1-1.19-.67-3.18-.21-3.45,8.29-4.93,16.7-9.64,25.08-14.4C1006.33,551.59,1010.93,564.52,1009.45,576.37Z" transform="translate(-64.21 -150)"/><path class="cls-15" d="M1005.82,496.78l2.63,0a12.74,12.74,0,0,0,1.35.35,7,7,0,0,0,0,1.21q0,16.25,0,32.5c-1.11,3.09,2.84,8.75-4.43,8.71Q1005.63,518.17,1005.82,496.78Z" transform="translate(-64.21 -150)"/><path class="cls-9" d="M1012.79,498.44c0-12.6.08-25.21,0-37.82a52.15,52.15,0,0,0-1.16-7.69l.3-4.77c1.27,2.43,3.56,4.83,3.63,7.3.39,12.93.3,25.87.1,38.81C1015.6,495.68,1013.78,497.05,1012.79,498.44Z" transform="translate(-64.21 -150)"/><path class="cls-3" d="M574.49,323.08l2.76-3.62,2.69-2.12,3.63-1.59,5,1.73,1.54,1.36.24,2.94-11.23,6Z" transform="translate(-64.21 -150)"/><path class="cls-6" d="M263.57,470.72l6.66-.37c0,3.41,0,6.83,0,10.24-.78,3.8-1.17,8-6.78,7.29Q263.52,479.3,263.57,470.72Z" transform="translate(-64.21 -150)"/><path class="cls-13" d="M444.49,326.24l-9,5.74Z" transform="translate(-64.21 -150)"/><path class="cls-13" d="M432.6,333.45l-7.41,4.44Z" transform="translate(-64.21 -150)"/><path class="cls-13" d="M451.33,323.63l-6.89,2.63Z" transform="translate(-64.21 -150)"/><path class="cls-11" d="M583.56,315.75l-3.62,1.59c-.08-1.43-.15-2.87-.22-4.3l4.55-.17h0Z" transform="translate(-64.21 -150)"/><path class="cls-2" d="M584.27,312.87l-4.55.17c-.22-1.53-.45-3.06-.67-4.6Z" transform="translate(-64.21 -150)"/><path class="cls-13" d="M417.91,362.9l-3.83-.38c-.22-.91-.46-1.82-.69-2.73Z" transform="translate(-64.21 -150)"/><path class="cls-1" d="M845.7,469.38l-1.5,4.33c-.54-1.22-1.08-2.45-1.63-3.68Z" transform="translate(-64.21 -150)"/><path class="cls-7" d="M949.44,392.58,945,393.81Z" transform="translate(-64.21 -150)"/><path class="cls-9" d="M1011.75,445.51l.18-3.14Z" transform="translate(-64.21 -150)"/><path class="cls-13" d="M435.52,332l-3,1.52Z" transform="translate(-64.21 -150)"/><path class="cls-7" d="M945.05,393.74l-1.76,1.47Z" transform="translate(-64.21 -150)"/><path class="cls-7" d="M942,396.56c-.52.56-1,1.12-1.55,1.69Z" transform="translate(-64.21 -150)"/><path class="cls-9" d="M1012.64,435.27a7.23,7.23,0,0,1-.29-1.2c0-.15.26-.33.41-.49Z" transform="translate(-64.21 -150)"/><path class="cls-7" d="M943.47,395l-1.6,1.71Z" transform="translate(-64.21 -150)"/><path class="cls-2" d="M988.15,386l1.18-1Z" transform="translate(-64.21 -150)"/><path class="cls-17" d="M236.48,620.58c2.32-2.28,4.31-5.13,7-6.73,14.82-8.74,29.83-17.17,44.77-25.71q.62,13.61,1.22,27.22c4.29,5.31,9.3,5.66,14.86,2.13l1.44-1c.53-9,1-18.08,1.62-27.11.35-4.73,1.07-9.44,1.62-14.16l8.71-4.71c.49,2.57,1.34,5.12,1.41,7.7q.33,12.74.16,25.49c-.07,4.56,1.41,7.06,6.37,6.26,5.07-.24,10.63.31,11.27-7a59.88,59.88,0,0,0,1.1-7.71c.19-12.14.21-24.28.29-36.42l13.23-7.27c0,11.91-.11,23.83.21,35.73.07,2.47,1.83,4.88,2.8,7.32l10.42,1,3.37-1.42c.78-2.6,2.21-5.18,2.25-7.78.24-15.45.17-30.89.2-46.34,8.89-1.68,16.75.48,24.31,5.47,7.32,4.84,15.19,8.84,22.82,13.2l1.06,1.93a1.51,1.51,0,0,0,.06.73l0,4.83c0,1.38-.05,2.75-.08,4.13-.24,1-.49,2-.74,3l-10.81,8.94,0,0L405.92,585l-.17.3-.85,1.41c-.14,6.1-.2,12.2-.42,18.3-.32,8.43,3.88,14.88,11.31,16.92a54.39,54.39,0,0,0,22.72,1c8.32-1.4,13.15-7.69,14.06-16.59,1-9.82.2-19.29-3.82-28.38l12,5.95.6,1.71a.49.49,0,0,0,0,.84q-.29,24.54-.58,49.09L434,634.59l-4.69-3.45-7,5.91c-2.75,1-5.53,2-8.25,3.06-11.88,4.76-19.75,12.48-19.25,26.31-.44,8.47,2.78,15,9.63,20.2,19.13,14.43,57.23,15.08,76.55.9,7.05-5.18,12-11.68,10.46-21.2.13-14.06-8.59-24.33-22.81-26.85l-.42-50.77c.35,0,.7,0,1,.09q31.77,18.91,63.54,37.83t63.5,37.91l-1.18,1.39-1.93-.65c-10.08-3.31-16.8,2.16-15.85,12.89.26,1.06.52,2.11.77,3.17l-9.68-4.87-2.64-.08-2.08-.4-10,4.77q-1.65,2.32-3.31,4.63l.19-.12-.34.23h.22l-15.62-1.58c-1.51-7-5.47-9.66-12.43-7.12-6.54,4.86-6.89,8.44-1.38,14.3,5.68,3.58,10,2.21,13.25-3.53l15.92,1.29a1.41,1.41,0,0,0,.22,1c.76,2.28,1.51,4.56,2.27,6.85l-15.65,22-8.68-.56C518.92,721.8,516.81,729.1,523,737c7.22,5.65,15.11,4.56,18.72-2.53,2.86-5.61.58-10.22-2.66-14.69,1.84-2.26,3.6-4.59,5.53-6.77,3.75-4.23,7.6-8.37,11.41-12.55,7.77,5.63,13.28,5.09,19.82-1.91l17.59,18.18-3,11.47c3.68,9.42,8.39,13.19,15.79,12.28,6.88-.86,11.1-4.84,12.39-11.67s-1.93-11.85-9.34-15.45l-14.16,1.79q-8.58-9.66-17.15-19.31l.48-13.92c6.57,6.24,12.68,7.13,17.89,2.58s5.24-9.9.41-17.5l1.41-1.29q24.74,14.06,49.46,28.13c7.61,4.36,15.23,8.7,22.62,13.41,2.26,1.44,3.75,4.08,5.59,6.17-2.37,2.85-4.28,6.34-7.19,8.43-4.74,3.41-10.17,5.85-15.25,8.8q-51.71,30-103.38,60.18c-11.48,6.74-22,7-33.27-1-8.91-6.36-18.85-11.3-28.34-16.85q-54.8-32-109.58-64c-21.29-12.51-42.39-25.33-63.67-37.85-26.31-15.48-52.72-30.79-79.08-46.18,0-1,0-2-.05-3C236.14,621.46,236.31,621,236.48,620.58Z" transform="translate(-64.21 -150)"/><path class="cls-18" d="M114.29,588.93c-1-6.87-2.34-13.72-2.73-20.62-.45-8,0-16.15,0-24.23L160,533.79q.15,5.12.28,10.21-2.24,56.12-4.48,112.23c-.5,12.68-.9,25.36-1.35,38L153,715.74c-2.82,16.4-12.71,22.71-26.52,16.91l-2.16-42.83c-.42-14.64.06-29.37-1.48-43.89C120.82,626.84,117.21,607.92,114.29,588.93Z" transform="translate(-64.21 -150)"/><path class="cls-19" d="M160.27,544q-.14-5.1-.28-10.21c3-15.29,6-30.57,8.9-45.88.82-4.31,1.16-8.71,1.72-13.07,11.1,16.11,13.55,17.36,32.79,12.25,16-4.24,31.68-9.5,47.53-14.23a55,55,0,0,1,6.45-1.13q.72,8,1.45,15.91Z" transform="translate(-64.21 -150)"/><path class="cls-9" d="M236,624.92c26.36,15.39,52.77,30.7,79.08,46.18,21.28,12.52,42.38,25.34,63.67,37.85q54.72,32.13,109.58,64c9.49,5.55,19.43,10.49,28.34,16.85,11.24,8,21.79,7.76,33.27,1q51.59-30.29,103.38-60.18c5.08-3,10.51-5.39,15.25-8.8,2.91-2.09,4.82-5.58,7.19-8.43,2.24,6.8,1,12-6.29,14.95-2.14.86-3.89,2.66-5.82,4l-22,12-75.15,43.95-22.23,13.16-21.79-1.2L498.91,787l0,.06-19.18-10.38h.07l-31-19.14,0,.06-11.82-6h.06l-6-4.41.05.06L415,738.33l0,0-23.66-14.69.05.05-10.33-6,.05.06-3-1.55.08.05-3-1.54.07,0-10.38-5.93.07,0-3-1.51h.1L354.61,703h.09l-3.12-2.8h0l-2.94-1.55.06,0-3-1.62-.55-.2-.57.13-.21.15-1.59-1.37c-3.18-2.17-6.27-4.5-9.56-6.49q-27.6-16.63-55.28-33.14L269.12,653l-5.9-4.35-3-1.37-7-4.69c-4.14-2.51-8.32-5-12.4-7.56C237.2,632.71,234.19,629.93,236,624.92Z" transform="translate(-64.21 -150)"/><path class="cls-9" d="M695.09,552.42l-.36-5.47c14.26,7.9,28.59,15.66,42.75,23.74q44.19,25.21,88.23,50.72C839,629.1,852.23,637,865.55,644.73c8.62,5,17.18,4.14,25.56-.82,19.75-11.7,39.45-23.48,59.29-35,18.75-10.94,37.64-21.64,56.47-32.44-.94,2.89-1.89,5.77-2.83,8.66l-3.12,1.78-4.27,1.5-7.4,5.79h0l-1.5,1.42h0l-11.91,5.71-23.49,13.45-2.89,2.93-3,.13-2.93,2.44-19.1,10.7-37.6,22.12,0,0-19.6-.21c-8.59-5.34-17.09-10.84-25.79-16-13-7.7-26.12-15.19-39.24-22.69-1.2-.69-2.75-.76-4.14-1.12l-.14.15-1.52-1.52.05,0-3-1.51,0,0-3-1.5,0,.06L789,607.29l.06,0-3-1.91L729.9,573l-8.59-4-4.62-4.18-6.81-3.35Z" transform="translate(-64.21 -150)"/><path class="cls-15" d="M664,847.5c0,2.41-.14,4.83-.14,7.24,0,11.35-.52,11.86-11.8,12.11.48-3.11,1.36-6.21,1.38-9.31.13-19.37.24-38.73,0-58.09s-.8-38.6-1.23-57.89l11.41-6.29Z" transform="translate(-64.21 -150)"/><path class="cls-2" d="M467.9,513.12q.17,17.71.34,35.43l0,38.24c0,.64,0,1.27.05,1.91l.42,50.77c-.22,3.13-.07,6.35-.78,9.36-.5,2.12-2.18,4-3.33,5.93-1.22-2-3.19-4-3.49-6.13-.59-4.3-.26-8.72-.32-13.09q.28-24.56.58-49.09l.36-.43-.39-.41-.6-1.71.39-5.91c.15-.15.42-.32.4-.45a6.36,6.36,0,0,0-.32-1.11q0-6.58,0-13.17c.12-.16.36-.34.34-.47a5.79,5.79,0,0,0-.37-1.06c-.12-1.48-.25-3-.38-4.44,4.18-2.53,7.06-5-.18-7.27l.06-8.9.45-27.74Z" transform="translate(-64.21 -150)"/><path class="cls-15" d="M996.55,700.15c-.86,4.48,2.28,10.91-5.79,11.87-.51-4.58-1.43-9.15-1.44-13.73-.1-34.2,0-68.4,0-102.59,0-.52,0-1,0-1.55h0l6.93-1.62Q996.36,646.35,996.55,700.15Z" transform="translate(-64.21 -150)"/><path class="cls-11" d="M709.88,561.5l6.81,3.35q.06,57.36.11,114.72c-9.73-.41-6.66-7.86-7.31-13.27Z" transform="translate(-64.21 -150)"/><path class="cls-11" d="M663.64,735.27l-11.41,6.29c-1.55,5.32-4.35,10.62-4.42,16-.42,32.28-.26,64.57-.14,96.85,0,4.09.88,8.18,1.36,12.27-5.23,0-7.29-2.81-7.25-7.78.07-8.71,0-17.41,0-26.11q-.06-44.14-.11-88.28l22-12C663.66,733.38,663.65,734.33,663.64,735.27Z" transform="translate(-64.21 -150)"/><path class="cls-11" d="M253.25,642.6l7,4.69c-.48,3.85-1.35,7.71-1.36,11.56q-.15,56.63-.05,113.24c-2-2.63-4.89-5-5.64-8-1-3.92-.33-8.27-.38-12.44q.06-49.8.13-99.59C253,648.93,253.14,645.77,253.25,642.6Z" transform="translate(-64.21 -150)"/><path class="cls-16" d="M354.6,594.61c-1-2.45-2.74-4.86-2.81-7.33-.32-11.9-.18-23.82-.21-35.73,0-3.65,0-7.29,0-10.93,0-8.74,2.79-12.5,9.3-12.67s9.63,3.63,9.91,12.13c0,15.45,0,30.89-.2,46.34,0,2.6-1.47,5.18-2.25,7.77q.31-13.91.6-27.8c-3.69-5.08-8.28-4.24-13.09-2l-2.14,6Q354.17,582.52,354.6,594.61Z" transform="translate(-64.21 -150)"/><path class="cls-16" d="M289.5,615.36q-.6-13.62-1.22-27.22c0-9.57.11-19.13,0-28.7-.08-7.53,5.08-7.77,10.49-8,5.73-.24,8.61,2.06,8.72,8.12.09,5.23,1,10.45,1.54,15.67-.55,4.72-1.27,9.43-1.62,14.16-.65,9-1.09,18.08-1.62,27.11l0-26.64c-2.9-5.1-7.38-4.74-12.06-3.41-5,1.41-3.78,5.44-3.79,9.06C289.89,602.13,289.65,608.74,289.5,615.36Z" transform="translate(-64.21 -150)"/><path class="cls-16" d="M325.69,610c-5,.8-6.44-1.7-6.37-6.26q.17-12.74-.16-25.49c-.07-2.58-.92-5.13-1.41-7.7.48-6.25,1.43-12.51,1.31-18.74s2.77-8.75,8.58-9.23c6.17-.5,9.91,1.88,10.52,8.22.26,2.66.14,5.36.19,8-.08,12.14-.1,24.28-.29,36.42A59.88,59.88,0,0,1,337,603c0-6.6,0-13.2-.14-19.79-.09-5.65-4-6.8-8.52-6.75s-8.31,1-8,7a147.63,147.63,0,0,1,0,17.6C319.9,605.59,321.35,608.5,325.69,610Z" transform="translate(-64.21 -150)"/><path class="cls-3" d="M460.6,550c7.24,2.25,4.36,4.74.18,7.27L438.2,570.72h-2.55c-5-4-9.92-4.46-14.89,0l-1.73-.34c0-1.38.05-2.75.08-4.13,3.52-1.12,7-2.39,10.57-3.32,2.86-.74,5.83-1.08,8.75-1.6Z" transform="translate(-64.21 -150)"/><path class="cls-20" d="M438.43,561.32c-2.92.52-5.89.86-8.75,1.6-3.57.93-7.05,2.2-10.57,3.32l0-4.82.55-.17-.61-.57L418,558.75c1.85-6,6.25-7.63,12-7.35C436.39,551.71,439.36,554.81,438.43,561.32Z" transform="translate(-64.21 -150)"/><path class="cls-11" d="M1000.92,586.87l3.12-1.78q0,23.55,0,47.12c-1-2-2.84-4.07-2.89-6.13C1000.86,613,1001,599.94,1000.92,586.87Z" transform="translate(-64.21 -150)"/><path class="cls-21" d="M258.83,487.64q-.72-8-1.45-15.91l6.19-1q0,8.58-.08,17.16Z" transform="translate(-64.21 -150)"/><path class="cls-11" d="M996.18,592.54l-6.93,1.62,7.4-5.79C996.5,589.76,996.34,591.15,996.18,592.54Z" transform="translate(-64.21 -150)"/><path class="cls-17" d="M596.34,664.53l1.78,1.22L596.71,667l-1.55-1.12Z" transform="translate(-64.21 -150)"/><path class="cls-9" d="M236.48,620.58c-.17.44-.34.88-.5,1.32Z" transform="translate(-64.21 -150)"/><path class="cls-22" d="M468.26,588.7c0-.64,0-1.27-.05-1.91l1.09,2C469,588.75,468.61,588.72,468.26,588.7Z" transform="translate(-64.21 -150)"/><path class="cls-17" d="M522.41,407.14c-.25,0-.55-.09-.73,0-15.1,9.59-24-5-35.59-9.28-.5-.19-.55-4.61.33-5.13,9.77-5.81,19.68-11.4,29.76-16.64,2.06-1.06,5.62-1.43,7.44-.35,7.5,4.45,14.59,9.59,21.91,14.52l-5.42,6.52,0,0-2.9,1.45,0,0-5.84,2.92,0,0-8.8,5.85Z" transform="translate(-64.21 -150)"/><path class="cls-17" d="M540.11,396.8c15.28-9,23.73,5.13,35.23,8.9,0,.71,0,1.41,0,2.12-8.26,4.89-16.91,9.23-24.66,14.81-8,5.75-15,6.13-22.64-.07-4-3.24-8.62-5.74-13.39-8.86l7.72-6.56,0,0,8.8-5.85,0,0,5.84-2.92,0,0,2.9-1.45Z" transform="translate(-64.21 -150)"/><path class="cls-20" d="M665.35,398.48c15.42-10.43,20.62-9.72,37,5.23-6.88,2.58-11,10.81-20.18,6.65.5,1.39,1.62,2.87,1.26,3.71-2,4.66-15.29,8.54-19.8,5.92-5.45-3.16-10.84-6.43-18-10.71,8.3-3.06,12.55-11.48,22.36-6.74C666.94,401,666.26,399.91,665.35,398.48Z" transform="translate(-64.21 -150)"/><path class="cls-20" d="M652,396.82c-4.87,8.82-14.45,11.71-22.84,6.88-4.8-2.77-9.56-5.6-16.07-9.42,7-3.39,12.46-5.75,17.64-8.65,4.49-2.52,8.42-6.1,13-8.31a11,11,0,0,1,8.38-.05c6.1,2.88,11.77,6.65,17.61,10.07l.36,2.49-18.11,7-3-1.23c-.11.41-.23.82-.34,1.23Z" transform="translate(-64.21 -150)"/><path class="cls-18" d="M579.09,327.82l11.23-6,7.48.41L601,317l11.37,4.54,3.11,4.17,1.81,2.9-8.59,5.89c-5.39-6.77-10.73-8.5-15.88-5.1-3.26,2.16-3.8,5.11-.09,6.62,5.46,2.22,11.33,2.61,16.82-.63.46,1.83.93,3.66,1.39,5.49l-9,2.9c-3.62,6.49-9-.34-13.14,1.69l0-1.48-13.08-8.38c-.09-1.51-.68-3.25-.11-4.46C576.2,329.8,577.87,328.91,579.09,327.82Z" transform="translate(-64.21 -150)"/><path class="cls-16" d="M520.53,326.31l-1.84-.1-.9-1.74q-.7-3.15-1.43-6.3c.4-1.34.43-3,1.25-4,6.37-7.69,25.51-8.93,32.37-1.78,1.6,1.66,1.35,5.1,1.95,7.72-10,8.23-20.82,7.53-32.07,2.49C520.12,324,520.32,325.18,520.53,326.31Z" transform="translate(-64.21 -150)"/><path class="cls-2" d="M630.56,350c2,8.79-1.78,14.37-9.62,18.06-4.37,2.06-8.24,5.32-12.73,7-2.56.95-5.91-.24-8.9-.47l4.62-9.63c1.24-2.59,2.47-5.19,3.7-7.78l4.59-1.52,15-9Z" transform="translate(-64.21 -150)"/><path class="cls-8" d="M579.09,327.82c-1.22,1.09-2.89,2-3.52,3.35-.57,1.21,0,2.95.11,4.46-2.5,7.17-7.28,12.11-14.89,13-1.59.18-3.62-3.51-5.45-5.42,5.49-4.42,4.33-14.19,13.19-16.08,2.17-.47,4-2.63,6-4Z" transform="translate(-64.21 -150)"/><path class="cls-9" d="M607.63,357.19c-1.23,2.59-2.46,5.19-3.7,7.78l-4.62,9.63c-6.66-3-14.31-4.45-18-11.9l2.94-5.69,4.44,0,13.17-1.26C602.26,362.44,606.44,353.73,607.63,357.19Z" transform="translate(-64.21 -150)"/><path class="cls-18" d="M517.79,324.47l.9,1.74c-1,1.71-1.65,4.11-3.16,5-8.38,5-17,9.64-25.51,14.4l-3.77-1.8c.15-.93,0-2.43.5-2.71C497.05,335.49,507.43,330,517.79,324.47Z" transform="translate(-64.21 -150)"/><path class="cls-13" d="M450.77,384.51q-12.27-8-24.54-16c-2.8-1.84-5.56-3.74-8.34-5.62,7.13,3.49,14.92,6.08,21.25,10.68,10.46,7.59,19.76,9.27,30.46.51,5.67-4.65,12.73-7.6,19.91-10.23-1.8,2.16-3.59,4.33-5.38,6.49l.05,0-14.77,7.43.06-.05L468,379.2l0,0-4.49,2.95.06-.05Z" transform="translate(-64.21 -150)"/><path class="cls-19" d="M630.56,350l-3.37-3.35,1.25-10.17,8.23-8.94.12,23.61-1,1.47Z" transform="translate(-64.21 -150)"/><path class="cls-7" d="M581.68,412.8l-41.32,23.36-1.05-1.92,41.18-23.61Z" transform="translate(-64.21 -150)"/><path class="cls-23" d="M520.53,326.31c-.21-1.13-.41-2.27-.67-3.69,11.25,5,22,5.74,32.07-2.49l1.66.15c-1.26,2.2-2,5-3.88,6.49C542.53,332.57,528.26,332.13,520.53,326.31Z" transform="translate(-64.21 -150)"/><path class="cls-14" d="M553.59,320.28l-1.66-.15c-.6-2.62-.35-6.06-1.95-7.72-6.86-7.15-26-5.91-32.37,1.78-.82,1-.85,2.64-1.25,4,1.19-3,1.52-7.22,3.73-8.84,8.61-6.32,18.27-6,27.63-1.63C552.8,310.06,555.08,314.48,553.59,320.28Z" transform="translate(-64.21 -150)"/><path class="cls-7" d="M521.59,425.28q-18.75-10.53-37.49-21.07l.88-1.61,37.27,21.27Z" transform="translate(-64.21 -150)"/><path class="cls-2" d="M584.25,357l-2.94,5.69-6.8-4.36,6.84-8.62,1.47,4.37-1,1.13,1,.39-.11-.12,1.59,1.59Z" transform="translate(-64.21 -150)"/><path class="cls-4" d="M582.82,354.09l-1.47-4.37h.08l4.29-4.55,3-1.17c0,.49,0,1,0,1.48L588.69,357l-4.44,0,.12.07-1.59-1.59.11.12C582.87,355.11,582.84,354.6,582.82,354.09Z" transform="translate(-64.21 -150)"/><path class="cls-7" d="M479,398.18l3.77,3.59-.62,1-4.55-2.82Z" transform="translate(-64.21 -150)"/><path class="cls-18" d="M585.72,345.18l-4.29,4.55Z" transform="translate(-64.21 -150)"/><path class="cls-9" d="M635.77,352.65l1-1.47.45,1.45Z" transform="translate(-64.21 -150)"/><path class="cls-17" d="M930.36,527.85c-.44,1.1-.56,2.76-1.37,3.22-10.3,6-20.57,12-31.17,17.43-2.34,1.19-6.39.77-8.9-.46-6.73-3.28-13-7.39-20-11.43l8.41-7.23,1.89-.58-.37-.55-1.56,1.09c-12.06,7.42-21.38.41-30.9-5.79a20.27,20.27,0,0,0-4-1.56l0-10.3c7.52-3.33,15.2-6.36,22.5-10.12,3.54-1.82,6.38-5,9.53-7.59,2.35,1.15,4.73,2.23,7,3.45,9,4.77,18.06,9.59,27.08,14.39l7.12,5.93c-1.92,13.9-1.29,14.43,12.6,10.52C928.93,528.08,929.65,528,930.36,527.85Z" transform="translate(-64.21 -150)"/><path class="cls-2" d="M842.37,511.69l0,10.3c0,1.49-.07,3-.11,4.45l-.3,1.85c-2.8,9.82-5.69,19.61-8.29,29.48a7.36,7.36,0,0,0,.93,5c4.56,7.8,4.06,12.73-3.22,18.08a112.09,112.09,0,0,1-18.09,10.92c-1.86.89-5.21-1.36-7.88-2.17,1.3-2.66,2.49-5.38,3.91-8,1.53-2.79,3.27-5.47,4.92-8.2,1.16-.14,2.54.07,3.43-.49,4.7-3,10-5.6,13.45-9.7,1-1.18-3.33-6.88-5.12-10.33l5.48-4.82c-2.51-1.92-5-3.83-7.51-5.77-1.9-1.47-3.78-3-5.66-4.44,7.65-7.49,9.53-16.63,8.44-27l-8.22,2.59c-.45-1-.91-2.06-1.37-3.09,1.78-2.35,4.16-4.51,5-7.16.28-.88-3.36-3-5.2-4.58l-1.79-1.77,16.49-7.31,8.94,4.33Z" transform="translate(-64.21 -150)"/><path class="cls-24" d="M941.76,519l18.09-5.91c13.59.51,27.34,2,39.56-6.26q-1.54,10.49-3.08,21c-9.54,6.06-19,12.22-28.72,18-1,.62-3.53-.67-5.09-1.52-9.1-5-18.13-10.07-27.17-15.12l-2.07-1.24,0-.07Z" transform="translate(-64.21 -150)"/><path class="cls-4" d="M818.36,537.89c1.88,1.48,3.76,3,5.66,4.44,2.49,1.94,5,3.85,7.51,5.77l-5.48,4.82c1.79,3.45,6.12,9.15,5.12,10.33-3.47,4.1-8.75,6.7-13.45,9.7-.89.56-2.27.35-3.43.49l-4.6.21c-.18-3.53-.36-7.06-.5-10-9.79-3.87-15.17-1.22-16,8.8l-7-6.2,8.34-7.63L779,549.1l16.94-10.66,1.87-1.48,1.64-1.68-.08.18,3.16-.29c.83,1.14,1.67,2.27,2.64,3.59l3.09-5.51ZM818.17,557c-4.59,4-2.51,8.28-2.23,12.49l2.16.11q.33-6,.65-12l.47-1Zm-11.51-4.18,4.52,2.21c4.28-7.29,3.41-9.27-4.52-10.9l-10,5Z" transform="translate(-64.21 -150)"/><path class="cls-20" d="M932.15,607.16c-8.08,3.59-12.47,10.75-21.73,7.45.76,1.26,1.63,2.06,1.48,2.55-1.25,4.18-13.73,10.06-17.44,8.05-6.2-3.35-12.22-7-21.1-12.2a45.64,45.64,0,0,0,5.41-2.09c8.87-5,17.64-10.26,26.6-15.13,1.64-.9,4.43-1.34,6-.56C917.79,598.55,924,602.41,932.15,607.16Z" transform="translate(-64.21 -150)"/><path class="cls-20" d="M898.56,594.26c-5.82,2.08-11.66,4.11-17.44,6.31-.58.22-.76,1.43-1.17,2.15-3.57,6.23-14.86,9.29-21.1,5.7q-7-4-13.91-8.11c-.38-.22-.59-.74-1.09-1.4.54-.66,1-1.61,1.72-2,9.21-5.4,18.4-10.83,27.75-16,1.62-.89,4.41-1.2,5.95-.41,6.46,3.31,12.66,7.13,19,10.76C898.33,592.26,898.45,593.26,898.56,594.26Z" transform="translate(-64.21 -150)"/><path class="cls-15" d="M708.59,480.07q-1,15.82-2,31.66l-2.78,5.53q0,6.65-.08,13.29l-.06,2.85-4.17,3.35-1.73.1q0-18.87-.07-37.73,0-30.4,0-60.81c0-4,0-8,0-12,0-.5-.05-1-.07-1.49l0,0,8.63-2.86c0,16.43,0,32.85.24,49.28C706.61,474.16,707.88,477.11,708.59,480.07Z" transform="translate(-64.21 -150)"/><path class="cls-13" d="M703.81,517.26l2.78-5.53,8.72-3.06c-1.68,2.79-7,5-1.44,8.95l0-.09,1.53,2.05,17.37,9.8c2.33,1.65,4.09,6.51,7.64,1.39l-.06.05,8.9-4.49-.08,0,8.56-5.3c3.79-2.7,7.57-5.41,12.09-8.62l6,2.36,4,2.52c4.17,9.17,2.47,16-5.26,21.66a9.19,9.19,0,0,0-1.62,2.27l0-.09-3,1.49,0,0-1.53,1.5,0,0-5.93,3,0,0-3,1.5,0,0-8.89,5.91.05,0-3,1.51,0,0-7.12-.57a60,60,0,0,0-5.46-4.4c-7.54-4.82-15.18-9.5-22.78-14.23,7.34,3.68,15,6.85,21.92,11.18s12.76,5.46,19.74,0c5.35-4.16,11.77-6.94,17.66-10.42,7.85-4.64,8.59-6.91,5.5-16.7-9.58,5.48-19.2,10.73-28.53,16.46-3.38,2.07-5.65,2.18-9.16.1C727.81,530.35,715.75,523.91,703.81,517.26Z" transform="translate(-64.21 -150)"/><path class="cls-11" d="M697.66,424.82c0,.49.05,1,.07,1.48-1.5,3.27-4.3,6.55-4.28,9.81.16,34.52.78,69,1.27,103.56-.19.53-.39,1.07-.59,1.61-5.71-.65-7.37-3.92-7-9.42.4-5.26-.11-10.58-.21-15.87l0-19.8q.21-10.32.41-20.66-.21-3.81-.44-7.62l.24-38.44,1.66-.24,1.66-1.14Z" transform="translate(-64.21 -150)"/><path class="cls-11" d="M797.81,537l-1.87,1.48c-1.39-2.39-2.79-4.77-4.18-7.15l2.39-1-.24-.89h-3.56c-1,.2-3,.64-3,.56-.75-2.71-2-5.53-1.73-8.19.33-3.07,2-6,3.14-9l0,.32,1.63-1.47v-7.88c.18-2.56-.65-6.18.73-7.49,4.38-4.17,3.53-9.06,3.43-14,.38-2.55.32-5.29,1.29-7.59.69-1.65,2.78-2.7,4.24-4q1.93,2.17,3.88,4.34,0,4.53,0,9l1,2.67,1.65,4.37q-3.68,5.82-7.37,11.63l0,.45c-9.53,3.35-1.79,12.25-5.51,17.64-.61.87,1.23,3.65,2.3,5.32.34.54,1.83.34,2.8.48l3.24.4-2.54,3.58-2.83-.42,2.13,1.4c.19.46.37.92.56,1.37,0,.86,0,1.72,0,2.58l.08-.18Z" transform="translate(-64.21 -150)"/><path class="cls-25" d="M694.72,539.67c-.49-34.52-1.11-69-1.27-103.56,0-3.26,2.78-6.54,4.28-9.81,0,4,0,8,0,12q0,30.4,0,60.81,0,18.86.07,37.73Z" transform="translate(-64.21 -150)"/><path class="cls-14" d="M712.42,536.68c7.6,4.73,15.24,9.41,22.78,14.23a60,60,0,0,1,5.46,4.4c-2.85-.29-6.12.21-8.46-1-9.79-5.18-19.3-10.89-28.91-16.41l-1.78,1.83c1.55,2,2.72,4.55,4.71,5.82,7.41,4.7,15.08,9,22.67,13.4,8.37,4.87,11.08,4.43,18.89-3l0,0,3-1.51-.05,0,8.89-5.91,0,0,3-1.5,0,0,5.93-3,0,0,1.53-1.5,0,0,3-1.49,0,.09,5.29-.27.53,1.34c-9.59,5.57-19.78,10.33-28.6,16.92-9.57,7.15-17.52,6.59-26.54-.4-5.15-4-11.12-7-17-10-5.29-2.61-7.85-6.27-7-12.16l4.18-3.35,8.76,3.3Z" transform="translate(-64.21 -150)"/><path class="cls-8" d="M941.76,519l-8.5,8.85h-2.9c-.71.14-1.43.23-2.12.42-13.89,3.91-14.52,3.38-12.6-10.52l12-5.08-7.36-2,14.34-6.25,2.86.32Q939.61,511.87,941.76,519Z" transform="translate(-64.21 -150)"/><path class="cls-9" d="M786.19,566.28l7,6.2a64.06,64.06,0,0,0,7.34,1.28,74.39,74.39,0,0,0,7.75-.24l.54,1.07.91-1,0,0,4.6-.21c-1.65,2.73-3.39,5.41-4.92,8.2-1.42,2.6-2.61,5.32-3.91,8-7.7-4.17-15.74-7.84-23-12.72C778.49,574.19,780.82,568.45,786.19,566.28Z" transform="translate(-64.21 -150)"/><path class="cls-17" d="M996.33,527.79q1.54-10.49,3.08-20.95l2-14.31,1.25-1.13,2.88,3.56c-.52,2.51-1.41,5-1.5,7.52-.29,8-.27,15.95-.38,23.93Z" transform="translate(-64.21 -150)"/><path class="cls-7" d="M936.78,535.21l-41.15,23.34-1.06-1.91L935.52,533Z" transform="translate(-64.21 -150)"/><path class="cls-18" d="M790.45,503.72c0,2.63,0,5.25,0,7.88l-1.63,1.47,0-.32-9.1,4.59-4-2.52Z" transform="translate(-64.21 -150)"/><path class="cls-26" d="M1000.88,554.55l4.42-3.3,2,1.07q-.91,8.38-1.84,16.78l-4.67-3.05Q1000.83,560.29,1000.88,554.55Z" transform="translate(-64.21 -150)"/><path class="cls-19" d="M1000.88,554.55q0,5.75-.08,11.5l-9.95-7Z" transform="translate(-64.21 -150)"/><path class="cls-11" d="M1003.64,526.41c.11-8,.09-16,.38-23.93.09-2.52,1-5,1.5-7.52l.3,1.82q-.2,21.41-.4,42.8Q1004.54,533,1003.64,526.41Z" transform="translate(-64.21 -150)"/><path class="cls-7" d="M874,546.2l-14.74-7.7,1.24-2.23,14.21,8.58Z" transform="translate(-64.21 -150)"/><path class="cls-7" d="M849.36,530.83l8.91,4.42-1,1.6-7.86-6.07Z" transform="translate(-64.21 -150)"/><path class="cls-7" d="M842,528.29l.3-1.85,7.05,4.39,0-.05Z" transform="translate(-64.21 -150)"/><path class="cls-4" d="M790.35,529.36h3.56l.24.89-2.39,1Z" transform="translate(-64.21 -150)"/><path class="cls-17" d="M933.28,527.92l2.07,1.24Z" transform="translate(-64.21 -150)"/><path class="cls-2" d="M598.6,312.55c-2.32-2.88-9.19,1.31-8.84-5.71l.06-17.18s-.11-.28-.1-.28c.08-.48.15-1,.23-1.45l14.73-2.18v16l2.08.29q.54-3.35,1.1-6.69c5,.15,7.95-3,7.88-7.28,0-1.8-4.19-3.54-6.47-5.3L623.84,274c7.15.84,9.65,6.06,10.46,12.08,1.37,10.25,5.27,20.93-3.37,30.11l-5.48,3-8.33-3.39q2.18-8.34,4.36-16.67l-1.76-.46-19.06,15.83-.45-.46Z" transform="translate(-64.21 -150)"/><path class="cls-9" d="M625.45,319.21l5.48-3,6.46,8.42-.72,2.93q-4.12,4.46-8.23,8.93c-1.7,1.26-3.38,2.55-5.1,3.77-5.73,4.06-9.83,4.25-12.42.62-.46-1.83-.93-3.66-1.39-5.49a1.52,1.52,0,0,0-.85-.89l8.59-5.89-1.81-2.89Z" transform="translate(-64.21 -150)"/><path class="cls-12" d="M713.87,517.62c-5.53-4-.24-6.16,1.44-8.95l0,0,9-5.77,0,0,3-1.53,0,0,4.38-2.65c6.24-5.31,12.44-5.32,19-.31,2.45,1.88,5.51,3,8.29,4.44l9.52,6.64c-9,5.17-17.34,10.27-26,14.66a10.71,10.71,0,0,1-8.33-.14c-6.67-3.17-13-7.14-20.11-11.19Z" transform="translate(-64.21 -150)"/><path class="cls-1" d="M713.87,517.62V512.9c7.14,4.05,13.44,8,20.11,11.19a10.71,10.71,0,0,0,8.33.14c8.66-4.39,17-9.49,26-14.66l-9.52-6.64,35.82-20.71c.1,4.95.95,9.84-3.43,14-1.38,1.31-.55,4.93-.73,7.49l-14.71,11.1-6-2.36c-4.52,3.21-8.3,5.92-12.09,8.62q-4.29,2.64-8.56,5.3l.08,0-8.9,4.49.06-.05-7.64-1.39-17.37-9.8-1.53-2.05Z" transform="translate(-64.21 -150)"/><path class="cls-6" d="M708.59,480.07c-.71-3-2-5.91-2-8.87-.24-16.43-.19-32.85-.24-49.28.16-1.42.31-2.83.47-4.25l3.62-1.54Q710.26,447,710,478C710,478.67,709.09,479.37,708.59,480.07Z" transform="translate(-64.21 -150)"/><path class="cls-13" d="M724.26,502.92l-9,5.77Z" transform="translate(-64.21 -150)"/><path class="cls-13" d="M731.53,498.8l-4.38,2.65Z" transform="translate(-64.21 -150)"/><path class="cls-13" d="M727.18,501.42l-3,1.53Z" transform="translate(-64.21 -150)"/><path class="cls-24" d="M97.39,694.42c6.85,7.91,6.65,15.27-.72,24.41-2,2.44-4.15,4.71-6.08,7.17-5.39,6.88-11.41,8.63-17.94,5.1-5-2.69-7.11-10.32-5-17.68,2.22,7,6.11,11.17,14.28,10.43,7.92-.71,9.55-6.62,11.29-12.42C94.94,705.85,96,700.1,97.39,694.42Z" transform="translate(-64.21 -150)"/><path class="cls-19" d="M908.52,511.82c-9-4.8-18-9.62-27.08-14.39-2.31-1.22-4.69-2.3-7-3.45l-13.13-9.73-.14-.53,3,.42,1.49-.22c18.14-3.47,36.3-6.83,54.41-10.49,3.47-.7,6.72-2.55,10.07-3.86l0,27.3Z" transform="translate(-64.21 -150)"/><path class="cls-4" d="M908.52,511.82,930,496.87q2.28,3.78,4.57,7.54l-14.34,6.26,7.36,2-12,5.08Z" transform="translate(-64.21 -150)"/><path class="cls-7" d="M957,392.6l1.76.91C958.13,393.2,957.54,392.9,957,392.6Z" transform="translate(-64.21 -150)"/><path class="cls-5" d="M1001.39,492.53l-2,14.31c-12.22,8.23-26,6.76-39.56,6.25,5.8-3.16,11.5-6.53,17.42-9.43C985.22,499.76,993.34,496.22,1001.39,492.53Z" transform="translate(-64.21 -150)"/><path class="cls-25" d="M434.2,507.77l-6,.92q0-56.7,0-113.4l5.81,3c.5,9.94,1.47,19.89,1.41,29.83C435.25,454.69,434.64,481.23,434.2,507.77Z" transform="translate(-64.21 -150)"/><path class="cls-11" d="M584.25,598.51c-4.58.39-5.94-2.09-5.92-6.24q.23-55.29.33-110.58l18.71.36.12,2.81-8.76,1.83c-5.84-.39-4.41,4-4.42,7.07Q584.21,546.14,584.25,598.51Z" transform="translate(-64.21 -150)"/><path class="cls-15" d="M434.2,507.77c.44-26.54,1.05-53.08,1.22-79.62.06-9.94-.91-19.89-1.41-29.83l6.17,3.08q0,40.46,0,80.91c-.06,6-.32,12.08-.13,18.11C440.2,504.77,438.82,507.44,434.2,507.77Z" transform="translate(-64.21 -150)"/><path class="cls-26" d="M428.2,395.29q0,56.7,0,113.4l-4.41-1.51c0-34.74,0-69.47.06-104.2,0-3.08,1-6.15,1.53-9.23Z" transform="translate(-64.21 -150)"/><path class="cls-6" d="M663.69,442.78Q662.34,453,661,463.13c-8.17,2.08-16.38,4.7-24-1.65,0-.93-.09-1.86-.14-2.79Z" transform="translate(-64.21 -150)"/><path class="cls-27" d="M636.9,458.69c.05.93.09,1.86.14,2.79-3.39,2.37-6.64,5-10.21,7-4.78,2.75-7,6.56-6.37,12l-8.36-7.49Z" transform="translate(-64.21 -150)"/><path class="cls-6" d="M686.91,467.91q-2.35-17.27-4.72-34.52l5-3.92Z" transform="translate(-64.21 -150)"/><path class="cls-28" d="M557.87,470.35l-23.6-13.28Z" transform="translate(-64.21 -150)"/><path class="cls-28" d="M576.93,480.75c-8.17-.17-13.87-4.87-19.1-10.43Z" transform="translate(-64.21 -150)"/><path class="cls-11" d="M706.79,417.67c-.16,1.42-.31,2.83-.47,4.25l-8.63,2.86Z" transform="translate(-64.21 -150)"/><path class="cls-28" d="M534.34,457.08l-7.44-4.43Z" transform="translate(-64.21 -150)"/><path class="cls-22" d="M491.6,432.06l-7.49-4.34Z" transform="translate(-64.21 -150)"/><path class="cls-28" d="M515.18,445.34l-5.87-4Z" transform="translate(-64.21 -150)"/><path class="cls-28" d="M519.58,448.25l-4.45-3Z" transform="translate(-64.21 -150)"/><path class="cls-22" d="M501.9,438l-3-1.51Z" transform="translate(-64.21 -150)"/><path class="cls-28" d="M525.48,451.23l-3.05-1.48Z" transform="translate(-64.21 -150)"/><path class="cls-28" d="M522.51,449.8l-3-1.57Z" transform="translate(-64.21 -150)"/><path class="cls-6" d="M690.47,428.09l-1.66,1.14Z" transform="translate(-64.21 -150)"/><path class="cls-22" d="M494.54,433.56l-3-1.53Z" transform="translate(-64.21 -150)"/><path class="cls-22" d="M504.86,439.45l-3-1.52Z" transform="translate(-64.21 -150)"/><path class="cls-22" d="M499,436.47,496,435Z" transform="translate(-64.21 -150)"/><path class="cls-28" d="M527,452.72l-1.54-1.54Z" transform="translate(-64.21 -150)"/><path class="cls-22" d="M496,435l-1.53-1.51Z" transform="translate(-64.21 -150)"/><path class="cls-1" d="M865.57,483.92l-1.49.22Z" transform="translate(-64.21 -150)"/><path class="cls-15" d="M609.27,282.73c2.28,1.76,6.45,3.5,6.47,5.3.07,4.29-2.85,7.43-7.88,7.28Z" transform="translate(-64.21 -150)"/><path class="cls-3" d="M589.82,289.66l-.06,17.18Z" transform="translate(-64.21 -150)"/><path class="cls-18" d="M598.6,312.55l1.61,1.51-10.13,4.78-1.54-1.36c.08-1.44.15-2.89.22-4.33Z" transform="translate(-64.21 -150)"/><path class="cls-2" d="M588.76,313.15c-.07,1.44-.14,2.89-.22,4.33l-5-1.73c.23-1,.47-1.91.71-2.87Z" transform="translate(-64.21 -150)"/><path class="cls-3" d="M590,287.93c-.08.48-.15,1-.23,1.45C589.79,288.9,589.87,288.41,590,287.93Z" transform="translate(-64.21 -150)"/><path class="cls-1" d="M476.7,340.78l1.2,2.88-4.14,3.07.08-.05L456.09,357l.06,0c-5.14,2.84-10.34,2.1-15.56.25L424.1,346.66v-4.85c5.23,2.9,10.14,4.87,14.11,8,7.37,5.83,13.86,5.45,21.33,0C464.72,346.06,471,343.75,476.7,340.78Z" transform="translate(-64.21 -150)"/><path class="cls-1" d="M478.27,339.3l-1.57,1.55Z" transform="translate(-64.21 -150)"/><path class="cls-12" d="M456.09,357l17.75-10.35Z" transform="translate(-64.21 -150)"/><path class="cls-12" d="M440.59,357.23c5.22,1.85,10.42,2.59,15.56-.25C451.07,363.86,445.86,362,440.59,357.23Z" transform="translate(-64.21 -150)"/><path class="cls-12" d="M473.76,346.73l4.14-3.07Z" transform="translate(-64.21 -150)"/><path class="cls-1" d="M450.77,384.51l12.78-2.44c-4.28,2.71-8.38,5.8-12.92,7.95a9.41,9.41,0,0,1-7.34-.25c-9.06-4.75-18-9.84-26.68-15.19-1.88-1.15-2.75-3.93-4.09-6l1.81-1.53c9.47,5.44,18.84,11,28.45,16.19C445,384.48,448.09,384.14,450.77,384.51Z" transform="translate(-64.21 -150)"/><path class="cls-1" d="M469.41,377.74l14.77-7.43Z" transform="translate(-64.21 -150)"/><path class="cls-1" d="M463.49,382.12l4.49-2.95Z" transform="translate(-64.21 -150)"/><path class="cls-1" d="M468,379.2l1.52-1.51Z" transform="translate(-64.21 -150)"/><path class="cls-8" d="M843.64,474.91,839.17,487l-7-.35c-.67-2.94-1.2-5.3-1.73-7.65-.09-.87-.18-1.74-.28-2.6Z" transform="translate(-64.21 -150)"/><path class="cls-14" d="M830.17,476.37c.1.86.19,1.73.27,2.6-9.55-1-18.37.54-25.48,7.69L804,484A30.79,30.79,0,0,1,830.17,476.37Z" transform="translate(-64.21 -150)"/><path class="cls-1" d="M861.27,484.25,874.4,494c-3.15,2.58-6,5.77-9.53,7.59-7.3,3.76-15,6.79-22.5,10.12l-1.71-17.8,1.33-1.26,2.13-4.85c3.16-.77,6.3-1.63,9.49-2.3C856.14,485,858.71,484.65,861.27,484.25Z" transform="translate(-64.21 -150)"/><path class="cls-16" d="M842,492.63l-1.33,1.26-8.94-4.33c-5.33-4.71-10.72-5.83-16.66-.82-2,1.65-4.62,2.5-7,3.71L806.61,491,805,486.66c7.11-7.15,15.93-8.64,25.48-7.69.54,2.35,1.07,4.71,1.74,7.65l7,.35Z" transform="translate(-64.21 -150)"/><path class="cls-17" d="M1009.8,497.16a12.74,12.74,0,0,1-1.35-.35Z" transform="translate(-64.21 -150)"/><path class="cls-2" d="M590.08,318.84l10.13-4.78.45.46c.11.83.21,1.66.32,2.5l-3.18,5.17-7.48-.41Z" transform="translate(-64.21 -150)"/><path class="cls-11" d="M522.5,800.38l21.79,1.2c0,.58.05,1.17.08,1.75l-8.61,3c-6-1-6,2.71-6,7.06q.13,58.27,0,116.55c-5.75-.41-7.43-3.42-7.4-9.16.2-39.64,0-79.28,0-118.91A12.1,12.1,0,0,1,522.5,800.38Z" transform="translate(-64.21 -150)"/><path class="cls-15" d="M535.76,806.31l8.61-3q.11,59.07.24,118.13c0,5.31-1.8,8.49-7.49,8.54q0-56.09,0-112.16C537.08,814,536.22,810.15,535.76,806.31Z" transform="translate(-64.21 -150)"/><path class="cls-25" d="M535.76,806.31c.46,3.84,1.32,7.68,1.33,11.53q.13,56.08,0,112.16l-7.34-.08q0-58.27,0-116.55C529.74,809,529.78,805.29,535.76,806.31Z" transform="translate(-64.21 -150)"/><path class="cls-25" d="M263.22,648.66l5.9,4.35q.06,59.16.11,118.32l-6,1Q263.21,710.53,263.22,648.66Z" transform="translate(-64.21 -150)"/><path class="cls-26" d="M649,866.64c-.48-4.09-1.35-8.18-1.36-12.27-.12-32.28-.28-64.57.14-96.85.07-5.34,2.87-10.64,4.42-16,.43,19.29,1,38.59,1.23,57.89s.11,38.72,0,58.09c0,3.1-.9,6.2-1.38,9.31Z" transform="translate(-64.21 -150)"/><path class="cls-15" d="M269.23,771.33q-.06-59.16-.11-118.32l8.79,3.15c-1,1.81-2.83,3.62-2.85,5.43-.15,25.16-.05,50.33,0,75.49-.05,8.93-.25,17.85-.07,26.77C275.06,768.15,273.83,770.89,269.23,771.33Z" transform="translate(-64.21 -150)"/><path class="cls-26" d="M263.22,648.66q0,61.86,0,123.71l-4.37-.28q0-56.62.05-113.24c0-3.85.88-7.71,1.36-11.56Z" transform="translate(-64.21 -150)"/><path class="cls-28" d="M448.85,757.5l31,19.14c-9.94-5.28-19.91-10.51-29.77-15.93C449.31,760.29,449.24,758.6,448.85,757.5Z" transform="translate(-64.21 -150)"/><path class="cls-28" d="M522.5,800.38a12.1,12.1,0,0,0-.1,1.47L498.91,787Z" transform="translate(-64.21 -150)"/><path class="cls-28" d="M391.37,723.68,415,738.37C406.24,734.92,397.16,732,391.37,723.68Z" transform="translate(-64.21 -150)"/><path class="cls-28" d="M479.78,776.64,499,787Z" transform="translate(-64.21 -150)"/><path class="cls-28" d="M415,738.33l16.23,8.92C423.92,747.72,419.19,743.51,415,738.33Z" transform="translate(-64.21 -150)"/><path class="cls-28" d="M437.08,751.6l11.82,6Z" transform="translate(-64.21 -150)"/><path class="cls-28" d="M381.09,717.76l10.33,6Z" transform="translate(-64.21 -150)"/><path class="cls-28" d="M364.89,708.89l10.38,5.93Z" transform="translate(-64.21 -150)"/><path class="cls-28" d="M354.61,703l7.45,4.43Z" transform="translate(-64.21 -150)"/><path class="cls-28" d="M431.17,747.19l6,4.41Z" transform="translate(-64.21 -150)"/><path class="cls-28" d="M351.58,700.2l3.12,2.8Z" transform="translate(-64.21 -150)"/><path class="cls-28" d="M348.65,698.66l2.94,1.55Z" transform="translate(-64.21 -150)"/><path class="cls-28" d="M362,707.41l3,1.51Z" transform="translate(-64.21 -150)"/><path class="cls-28" d="M375.2,714.78l3,1.54Z" transform="translate(-64.21 -150)"/><path class="cls-28" d="M378.13,716.27l3,1.55Z" transform="translate(-64.21 -150)"/><path class="cls-28" d="M345.67,697.08l3,1.62Z" transform="translate(-64.21 -150)"/><path class="cls-26" d="M460.76,635.54c.06,4.37-.27,8.79.32,13.09.3,2.16,2.27,4.09,3.49,6.13,1.15-2,2.83-3.81,3.33-5.93.71-3,.56-6.23.78-9.36,14.22,2.52,22.94,12.79,22.81,26.85-3.85,8.29-9.72,14.51-18.58,17.32-6.9,2.2-13.84,4.82-21,5.71-16.68,2.08-32.68-1-46.68-10.55-4.29-2.94-7-8.19-10.43-12.38-.5-13.83,7.37-21.55,19.25-26.31,2.72-1.09,5.5-2.05,8.25-3.06q.21,2.13.39,4.26c-6.62,2.51-12.8,5.34-10.36,14.37.18,6.31-3.27,13.83,3.83,18.12a25.31,25.31,0,0,0,24.31,1.49c9.43-4.2,6.62-12.3,6.41-19.6.76-9.27-.37-10.72-11.07-14.3-.61-2.27-1.23-4.53-1.84-6.8Z" transform="translate(-64.21 -150)"/><path class="cls-29" d="M448.75,578c4,9.09,4.83,18.56,3.82,28.38-.91,8.9-5.74,15.19-14.06,16.59a54.39,54.39,0,0,1-22.72-1c-7.43-2-11.63-8.49-11.31-16.92.22-6.1.28-12.2.42-18.29.28-.48.56-1,.85-1.42l.17-.29c.52-.89,1-1.78,1.54-2.67l0,0,12-5.79c11.91,5.93,15.63,5.09,18.8-4.27l4.38,4-.83.82,1.31-.33,2.3.08,3.37,1.19Z" transform="translate(-64.21 -150)"/><path class="cls-11" d="M394.85,666.42c3.43,4.19,6.14,9.44,10.43,12.38,14,9.59,30,12.63,46.68,10.55,7.11-.89,14.05-3.51,21-5.71,8.86-2.81,14.73-9,18.58-17.32,1.5,9.52-3.41,16-10.46,21.2-19.32,14.18-57.42,13.53-76.55-.9C397.63,681.45,394.41,674.89,394.85,666.42Z" transform="translate(-64.21 -150)"/><path class="cls-30" d="M325.69,610c-4.34-1.48-5.79-4.39-5.45-9a147.63,147.63,0,0,0,0-17.6c-.28-6,3.56-6.91,8-7s8.43,1.1,8.52,6.75c.11,6.59.1,13.19.14,19.79C336.32,610.29,330.76,609.74,325.69,610Z" transform="translate(-64.21 -150)"/><path class="cls-30" d="M609.24,713.4c7.41,3.6,10.61,8.74,9.34,15.45s-5.51,10.81-12.39,11.67c-7.4.91-12.11-2.86-15.79-12.28a30.77,30.77,0,0,1,3,1.68c4,2.81,12.7,1.77,15.58-2.52,3.34-5,2.54-9.72-3-13.39Z" transform="translate(-64.21 -150)"/><path class="cls-27" d="M442.66,576.26l-4.37-4-.09-1.52,22.58-13.43c.13,1.48.26,3,.38,4.43l0,1.54q0,6.59,0,13.17c0,.52,0,1-.07,1.56l-.39,5.91-12-5.95.07.07-3.37-1.19-2.3-.08Z" transform="translate(-64.21 -150)"/><path class="cls-12" d="M609.24,713.4,606,714c5.52,3.67,6.32,8.42,3,13.39-2.88,4.29-11.57,5.33-15.58,2.52a30.77,30.77,0,0,0-3-1.68l3-11.47,1.71-1.57Z" transform="translate(-64.21 -150)"/><path class="cls-6" d="M353.75,570.43c.72-2,1.43-4,2.14-6,3.62,5.51,8.54,2.59,13.09,2q-.3,13.89-.6,27.8L365,595.62c-1.52-1.39-4-2.57-4.38-4.22-1-4.45-.62-9.23-1.8-13.61C358.09,575.08,355.51,572.86,353.75,570.43Z" transform="translate(-64.21 -150)"/><path class="cls-3" d="M289.5,615.36c.15-6.62.39-13.23.42-19.84,0-3.62-1.2-7.65,3.79-9.06,4.68-1.33,9.16-1.69,12.06,3.41L291.92,592c8.64,2.84,6.51,9.66,6.6,15.51a42.12,42.12,0,0,1,0,5.15c-.48,4.65,2.11,5.41,5.86,4.85C298.8,621,293.79,620.67,289.5,615.36Z" transform="translate(-64.21 -150)"/><path class="cls-30" d="M539,719.82c3.24,4.47,5.52,9.08,2.66,14.69-3.61,7.09-11.5,8.18-18.72,2.53,12.89-4.34,14-8.35,5.47-18.87l8.68.55Z" transform="translate(-64.21 -150)"/><path class="cls-3" d="M578.41,682l-.48,13.91-3.16-.51c.34,1.07.68,2.15,1,3.23-6.54,7-12,7.54-19.82,1.91h0c1.6-.52,3.21-1.5,4.8-1.47,8.49.16,9.8-4.87,10.53-12,.68-6.67-3.67-8.31-7.55-11l2.09.4,2.63.08,9.68,4.87A.53.53,0,0,1,578.41,682Z" transform="translate(-64.21 -150)"/><path class="cls-30" d="M578.41,682a.53.53,0,0,0-.26-.63c-.25-1.06-.51-2.11-.77-3.17l2-1.85c3.06,4.86,7.12,4.41,11.27,1.84,5.29-3.29,4-8.13,2.59-12.88l1.93.65,1.55,1.12c4.83,7.6,4.7,13-.41,17.5S585,688.2,578.41,682Z" transform="translate(-64.21 -150)"/><path class="cls-12" d="M593.23,665.27c1.38,4.75,2.7,9.59-2.59,12.88-4.15,2.57-8.21,3-11.27-1.84l-2,1.85C576.43,667.43,583.15,662,593.23,665.27Z" transform="translate(-64.21 -150)"/><path class="cls-6" d="M304.36,617.49c-3.75.56-6.34-.2-5.86-4.85a42.12,42.12,0,0,0,0-5.15c-.09-5.85,2-12.67-6.6-15.51l13.85-2.11,0,26.64Z" transform="translate(-64.21 -150)"/><path class="cls-21" d="M563.75,676c3.88,2.69,8.23,4.33,7.55,11-.73,7.18-2,12.21-10.53,12-1.59,0-3.2,1-4.8,1.47l-.3-.42.33-1.6-3.24-1.76c-.76-2.29-1.51-4.57-2.27-6.85a50.46,50.46,0,0,0,5.89,1.9c2.59.52,6.21,1.84,7.64.67,1.65-1.35,2.64-5.72,1.64-7.52-1.18-2.14-4.69-3.18-7.38-4.24-1.29-.51-3,0-4.51.07Z" transform="translate(-64.21 -150)"/><path class="cls-12" d="M528.43,718.17C537,728.69,535.85,732.7,523,737,516.81,729.1,518.92,721.8,528.43,718.17Z" transform="translate(-64.21 -150)"/><path class="cls-20" d="M553.77,680.75c1.52,0,3.22-.58,4.51-.07,2.69,1.06,6.2,2.1,7.38,4.24,1,1.8,0,6.17-1.64,7.52-1.43,1.17-5-.15-7.64-.67a50.46,50.46,0,0,1-5.89-1.9,1.41,1.41,0,0,1-.22-1c.09-1.12.17-2.24.26-3.36h-.22l.15-.11Q552.13,683.07,553.77,680.75Z" transform="translate(-64.21 -150)"/><path class="cls-23" d="M422.75,641.31c-.13-1.42-.26-2.84-.4-4.26l7-5.91,4.69,3.45c.61,2.27,1.23,4.53,1.84,6.8l-4.71,6.36a1.88,1.88,0,0,0-1.35.27Z" transform="translate(-64.21 -150)"/><path class="cls-3" d="M353.75,570.43c1.76,2.43,4.34,4.65,5.08,7.36,1.18,4.38.79,9.16,1.8,13.61.38,1.65,2.86,2.83,4.38,4.22l-10.42-1Q354.19,582.52,353.75,570.43Z" transform="translate(-64.21 -150)"/><path class="cls-30" d="M522.48,676.79c7-2.54,10.92.16,12.43,7.13-.19,1.21-.37,2.42-.56,3.64-3.2,5.74-7.57,7.11-13.25,3.53C528.81,685.46,529,683.49,522.48,676.79Z" transform="translate(-64.21 -150)"/><path class="cls-4" d="M438.2,570.72l.09,1.52c-3.17,9.36-6.89,10.2-18.8,4.27l-1.2-3.15c.25-1,.5-2,.74-3l1.73.34c5,3.95,9.92,4,14.89,0Z" transform="translate(-64.21 -150)"/><path class="cls-2" d="M552.76,696.72l3.24,1.76-.33,1.6.3.42h0c-3.81,4.18-7.66,8.32-11.41,12.55-1.93,2.18-3.69,4.51-5.53,6.77l-1.91-1.1Z" transform="translate(-64.21 -150)"/><path class="cls-12" d="M522.48,676.79c6.52,6.7,6.33,8.67-1.38,14.3C515.59,685.23,515.94,681.65,522.48,676.79Z" transform="translate(-64.21 -150)"/><path class="cls-2" d="M575.78,698.59c-.33-1.08-.67-2.16-1-3.23l3.16.51,17.15,19.32-1.71,1.58Z" transform="translate(-64.21 -150)"/><path class="cls-2" d="M534.35,687.56c.19-1.22.37-2.43.56-3.64l15.62,1.57c-.09,1.12-.17,2.24-.26,3.36Z" transform="translate(-64.21 -150)"/><path class="cls-16" d="M418.29,573.36l1.2,3.15-12,5.79Z" transform="translate(-64.21 -150)"/><path class="cls-16" d="M407.46,582.32c-.51.89-1,1.78-1.54,2.67Z" transform="translate(-64.21 -150)"/><path class="cls-16" d="M419,560.68l.61.57-.55.17A1.56,1.56,0,0,1,419,560.68Z" transform="translate(-64.21 -150)"/><path class="cls-21" d="M568.47,676.46l-2.63-.08Z" transform="translate(-64.21 -150)"/><polygon class="cls-2" points="486.26 535.38 486.11 535.49 486.44 535.26 486.26 535.38"/><path class="cls-3" d="M461.31,585.61l.39.41-.36.43A.49.49,0,0,1,461.31,585.61Z" transform="translate(-64.21 -150)"/><path class="cls-16" d="M405.75,585.28c-.29.47-.57.94-.85,1.42C405.18,586.22,405.47,585.75,405.75,585.28Z" transform="translate(-64.21 -150)"/><path class="cls-15" d="M729.9,573q.08,40.05.16,80.1c-.46,6.51-1.32,13-1.27,19.51,0,5.59-2.39,7.46-7.51,7l0-110.55Z" transform="translate(-64.21 -150)"/><path class="cls-15" d="M886.82,653.1l0,0c.28,1.92.57,3.84.85,5.77,0,34-.16,67.93-.06,101.9,0,5.38-.72,9.35-7.34,8.86q0-56.07,0-112.13Q883.55,655.29,886.82,653.1Z" transform="translate(-64.21 -150)"/><path class="cls-25" d="M880.26,657.46q0,56.06,0,112.13l-7.37-.19V657.93Z" transform="translate(-64.21 -150)"/><path class="cls-11" d="M880.26,657.46l-7.32.47V769.4c-7-.71-5.7-6.37-5.74-10.58-.21-21.82-.11-43.64-.09-65.47,0-13.48.07-27,.11-40.46l19.6.21Q883.55,655.29,880.26,657.46Z" transform="translate(-64.21 -150)"/><path class="cls-26" d="M983.27,712.16l-1.39-.13c-1-7.71-2.67-15.41-2.78-23.13-.36-24.48-.17-49-.09-73.47,0-4.09.55-8.17.9-13l5-3.8q0,49.2,0,98.4c0,2.2-.84,5.08.23,6.48C988.16,707.48,984.71,709.48,983.27,712.16Z" transform="translate(-64.21 -150)"/><path class="cls-25" d="M983.27,712.16c1.44-2.68,4.89-4.68,1.8-8.68-1.07-1.4-.23-4.28-.23-6.48q0-49.2,0-98.4l2.88-3h0l1.55.13c0,34.19-.09,68.39,0,102.59,0,4.58.93,9.15,1.44,13.73l0,0-1.38,1.13Z" transform="translate(-64.21 -150)"/><path class="cls-25" d="M721.31,569l0,110.55H716.8q-.06-57.36-.11-114.72Z" transform="translate(-64.21 -150)"/><path class="cls-24" d="M887.71,658.83c-.28-1.93-.57-3.85-.85-5.77l37.6-22.12c-.57,4.58-.23,9.56-2,13.6-1.33,3-5.42,4.78-8.28,7.1-1.36,0-3.4-.57-4,.11C904.1,658.81,896.11,659.38,887.71,658.83Z" transform="translate(-64.21 -150)"/><path class="cls-11" d="M987.74,595.58l-2.88,3-5,3.8c-.35,4.86-.89,8.94-.9,13-.08,24.49-.27,49,.09,73.47.11,7.72,1.81,15.42,2.78,23.13-4.44.21-5.93-2.15-5.86-6.29.1-6.28,0-12.56-.06-18.85q-.08-42.79-.13-85.6Z" transform="translate(-64.21 -150)"/><path class="cls-15" d="M989.41,713.1l1.38-1.13Z" transform="translate(-64.21 -150)"/><path class="cls-15" d="M588.73,486.69l8.76-1.83q.06,51.85.1,103.73c0,9-1,9.9-10.31,10,.48-4.08,1.36-8.16,1.38-12.25C588.77,553.12,588.73,519.91,588.73,486.69Z" transform="translate(-64.21 -150)"/><path class="cls-10" d="M620.46,480.56c-.64-5.48,1.59-9.29,6.37-12,3.57-2,6.82-4.67,10.21-7,7.59,6.35,15.8,3.73,24,1.65,0,9.23-1.08,10.51-10.48,12a13.14,13.14,0,0,0-3.19.94c-5.8,2.59-11.58,5.23-17.37,7.85Z" transform="translate(-64.21 -150)"/><path class="cls-25" d="M588.73,486.69c0,33.22,0,66.43-.07,99.65,0,4.09-.9,8.17-1.38,12.25l-3-.07q0-52.38.06-104.76C584.32,490.66,582.89,486.3,588.73,486.69Z" transform="translate(-64.21 -150)"/><path class="cls-3" d="M467.9,513.12l-6.79.26,3.62-4Q466.3,511.25,467.9,513.12Z" transform="translate(-64.21 -150)"/><path class="cls-24" d="M153,715.74c2.87.19,5.74.56,8.6.53,10-.08,12.18,2.16,11.8,12.24-.53,1.36-1.06,2.72-1.6,4.08l.06-.15c-.52,1-1,2-1.55,3l.08-.11-1.54,1.54,0,0c-7.82,3-15.68,5.91-23.45,9-1.21.49-2.05,1.87-3.06,2.83l.06-.06c-7.64,3.11-13.68.28-19-5.15,0,0,.11.14.12.13-.23-1.15-.47-2.29-.7-3.43l3.64-7.56C140.29,738.45,150.18,732.14,153,715.74Z" transform="translate(-64.21 -150)"/><path class="cls-15" d="M142.37,748.72c1-1,1.85-2.34,3.06-2.83,7.77-3.11,15.63-6,23.45-9C162.42,746.14,152.78,748.27,142.37,748.72Z" transform="translate(-64.21 -150)"/><path class="cls-15" d="M123.42,743.51c5.33,5.43,11.37,8.26,19,5.15-2,5.84-7.32,3.89-10.24,2.86C128.76,750.31,126.3,746.31,123.42,743.51Z" transform="translate(-64.21 -150)"/><path class="cls-15" d="M171.8,732.59c.54-1.36,1.07-2.72,1.6-4.08C172.87,729.87,172.34,731.23,171.8,732.59Z" transform="translate(-64.21 -150)"/><path class="cls-15" d="M170.31,735.49c.51-1,1-2,1.55-3C171.34,733.45,170.82,734.47,170.31,735.49Z" transform="translate(-64.21 -150)"/><path class="cls-15" d="M122.84,740.21c.23,1.14.47,2.28.7,3.43C123.3,742.5,123.07,741.35,122.84,740.21Z" transform="translate(-64.21 -150)"/><path class="cls-15" d="M168.85,736.92l1.54-1.54Z" transform="translate(-64.21 -150)"/><path class="cls-22" d="M344.34,697.16l-1.59-1.37Z" transform="translate(-64.21 -150)"/><path class="cls-25" d="M951,663.5l-4.59.11q0-22.9,0-45.81l3-.13c0,12.74-.06,25.49.11,38.23C949.59,658.44,950.52,661,951,663.5Z" transform="translate(-64.21 -150)"/><path class="cls-15" d="M951,663.5c-.52-2.54-1.45-5.06-1.48-7.6-.17-12.74-.1-25.49-.11-38.23l2.89-2.93c0,14.18.13,28.37,0,42.55C952.37,659.36,951.51,661.43,951,663.5Z" transform="translate(-64.21 -150)"/><path class="cls-11" d="M946.49,617.8q0,22.91,0,45.81c-1-2.19-2.68-4.38-2.73-6.6-.28-12.25-.15-24.51-.16-36.77Z" transform="translate(-64.21 -150)"/><path class="cls-22" d="M796.44,611.74l-3-1.51Z" transform="translate(-64.21 -150)"/><path class="cls-22" d="M793.49,610.25l-3-1.5Z" transform="translate(-64.21 -150)"/><path class="cls-22" d="M789.08,607.33l-3-1.9Z" transform="translate(-64.21 -150)"/><path class="cls-22" d="M797.91,613.23l-1.52-1.52Z" transform="translate(-64.21 -150)"/><path class="cls-22" d="M790.55,608.81,789,607.29Z" transform="translate(-64.21 -150)"/><path class="cls-11" d="M989.31,595.7l-1.55-.13,1.5-1.42C989.28,594.66,989.29,595.18,989.31,595.7Z" transform="translate(-64.21 -150)"/><path class="cls-3" d="M461.19,563.26l0-1.54a6.17,6.17,0,0,1,.37,1.07C461.55,562.92,461.31,563.1,461.19,563.26Z" transform="translate(-64.21 -150)"/><path class="cls-3" d="M461.1,578c0-.52,0-1,.07-1.56a5.63,5.63,0,0,1,.33,1.11C461.52,577.67,461.25,577.84,461.1,578Z" transform="translate(-64.21 -150)"/><path class="cls-3" d="M369,566.39c-4.55.58-9.47,3.5-13.09-2C360.7,562.15,365.29,561.31,369,566.39Z" transform="translate(-64.21 -150)"/><path class="cls-28" d="M435.65,570.73c-5,4-9.93,3.93-14.89,0C425.73,566.27,430.69,566.7,435.65,570.73Z" transform="translate(-64.21 -150)"/><path class="cls-1" d="M531.24,401.26l-8.8,5.85Z" transform="translate(-64.21 -150)"/><path class="cls-1" d="M537.13,398.3l-5.84,2.92Z" transform="translate(-64.21 -150)"/><path class="cls-1" d="M540.07,396.83l-2.9,1.45Z" transform="translate(-64.21 -150)"/><path class="cls-1" d="M652,396.82h-3.33c.11-.41.23-.82.34-1.23l3,1.23Z" transform="translate(-64.21 -150)"/><path class="cls-4" d="M610.92,340.9c2.59,3.63,6.69,3.44,12.42-.62,1.72-1.22,3.4-2.51,5.1-3.77-.42,3.39-.83,6.78-1.25,10.17l-15,9c-.82-2.79-1.63-5.58-2.54-8.69L605,352.63c-1-2.94-2-5.88-3-8.83Z" transform="translate(-64.21 -150)"/><path class="cls-19" d="M601,317c-.11-.84-.21-1.67-.32-2.5l19.06-15.83,1.76.46q-2.18,8.34-4.36,16.67l-4.77,5.74Z" transform="translate(-64.21 -150)"/><path class="cls-24" d="M602,343.8c1,2.95,2,5.89,3,8.83l-3.13,3.14L588.69,357l.12-11.54C593,343.46,598.33,350.29,602,343.8Z" transform="translate(-64.21 -150)"/><path class="cls-26" d="M609.53,335.41c-5.49,3.24-11.36,2.85-16.82.63-3.71-1.51-3.17-4.46.09-6.62,5.15-3.4,10.49-1.67,15.88,5.1A1.52,1.52,0,0,1,609.53,335.41Z" transform="translate(-64.21 -150)"/><path class="cls-3" d="M612.35,321.56l4.77-5.74,8.33,3.39-10,6.53Q613.92,323.64,612.35,321.56Z" transform="translate(-64.21 -150)"/><path class="cls-18" d="M601.86,355.77l3.13-3.14,4.69-5.65c.91,3.11,1.72,5.9,2.54,8.69l-4.59,1.52C606.44,353.73,602.26,362.44,601.86,355.77Z" transform="translate(-64.21 -150)"/><path class="cls-9" d="M582.78,355.49l1.59,1.59Z" transform="translate(-64.21 -150)"/><path class="cls-9" d="M582.82,354.09c0,.51,0,1,.07,1.52l-1-.39Z" transform="translate(-64.21 -150)"/><path class="cls-1" d="M877.32,529.34l1.56-1.09.37.55-1.89.58Z" transform="translate(-64.21 -150)"/><path class="cls-1" d="M818.36,537.89l-10.1-4.64c.54-2.62,1.08-5.25,1.63-7.87s1.13-5.07,1.69-7.61l7-4.3,8.22-2.59C827.89,521.26,826,530.4,818.36,537.89Z" transform="translate(-64.21 -150)"/><path class="cls-26" d="M818.58,513.47l-7,4.3c-.37-5.44-.74-10.87-1.08-15.9l-11.26.79q3.69-5.82,7.37-11.63l1.49,1.42,7.13,4.42,1.79,1.77c-.8,2-2.25,3.95-2.22,5.91s1.55,3.89,2.41,5.83C817.67,511.41,818.13,512.44,818.58,513.47Z" transform="translate(-64.21 -150)"/><path class="cls-11" d="M815.23,496.87l-7.13-4.42c2.34-1.21,5-2.06,7-3.71,5.94-5,11.33-3.89,16.66.82Z" transform="translate(-64.21 -150)"/><path class="cls-15" d="M817.21,510.38c-.86-1.94-2.38-3.87-2.41-5.83s1.42-3.94,2.22-5.91c1.84,1.56,5.48,3.7,5.2,4.58C821.37,505.87,819,508,817.21,510.38Z" transform="translate(-64.21 -150)"/><path class="cls-24" d="M808.26,573.52a74.39,74.39,0,0,1-7.75.24,64.06,64.06,0,0,1-7.34-1.28c.85-10,6.23-12.67,16-8.8.14,2.91.32,6.44.5,10l0,0A5.43,5.43,0,0,0,808.26,573.52Z" transform="translate(-64.21 -150)"/><path class="cls-15" d="M806.66,552.86l-10-3.74,10-5C806.66,547.07,806.66,550,806.66,552.86Z" transform="translate(-64.21 -150)"/><path class="cls-3" d="M809.89,525.38c-.55,2.62-1.09,5.25-1.63,7.87l-3.09,5.51c-1-1.32-1.81-2.45-2.64-3.59l-3.12-2.29c-.19-.45-.37-.91-.56-1.37a6.94,6.94,0,0,1,.7-1l2.54-3.59Z" transform="translate(-64.21 -150)"/><path class="cls-28" d="M806.66,552.86c0-2.9,0-5.79,0-8.69,7.94,1.63,8.81,3.61,4.53,10.9Z" transform="translate(-64.21 -150)"/><path class="cls-2" d="M818.75,557.63l-.65,12-2.16-.11c-.28-4.21-2.36-8.5,2.23-12.49C818.36,557.25,818.55,557.44,818.75,557.63Z" transform="translate(-64.21 -150)"/><path class="cls-1" d="M799.41,532.88l3.12,2.29-3.16.29C799.39,534.6,799.4,533.74,799.41,532.88Z" transform="translate(-64.21 -150)"/><path class="cls-2" d="M818.17,557l1.05-.44c-.15.34-.31.68-.47,1C818.55,557.44,818.36,557.25,818.17,557Z" transform="translate(-64.21 -150)"/><path class="cls-1" d="M797.81,537l1.64-1.68Z" transform="translate(-64.21 -150)"/><path class="cls-1" d="M703.81,517.26c11.94,6.65,24,13.09,35.74,20.07,3.51,2.08,5.78,2,9.16-.1,9.33-5.73,18.95-11,28.53-16.46,3.09,9.79,2.35,12.06-5.5,16.7-5.89,3.48-12.31,6.26-17.66,10.42-7,5.43-12.82,4.3-19.74,0s-14.58-7.5-21.92-11.18v0l-8.7-6.15Q703.78,523.91,703.81,517.26Z" transform="translate(-64.21 -150)"/><path class="cls-13" d="M703.73,530.55l8.7,6.15-8.76-3.3Z" transform="translate(-64.21 -150)"/><path class="cls-1" d="M747.78,555.88c-7.81,7.47-10.52,7.91-18.89,3-7.59-4.42-15.26-8.7-22.67-13.4-2-1.27-3.16-3.84-4.71-5.82l1.78-1.83c9.61,5.52,19.12,11.23,28.91,16.41,2.34,1.24,5.61.74,8.46,1Z" transform="translate(-64.21 -150)"/><path class="cls-12" d="M749.14,526.38q4.27-2.65,8.56-5.3Z" transform="translate(-64.21 -150)"/><path class="cls-1" d="M759.57,548.53l-8.89,5.91Z" transform="translate(-64.21 -150)"/><path class="cls-12" d="M740.32,530.82l8.9-4.49Z" transform="translate(-64.21 -150)"/><path class="cls-12" d="M732.74,529.38l7.64,1.39C736.83,535.89,735.07,531,732.74,529.38Z" transform="translate(-64.21 -150)"/><path class="cls-1" d="M768.4,544.09l-5.93,3Z" transform="translate(-64.21 -150)"/><path class="cls-1" d="M750.73,554.4l-3,1.51Z" transform="translate(-64.21 -150)"/><path class="cls-1" d="M762.52,547.06l-3,1.5Z" transform="translate(-64.21 -150)"/><path class="cls-1" d="M772.83,541.18l-3,1.49Z" transform="translate(-64.21 -150)"/><path class="cls-12" d="M713.84,517.53l1.53,2.05Z" transform="translate(-64.21 -150)"/><path class="cls-1" d="M769.89,542.63l-1.53,1.5Z" transform="translate(-64.21 -150)"/><path class="cls-10" d="M686.94,496.19c-3.36.37-6.77,1.24-10.07.93-2.57-.24-6.91-1.68-7.11-3.06-.41-2.89.45-7.2,2.49-8.94,4.48-3.85,10-6.46,15.1-9.58Q687.16,485.86,686.94,496.19Z" transform="translate(-64.21 -150)"/><path class="cls-2" d="M809.89,525.38l-7.8,1.56-3.24-.39q.21-11.71.41-23.44l0-.45,11.26-.79c.34,5,.71,10.46,1.08,15.9C811,520.31,810.45,522.84,809.89,525.38Z" transform="translate(-64.21 -150)"/><path class="cls-3" d="M799.26,503.11q-.21,11.73-.41,23.44c-1-.14-2.46.06-2.8-.48-1.07-1.67-2.91-4.45-2.3-5.32C797.47,515.36,789.73,506.46,799.26,503.11Z" transform="translate(-64.21 -150)"/><path class="cls-3" d="M798.85,531.51l-2.13-1.4,2.83.42A6.94,6.94,0,0,0,798.85,531.51Z" transform="translate(-64.21 -150)"/><path class="cls-1" d="M788.81,513.07l1.63-1.47Z" transform="translate(-64.21 -150)"/><path class="cls-4" d="M808.26,573.52a5.43,5.43,0,0,1,1.45.11l-.91,1Z" transform="translate(-64.21 -150)"/><path class="cls-15" d="M446.93,655.69c.21,7.3,3,15.4-6.41,19.6a25.31,25.31,0,0,1-24.31-1.49c-7.1-4.29-3.65-11.81-3.84-18.11C423.89,663,435.41,663.42,446.93,655.69Z" transform="translate(-64.21 -150)"/><path class="cls-1" d="M446.93,655.69c-11.52,7.73-23,7.35-34.56,0-2.43-9,3.75-11.87,10.37-14.38q3.54,3.36,7.05,6.71l-9.77.92c3.66,2.62,5.66,5.13,7.91,5.37s4.91-1.69,7.38-2.68l-4.16-3.88,4.71-6.36C446.56,645,447.69,646.42,446.93,655.69Z" transform="translate(-64.21 -150)"/><path class="cls-17" d="M445.45,576.83l3.37,1.19Z" transform="translate(-64.21 -150)"/><path class="cls-27" d="M443.15,576.75l-1.31.33.83-.82Z" transform="translate(-64.21 -150)"/><path class="cls-3" d="M555.67,700.08l.33-1.6Z" transform="translate(-64.21 -150)"/><path class="cls-15" d="M431.15,647.75l4.16,3.88c-2.47,1-5,2.93-7.38,2.68s-4.25-2.75-7.91-5.37l9.77-.92A1.91,1.91,0,0,1,431.15,647.75Z" transform="translate(-64.21 -150)"/></svg>