<svg xmlns="http://www.w3.org/2000/svg" xmlns:xlink="http://www.w3.org/1999/xlink" width="1920" height="100" viewBox="0 0 1920 100">
  <defs>
    <linearGradient id="linear-gradient" x1="0.5" x2="0.5" y2="1" gradientUnits="objectBoundingBox">
      <stop offset="0" stop-color="#00aeef"/>
      <stop offset="1" stop-color="#00aeef"/>
    </linearGradient>
    <linearGradient id="linear-gradient-2" y1="0" y2="1" xlink:href="#linear-gradient"/>
    <clipPath id="clip-HHToolbar">
      <rect width="1920" height="100"/>
    </clipPath>
  </defs>
  <g id="HHToolbar" clip-path="url(#clip-HHToolbar)">
    <g id="Group_3" data-name="Group 3">
      <g id="Group_1" data-name="Group 1">
        <path id="Path_1" data-name="Path 1" d="M0,8.889V63.144c.95-.053,1.89-.112,2.82-.171,85.37-5.446,172.56-.629,254.75,14.067,1.56.279,3.11.563,4.67.848,44.47,8.148,88.13,18.855,134.42,21.463,70.35,3.958,138.43-11.01,207.03-22.376,12.16-2.015,24.33-3.911,36.53-5.576a971.158,971.158,0,0,1,223.86-4.112c33.77,3.306,67.07,8.4,100.35,13.386,47.66,7.14,95.29,14.079,144.25,15.294,72.44,1.795,143.19-8.977,214.35-18.275,29.93-3.911,59.93-7.561,90.16-9.9a1051.952,1051.952,0,0,1,229.3,7.39c8.85,1.274,17.66,2.666,26.45,4.112,39.47,6.506,78.47,14.168,118.93,17.807,44.63,4.017,92.68,2.6,132.13-9.89V8.889Z" fill="#008ad4" opacity="0.19"/>
        <path id="Path_2" data-name="Path 2" d="M1920,79.1l-4.51,1.885c1.49-.374,3-.729,4.51-1.067Z" fill="#008ad4"/>
        <path id="Path_3" data-name="Path 3" d="M0,0V54.256c.95-.053,1.89-.113,2.82-.172,85.37-5.446,172.56-.628,254.75,14.068,1.56.278,3.11.563,4.67.847,44.47,8.148,88.13,18.856,134.42,21.463,70.35,3.958,138.43-11.01,207.03-22.376,12.16-2.014,24.33-3.91,36.53-5.576A971.159,971.159,0,0,1,864.08,58.4c33.77,3.307,67.07,8.4,100.35,13.386,47.66,7.141,95.29,14.08,144.25,15.294,72.44,1.8,143.19-8.977,214.35-18.274,29.93-3.911,59.93-7.562,90.16-9.9a1051.952,1051.952,0,0,1,229.3,7.389c8.85,1.274,17.66,2.667,26.45,4.112,39.47,6.507,78.47,14.169,118.93,17.807,44.63,4.018,92.68,2.6,132.13-9.89V0Z" fill="#008ad4"/>
      </g>
      <g id="Group_2" data-name="Group 2">
        <path id="Path_4" data-name="Path 4" d="M1920,8.889V63.144c-.95-.053-1.89-.112-2.82-.171-85.37-5.446-172.56-.629-254.75,14.067-1.56.279-3.11.563-4.67.848-44.47,8.148-88.13,18.855-134.42,21.463-70.35,3.958-138.43-11.01-207.03-22.376-12.16-2.015-24.33-3.911-36.53-5.576a971.158,971.158,0,0,0-223.86-4.112c-33.77,3.306-67.07,8.4-100.35,13.386-47.66,7.14-95.29,14.079-144.25,15.294-72.44,1.795-143.19-8.977-214.35-18.275-29.93-3.911-59.93-7.561-90.16-9.9a1051.951,1051.951,0,0,0-229.3,7.39c-8.85,1.274-17.66,2.666-26.45,4.112C211.59,85.8,172.59,93.46,132.13,97.1,87.5,101.116,39.45,99.694,0,87.209V8.889Z" opacity="0.19" fill="url(#linear-gradient)"/>
        <path id="Path_5" data-name="Path 5" d="M0,79.1l4.51,1.885c-1.49-.374-3-.729-4.51-1.067Z" fill="url(#linear-gradient-2)"/>
        <path id="Path_6" data-name="Path 6" d="M1920,0V54.256c-.95-.053-1.89-.113-2.82-.172-85.37-5.446-172.56-.628-254.75,14.068-1.56.278-3.11.563-4.67.847-44.47,8.148-88.13,18.856-134.42,21.463-70.35,3.958-138.43-11.01-207.03-22.376-12.16-2.014-24.33-3.91-36.53-5.576A971.158,971.158,0,0,0,1055.92,58.4c-33.77,3.307-67.07,8.4-100.35,13.386-47.66,7.141-95.29,14.08-144.25,15.294C738.88,88.874,668.13,78.1,596.97,68.8c-29.93-3.911-59.93-7.562-90.16-9.9a1051.951,1051.951,0,0,0-229.3,7.389c-8.85,1.274-17.66,2.667-26.45,4.112C211.59,76.91,172.59,84.572,132.13,88.21,87.5,92.228,39.45,90.806,0,78.32V0Z" fill="url(#linear-gradient)"/>
      </g>
    </g>
  </g>
</svg>
