<svg xmlns="http://www.w3.org/2000/svg" xmlns:xlink="http://www.w3.org/1999/xlink" width="1917" height="722" viewBox="0 0 1917 722">
  <defs>
    <linearGradient id="linear-gradient" x1="0.734" y1="0.196" x2="0.603" y2="1.077" gradientUnits="objectBoundingBox">
      <stop offset="0" stop-color="#00aeef"/>
      <stop offset="1" stop-color="#006ca2"/>
    </linearGradient>
    <linearGradient id="linear-gradient-2" x1="0.071" y1="-0.676" x2="0.472" y2="1.184" gradientUnits="objectBoundingBox">
      <stop offset="0" stop-color="#006ca2" stop-opacity="0"/>
      <stop offset="0.672" stop-color="#7f9d6b" stop-opacity="0.498"/>
      <stop offset="1" stop-color="#ffce34"/>
    </linearGradient>
    <linearGradient id="linear-gradient-3" x1="0.233" x2="0.5" y2="1" gradientUnits="objectBoundingBox">
      <stop offset="0" stop-color="#006ca2" stop-opacity="0.412"/>
      <stop offset="1" stop-color="#00a3e2" stop-opacity="0.729"/>
    </linearGradient>
    <linearGradient id="linear-gradient-4" x1="0.357" y1="1" x2="0.321" y2="0.601" gradientUnits="objectBoundingBox">
      <stop offset="0" stop-color="#e1f4fd" stop-opacity="0.271"/>
      <stop offset="1" stop-color="#aae1fa" stop-opacity="0.42"/>
    </linearGradient>
    <linearGradient id="linear-gradient-5" x1="0.5" x2="0.5" y2="1" gradientUnits="objectBoundingBox">
      <stop offset="0" stop-color="#00aeef"/>
      <stop offset="0.435" stop-color="#008cc7" stop-opacity="0.482"/>
      <stop offset="1" stop-color="#006ca2" stop-opacity="0"/>
    </linearGradient>
    <clipPath id="clip-MainCurveThreeHH">
      <rect width="1917" height="722"/>
    </clipPath>
  </defs>
  <g id="MainCurveThreeHH" clip-path="url(#clip-MainCurveThreeHH)">
    <rect width="1917" height="722" fill="#fff"/>
    <path id="Path_1" data-name="Path 1" d="M-73.845,172.968C282.864,639,312.9,598.383,445.4,588.854S1843.155,243.008,1843.155,243.008V-128.146h-1917Z" transform="translate(73.845 128.237)" stroke="rgba(255,255,255,0.17)" stroke-width="5" fill="url(#linear-gradient)"/>
    <path id="Path_3" data-name="Path 3" d="M856.849-80.128C1242.606,345.394,1241.525,360.877,1324.2,361s643.955-163,643.955-163c1.179-.246,0-278.128,0-278.128Z" transform="translate(-29 65)" fill="url(#linear-gradient-2)"/>
    <path id="Path_4" data-name="Path 4" d="M950.909-79.97c474.545,581.818,413.725,598.472,530.8,598.639S2393.64,242.815,2393.64,242.815c1.67-.334,0-322.943,0-322.943Z" transform="translate(283 64)" fill="url(#linear-gradient-3)"/>
    <path id="Path_5" data-name="Path 5" d="M914.515-80.128C1256.03,339.152,1241.525,360.877,1324.2,361s643.955-151.8,643.955-151.8c1.179-.246,0-289.33,0-289.33Z" transform="translate(0 -133)" opacity="0.71" fill="url(#linear-gradient-4)"/>
    <rect id="Rectangle_3" data-name="Rectangle 3" width="1917" height="249" fill="url(#linear-gradient-5)"/>
  </g>
</svg>
