<svg id="Layer_1" data-name="Layer 1" xmlns="http://www.w3.org/2000/svg" viewBox="0 0 986.3 948.42"><defs><style>.cls-1{fill:#484663;}.cls-2{fill:#6166a2;}.cls-3{fill:#95a8dc;}.cls-4{fill:#c8e1f1;}.cls-5{fill:#92a6e7;}.cls-6{fill:#218ad3;}.cls-7{fill:#d9f5fb;}.cls-8{fill:#f1c39b;}.cls-9{fill:#d0755e;}.cls-10{fill:#acd0eb;}.cls-11{fill:#f35760;}.cls-12{fill:#eba37f;}.cls-13{fill:#d7a6b0;}.cls-14{fill:#9bacd2;}.cls-15{fill:#c7effc;}.cls-16{fill:#edf9fc;}.cls-17{fill:#fbfbfb;}.cls-18{fill:#fdfdfd;}.cls-19{fill:#d0f3fb;}.cls-20{fill:#92a1b2;}.cls-21{fill:#0689ed;}.cls-22{fill:#8ba5d3;}.cls-23{fill:#d3633e;}.cls-24{fill:#a8d1f0;}.cls-25{fill:#fccb5e;}</style></defs><path class="cls-1" d="M416.72,151.3c8.71,3.75,13.71,10.51,17.62,19.08,15.47,34,31.49,67.67,47.31,101.47l5.16,9.79c.66,6.83.41,13.24-6.65,17.15-6.41,3.55-12,2-17.37-2.23q-3-5.83-6.05-11.66L426.5,216.46l-23.26,85.87-16,2.87c-.32-6.34-.57-11.19-.85-16.57-9.65,8.2-9.41,23-.13,37.44q1.08,5.87,2.17,11.73l-3.31,18.89-15.1,2.1-5.87-4.24q-1.77-5-3.53-10c-2-10.87-3.73-21.79-6.05-32.59a8.91,8.91,0,0,0-4.8-5.38c-5.89-2.36-12.08-4-18.15-5.88-5.59-3.5-7.07-8.44-5.74-14.78,6.48-30.85,12.65-61.77,19.24-92.6,6.53-30.56,20.1-42.61,51.22-46.2l-3.49,7c-1.15,2.91-3.11,5.76-3.3,8.73-1.36,21,5.15,40.65,11.24,60.52,6.48-20.1,14-39.75,13.07-61.18Z" transform="translate(-45 -63.42)"/><path class="cls-1" d="M472,774.31l2.25,134.45q.33,15.43.65,30.86l.12,3.74q-.6,5.57-1.18,11.13L470,959l-14.6,3-6.46-5.19q-1.15-8.43-2.32-16.86-.93-10.74-1.85-21.48c-.26-49.86-.47-99.71-.91-149.57,0-3.57-1.77-7.13-2.71-10.69-2.88,1.71-3.36,2.56-3.41,3.43q-4.26,77.11-8.36,154.24c-.12,2.28,1.06,4.63,1.64,7l-7.69,10.52c-6.52,4.2-12.64,2.74-18.6-1.28l-2.55-4q-.68-5.71-1.34-11.44l1.26-15.41c0-1.95.11-3.91.16-5.87q4.11-69.75,8.2-139.49c.36-6.05.75-12.09,1.12-18.14,19.28,7,39.18,9.16,59.56,7.63q.57,9.41,1.13,18.8C472.17,767.51,472.08,770.91,472,774.31Z" transform="translate(-45 -63.42)"/><path class="cls-1" d="M929.2,830.6,925.57,847c-7,4.26-13.89,5.71-20.8-.1l-3.21-7.19q.83-61.66,1.65-123.32c.22-15.92.54-31.83.81-47.75l.15-14,.42-11.43,5.83.26c18.65,4.31,35.45-1.57,51.9-9.41q.36,2.72.74,5.43l3.27,53.87,5.79,101.95q.24,9.59.49,19.18l-3,5.84c-6.38,6.75-13.28,7.13-20.66,1.68l-4.29-9.74L936.2,657.46l-4.55.07c0,6.73.07,13.46,0,20.19q-.87,65.65-1.81,131.3Q929.51,819.81,929.2,830.6Z" transform="translate(-45 -63.42)"/><path class="cls-2" d="M102.72,304.67l5.27-.4,2.32-.18,10.86-.59,7.89,25.94c.11.71.21,1.41.32,2.11q4.88,36.42,9.76,72.83l-9.81,5.7c-6.08.81-12.53.61-18.18,2.63-19.08,6.85-30.25,1.45-33.46-18.19a360.23,360.23,0,0,1-4.07-40.83c-.89-18.5-2.44-20.46-20.52-20.27l24.05-23.81c.56,1.33,1.72,2.72,1.59,4-.59,5.44-.57,10.58,6.07,12,6.36,1.35,10.16-1.6,12.12-7.86C98.34,313.2,100.75,309,102.72,304.67Z" transform="translate(-45 -63.42)"/><path class="cls-1" d="M384,85.94c-10.53,8.73-9.68,20.81-9.71,32.67,0,5.09.39,10.32-.59,15.25C372.2,141.51,366,145.74,359,145c-5.18-.57-12.12-4-14.49-8.28-14.23-25.63,4.06-66.84,32.34-72.84,7-1.48,14.81,1.19,22.24,2l-7.83,14.46,26.48-5c11.76,2,22.15,5.85,26.19,18.82.54,1.74,2.8,3.29,4.63,4.22,5.39,2.77,10.28,5.95,8.85,12.95-1.56,7.66-6,12.57-14.55,12.16-8.29-3.31-16.47-6.93-24.9-9.84-14.25-4.93-21.25-.81-24.24,13.68-.32,1.56-.55,3.14-.83,4.72-3.65-3.39-8.88-6.1-10.65-10.28-4.9-11.59-2.75-23.13,3.68-33.86l3-3.66-1-1.14Z" transform="translate(-45 -63.42)"/><path class="cls-3" d="M214.43,624.51,198.6,614.34c-15.74-9.13-31.46-18.29-47.24-27.35-1.56-.89-3.52-1.09-5.29-1.62L114.64,565l-2.54,20.35c0,15.37.19,30.76-.42,46.1-.1,2.71-3.78,5.26-5.8,7.89-1.81-2.61-5.1-5.17-5.19-7.85-.54-15.35-.33-30.73-.36-46.1,0-7.92.28-15.85,0-23.76a12.18,12.18,0,0,0-2.48-6.53c-4.12-5.4-8.62-10.52-13-15.75-.52-3.27-1-6.54-1.61-10.16l17.23,14.38,10.82,3.74,4.45,4,29,14.89c1.83,2.33,3.25,5.23,5.57,6.87a160.85,160.85,0,0,0,15.5,9.34c16.08,8.81,32.23,17.5,48.35,26.23l27.77,17c2.84,2,5.53,4.31,8.53,6.07,45.47,26.67,91,53.19,136.42,80,5.53,3.26,10.22,8,15.29,12l2,8.17c-13.22-6.8-26.75-13.08-39.61-20.5-41.38-23.89-82.51-48.21-123.73-72.36L233,635.47Z" transform="translate(-45 -63.42)"/><path class="cls-4" d="M764.3,381.49c-2,10.27,4.3,13.87,12.29,18.34,29.12,16.3,57.58,33.77,86.37,50.68,15.9,9.34,32,18.35,47.88,27.73,3.24,1.92,5.91,4.81,8.85,7.24q1.13,5.73,2.24,11.45l-3.52.25c-19.19-11.63-38.32-23.37-57.6-34.87-29.74-17.75-59.5-35.45-89.45-52.84-4.39-2.55-9.86-3.24-14.83-4.79l-9.8,7.82-24.68,3.7-9.92,2c-5.6-1-11.34-1.45-16.77-3-6.6-1.89-8,1.32-8,6.72L677.59,418l2-3.75,7.67-1-4.22-4.86,19-9.67a83.84,83.84,0,0,1,8,2.55c8.88,3.78,28.09.21,35.1-7.52l-15.73-6.57c-.74-1.28-1.15-3.11-2.26-3.75-10.34-6-20.66-12.13-31.27-17.67C686.79,361,677.34,357,668,352.65l-7.77-9.16c11.05-1.22,21.77-1.39,29.06,9.23l16.92,10.44,12.14,3.25,18.82,7.22c2.1,2.66,3.82,5.79,6.39,7.88C750.33,387,757.4,387.15,764.3,381.49Z" transform="translate(-45 -63.42)"/><path class="cls-5" d="M53.1,333.42c18.08-.19,19.63,1.77,20.52,20.27a360.23,360.23,0,0,0,4.07,40.83c3.21,19.64,14.38,25,33.46,18.19,5.65-2,12.1-1.82,18.18-2.63q3,7.91,6.08,15.8c-5.87,4.39-11.22,11.26-17.72,12.62-12.41,2.61-25.48,2.07-38.28,2.84l-13.12-8C50.88,415.93,48,394.5,46.53,372.59c-.46-7-1-14-1.45-21C44.58,344.13,46.29,337.65,53.1,333.42Z" transform="translate(-45 -63.42)"/><path class="cls-4" d="M360.66,344.58q1.75,5,3.53,10c-4,1.68-8.37,2.81-11.95,5.14-11.75,7.63-23.2,15.7-34.76,23.6-3.06.71-6.51.74-9.13,2.22q-43.85,24.74-87.39,50c-.35.21.45,2.42.71,3.7-16.21,2-28.65,11.23-40.6,21.34l-13.57,8c-7.14,3.19-14.47,6.05-21.33,9.77-2.32,1.25-3.47,4.67-5.15,7.11l-5.85,7.73c-10-4.08-17.11.39-23.26,7.76l-11.44,5.72-15.06,9.61c-1.27-9.85,4.2-16.77,11.14-23l26.93-15.4,1.83-1.48,30-14.39-5.39-4.68c.43-.48.85-1,1.28-1.46,4.88-.32,10.37.69,14.5-1.23,9.69-4.5,18.79-10.3,28-15.86,1.3-.79,1.67-3.13,2.47-4.76,7.51-3.32,15.32-6.08,22.46-10.07,19.1-10.67,37.9-21.87,56.83-32.85,13.16-7.63,26.39-15.17,39.43-23,1.93-1.15,3-3.7,4.5-5.61,4.25-.95,8.82-1.19,12.67-3C341.71,354.84,351.12,349.57,360.66,344.58Z" transform="translate(-45 -63.42)"/><path class="cls-6" d="M1025.4,625.55l-1.29,2.42-2.38,3.48-5.62,5.58c-13.08,8.05-26.43,8-40,1.4-4.51-2.18-9.05-4.27-13.58-6.4a18.7,18.7,0,0,0-1.93-3.25c-12.38-13.58-14.58-27.19-4.93-44.29,11.63-20.6,12.24-31.54-12.13-45.3C935,534.4,930.1,527,931.93,517c1.23-6.71,3.85-13.17,5.85-19.74,3.61-3.15,5.33-7.21.76-10.12-6.17-3.92-13.11-6.61-19.72-9.83-.36-1.12-.71-2.24-1.06-3.35-.25-9.13-1.68-18.44-.37-27.34,1.06-7.11-1.69-9.51-7.16-10.73-5.78-1.3-11.72-1.92-17.58-2.83q-12.27-6.39-1.26-14.77l.44.4c-2.3,9.87,3.4,12.28,11.62,12.89,19,1.41,19.67,2.29,18.65,21.16,0,.64,0,1.28-.07,1.92-1.07,10.45,5.7,23.75,15.57,26.34,7.58,2,8.33,6.25,7.34,11.84A39.52,39.52,0,0,1,940.17,505c-6.21,10.94-5.4,18.65,4.08,26.57A78.31,78.31,0,0,0,957.49,540c5.91,3.19,14.27,17.37,12.25,23.43-2.48,7.45-6.66,14.32-9.49,21.67-2.66,6.87-6.16,14-6.35,21.11-.32,11.84,10.52,18.4,18.26,23.72,9.34,6.41,20.35,14.9,34.34,4.41,7.73-5.78,20.55-17.39,19.2-27-1.61-11.44-5.05-22.65-8.14-33.84-.41-1.49-3.38-2.36-5.26-3.33-6.32-3.28-13.58-5.43-18.85-9.92-11.14-9.5-8.81-22.26-5.9-34.66,3.91-16.73,2.63-19.68-12.52-28.29-8.73,7-8.73,7-14,.9l8.59-9.16-11.3-.55c-6.08-6.32-1.09-17.58-10.17-22.56l4.66-5.36.86.38-.75-.49-13.37-17.82,14.13-8.93c-4.15-7.06-5.86-13.81-10.13-16.54-15.55-10-32-9.63-48.28-.78l-.55-.6c9.52-10.15,25.76-13.55,39.46-8.27,15.09,5.82,24.63,18.71,25,34.06a54.59,54.59,0,0,1-.66,12.41c-4.09,19.16,5.2,31,21,39.48l13.36,11.4c.49,1.14,1,2.29,1.46,3.44q-2.18,15.56-4.36,31.13l0,3.86c.33,1,.65,1.92,1,2.88-.08,8.8,7,10.82,13,14.45,7.61,4.67,14.66,10.28,21.94,15.49,1.55,7.61,4.44,15.26,4.31,22.85C1029.84,607.82,1027.05,616.67,1025.4,625.55Z" transform="translate(-45 -63.42)"/><path class="cls-1" d="M196.09,433.93c-.8,1.63-1.17,4-2.47,4.76-9.17,5.56-18.27,11.36-28,15.86-4.13,1.92-9.62.91-14.5,1.23l-5.21-1.1,3.93,2.56,5.39,4.68-30,14.39c-7.44-3.41-14.57-8.09-22.38-10-13.81-3.33-21-11.66-23.52-25,12.8-.77,25.87-.23,38.28-2.84,6.5-1.36,11.85-8.23,17.72-12.62l9.23-.43Z" transform="translate(-45 -63.42)"/><path class="cls-1" d="M131.72,266.45c-.16,1.74-.31,3.49-.47,5.23-3.23-7.11-6.46-14.22-10.7-23.57-10,22.47-26.86,18-44.66,16.56l5.17,22.89c-3.24-3.91-7.32-7.39-9.5-11.82-3.21-6.53-5-13.73-7.47-20.65-.1-.3-.22-.75-.08-.94,6.46-8.39-.71-16.73-.08-25.08.81-10.68,8.74-18.79,19.74-20.22a21.27,21.27,0,0,1,22.69,13.94c1.27,3.54,1.55,7.43,2.46,12.06,12.74,4.92,21.79,13.9,22.86,29.1C131.7,264.79,131.71,265.62,131.72,266.45Z" transform="translate(-45 -63.42)"/><path class="cls-1" d="M679.56,193.5c-3.49-9.84,5.37-25,17.34-29.63,14.21-5.53,32.6.66,41.36,13.91s6.59,31.5-5.09,42.81l-7.34,5.17h0l-10,2.58c-6.55-.88-2.72-3.44-1.17-6.09,6.66-11.34,4.32-20-6.4-27-3.25-2.12-5.62-5.6-6.6-6.61-4.79,1.65-8.62,3.32-12.62,4.24C686,193.56,682.74,193.32,679.56,193.5Z" transform="translate(-45 -63.42)"/><path class="cls-7" d="M814.13,841c.37-1.65.84-3.28,1.34-4.94-8-9.25-16.12-18.33-24.19-27.48a1.86,1.86,0,0,0-1.3.49c0,3.06-.07,6.12-.1,9.19-2,18.08-19.54,28.41-32.63,23.9-5.67-1.95-11.25-4.36-16.87-6.56l-10.93-2.7c2.07,10.75,7.71,17.56,15.62,21.86l15.4,2.2c10.47,3,20.22.3,29.52-5.84l12.37-7.93c.26-2.19.53-4.37.79-6.56l2,.38L804,843.32c0,1.28.07,2.56.1,3.84.6.27,1.17.56,1.73.87A14.74,14.74,0,0,1,814.13,841Z" transform="translate(-45 -63.42)"/><path class="cls-8" d="M679.56,193.5c3.18-.18,6.46.06,9.53-.64,4-.92,7.83-2.59,12.62-4.24,1,1,3.35,4.49,6.6,6.61,10.72,7,13.06,15.68,6.4,27-1.55,2.65-5.38,5.21,1.17,6.09-1.48,5.21-3.71,11.19,3.21,13.64,3,1.07,8.78.11,10.62-2.13,4.49-5.45,1.48-10.46-3.87-14.09h0c7.69.43,14.46,2.62,18.66,9.74.17,10.17-5.79,14.49-15,15.7l-3.61.18-11.82-.69c-4-3.72-10.12-6.82-11.46-11.34-1.09-3.62,3.57-9,5.74-13.67l-8.44,2.42c-1.83-3-2.95-7.17-5.6-8.68C684,213.57,679.07,205.22,679.56,193.5Z" transform="translate(-45 -63.42)"/><path class="cls-8" d="M81.06,287.56l-5.17-22.89c17.8,1.46,34.67,5.91,44.66-16.56,4.24,9.35,7.47,16.46,10.7,23.57-1.6,17.66-13.12,25.48-28.86,29.12l-16.84-9.61-2.62-2,.13.16-2-2Z" transform="translate(-45 -63.42)"/><path class="cls-9" d="M699.9,228.1l8.44-2.42c-2.17,4.71-6.83,10-5.74,13.67,1.34,4.52,7.42,7.62,11.46,11.34-3-.25-6.9.6-9-.94-11.58-8.52-13.9-9.13-24.81-.64-10.68,8.31-20.77,17.38-31.44,26.38-7.23-3-38.95,3.2-44.18,9.21-1,1.12-2.28,3.28-1.84,4.11,1.54,2.87,3.49,7.31,5.79,7.65,6.73,1,13.71.25,20.59.24,20.73,0,37.19-10.32,52.77-22.44,7.82,5,4.86,11.92,4.54,18.39-.47,9.85-2.6,20.36.1,29.34,1.59,5.29,11.34,7.94,17,12.26,2.07,1.57,3.06,4.57,4.54,6.91l-26.71-13.53.78-44,.27-2.42c-1.54.4-3.56.31-4.54,1.27-19.52,19.18-45.32,17.75-69.56,21.41l-5.57-3.63Q601,292,599.06,283.74c6-3.09,11.89-6.64,18.17-9.13,4.07-1.61,8.72-2.1,13.15-2.36,12.63-.74,22.8-5.79,32.23-14.38C674.35,247.19,687.41,238,699.9,228.1Z" transform="translate(-45 -63.42)"/><path class="cls-3" d="M77.59,591c-.08,7,.37,14.09-.52,21-.37,2.88-3.61,5.39-5.55,8.07-1.91-2.7-4.27-5.19-5.56-8.16-1-2.2-.51-5-.69-7.54q.3-56.05.62-112.1,0-7.18.11-14.37l11.53,9.81q.06,47.93.13,95.85c.08,1.93.17,3.87.25,5.81A3.33,3.33,0,0,0,77.59,591Z" transform="translate(-45 -63.42)"/><path class="cls-8" d="M213.93,269.89c7.28-9.61,14.28-19.46,22-28.74,4.13-5,18.32-2.92,23.55,2.71s5.35,18.84-.84,23.31c-5,3.57-11,5.76-16.7,8.15-6.64,2.77-13.46,5.1-20.2,7.62Q217.82,276.43,213.93,269.89Z" transform="translate(-45 -63.42)"/><path class="cls-8" d="M144.64,425.45l-9.23.43q-3-7.9-6.08-15.8l9.81-5.7c3.27-3,7.5-5.36,9.59-9,4-6.92,15.36-13.29,22.71-8.83,5.29,3.21,9.73,10.87,10.82,17.19,1.48,8.6-6.15,15.37-15.21,16.16-4.11.36-8.45-.74-12.37.18C151.11,420.92,148,423.59,144.64,425.45Z" transform="translate(-45 -63.42)"/><path class="cls-8" d="M599.06,283.74q1.89,8.26,3.77,16.53L593,303c-5.33,2.29-10.69,4.51-16,6.9-2.81,1.27-5.33,3.56-8.23,4.14-7.41,1.47-14.73,0-18.19-7.18-3.74-7.73-3.77-16.05,2.32-23.27l13.32-4.06C576.46,286.62,587.83,284.66,599.06,283.74Z" transform="translate(-45 -63.42)"/><path class="cls-8" d="M392.92,132c.28-1.58.51-3.16.83-4.72,3-14.49,10-18.61,24.24-13.68,8.43,2.91,16.61,6.53,24.9,9.84-4.35,5.08-8.23,10.71-13.22,15.06-3.64,3.17-8.74,4.65-13.2,6.88-5.16-6.41-12.44-6.58-19.35-.44Z" transform="translate(-45 -63.42)"/><path class="cls-7" d="M79.41,441.34c2.52,13.34,9.71,21.67,23.52,25,7.81,1.88,14.94,6.56,22.38,10l-1.83,1.48c-13.55-1.22-27.51-.85-40.5-4.23-8.52-2.21-15.63-9.84-23.38-15-2.49-9.66,1.18-17.68,6.69-25.22Z" transform="translate(-45 -63.42)"/><path class="cls-10" d="M213.93,269.89q3.88,6.53,7.79,13.05-1.54,4.28-3.1,8.57c-8-6-13.14.48-18.14,4.79-3.51,3-8.49,6.85-3.51,12.75l-15.31,9.36c-3.11-12.61-3.28-24.59,7.28-34.34a24.62,24.62,0,0,0-2-2.72C194.72,274.65,202.82,268.72,213.93,269.89Z" transform="translate(-45 -63.42)"/><path class="cls-4" d="M566.28,279.48l-13.32,4c-14-6.74-28.48-9.66-43.92-6.4-7.4,1.57-14.82,3-22.23,4.51l-5.16-9.79c16.46-8.91,34.43-9.07,52.12-7.27C545.74,265.8,558.29,268.34,566.28,279.48Z" transform="translate(-45 -63.42)"/><path class="cls-8" d="M892.65,433c5.86.91,11.8,1.53,17.58,2.83,5.47,1.22,8.22,3.62,7.16,10.73-1.31,8.9.12,18.21.37,27.34-4.09-2.26-8.14-4.58-12.26-6.77-10.25-5.45-16.93-13.52-17.15-25.45C888.3,438.84,891.14,435.93,892.65,433Z" transform="translate(-45 -63.42)"/><path class="cls-11" d="M751.67,232.66c3.65,8.22,10.09,16.31,10.44,24.67,1.28,30.37,1,60.85.07,91.25-.14,4.52-6.75,8.84-10.36,13.26l-.72.1-4.06-.37-1.86-.37c0-.73,0-1.46-.08-2.19a16.71,16.71,0,0,0-2.41-2.74c-6.32-4.69-11-10.36-7.17-18.52,3.7-7.85,10.71-9.24,18.67-7.23a32.61,32.61,0,0,0,4.66.33c0-11-1-21.56.22-31.86,2.77-22.7,3.3-44.84-8.26-65.61Zm8.84,115.22c-3.19-7-6.71-12.84-14.65-11.35-2,.36-4.94,6.86-4,9C746.23,355.15,753.35,349.08,760.51,347.88Z" transform="translate(-45 -63.42)"/><path class="cls-10" d="M59.6,458.52c7.75,5.2,14.86,12.83,23.38,15,13,3.38,27,3,40.5,4.23l-26.93,15.4-19-5.54L66,477.84C58.22,473.27,60.29,465.44,59.6,458.52Z" transform="translate(-45 -63.42)"/><path class="cls-9" d="M360.66,344.58c-9.54,5-19,10.26-28.68,14.83-3.85,1.8-8.42,2-12.67,3q6.18-30.82,12.35-61.67c6.07,1.91,12.26,3.52,18.15,5.88a8.91,8.91,0,0,1,4.8,5.38C356.93,322.79,358.7,333.71,360.66,344.58ZM324.6,357.37c6.34-2.64,9.88-3.94,13.29-5.56,13.54-6.42,22-15.32,14.6-31.45-1.49-3.26-2.68-8.17-5.2-9.1-3.89-1.43-9.88-1.61-13,.55-2.61,1.84-2.54,7.71-3.36,11.85C328.9,334.11,327,344.6,324.6,357.37Z" transform="translate(-45 -63.42)"/><path class="cls-3" d="M804.58,876.55c.07-7-.36-14,.35-20.9.74-7.14,1.53-15.22,10.64-14.62q.57,14.33,1.15,28.66-.06,14-.14,28c-.06.77-.13,1.54-.19,2.32l-.18,70.38c-.64-4.43-1.78-8.84-1.84-13.28-.22-16.84-.09-33.69-.09-50.54l-2.28-.72-5.47,8.31Zm9.06-25.47c-.24-.62-.36-1.5-.73-1.69s-1,.33-1.47.53l.93,2.22Z" transform="translate(-45 -63.42)"/><path class="cls-5" d="M806.53,924.24q2.73-3.42,5.47-6.82l2.28.59c0,13.82-.13,27.65.09,41.46.06,3.64,1.2,7.27,1.84,10.9.18,1.13.35,2.26.53,3.39-.17,3.78.27,7.75-.73,11.31-.78,2.82-3.33,5.14-5.1,7.68-2-2.4-5.6-4.65-5.89-7.25-.82-7.52-.33-15.18-.36-22.79Q805.59,943.48,806.53,924.24Z" transform="translate(-45 -63.42)"/><path class="cls-9" d="M146.35,596.72a1.5,1.5,0,0,0-.36,1.36l-11.1,5q-5.85-5.9-11.69-11.78-4.29-13.14-8.56-26.29l31.43,20.36C146.17,589.15,146.26,592.94,146.35,596.72Z" transform="translate(-45 -63.42)"/><path class="cls-12" d="M85.55,291.19l16.84,9.61q.15,1.93.33,3.87c-2,4.34-4.38,8.53-5.79,13-2,6.26-5.76,9.21-12.12,7.86-6.64-1.41-6.66-6.55-6.07-12,.13-1.25-1-2.64-1.59-4,4.67-5.32,9.7-10.51,5.76-18.5Z" transform="translate(-45 -63.42)"/><path class="cls-3" d="M187,281.35a24.62,24.62,0,0,1,2,2.72c-10.56,9.75-10.39,21.73-7.28,34.34l-15.85,5.74q-1.8-13.35-3.61-26.71Z" transform="translate(-45 -63.42)"/><path class="cls-10" d="M162.2,297.44q1.81,13.35,3.61,26.71l-21.17,3.36q-.79-13.51-1.58-27Z" transform="translate(-45 -63.42)"/><path class="cls-9" d="M479.72,976.85l-12.25,10.06-3.6,1.07a1.14,1.14,0,0,0-1.45.15l-6.09-.72-3.5-1.85-.1-.07-3.9-5.59h0l1.71-9.4c1.84,7.58,7.2,9.39,13.79,7.43,7.33-2.17,9.05-8.78,5.68-19l3.82-4.46c4.17-1.37,8.35-3.82,12.51-3.8,3.81,0,9.41,1.75,10.92,4.53s.12,8.71-2.13,11.57c-2.73,3.46-7.7,5.14-11.7,7.59,2.87-3.47,5.89-6.83,8.55-10.46,1.17-1.59,2.62-4.07,2.12-5.51s-3.84-3.57-4.9-3.09c-4.64,2.1-10.18,4.09-13,7.89C473,967.65,473.38,973.62,479.72,976.85Z" transform="translate(-45 -63.42)"/><path class="cls-3" d="M737.1,935.67c.06-.66.13-1.32.19-2l9.61,5.84.13,19.23c0,8,.33,16-.33,24-.2,2.36-3.26,4.48-5,6.71a60.67,60.67,0,0,1-4.35-6.88c-1.53-3.32-2.61-6.85-3.88-10.3q1.72-15.22,3.46-30.46Z" transform="translate(-45 -63.42)"/><path class="cls-3" d="M143.06,300.48q.8,13.51,1.58,27l-2,.19-1.91.15-9.9,1.56-1.8,0-7.89-25.94Z" transform="translate(-45 -63.42)"/><path class="cls-7" d="M751.1,361.94l.72-.1c10.66.49,12.44,3.3,12.48,19.65-6.9,5.66-14,5.5-20.7,0-2.57-2.09-4.29-5.22-6.39-7.88l8-12.43,1.86.38Z" transform="translate(-45 -63.42)"/><path class="cls-12" d="M397.12,145c6.91-6.14,14.19-6,19.35.44.08,2,.17,3.92.25,5.88l-2.82,10.94c-12.43,9.93-15.34,8.92-19.69-6.78-.14-.51-.87-.86-1.32-1.29l3.49-7C396.62,146.43,396.87,145.7,397.12,145Z" transform="translate(-45 -63.42)"/><path class="cls-13" d="M918.82,477.28c6.61,3.22,13.55,5.91,19.72,9.83,4.57,2.91,2.85,7-.76,10.12l-15.85-.3q-1.11-5.73-2.24-11.45Z" transform="translate(-45 -63.42)"/><path class="cls-9" d="M417.77,75.33l-26.48,5,7.83-14.46C406.66,66.4,414.67,66,417.77,75.33Z" transform="translate(-45 -63.42)"/><path class="cls-14" d="M197,309.05c-5-5.9,0-9.73,3.51-12.75,5-4.31,10.12-10.83,18.14-4.79Z" transform="translate(-45 -63.42)"/><path class="cls-12" d="M744.49,235.5c-4.2-7.12-11-9.31-18.66-9.74l7.34-5.17c3.68,1.8,7.57,3.3,11,5.49,2.77,1.76,5,4.36,7.49,6.58l-.86.72Z" transform="translate(-45 -63.42)"/><path class="cls-10" d="M737.1,935.67l-.18,6.12c-.51-2-1-4-1.54-6Z" transform="translate(-45 -63.42)"/><polygon class="cls-8" points="344.72 73.92 345.05 73.23 345.27 73.98 344.72 73.92"/><path class="cls-10" d="M1021.73,631.45l2.38-3.48Z" transform="translate(-45 -63.42)"/><path class="cls-6" d="M891.39,418.26l3.3-2.52.55.6-3.41,2.31Z" transform="translate(-45 -63.42)"/><path class="cls-4" d="M462.42,988.13a1.14,1.14,0,0,1,1.45-.15Z" transform="translate(-45 -63.42)"/><path class="cls-8" d="M131.72,266.45c0-.83,0-1.66,0-2.5C131.7,264.78,131.71,265.62,131.72,266.45Z" transform="translate(-45 -63.42)"/><path class="cls-1" d="M81,287.34l2,2Z" transform="translate(-45 -63.42)"/><path class="cls-1" d="M85.55,291.19l-2.64-.08a6.26,6.26,0,0,1-.44-1.28c0-.19.29-.42.46-.63Z" transform="translate(-45 -63.42)"/><path class="cls-10" d="M129.06,329.44l1.8,0c-.5.71-1,1.43-1.48,2.14C129.27,330.85,129.17,330.15,129.06,329.44Z" transform="translate(-45 -63.42)"/><path class="cls-10" d="M1029.89,570c.06-.53.14-1.07.22-1.6a7.85,7.85,0,0,1,1.19,0C1030.82,568.9,1030.35,569.43,1029.89,570Z" transform="translate(-45 -63.42)"/><path class="cls-10" d="M140.76,327.85l1.91-.15Z" transform="translate(-45 -63.42)"/><path class="cls-15" d="M816.39,912.62c.06-.63.13-1.27.19-1.9a7.31,7.31,0,0,1,.44,1.4C817,912.26,816.61,912.45,816.39,912.62Z" transform="translate(-45 -63.42)"/><path class="cls-3" d="M110.31,304.09l-2.32.18Z" transform="translate(-45 -63.42)"/><path class="cls-2" d="M404.23,731.94l-2-8.17.63-30.37c3.14-1,6.32-3,9.44-2.88,12.32.34,24.63,1.32,36.94,2.07l20,1.25q3.44,19.14,6.86,38.27l-4.91,13.2c-20.38,1.53-40.28-.61-59.56-7.63Z" transform="translate(-45 -63.42)"/><path class="cls-9" d="M240.85,652.82a16.59,16.59,0,0,1,1.52.92l1.57,1.42.37.41,3.49,3.72c4.55,4.5,9.08,9,13.65,13.49s6.32,9.85,2,15.36c-4.05,5.16-9.25,5.06-14.51,1.58-8.76-5.8-18.14-10.91-26-17.79-3.81-3.34-4.7-10-6.9-15.17,2.63,5.13,5.34,11.64,12.24,9.3,4.21-1.42,7.19-6.54,10.62-10.1A15.66,15.66,0,0,0,240.85,652.82Z" transform="translate(-45 -63.42)"/><path class="cls-8" d="M240.85,652.82a15.66,15.66,0,0,1-1.91,3.14c-3.43,3.56-6.41,8.68-10.62,10.1-6.9,2.34-9.61-4.17-12.24-9.3q1.15-12,2.32-23.9L233,635.47l7.94,3.61Q240.88,645.95,240.85,652.82Z" transform="translate(-45 -63.42)"/><path class="cls-1" d="M233,635.47l-14.55-2.61q-2-4.17-4-8.35Z" transform="translate(-45 -63.42)"/><path class="cls-8" d="M247.8,659.29l-3.49-3.72Z" transform="translate(-45 -63.42)"/><path class="cls-8" d="M243.94,655.16l-1.57-1.42Z" transform="translate(-45 -63.42)"/><path class="cls-3" d="M898.9,106.49l4.19.88Z" transform="translate(-45 -63.42)"/><path class="cls-1" d="M674.81,916.57q-1.69-11.6-3.41-23.2c.76-19.13,1.23-38.27,2.39-57.37.8-13.1,4.22-25.26,16.85-32.43a5.36,5.36,0,0,0,2-2c9.8-19,26.56-19.5,44.54-16.87,1.07,4.88,2.28,9.73,3.19,14.63,2.48,13.31,6.67,16.55,20.47,17.27a98.76,98.76,0,0,0,43.78-7.57l-.12,9.19c-6.07.11-12.2-.31-18.19.43-15.81,2-31.68,4.11-43.31,16.91l-13.58-2.7-6.89-1.44c-.48,1.79-1.07,2.77-.9,3.58,1.48,7.31,3.09,14.6,4.66,21.89-1.36,1.93-3.59,3.71-4,5.81-1.71,9.89-2.92,19.87-4.3,29.82l-9.67-5.34q-3.75-10.94-7.49-21.85l-1.55.21v25.81l-.27,11.48q-1.46,6.71-2.92,13.42Z" transform="translate(-45 -63.42)"/><path class="cls-3" d="M472,774.31c.1-3.4.19-6.8.29-10.2l7.2.44-.07-.09c.68,1.06,1.35,2.13,2,3.2l9,4.43c17.32,10.23,34.68,20.41,52,30.71,15.77,9.4,31.92,17.59,50.91,17.64l7.24.08c9.2-2.35,19.29-3,27.42-7.36,26.64-14.2,52.57-29.74,78.77-44.77l27-13.4,3.06,15.24c-2.58-5.5-6.08-2.79-9.3-.92-26,15-52.1,29.81-77.81,45.28-19.62,11.81-40.06,21.44-63.28,16.87-14-2.76-28-8.29-40.69-15C520.69,803.31,496.52,788.47,472,774.31Z" transform="translate(-45 -63.42)"/><path class="cls-6" d="M736.82,770.23,733.76,755v-13c-5.26,6.26-8.37,10.76-12.25,14.45-14,13.3-30.35,8.51-34.45-10.41a88.33,88.33,0,0,1,2.64-48.23l.22-.24,5.18-4,.7-.42,11,.87c3.33,6.73,6.65,13.46,9.72,19.69l4.77-7.83q2.13,10.31,4.27,20.61l-2.33.31-4.18-8.86-8.79,6.7c.5-7.44.87-12.93,1.26-18.63a60.71,60.71,0,0,1-6.36-2c-7.17-3.15-12.77-1.29-13.64,6.38-1.24,10.93-.62,22.06-.73,33.11-.08,6.94,3.93,7.7,9.47,6.19.37-.11,1,.61,1.61,1.05-.59,2.19-1.18,4.41-1.85,6.9,13.1,4.08,18.43-4.31,24.27-12.6,1.67-2.36,6.12-5,8.13-4.33,2.82,1,6.08,4.86,6.48,7.85,1.89,14.17,3.11,28.45,4.05,42.73.4,6.14-.44,12,7.24,14.75,5.84,2.12,11.84,8.91,16.62,7.94,15.33-3.09,31.61-5.22,44.4-15.2,3.49-2.72,5.48-10,4.86-14.81-1.6-12.21-5.14-24.17-7.74-36.26-1.54-7.12-2-14.56-4.29-21.42-3.17-9.6-10.29-18.64-10.81-28.2-.76-13.82-9.34-21-17.4-29.31-6-6.22-15-6.67-20.71-3.13-6.8,4.17-14.41,7-21.67,10.42,8.45-14,20.86-18.78,38.11-14.55l5.95,1.77c15.77,9.1,19.78,25.28,24.81,40.9.87,2.69,2.74,5.05,4.14,7.57l1.44,10.29c4,18.94,8.38,37.81,11.8,56.85,3.48,19.35,2.64,20.34-13.45,29.8a2.64,2.64,0,0,0-1.61.49,98.76,98.76,0,0,1-43.78,7.57c-13.8-.72-18-4-20.47-17.27-.91-4.9-2.12-9.75-3.19-14.63Z" transform="translate(-45 -63.42)"/><path class="cls-3" d="M807.91,721.91l-1.44-10.29,2.17-2.42,94-54.44.73-.15h.75q-.06,7-.14,14c-18.08,10.12-36.14,20.29-54.26,30.35C835.85,706.69,821.87,714.27,807.91,721.91Z" transform="translate(-45 -63.42)"/><path class="cls-9" d="M901.56,839.69l3.21,7.19c0,2.51-.07,5,0,7.54.33,11.38,7.22,15.08,17.44,9.44a31.36,31.36,0,0,1,4.35-1.62c-.13,1.44-.26,2.88-.38,4.32a2.17,2.17,0,0,0-.47,1.59c-6.46,7-13.54,8.3-21,3.41-6.94-4.53-13.68-9.36-20.47-14.11-5.18-3.63-8.32-8-5-14.57,3.22-6.31,8.41-5.68,14-4.37C896,839.14,898.8,839.31,901.56,839.69Z" transform="translate(-45 -63.42)"/><path class="cls-9" d="M929.2,830.6q.31-10.79.62-21.58l14.84,3.22L949,822c-3,9.44-.71,16.6,6.46,18.62,9.06,2.55,12.11-3.7,14.47-10.6.11,2.58.23,5.17.34,7.75a1.59,1.59,0,0,0-.37,1.2c-7.1,8.65-12.22,9.57-21.23,3.88Q938.93,836.7,929.2,830.6Z" transform="translate(-45 -63.42)"/><path class="cls-8" d="M969.88,830c-2.36,6.9-5.41,13.15-14.47,10.6-7.17-2-9.48-9.18-6.46-18.62,7.38,5.45,14.28,5.07,20.66-1.68Z" transform="translate(-45 -63.42)"/><path class="cls-8" d="M926.57,862.24a31.36,31.36,0,0,0-4.35,1.62c-10.22,5.64-17.11,1.94-17.44-9.44-.08-2.51,0-5,0-7.54,6.91,5.81,13.85,4.36,20.8.1Q926.07,854.62,926.57,862.24Z" transform="translate(-45 -63.42)"/><path class="cls-8" d="M925.72,868.15a2.17,2.17,0,0,1,.47-1.59,8.68,8.68,0,0,1,.26,1.33C926.46,868,926,868.06,925.72,868.15Z" transform="translate(-45 -63.42)"/><path class="cls-8" d="M969.85,839a1.59,1.59,0,0,1,.37-1.2l.42,1.14Z" transform="translate(-45 -63.42)"/><path class="cls-16" d="M486.81,281.64c7.41-1.5,14.83-2.94,22.23-4.51,15.44-3.26,29.95-.34,43.92,6.4-6.09,7.23-6.06,15.55-2.32,23.28,3.46,7.16,10.78,8.65,18.19,7.18,2.9-.58,5.42-2.87,8.23-4.14,5.28-2.39,10.64-4.61,16-6.91,10,6.81,19.89,13.9,30.17,20.3,5.48,3.41,11.7,5.62,17.58,8.36,3.31,9.19,10.35,12.27,19.49,11.89l7.77,9.16c-18.39,5-37.09,9.16-55.12,15.26-34.66,11.72-47.24,31.54-44.8,67.81l-13.33-6.59c1.13-6.24,2.81-13.85-5-15.8s-16.81-2.59-24.53-.71c-7.44,1.81-7.41,9.67-5.6,16.5L403.3,495.7c-1.09-35.58-2.11-69.08-3.13-102.57q.3-6.67.61-13.34c1.81-5.52,5-11,5.15-16.58.34-10.42-1.05-20.9-1.72-31.36,7.58-4.87,15-9.94,22.78-14.56,11.83-7.07,23.86-13.83,35.8-20.73,5.35,4.2,11,5.78,17.37,2.23C487.22,294.88,487.47,288.47,486.81,281.64Zm-15.12,31.45c-8.59,8.36-5.57,18.79,1,27,4.13,5.14,16.44,6.41,23.29,3s11.52-14.17,9.53-22.19-6.62-13.07-13-13.12c-2.44,6.86-2.87,15.24-6.54,17.05C475.77,329.88,478.62,315.43,471.69,313.09Z" transform="translate(-45 -63.42)"/><path class="cls-13" d="M317.47,383.29c11.57-7.9,23-16,34.77-23.6,3.58-2.33,7.95-3.46,11.95-5.14l5.87,4.24q.06,5.49.11,11-12.92,10.29-5.6,23.7c1.13,2.1,2.18,4.24,3.26,6.37L358,401l-22.23.08c-2.48-1.19-4.85-2.69-7.45-3.5C321.27,395.33,317.37,390.89,317.47,383.29Z" transform="translate(-45 -63.42)"/><path class="cls-16" d="M392.89,154.17c.45.43,1.18.78,1.32,1.29,4.35,15.7,7.26,16.71,19.69,6.78.89,21.43-6.59,41.08-13.07,61.18-6.09-19.87-12.6-39.5-11.24-60.52C389.78,159.93,391.74,157.08,392.89,154.17Z" transform="translate(-45 -63.42)"/><path class="cls-4" d="M403.82,316.19c11.05-6.13,22.19-12.08,33.1-18.44,6.8-4,13.23-8.55,19.82-12.85q3,5.82,6.05,11.66c-11.94,6.9-24,13.66-35.8,20.73-7.74,4.62-15.2,9.69-22.78,14.56l-15.74,5.95q-1.08-5.87-2.17-11.73l12.13-6.15.16-.16Z" transform="translate(-45 -63.42)"/><path class="cls-13" d="M388.47,337.8l15.74-5.95c.67,10.46,2.06,20.94,1.72,31.36-.18,5.57-3.34,11.06-5.16,16.58L389.47,368l-4.31-11.33Q386.81,347.24,388.47,337.8Z" transform="translate(-45 -63.42)"/><path class="cls-17" d="M385.16,356.69q2.14,5.65,4.31,11.33c.21,3.46,1.41,7.24.4,10.28-1.12,3.35-3.9,7.87-6.66,8.43s-7.15-2.63-9.15-5.4c-2.27-3.14-2.67-7.64-3.88-11.54l-.12-11Z" transform="translate(-45 -63.42)"/><path class="cls-9" d="M403.82,316.19l-5.23,3.57q.54-6.18,1.07-12.35l-16.33,3c1,3.61,2,7.38,3,11.09l12.12-1.57-12.13,6.15c-9.28-14.44-9.52-29.24.13-37.44.28,5.38.53,10.23.85,16.57l16-2.87Q403.53,309.26,403.82,316.19Z" transform="translate(-45 -63.42)"/><path class="cls-9" d="M431,922.76l13.75-4.36q.93,10.74,1.85,21.48c-7.63,5-15.15,10.13-22.91,14.9-11.1,6.85-20.76,1.54-21-11.32.78.55,1.88.92,2.27,1.67,3.78,7.32,10.32,8.19,16.19,4.67,6.37-3.83,6.38-10.35,2.15-16.52Z" transform="translate(-45 -63.42)"/><path class="cls-8" d="M423.33,933.28c4.23,6.17,4.22,12.69-2.15,16.52-5.87,3.52-12.41,2.65-16.19-4.67-.39-.75-1.49-1.12-2.27-1.67q1-5.75,2-11.46C410.69,936,416.81,937.48,423.33,933.28Z" transform="translate(-45 -63.42)"/><path class="cls-8" d="M470,959c3.37,10.2,1.65,16.81-5.68,19-6.59,2-11.95.15-13.79-7.43l4.87-8.57Z" transform="translate(-45 -63.42)"/><path class="cls-7" d="M479.47,764.55l-7.2-.44q-.57-9.39-1.13-18.8l4.91-13.2,3.31,1.92c.2,2.09,1.38,5,.44,6.17C473.45,748.38,475.17,756.38,479.47,764.55Z" transform="translate(-45 -63.42)"/><path class="cls-5" d="M921.93,496.93l15.85.3c-2,6.57-4.62,13-5.85,19.74-1.83,10,3.09,17.43,11.58,22.22,24.37,13.76,23.76,24.7,12.13,45.3-9.65,17.1-7.45,30.71,4.93,44.29A18.7,18.7,0,0,1,962.5,632c-.06.66-.12,1.33-.19,2-16.44,7.84-33.24,13.72-51.89,9.41-1.89-6.25-5.26-12.47-5.39-18.76-.32-16.86,1.1-33.74,1-50.61,0-3.86-3.45-7.71-5.31-11.56-1.45,1-3.18,1.85-4.29,3.18-10.79,12.94-21.47,26-32.18,39L862,606.23l-3.41.42c-3.42-5.23-11.86-7.11-10.42-15.59,6.39-8.2,12.89-16.33,19-24.73.76-1.05-.51-3.59-.84-5.44q-1.08-7.67-2.15-15.33c3.56-2,6.91-5.06,10.72-5.85,11.62-2.4,19.22-8.77,23.18-19.9,3.65-10.28,11.17-17.24,20.34-22.63Z" transform="translate(-45 -63.42)"/><path class="cls-16" d="M864.24,604.66c10.71-13,21.39-26,32.18-39,1.11-1.33,2.84-2.13,4.29-3.18,0,22.74-.18,45.49.19,68.22.06,4.17,2.4,8.3,3.69,12.45l-.42,11.43h-.76l-.73.15c-1.92-1-3.9-1.88-5.76-3Q871.86,637,846.84,622.07c.84-1.22,1.74-3.52,2.53-3.49,9,.44,9.52-5.36,9.2-11.93l3.41-.42Z" transform="translate(-45 -63.42)"/><path class="cls-3" d="M904.59,643.18c-1.29-4.15-3.63-8.28-3.69-12.45-.37-22.73-.19-45.48-.19-68.22,1.86,3.85,5.28,7.7,5.31,11.56.11,16.87-1.31,33.75-1,50.61.13,6.29,3.5,12.51,5.39,18.76Z" transform="translate(-45 -63.42)"/><path class="cls-18" d="M384,85.94,388,83.1l1,1.14-3,3.66Z" transform="translate(-45 -63.42)"/><path class="cls-19" d="M402.85,693.4l-.63,30.37c-5.07-4-9.76-8.72-15.29-12-45.39-26.81-90.95-53.33-136.42-80-3-1.76-5.69-4-8.52-6.07l-1.08-36.33c2.18-.32,4.69,0,6.49-1C266,578,284.48,567.47,303,557q12.24-6.93,24.49-13.81l9.23,13.8,29.45,24.75c-.05,33.13-.22,66.26.11,99.39,0,2.75,3.53,5.46,5.41,8.19,1.92-2.69,4.57-5.14,5.58-8.14,1.36-4,1.44-8.41,2.07-12.64,5.81,5.55,11.74,11,17.38,16.71C399.08,687.65,400.82,690.66,402.85,693.4Z" transform="translate(-45 -63.42)"/><path class="cls-20" d="M240.91,589.39,242,625.72l-27.78-17c-4-18.62-6.41-37.74-12.32-55.72-6.38-19.37-7.82-18.93-24.91-8.22-7.56,4.74-14.82,10.48-24.64,6.36l-5.55-17.79-.18-.88c9.28-6.55,18.57-13.09,30.31-21.36l-32.25-22.34L141,485.41c1.68-2.44,2.83-5.86,5.15-7.11,6.86-3.72,14.19-6.58,21.34-9.77,9.05,8,18,16.1,27.27,23.74,1.92,1.58,6.45,2.72,7.95,1.6,8.74-6.52,16.94-13.78,25.33-20.79-.28-1.4-.55-2.8-.83-4.2l-46.16-8.33c12-10.11,24.39-19.31,40.6-21.34,6,2.07,12.34,3.56,18,6.33,17.39,8.46,22.59,24.8,11.23,40.43-7.74,10.65-18.16,19.5-28.13,28.3-4.77,4.21-6.05,7.11-2.59,12.73C232,546.13,237.12,567.56,240.91,589.39Z" transform="translate(-45 -63.42)"/><path class="cls-16" d="M152.34,551.1c9.82,4.12,17.08-1.62,24.64-6.36,17.09-10.71,18.53-11.15,24.91,8.22,5.91,18,8.35,37.1,12.32,55.72-16.12-8.73-32.27-17.42-48.35-26.23a160.85,160.85,0,0,1-15.5-9.34c-2.32-1.64-3.74-4.54-5.57-6.87Z" transform="translate(-45 -63.42)"/><path class="cls-16" d="M111.9,500.9c6.16-7.37,13.28-11.84,23.26-7.76q0,21.12.05,42.26c-3.66,3.32-7.23,6.75-11,9.91-2.64,2.2-5.58,4-8.39,6-1.48-1.34-3-2.68-4.44-4Z" transform="translate(-45 -63.42)"/><path class="cls-4" d="M115.8,551.35c2.81-2,5.75-3.84,8.39-6,3.79-3.16,7.36-6.59,11-9.91l11.58-2.09,5.55,17.79-7.55,15.14Z" transform="translate(-45 -63.42)"/><path class="cls-10" d="M100.53,543.58l-.06-37,11.44-5.72q-.28,23.22-.55,46.42Z" transform="translate(-45 -63.42)"/><path class="cls-16" d="M918.41,497.18c-9.17,5.39-16.69,12.35-20.34,22.63-4,11.13-11.56,17.5-23.18,19.9-3.81.79-7.16,3.84-10.72,5.85-13.83,1.14-27.65,2.73-41.5,3.14-3.51.1-7.46-3.14-10.61-5.61-6.1-4.76-12-9.58-20.18-5-4.07,2.28-7.91,5-11.85,7.49l-23-8.66c-.14-1.85-.34-4.64-.53-7.43,2.94-2.32,5.92-4.58,8.81-7,4.91-4,9.76-8.12,14.63-12.18,3,1.5,5.93,3.48,9.12,4.36,4,1.1,9.23,3.17,12.08,1.56,20.82-11.82,41.19-24.45,62.28-37.18-12.81-7.45-25.82-14-37.61-22.27-6.4-4.5-11.3-4.74-17.37-1.13-9.81,5.85-19.49,12-29.51,17.43-7.18,3.92-14.83,7-22.27,10.42q0-39.43-.1-78.87c5,1.55,10.44,2.24,14.83,4.79,29.95,17.39,59.71,35.09,89.45,52.84C880.09,473.81,899.22,485.55,918.41,497.18Z" transform="translate(-45 -63.42)"/><path class="cls-20" d="M568.12,435.72c-2.44-36.27,10.14-56.09,44.8-67.81,18-6.1,36.73-10.24,55.12-15.26,9.3,4.35,18.75,8.39,27.84,13.13,10.61,5.54,20.93,11.64,31.27,17.67,1.11.64,1.52,2.47,2.26,3.75l-21,6-9.09-17.82c-4.56,1.71-6.5,7.31-2.52,12.44,2.1,2.7,4.35,5.27,6.53,7.9-.45,1-.9,2-1.34,3l-19,9.67-3.36,3.21-3.86.09,2.73-13.6-1.89-1.58c-1.6,2.2-4.11,4.22-4.58,6.65-.72,3.66,0,7.61.08,11.43-12.77,12.88-25.9,25.42-38.09,38.82-4,4.43-5.65,11.08-8.37,16.71l-39.4,23.33c-1.53-5.89-2.36-12.09-4.76-17.61-4.26-9.77-9.46-19.14-14.27-28.67Q567.71,441.46,568.12,435.72Zm34.78,15.46c16.11-29.65,40.44-50.6,67.05-70-18.49,4.33-36.61,9.29-54.13,15.85C593.73,405.29,588.47,425.8,602.9,451.18Z" transform="translate(-45 -63.42)"/><path class="cls-16" d="M722.05,416.2l24.68-3.7q0,38.31,0,76.64l-24.86-13.52Q722,445.91,722.05,416.2Z" transform="translate(-45 -63.42)"/><path class="cls-8" d="M660.27,343.49c-9.14.38-16.18-2.7-19.49-11.89l.24-11.4c17-14.69,19.09-14.41,33.32,3.2,1.62,2,4.7,2.85,7.11,4.23l26.71,13.53c.81,2,1.61,4,2.42,6-2.77,2.54-5.22,6.56-8.39,7.24-4,.87-8.54-1-12.86-1.68C682,342.1,671.32,342.27,660.27,343.49Z" transform="translate(-45 -63.42)"/><path class="cls-16" d="M625.72,470.14c2.72-5.63,4.33-12.28,8.37-16.71,12.19-13.4,25.32-25.94,38.09-38.82l3.66-2.9,3.86-.08c0,.88-.07,1.76-.1,2.64l-2,3.75v32.21c-3.74-.29-8.28-2.11-11.08-.62-11.46,6.1-22.39,13.21-33.52,19.95Z" transform="translate(-45 -63.42)"/><path class="cls-16" d="M687.32,422c0-5.4,1.44-8.61,8-6.72,5.43,1.56,11.17,2,16.77,3q-.72,25.88-1.44,51.77l-23.41-15.63Z" transform="translate(-45 -63.42)"/><path class="cls-10" d="M746.77,489.14q0-38.33,0-76.64l9.8-7.82q0,39.44.1,78.86l-6.24,6.26Z" transform="translate(-45 -63.42)"/><path class="cls-10" d="M710.7,470q.72-25.89,1.43-51.77l9.92-2q-.07,29.7-.14,59.42Z" transform="translate(-45 -63.42)"/><path class="cls-7" d="M708.45,393.22l21-6,15.73,6.57c-7,7.73-26.22,11.3-35.1,7.52a83.84,83.84,0,0,0-8-2.55c.44-1,.89-2,1.34-3Z" transform="translate(-45 -63.42)"/><path class="cls-10" d="M687.32,422q0,16.21,0,32.43l-9.69-4.16V418Z" transform="translate(-45 -63.42)"/><path class="cls-12" d="M718.39,366.41l-12.14-3.25q5-4.19,10-8.35c7.85-2.71,13.83-1.78,15.36,7.86Z" transform="translate(-45 -63.42)"/><path class="cls-1" d="M718.39,366.41l13.17-3.75,4.54-1.74.55-.15,5.06-.49,1.49-1.2h.95l1-.07c0,.72.06,1.45.08,2.18l-8,12.43Z" transform="translate(-45 -63.42)"/><path class="cls-9" d="M716.2,354.81q-5,4.17-10,8.35l-16.92-10.44c4.32.68,8.89,2.54,12.86,1.67,3.17-.68,5.62-4.7,8.38-7.24Z" transform="translate(-45 -63.42)"/><path class="cls-14" d="M679.6,414.27c0-.88.06-1.76.1-2.64l3.36-3.22,4.21,4.86Z" transform="translate(-45 -63.42)"/><path class="cls-16" d="M240.91,589.39c-3.79-21.83-8.94-43.26-20.7-62.39-3.46-5.62-2.18-8.52,2.59-12.73,10-8.8,20.39-17.65,28.13-28.3,11.36-15.63,6.16-32-11.23-40.43-5.69-2.77-12-4.26-18-6.33-.26-1.28-1.06-3.49-.71-3.7q43.57-25.2,87.39-50c2.62-1.48,6.07-1.51,9.13-2.22-.11,7.6,3.79,12,10.87,14.26,2.6.81,5,2.31,7.44,3.5-.32,9.25-.43,18.53-1,27.77q-3.54,57.19-7.3,114.37Q315.25,550.09,303,557c-18.52,10.47-37,21-55.6,31.35C245.6,589.35,243.09,589.07,240.91,589.39Z" transform="translate(-45 -63.42)"/><path class="cls-16" d="M181.07,460.55l46.16,8.33c.28,1.4.55,2.8.83,4.2-8.39,7-16.59,14.27-25.33,20.79-1.5,1.12-6,0-7.95-1.6-9.32-7.64-18.22-15.78-27.27-23.74Z" transform="translate(-45 -63.42)"/><path class="cls-10" d="M146.79,533.31l-11.58,2.09q0-21.14-.05-42.26l5.86-7.73,3.65,3.32q1,21.86,1.94,43.7Z" transform="translate(-45 -63.42)"/><path class="cls-21" d="M891.83,418.65l3.41-2.31c16.25-8.85,32.73-9.18,48.28.78,4.27,2.73,6,9.48,10.13,16.54l-14.13,8.93,13.37,17.82-.11.11-4.66,5.36c9.08,5,4.09,16.24,10.17,22.56l11.3.55L961,498.15c5.3,6.09,5.3,6.09,14-.9,15.15,8.61,16.43,11.56,12.52,28.29-2.91,12.4-5.24,25.16,5.9,34.66,5.27,4.49,12.53,6.64,18.85,9.92,1.88,1,4.85,1.84,5.26,3.33,3.09,11.19,6.53,22.4,8.14,33.84,1.35,9.61-11.47,21.22-19.2,27-14,10.49-25,2-34.34-4.41-7.74-5.32-18.58-11.88-18.26-23.72.19-7.1,3.69-14.24,6.35-21.11,2.83-7.35,7-14.22,9.49-21.67,2-6.06-6.34-20.24-12.25-23.43a78.31,78.31,0,0,1-13.24-8.41c-9.48-7.92-10.29-15.63-4.08-26.57a39.52,39.52,0,0,0,4.77-12.16c1-5.59.24-9.84-7.34-11.84-9.87-2.59-16.64-15.89-15.57-26.34.07-.64,0-1.28.07-1.92,1-18.87.34-19.75-18.65-21.16C895.23,430.94,889.53,428.53,891.83,418.65Z" transform="translate(-45 -63.42)"/><path class="cls-4" d="M989.83,543.25l1,2.88Z" transform="translate(-45 -63.42)"/><path class="cls-21" d="M952.89,460.41l.75.49-.86-.38Z" transform="translate(-45 -63.42)"/><path class="cls-5" d="M770,956.92l.57-7.47,11.09-.36c0,1.88.08,3.77.13,5.65-.25,19-.5,37.92-.75,57.11-8.89-.19-11.12-3.65-11-9.81C770.18,987,770,972,770,956.92Z" transform="translate(-45 -63.42)"/><path class="cls-14" d="M134.89,603.08l11.1-5c.14,4.44,1.09,9.07.13,13.27-.6,2.62-4.08,4.59-6.26,6.85-1.61-2.49-3.72-4.8-4.67-7.52C134.39,608.39,134.94,605.63,134.89,603.08Z" transform="translate(-45 -63.42)"/><path class="cls-16" d="M77.91,589.31c.48,0,1,.06,1.43.11L77.59,591A3.34,3.34,0,0,1,77.91,589.31Z" transform="translate(-45 -63.42)"/><path class="cls-10" d="M747.17,922.32l-.27,17.22-9.61-5.84q-.94-6.56-1.88-13.11l0-33,2.27-.06L747,912.75Z" transform="translate(-45 -63.42)"/><path class="cls-22" d="M782.13,905.54c-.24,1.05-.46,2.12-.64,3.21l-11.27-14.31c.35-12.18,0-24.59,1.33-36.42.67-6.2,4.15-11.38,6.36-17l4.22,2.58Z" transform="translate(-45 -63.42)"/><path class="cls-3" d="M747,912.75q-4.65-12.62-9.3-25.22c-.06-4.09-1.09-8.49.11-12.17,1.12-3.47,4.59-6.18,7-9.22l2.36,4.35Q747.11,891.63,747,912.75Z" transform="translate(-45 -63.42)"/><path class="cls-10" d="M747.2,870.49l-2.36-4.35,4-11.4,19.12,2.2C765,868.18,760.64,871,747.2,870.49Z" transform="translate(-45 -63.42)"/><path class="cls-10" d="M804.66,851.1,820,843.18l2.06.14c0,1.28.08,2.56.13,3.84l-6.09,13Z" transform="translate(-45 -63.42)"/><path class="cls-10" d="M770.22,900.94l11.27,7.81q0,3.84.07,7.69l-9.9-.32-1.59-11.26Z" transform="translate(-45 -63.42)"/><path class="cls-4" d="M149.88,457.24,146,454.68l5.21,1.1C150.73,456.27,150.31,456.76,149.88,457.24Z" transform="translate(-45 -63.42)"/><path class="cls-4" d="M448.83,979.9l3.9,5.59Z" transform="translate(-45 -63.42)"/><path class="cls-12" d="M725.84,225.76c5.35,3.63,8.36,8.64,3.87,14.09-1.84,2.24-7.58,3.2-10.62,2.13-6.92-2.45-4.69-8.43-3.21-13.64Z" transform="translate(-45 -63.42)"/><path class="cls-20" d="M743,835.58c11.63-12.8,27.5-15,43.31-16.91,6-.74,12.12-.32,18.19-.43-2.5,18.08-24.28,28.41-40.54,23.9C756.94,840.19,750,837.78,743,835.58Z" transform="translate(-45 -63.42)"/><path class="cls-15" d="M822.08,843.32l-2.06-.14,1-6.57,2.52.38C823.05,839.1,822.56,841.21,822.08,843.32Z" transform="translate(-45 -63.42)"/><path class="cls-20" d="M726.32,856.91l9.12,30.68,0,33-12.11-3.84q-2.62-12.11-5.24-24.21c1.38-9.95,2.59-19.93,4.3-29.82C722.73,860.62,725,858.84,726.32,856.91Z" transform="translate(-45 -63.42)"/><path class="cls-2" d="M674.81,916.57l21.35-.3q.08,12.59.16,25.19c-17.27,5.54-22.18,1.92-22.25-16.33,0-2.85-.11-5.69-.17-8.53A.61.61,0,0,1,674.81,916.57Z" transform="translate(-45 -63.42)"/><path class="cls-9" d="M673.9,916.6c.06,2.84.16,5.68.17,8.53.07,18.25,5,21.87,22.25,16.33-2.73,11.24-11.12,14.27-19,6.53-5.66-5.53-10.67-11.71-16-17.54-4.11-4.48-7.69-9.35-2.55-15S669,913.29,673.9,916.6Z" transform="translate(-45 -63.42)"/><path class="cls-9" d="M718.06,892.54q2.61,12.11,5.24,24.21l-11.06-7.91c3.1-4.08.4-16.14-4-16.69-1.55-.19-4.45,2.18-4.93,3.88-.61,2.14.65,4.8,1.09,7.23l-5.27-.41.27-11.48c3-1.4,6-2.78,9-4.17Z" transform="translate(-45 -63.42)"/><path class="cls-23" d="M704.35,903.26c-.44-2.43-1.7-5.09-1.09-7.23.48-1.7,3.38-4.07,4.93-3.88,4.45.55,7.15,12.61,4,16.69l-1.85-.8L709,906.7l-.34-.42-4.33-3.06Z" transform="translate(-45 -63.42)"/><path class="cls-9" d="M704.37,903.22l4.33,3.06Z" transform="translate(-45 -63.42)"/><path class="cls-15" d="M689.22,958.82l-2.94-2.32.63-.62,2.3,3Z" transform="translate(-45 -63.42)"/><path class="cls-9" d="M709,906.7l1.35,1.34Z" transform="translate(-45 -63.42)"/><path class="cls-11" d="M716.2,354.81l-5.63-7.66q-1.2-3-2.41-6c-1.48-2.34-2.47-5.34-4.54-6.91-5.7-4.32-15.45-7-17-12.26-2.7-9-.57-19.49-.1-29.34.32-6.47,3.28-13.38-4.54-18.39-15.58,12.12-32,22.42-52.77,22.44-6.88,0-13.86.75-20.59-.24-2.3-.34-4.25-4.78-5.79-7.65-.44-.83.86-3,1.84-4.11,5.23-6,37-12.17,44.18-9.21,10.67-9,20.76-18.07,31.44-26.38,10.91-8.49,13.23-7.88,24.81.64,2.1,1.54,6,.69,9,.94l11.82.68,1.89,2.37,1.72-2.54c9.21-1.21,15.17-5.53,15-15.7l6.32-2.12c11.56,20.77,11,42.91,8.26,65.61-1.26,10.3-.22,20.88-.22,31.86a32.61,32.61,0,0,1-4.66-.33c-8-2-15-.62-18.67,7.23-3.84,8.16.85,13.83,7.17,18.52A16.71,16.71,0,0,1,745.1,359l-1,.08-.95,0-1.49,1.21-5.05.49-.56.15-4.54,1.74C730,353,724.05,352.1,716.2,354.81Z" transform="translate(-45 -63.42)"/><path class="cls-9" d="M729.49,251.2l-1.72,2.54-1.89-2.37Z" transform="translate(-45 -63.42)"/><path class="cls-17" d="M681.45,327.63c-2.41-1.38-5.49-2.22-7.11-4.23C660.11,305.79,658,305.51,641,320.2L608.4,303.9c24.24-3.66,50-2.23,69.56-21.41,1-1,3-.87,4.55-1.27-.09.81-.19,1.62-.28,2.42Z" transform="translate(-45 -63.42)"/><path class="cls-4" d="M608.4,303.9,641,320.2l-.24,11.4c-5.88-2.74-12.1-5-17.58-8.36-10.28-6.4-20.14-13.49-30.17-20.3,3.27-.88,6.54-1.78,9.8-2.67Z" transform="translate(-45 -63.42)"/><path class="cls-8" d="M682.23,283.64c.09-.8.19-1.61.28-2.42C682.41,282,682.32,282.84,682.23,283.64Z" transform="translate(-45 -63.42)"/><path class="cls-11" d="M760.51,347.88c-7.16,1.2-14.28,7.27-18.63-2.37-1-2.12,2-8.62,4-9C753.8,335,757.32,340.86,760.51,347.88Z" transform="translate(-45 -63.42)"/><path class="cls-18" d="M751.1,361.94l-4.06-.36Z" transform="translate(-45 -63.42)"/><path class="cls-11" d="M324.6,357.37c2.4-12.77,4.3-23.26,6.37-33.71.82-4.14.75-10,3.36-11.85,3.08-2.16,9.07-2,13-.55,2.52.93,3.71,5.84,5.2,9.1,7.37,16.13-1.06,25-14.6,31.45C334.48,353.43,330.94,354.73,324.6,357.37Z" transform="translate(-45 -63.42)"/><path class="cls-15" d="M813.64,872.49l-1.27.87-.93-1.81c.5-.17,1.11-.6,1.47-.44S813.4,872,813.64,872.49Z" transform="translate(-45 -63.42)"/><path class="cls-23" d="M479.72,976.85c-6.34-3.23-6.75-9.2-3.5-13.64,2.79-3.8,8.33-5.79,13-7.89,1.06-.48,4.37,1.59,4.9,3.09s-.95,3.92-2.12,5.51c-2.66,3.63-5.68,7-8.55,10.46Z" transform="translate(-45 -63.42)"/><path class="cls-5" d="M402.85,693.4c-2-2.74-3.77-5.75-6.13-8.15-5.64-5.72-11.57-11.16-17.38-16.72-.87-2.59-1.18-5.61-2.72-7.7-6.53-8.87-6.28-9.77,4.71-11.83,5.85,7.53,13-.61,19.27,1.58.6,11.39,4.92,15.87,15.85,17.7s21.83,4.29,32.74,6.48q0,8.91,0,17.83c-12.31-.75-24.62-1.73-36.94-2.07C409.17,690.43,406,692.38,402.85,693.4Z" transform="translate(-45 -63.42)"/><path class="cls-5" d="M479.36,734l-3.31-1.92q-3.42-19.12-6.85-38.27l.75-4.5c1.85,1.21,5.1,2.2,5.33,3.66,1.82,11.62,9.44,14.45,19.64,13.91a3,3,0,0,1,.11,1.31q-3.86,7-7.72,14Z" transform="translate(-45 -63.42)"/><path class="cls-8" d="M470,689.34l-.75,4.5-20-1.25q0-8.93,0-17.84L467.6,676Q468.79,682.7,470,689.34Z" transform="translate(-45 -63.42)"/><path class="cls-19" d="M495,708.21a3.06,3.06,0,0,0-.11-1.31,8.18,8.18,0,0,0,.19-1.85c6.39-.07,8.82-3.48,9.18-9.67.92-16.24-5.19-27.2-16.58-28.84-.19-.73-.39-1.46-.58-2.18L473.81,612.5c-.66-1.33-1.33-2.65-2-4l.08.05-7.59-11.51,3.36-13.65c15.77,9,31.51,18,47.31,26.86q31.28,17.6,62.62,35.07c.13,9.19,8.58,8.55,13.82,11.71q-.1,76.59-.11,153.17c0,3.41,1.31,6.81,2,10.21-19-.05-35.14-8.24-50.91-17.64-17.28-10.3-34.64-20.48-51.95-30.71.48-.4.94-1.12,1.45-1.16,18-1.46,24.77-15.22,15-30.16-2.78-4.24-5.26-8.68-7.89-13Z" transform="translate(-45 -63.42)"/><path class="cls-19" d="M706.73,768.39c-26.2,15-52.13,30.57-78.77,44.77-8.13,4.34-18.22,5-27.41,7.36.69-2.75,2-5.5,2-8.26q0-77.71-.23-155.45c8.11,0,11.69-6.09,15.73-11.59q65.84-37.83,131.73-75.57c2-1.12,4.65-1,7-1.4l0,1.86,0,46.2-14.09,2.19c-4.13-2.3-8-5.25-12.43-6.79-19.67-6.92-36.44,5.32-33.71,24.3-.89,3-2.61,6-2.54,9,.39,16,1.21,32,1.89,48.07l-.7.42c-.91-3-2.52-6-2.57-9-.08-4.61,1.89-9.83-8.9-9.69,2.29,8.25,4.29,15.47,6.29,22.69l-.23.24c-2.59,2.37-7.33,4.69-7.4,7.13-.31,11.5.57,23,1.21,34.55,1.38,24.9,4.71,25,21.88,27.68C705.89,767.19,706.28,768,706.73,768.39Z" transform="translate(-45 -63.42)"/><path class="cls-14" d="M602.3,656.81q.16,77.73.23,155.45c0,2.76-1.29,5.51-2,8.26l-7.25-.08c-.69-3.4-2-6.8-2-10.21q-.09-76.58.11-153.17Z" transform="translate(-45 -63.42)"/><path class="cls-8" d="M499,727.74c2.63,4.35,5.11,8.79,7.89,13,9.81,14.94,3,28.7-15,30.16-.51,0-1,.76-1.45,1.16l-9-4.42-2-3.21.07.09c-4.3-8.17-6-16.17.33-24.35.94-1.22-.24-4.08-.44-6.17l7.95-11.76Z" transform="translate(-45 -63.42)"/><path class="cls-24" d="M706.73,768.39c-.45-.44-.84-1.2-1.35-1.28-17.17-2.7-20.5-2.78-21.88-27.68-.64-11.51-1.52-23-1.21-34.55.07-2.44,4.81-4.76,7.4-7.13A88.42,88.42,0,0,0,687.06,746c4.1,18.92,20.47,23.71,34.45,10.41,3.88-3.69,7-8.19,12.25-14.45v13Z" transform="translate(-45 -63.42)"/><path class="cls-7" d="M479.4,764.46l2,3.21C480.75,766.59,480.08,765.52,479.4,764.46Z" transform="translate(-45 -63.42)"/><path class="cls-21" d="M733.46,675.93c7.26-3.41,14.87-6.25,21.67-10.42,5.76-3.54,14.67-3.09,20.71,3.13,8.06,8.31,16.64,15.49,17.4,29.31.52,9.56,7.64,18.6,10.81,28.2,2.28,6.86,2.75,14.3,4.29,21.42,2.6,12.09,6.14,24,7.74,36.26.62,4.78-1.37,12.09-4.86,14.81-12.79,10-29.07,12.11-44.4,15.2-4.78,1-10.78-5.82-16.62-7.94-7.68-2.79-6.84-8.61-7.24-14.75-.94-14.28-2.16-28.56-4.05-42.73-.4-3-3.66-6.84-6.48-7.85-2-.72-6.46,2-8.13,4.33-5.84,8.29-11.17,16.68-24.27,12.6.67-2.49,1.26-4.71,1.85-6.9-.64-.44-1.24-1.16-1.61-1.05-5.54,1.51-9.55.75-9.47-6.19.11-11.05-.51-22.18.73-33.11.87-7.67,6.47-9.53,13.64-6.38a60.71,60.71,0,0,0,6.36,2c-.39,5.7-.76,11.19-1.26,18.63l8.79-6.7,4.18,8.86,2.33-.31q-2.13-10.3-4.27-20.6l2.48-4.81q1.85-4.2,3.68-8.41a1,1,0,0,1,.22-1.12L733.44,676Z" transform="translate(-45 -63.42)"/><path class="cls-4" d="M858.57,606.65c.32,6.57-.22,12.37-9.2,11.93-.79,0-1.69,2.27-2.53,3.49-5.91,1.5-8.56,9.26-16.91,7.38-3.23-.73-8.21,4.58-11.83,7.77-3.92,3.45-7.13,7.7-10.76,11.48-3.92,4.08-8.63,7.59-11.72,12.19-1.72,2.56-.84,6.85-1.18,10.9,7.71-.84,8.58,3.63,8.48,10.05-.09,5.77-.48,13.43,2.81,16.85,3.71,3.85,3.36,6.63,2.91,10.51l-2.17,2.42c-1.4-2.52-3.27-4.88-4.14-7.57-5-15.62-9-31.8-24.81-40.9,1.7-3,3.4-5.94,5.3-9.28l-9.67-6.3c.28-5.09.5-9.52.76-14,.9-15.74,7.39-21.09,22.78-19.35,8.22.93,15.94-.41,21.48-7.54L833,603c-9.43,10.67-22,17.75-35.39,17.47-10.48-.23-15.24,1.9-18.32,11.23-2,6-3.36,12.81,2.77,15.08,5.82,2.17,16.74,2.93,19.17-.33,9.06-12.2,22.36-17.39,34.25-24.87,15.53-9.77,15.67-9.55,9.67-25.22q1.51-2.64,3-5.28C846.71,599.54,855.15,601.42,858.57,606.65Z" transform="translate(-45 -63.42)"/><path class="cls-19" d="M818.17,606.73c-5.54,7.13-13.26,8.47-21.48,7.54-15.39-1.74-21.88,3.61-22.78,19.35-.26,4.43-.48,8.86-.76,14l9.67,6.3c-1.9,3.34-3.6,6.31-5.3,9.28l-5.95-1.78-3.19-4.68q.63-8.41,1.28-16.84l-1.36-2.36q.12-28.9.23-57.8c3.84,1.16,8.1,1.62,11.46,3.59C792.87,590.83,805.47,598.87,818.17,606.73Z" transform="translate(-45 -63.42)"/><path class="cls-4" d="M768.38,656.69l3.19,4.68c-17.25-4.22-29.66.52-38.11,14.56l0,0-5.76,15.49a1,1,0,0,0-.22,1.13l-3.68,8.4-2.48,4.81c-1.93,3.15-3.85,6.31-4.77,7.82-3.07-6.23-6.39-13-9.72-19.69,2.46-1.56,5.58-2.61,7.27-4.77a77.67,77.67,0,0,0,9-14.38c1.25-2.67.64-6.2.88-9.35,18.92-3.85,23.65-7.78,25.74-23.64.67-5.08-1.18-10.48-1.87-15.73l10.08-.25c.14,7.6.66,15.22.32,22.8C757.86,656.51,761.12,658.85,768.38,656.69Z" transform="translate(-45 -63.42)"/><path class="cls-12" d="M724,665.42c-.24,3.15.37,6.68-.88,9.35a77.67,77.67,0,0,1-9,14.38c-1.69,2.16-4.81,3.21-7.27,4.77l-11-.87c-.68-16-1.5-32-1.89-48.07-.07-3,1.65-6,2.54-9C700.09,651,708.44,661.55,724,665.42Z" transform="translate(-45 -63.42)"/><path class="cls-24" d="M689.92,697.51c-2-7.22-4-14.44-6.29-22.69,10.79-.14,8.82,5.08,8.9,9.69.05,3,1.66,6,2.57,9Z" transform="translate(-45 -63.42)"/><path class="cls-19" d="M808.64,709.2c.45-3.88.8-6.66-2.91-10.51-3.29-3.42-2.9-11.08-2.81-16.85.1-6.42-.77-10.89-8.48-10.05.34-4-.54-8.34,1.18-10.9,3.09-4.6,7.8-8.11,11.72-12.19,3.63-3.78,6.84-8,10.76-11.48,3.62-3.19,8.6-8.5,11.83-7.77,8.35,1.88,11-5.88,16.91-7.38q25,14.86,50.08,29.71c1.86,1.1,3.84,2,5.76,3Z" transform="translate(-45 -63.42)"/><path class="cls-14" d="M568.12,435.72q-.42,5.73-.82,11.47l-24.16-11.4v85.46l-11.64,4.09v-90.1c-5.91,3.21-10.12,5.38-14.22,7.74-20.18,11.62-40.41,23.17-60.48,35-17,10-33.84,20.33-50.75,30.52-1,.67-2.91,1.3-2.94,2-.21,6.69-3,11.31-10.05,11.36-6.82,0-7.69-5.29-8.33-10.68-.11-1-2.26-1.73-3.47-2.59-.07-.69-.13-1.38-.2-2.07Q380,454.74,378.94,403c8.9.63,15.2-4.33,21.23-9.86,1,33.49,2,67,3.13,102.57,39.33-22.51,77.82-44.55,116.32-66.57h35.17Z" transform="translate(-45 -63.42)"/><path class="cls-8" d="M471.69,313.09c6.93,2.34,4.08,16.79,14.35,11.72,3.67-1.81,4.1-10.19,6.54-17.05,6.34.05,11,5,13,13.12s-2.66,18.73-9.53,22.19-19.16,2.18-23.29-3C466.12,331.88,463.1,321.45,471.69,313.09Z" transform="translate(-45 -63.42)"/><path class="cls-8" d="M400.17,393.13c-6,5.53-12.33,10.49-21.22,9.85l-11.12-3.13c-1.08-2.12-2.13-4.26-3.26-6.36q-7.31-13.42,5.6-23.7c1.22,3.9,1.62,8.4,3.89,11.54,2,2.77,6.48,5.94,9.15,5.4s5.54-5.08,6.66-8.43c1-3-.19-6.82-.4-10.28l11.3,11.77Z" transform="translate(-45 -63.42)"/><path class="cls-4" d="M554.79,429.13H519.62c-1.81-6.84-1.84-14.7,5.6-16.51,7.72-1.88,16.7-1.23,24.53.71S555.92,422.89,554.79,429.13Z" transform="translate(-45 -63.42)"/><path class="cls-14" d="M327.49,543.19q3.67-57.18,7.3-114.37c.57-9.24.68-18.52,1-27.77L358,401c0,3.82.15,7.66-.07,11.47q-2.68,48.07-5.5,96.14l-1.71,30.69-14,17.73Q332.11,550.09,327.49,543.19Z" transform="translate(-45 -63.42)"/><path class="cls-16" d="M352.46,508.58q2.76-48.07,5.5-96.14c.22-3.81.06-7.65.07-11.47l9.8-1.11L379,403q1.05,51.76,2.11,103.51Z" transform="translate(-45 -63.42)"/><path class="cls-11" d="M398.43,319.92l-12.12,1.57c-1-3.71-2-7.48-3-11.09l16.33-3q-.53,6.16-1.07,12.35Z" transform="translate(-45 -63.42)"/><path class="cls-16" d="M818.17,606.73c-12.7-7.86-25.3-15.9-38.18-23.45-3.36-2-7.62-2.43-11.46-3.59-.06-3.84-.11-7.68-.17-11.52.55-1.92,1.09-3.84,1.64-5.76l9.66-7.74c1.2,1.83,2.49,3.62,3.61,5.5,5.9,9.9,11.15,11.43,22.2,7.76,4.35-1.45,9.3-1.38,14-1.5,10.38-.25,20.82.37,31.14-.49,5.35-.45,10.49-3.29,15.73-5.05.33,1.85,1.6,4.39.84,5.44-6.12,8.4-12.62,16.53-19,24.73l-3,5.29-4.33.77-3.26,3.36L833,603Z" transform="translate(-45 -63.42)"/><path class="cls-8" d="M866.32,560.89c-5.24,1.76-10.38,4.6-15.73,5.05-10.32.86-20.76.24-31.14.49-4.68.12-9.63.05-14,1.5-11.05,3.67-16.3,2.14-22.2-7.76-1.12-1.88-2.41-3.67-3.61-5.5.12-3,.25-6,.37-9.08,3.94-2.51,7.78-5.21,11.85-7.49,8.21-4.59,14.08.23,20.18,5,3.15,2.47,7.1,5.71,10.61,5.61,13.85-.41,27.67-2,41.5-3.14Q865.25,553.22,866.32,560.89Z" transform="translate(-45 -63.42)"/><path class="cls-4" d="M864.24,604.66,862,606.23Z" transform="translate(-45 -63.42)"/><path class="cls-14" d="M381.33,649c-11,2.06-11.24,3-4.71,11.83,1.54,2.09,1.85,5.11,2.72,7.7-.63,4.24-.71,8.66-2.07,12.65-1,3-3.66,5.45-5.58,8.14-1.88-2.73-5.38-5.44-5.41-8.19-.33-33.13-.16-66.26-.12-99.39l11.07-7.54.27,27.48c.66,6.87,1.4,13.74,1.95,20.62C380.16,631.19,380.71,640.1,381.33,649Z" transform="translate(-45 -63.42)"/><path class="cls-13" d="M377.23,574.2l-11.07,7.54L336.72,557l14-17.72,15.31,13.48,11.13,13.4Q377.21,570.19,377.23,574.2Z" transform="translate(-45 -63.42)"/><path class="cls-16" d="M146.61,532.43q-1-21.85-1.94-43.7l32.25,22.34C165.18,519.34,155.89,525.88,146.61,532.43Z" transform="translate(-45 -63.42)"/><path class="cls-15" d="M750.39,489.81l6.24-6.27c7.44-3.43,15.09-6.49,22.27-10.41,10-5.47,19.7-11.58,29.51-17.43,6.07-3.61,11-3.37,17.37,1.13,11.79,8.28,24.8,14.82,37.61,22.27-21.09,12.73-41.46,25.36-62.28,37.18-2.85,1.61-8.13-.46-12.08-1.56-3.19-.88-6.09-2.86-9.12-4.36l-.23-.09-2.13-1.71-3.74-.57-1.7-1.38Z" transform="translate(-45 -63.42)"/><path class="cls-8" d="M773.81,508l3.74.57,2.13,1.71.23.09c-4.87,4.06-9.72,8.16-14.63,12.18-2.89,2.38-5.87,4.64-8.81,7l-14.86,8-11.08,5.94L722,549.33l-11.44,5.85-17.75,11.39-5.39-3.91c15-13.48,37.68-15.9,48.33-34.85,7.82,3.85,28.06-5.68,35.64-16.42l-10.93-2.9c.2.67.41,1.35.61,2l-9.49,4.73V502.62l2.89-1.56c-8.51-4.1-18.09-6.86-25.26-12.62-10.92-8.75-26.15-9.82-35.24-21.65-3.7-4.82-7.73-.57-11.12,2.68-6.68,6.42-8.74,5.77-11.67-2l7.51-8.35c-4.47-.63-8.94-1.49-13.43-1.75-1.28-.07-2.56,1.9-4,2.46-9.21,3.53-18.47,6.92-27.71,10.36l-.5-.59c11.13-6.74,22.06-13.85,33.52-19.95,2.8-1.49,7.34.33,11.08.62l9.69,4.15L710.69,470l11.22,5.61,24.86,13.52,3.62.66,21.72,16.81Z" transform="translate(-45 -63.42)"/><path class="cls-4" d="M741.61,537.53l14.86-8c.19,2.79.39,5.58.53,7.43l23,8.66c-.12,3-.25,6.06-.37,9.08L770,562.41l-2,.05-21.1-4q-.93-4.65-1.84-9.28C746.67,544.46,747.29,540.07,741.61,537.53Z" transform="translate(-45 -63.42)"/><path class="cls-8" d="M531.5,525.34l11.64-4.08c7.6-4.85,15.21-9.68,22.8-14.56,6.81-4.38,13.59-8.82,20.38-13.23l39.4-23.33,7.27-.58.5.59c-5.52,4.78-10.63,10.17-16.64,14.21-9.13,6.13-19,11.19-28.34,17-6.93,4.28-14.13,8.39-20.2,13.72-4.77,4.18-8.39,8.73-13.12,4.54-6.38,3.74-11.58,6.81-16.8,9.84-5.41,3.13-10.85,6.21-17.36,9.95,6.7,3.3,12.47,5.64,17.72,8.83,11,6.66,21.61,13.86,32.49,20.69,10.14,6.36,20.23,12.84,30.68,18.68,11.37,6.36,23.15,11.18,35.82,2.65,6.44-4.34,13-8.47,19.53-12.7l3.51,2-.17,3.55c-6.5,4-13.32,7.64-19.43,12.21-10.13,7.58-19.89,8.07-31.12,2.05-3.41-1.83-9.75-.58-13.65,1.41-7.61,3.88-14.25,9.59-21.64,13.95-5,3-11,5.1-15.44-.95-4.27-5.75-1.51-10.81,2.76-15.33l16.28-17.25L543,558.72l-11.32-4.27c-3.82-2.81-7.77-5.45-11.41-8.49-2.25-1.88-5.45-4.28-5.57-6.58-.1-2,3.37-4.41,5.62-6.18C523.86,530.38,527.74,527.94,531.5,525.34Z" transform="translate(-45 -63.42)"/><path class="cls-19" d="M586.32,493.47c-6.79,4.41-13.57,8.85-20.38,13.23-7.59,4.88-15.2,9.71-22.8,14.56V435.79l24.16,11.4c4.8,9.53,10,18.9,14.26,28.67C584,481.38,584.79,487.58,586.32,493.47Z" transform="translate(-45 -63.42)"/><path class="cls-16" d="M602.9,451.18c-14.43-25.38-9.17-45.89,12.92-54.15,17.52-6.56,35.64-11.52,54.13-15.85C643.34,400.58,619,421.53,602.9,451.18Z" transform="translate(-45 -63.42)"/><path class="cls-14" d="M708.45,393.22l-5.08,2.52c-2.18-2.63-4.43-5.2-6.53-7.9-4-5.13-2-10.73,2.52-12.44Z" transform="translate(-45 -63.42)"/><path class="cls-14" d="M675.84,411.71l-3.66,2.9c-.1-3.82-.8-7.77-.08-11.43.47-2.43,3-4.45,4.58-6.65l1.89,1.58Z" transform="translate(-45 -63.42)"/><path class="cls-12" d="M741.71,360.28l1.49-1.21Z" transform="translate(-45 -63.42)"/><path class="cls-12" d="M736.1,360.92l.56-.15Z" transform="translate(-45 -63.42)"/><path class="cls-10" d="M781.68,949.09l-11.09.36q.18-8.93.34-17.84l10.73.4Q781.68,940.56,781.68,949.09Z" transform="translate(-45 -63.42)"/><path class="cls-14" d="M781.66,932l-10.73-1.15q.38-21.78.73-43.56l9.9.89Q781.61,910.1,781.66,932Z" transform="translate(-45 -63.42)"/><path class="cls-23" d="M381.33,649c-.62-8.9-1.17-17.81-1.88-26.7-.55-6.88-1.29-13.75-1.95-20.62,7.3-4,14.66-8,21.89-12.14,4.26-2.45,8.33-5.23,12.49-7.87,5.55,1.56,12.87,1.45,16.27,5,6.25,6.6,10.19,15.38,15.09,23.25-1.07,12.63-6.39,22-18.64,27.42-8.33,3.65-16,8.75-24,13.2C394.31,648.39,387.18,656.53,381.33,649Z" transform="translate(-45 -63.42)"/><path class="cls-2" d="M400.6,650.58c8-4.45,15.67-9.55,24-13.2,12.25-5.38,17.57-14.79,18.64-27.41l12.52,2.25c0,4.3-.76,8.76.13,12.86,3.69,16.94,7.87,33.78,11.87,50.66l-.16.3-18.41-1.29c-10.91-2.18-21.77-4.63-32.74-6.47S401.2,662,400.6,650.58Z" transform="translate(-45 -63.42)"/><path class="cls-14" d="M487.13,664.36c.19.72.39,1.45.57,2.17-3.35,4.89-8.08,9.36-9.76,14.77-3.39,11,1.09,16.38,17.17,23.75a8.18,8.18,0,0,1-.19,1.85c-10.2.55-17.82-2.28-19.64-13.9-.23-1.46-3.48-2.45-5.33-3.66q-1.17-6.65-2.35-13.3l.16-.3c3-1.16,6.21-1.93,8.9-3.58C480.36,669.91,483.66,667,487.13,664.36Z" transform="translate(-45 -63.42)"/><path class="cls-14" d="M499,727.74l-11.65-5.47q3.85-7,7.72-14Z" transform="translate(-45 -63.42)"/><path class="cls-1" d="M455.76,612.22,443.24,610c-4.9-7.88-8.84-16.66-15.09-23.26-3.4-3.59-10.72-3.48-16.27-5-6.65.5-13.31,1-20,1.51-6.91.55-9.86-2.74-7.78-9.2A97.09,97.09,0,0,1,392,555.57c4.91-8.58,8.84-8.25,14.57.14,3.49,5.1,7.27,10,10.92,15,8.58,10.46,19.16,12.95,31.63,8,6.22,1.5,14.64-5.6,18.59,4.76l-3.36,13.65q-2.88,5.91-5.74,11.82Z" transform="translate(-45 -63.42)"/><path class="cls-14" d="M467.66,583.42c-4-10.36-12.37-3.26-18.59-4.76L466,570.14c3.5,1.49,7.2,2.63,10.47,4.51q54.42,31.4,108.71,63l-7.55,7.72q-31.3-17.54-62.62-35.07C499.17,601.38,483.43,592.38,467.66,583.42Z" transform="translate(-45 -63.42)"/><path class="cls-5" d="M455.76,612.22l2.8-3.33,13.33-.31-.08-.05c.67,1.32,1.34,2.64,2,4l13.32,51.86c-3.47,2.63-6.77,5.55-10.47,7.8-2.69,1.65-5.91,2.42-8.9,3.58-4-16.88-8.18-33.72-11.87-50.66C455,621,455.76,616.52,455.76,612.22Z" transform="translate(-45 -63.42)"/><path class="cls-8" d="M495.11,705.05c-16.08-7.37-20.56-12.78-17.17-23.75,1.68-5.41,6.41-9.88,9.76-14.77,11.4,1.65,17.51,12.61,16.59,28.85C503.93,701.57,501.5,705,495.11,705.05Z" transform="translate(-45 -63.42)"/><path class="cls-4" d="M577.59,645.35l7.55-7.72,24.93-.23,8,7.82c-4,5.5-7.62,11.61-15.73,11.59l-10.89.25C586.17,653.9,577.72,654.54,577.59,645.35Z" transform="translate(-45 -63.42)"/><path class="cls-2" d="M471.89,608.58l-13.33.31q2.87-5.91,5.74-11.82Z" transform="translate(-45 -63.42)"/><path class="cls-2" d="M473.81,612.5c-.66-1.33-1.33-2.65-2-4C472.48,609.85,473.15,611.17,473.81,612.5Z" transform="translate(-45 -63.42)"/><path class="cls-14" d="M618,645.22l-8-7.82,75.65-44.13L710,578.76l36.89-20.33,21.1,4q.19,2.87.38,5.71c.06,3.84.11,7.68.17,11.52q-.12,28.89-.23,57.79l1.36,2.37q-.64,8.42-1.28,16.84c-7.26,2.16-10.52-.18-10.16-8.09.34-7.58-.18-15.2-.31-22.8,0-1.19,0-2.38,0-3.57l-1.21-5.92,0-46.2a12.84,12.84,0,0,0,0-1.86c-2.35.44-5,.28-7,1.4Q683.82,607.32,618,645.22Z" transform="translate(-45 -63.42)"/><path class="cls-1" d="M724,665.42c-15.51-3.87-23.86-14.44-27.5-29.41-2.73-19,14-31.22,33.71-24.3,4.4,1.54,8.3,4.49,12.43,6.79l4.77,6.16a1.41,1.41,0,0,0,.46,1.39c.69,5.25,2.54,10.65,1.87,15.73C747.6,657.64,742.87,661.57,724,665.42Z" transform="translate(-45 -63.42)"/><path class="cls-4" d="M747.36,624.66l-4.77-6.16,14.09-2.19c.41,2,.81,3.94,1.22,5.92Z" transform="translate(-45 -63.42)"/><path class="cls-4" d="M756.76,568.25a12.84,12.84,0,0,1,0,1.86C756.73,569.49,756.74,568.87,756.76,568.25Z" transform="translate(-45 -63.42)"/><path class="cls-6" d="M727.68,691.45,733.44,676Z" transform="translate(-45 -63.42)"/><path class="cls-6" d="M723.78,701l3.68-8.4C726.23,695.37,725,698.18,723.78,701Z" transform="translate(-45 -63.42)"/><path class="cls-8" d="M833,603l4.56-2.5,3.26-3.36,4.33-.77c6,15.66,5.86,15.44-9.67,25.21-11.89,7.48-25.19,12.67-34.25,24.87-2.43,3.26-13.35,2.5-19.17.33-6.13-2.27-4.74-9.13-2.77-15.08,3.08-9.33,7.84-11.46,18.32-11.23C811,620.73,823.54,613.65,833,603Z" transform="translate(-45 -63.42)"/><path class="cls-4" d="M769.66,639.85l-1.36-2.37Z" transform="translate(-45 -63.42)"/><path class="cls-19" d="M747.36,624.66l10.54-2.43c0,1.19,0,2.38,0,3.57l-10.09.25A1.41,1.41,0,0,1,747.36,624.66Z" transform="translate(-45 -63.42)"/><path class="cls-19" d="M685.72,593.27,610.07,637.4l-24.93.23q-54.35-31.51-108.71-63c-3.27-1.88-7-3-10.47-4.51q5.51-4.53,11-9.06c14.48-12,20.07-29.79,13.67-43.43-7.31-15.59-25.87-25.09-43-22.13-12.86,2.22-21.57,10.53-29.59,19.9l-12-6.94C423,498.29,439.78,488,456.8,478c20.07-11.81,40.3-23.36,60.48-35,4.1-2.36,8.31-4.53,14.22-7.74v90.1c-3.76,2.6-7.64,5-11.23,7.86-2.25,1.77-5.72,4.2-5.62,6.18.12,2.3,3.32,4.7,5.57,6.58,3.64,3,7.59,5.68,11.41,8.49,0,9.2-.21,18.4-.07,27.6.07,4.45-1.74,10.89,5.43,11,8,.1,5.7-6.83,5.86-11.48.26-7.61.09-15.23.1-22.84l35.42,20.43L562.09,596.4c-4.27,4.52-7,9.58-2.76,15.33,4.48,6,10.39,3.93,15.44.95,7.39-4.36,14-10.07,21.64-13.95,3.9-2,10.24-3.24,13.65-1.41,11.23,6,21,5.53,31.12-2.05,6.11-4.57,12.93-8.17,19.43-12.21l7.63.08.22.13,3.5,1.91.3.17,11.28,5.79.88,0,.87-.19C685.44,591.74,685.58,592.5,685.72,593.27Z" transform="translate(-45 -63.42)"/><path class="cls-4" d="M366.05,552.74l-15.31-13.47q.87-15.35,1.72-30.69l28.6-2.09c.07.69.13,1.38.2,2.07-4.88,5.4-4.67,11.24-1.52,17.34l-13.69,3.32Z" transform="translate(-45 -63.42)"/><path class="cls-13" d="M379.74,525.9c-3.15-6.1-3.36-11.94,1.52-17.34,1.21.86,3.36,1.61,3.47,2.59.64,5.39,1.51,10.73,8.33,10.68,7.06-.05,9.84-4.67,10.05-11.36,0-.69,1.92-1.32,2.94-2l12,6.94-3,24Z" transform="translate(-45 -63.42)"/><path class="cls-4" d="M840.79,597.12l-3.26,3.36Z" transform="translate(-45 -63.42)"/><path class="cls-19" d="M768.36,568.17q-.18-2.85-.38-5.71l2-.05C769.45,564.33,768.91,566.25,768.36,568.17Z" transform="translate(-45 -63.42)"/><path class="cls-19" d="M417.43,570.7c-3.64-5-7.42-9.89-10.91-15-5.73-8.39-9.66-8.72-14.57-.14A97.09,97.09,0,0,0,384.13,574c-2.08,6.46.87,9.75,7.78,9.2,6.66-.54,13.32-1,20-1.51-4.16,2.64-8.23,5.42-12.49,7.87-7.23,4.16-14.59,8.1-21.89,12.14l-.27-27.48q0-4-.05-8.05c0-11.23,0-22.46,0-34.48L414,549.21Z" transform="translate(-45 -63.42)"/><path class="cls-14" d="M414,549.21l-36.83-17.54c0,12,0,23.25,0,34.48l-11.13-13.4V529.22l13.69-3.32,35.33,13.5Z" transform="translate(-45 -63.42)"/><path class="cls-16" d="M779.68,510.27l-2.13-1.71Z" transform="translate(-45 -63.42)"/><path class="cls-16" d="M773.81,508l-1.7-1.38Z" transform="translate(-45 -63.42)"/><path class="cls-25" d="M657.27,577.54c-6.51,4.23-13.09,8.36-19.53,12.7-12.67,8.53-24.45,3.71-35.82-2.65-10.45-5.84-20.54-12.32-30.68-18.68-10.88-6.83-21.52-14-32.49-20.69-5.25-3.19-11-5.53-17.72-8.83,6.51-3.74,12-6.82,17.36-9.95,5.22-3,10.42-6.1,16.8-9.84,4.73,4.19,8.35-.36,13.12-4.54,6.07-5.33,13.27-9.44,20.2-13.72,9.37-5.79,19.21-10.85,28.34-17,6-4,11.12-9.43,16.64-14.21,9.24-3.44,18.5-6.83,27.71-10.36,1.45-.56,2.73-2.53,4-2.46,4.49.26,9,1.12,13.43,1.75l-7.51,8.35c2.93,7.81,5,8.46,11.67,2,3.39-3.25,7.42-7.5,11.12-2.68,9.09,11.83,24.32,12.9,35.24,21.65,7.17,5.76,16.75,8.52,25.26,12.62l-2.89,1.56v12.63l9.49-4.73c-.2-.68-.41-1.36-.61-2l10.93,2.9c-7.58,10.74-27.82,20.27-35.64,16.42-10.65,19-33.38,21.37-48.33,34.85-6.53-3.25-12.6-2.18-17.58,2.83C665.71,569.61,656.82,568.78,657.27,577.54ZM552.91,527.37c-.81,1.63-1.79,2.69-1.61,3.49s1.46,1.52,2.26,2.26c.76-1,1.83-2,2.15-3.14C555.83,529.52,554.29,528.61,552.91,527.37Z" transform="translate(-45 -63.42)"/><path class="cls-11" d="M657.27,577.54c-.45-8.76,8.44-7.93,12.52-12,5-5,11.05-6.08,17.58-2.83l5.39,3.91,13.17,8c-2.09,2.46-3.84,5.4-6.37,7.28-4.51,3.37-9.49,6.11-14.27,9.1l-.87.19-.88,0-11.28-5.79-.3-.17-3.5-1.91-.22-.12-7.46-3.64Z" transform="translate(-45 -63.42)"/><path class="cls-7" d="M705.93,574.59l-13.17-8,17.75-11.4c0,5.42,2.25,10,8,8.23,2.1-.63,2.65-6.7,3.67-10.36.31-1.12-.17-2.46-.28-3.71l8.57-5.87,14.52,5.7q.91,4.64,1.84,9.28L710,578.74Q708,576.66,705.93,574.59Z" transform="translate(-45 -63.42)"/><path class="cls-10" d="M722,549.33c.11,1.25.59,2.59.28,3.71-1,3.66-1.57,9.73-3.67,10.36-5.8,1.75-8-2.81-8-8.23Z" transform="translate(-45 -63.42)"/><path class="cls-14" d="M745,549.16l-14.52-5.7,11.09-5.93C747.29,540.07,746.67,544.46,745,549.16Z" transform="translate(-45 -63.42)"/><path class="cls-14" d="M543,558.72c0,7.61.16,15.23-.1,22.84-.16,4.65,2.13,11.58-5.86,11.48-7.17-.1-5.36-6.54-5.43-11-.14-9.2,0-18.4.07-27.6Z" transform="translate(-45 -63.42)"/><path class="cls-13" d="M660.78,579.51l7.46,3.64-7.63-.09C660.67,581.87,660.73,580.69,660.78,579.51Z" transform="translate(-45 -63.42)"/><path class="cls-23" d="M414,549.21l1.05-9.81,3-24c8-9.37,16.73-17.68,29.59-19.9,17.15-3,35.71,6.54,43,22.13,6.4,13.64.81,31.42-13.67,43.43q-5.5,4.54-11,9.06l-16.89,8.52c-12.47,5-23.05,2.5-31.63-8Q415.72,560,414,549.21Z" transform="translate(-45 -63.42)"/><path class="cls-13" d="M705.93,574.59q2,2.07,4.07,4.15l-24.28,14.53c-.14-.77-.28-1.53-.43-2.3,4.78-3,9.76-5.73,14.27-9.1C702.09,580,703.84,577.05,705.93,574.59Z" transform="translate(-45 -63.42)"/><path class="cls-13" d="M672.26,585.35l11.28,5.79Z" transform="translate(-45 -63.42)"/><path class="cls-13" d="M668.46,583.27l3.5,1.91Z" transform="translate(-45 -63.42)"/><path class="cls-8" d="M552.91,527.37c1.38,1.24,2.92,2.15,2.8,2.61-.32,1.16-1.39,2.11-2.15,3.14-.8-.74-2.06-1.38-2.26-2.26S552.1,529,552.91,527.37Z" transform="translate(-45 -63.42)"/><path class="cls-10" d="M813.74,922.35l-6.74.36.21-17.84,6.52.41Q813.73,913.82,813.74,922.35Z" transform="translate(-45 -63.42)"/></svg>