<svg id="Layer_1" data-name="Layer 1" xmlns="http://www.w3.org/2000/svg" viewBox="0 0 840.04 925.21"><defs><style>.cls-1{fill:#d9f5fd;}.cls-2{fill:#6166a2;}.cls-3{fill:#f35760;}.cls-4{fill:#075baf;}.cls-5{fill:#9bacd2;}.cls-6{fill:#d9f5fb;}.cls-7{fill:#92a6e7;}.cls-8{fill:#7e8cc6;}.cls-9{fill:#95a8dc;}.cls-10{fill:#484663;}.cls-11{fill:#eba37f;}.cls-12{fill:#d0755e;}.cls-13{fill:#f1c39b;}.cls-14{fill:#218ad3;}.cls-15{fill:#d7a6b0;}.cls-16{fill:#7ea1e7;}.cls-17{fill:#a8d1f0;}.cls-18{fill:#acd0eb;}.cls-19{fill:#8ba5d3;}.cls-20{fill:#0689ed;}.cls-21{fill:#92a1b2;}.cls-22{fill:#d0f3fb;}.cls-23{fill:#c7effc;}.cls-24{fill:#d3633e;}.cls-25{fill:#edf9fc;}</style></defs><path class="cls-1" d="M947.4,895.2c-13,1.94-21.37-7.68-31.54-12.83q-24.58-12.43-49.2-24.82,0-20.74,0-41.49c2.26-19.19-5.6-32.51-24.75-40.29-10-4-20.41-6.87-31-10.38l5.9-9.91c21.21.57,23.73-1.9,26.94-23,.45-3,4.81-6.83,8-7.65,9.64-2.44,14.41-7.55,13.94-17.69-.69-14.94-8.29-21.54-26.49-22.51,2.13-4.74,4.72-9.33,6.26-14.26s3.69-10.41,2.54-14.88c-2.81-10.9-14.64-17-24.88-14.37-11.77,3-17,12-15.39,26.26-8.33-3.49-11.36-8.45-8.76-16.26,1.34-4.05,4.08-7.74,6.64-11.27,10.41-14.29,9.67-21.18-3.86-32.94-1.67-1.45-3.32-2.91-5-4.37-6.5-5.72-11.2-11.56-5.39-20.88,1.61-2.58.21-7,.2-10.64,20,10.89,39.83,22.08,60.09,32.46,4.92,2.52,12.79,5,16.43,2.74,3.91-2.38,6.12-10.29,6.17-15.82.43-54.94,0-109.89.4-164.83.12-15.86-6.71-26.58-19.9-34.23-30.9-17.91-61.68-36-92.66-53.81-22.95-13.17-46.14-25.92-69.22-38.86L690.51,295l7.34-12c-3.76-5.45-7.54-11.62-12-17.22-2.75-3.42-6.14-7-10-8.7a180.24,180.24,0,0,0-26.69-9.31C635,244.14,621,238.61,606,242.91s-30.21,8.3-45.17,12.91c-7.09,2.19-9.81-.31-9.82-7,0-19.91-2-40.11.78-59.63,1.55-10.89,2.79-20-3-29.42l2.22-2.31c2.72,1,5.63,1.75,8.13,3.17,50.57,28.69,101,57.64,151.65,86.18Q832,315,953.45,382.81c8.49,4.75,12.14,10.29,12.09,20.72-.49,122.08-.25,244.18-.48,366.27-.09,46.05-.9,92.09-1.38,138.14l-9.55-4c0-2.93,0-5.85,0-8.78,6.66.54,6.67-3.86,6.67-8.64q-.06-168.71-.11-337.43c0-2.71-1.12-5.43-1.72-8.15l-4.86.45V895.16ZM569.75,175.44c-2.77-1.84-4.55-3.36-6.61-4.13-.48-.18-3,3-2.75,3.29a17.19,17.19,0,0,0,5,4.54C565.84,179.39,567.62,177.3,569.75,175.44Z" transform="translate(-134.67 -77.4)"/><path class="cls-1" d="M728.6,780.61c-3.66-3-7-6.58-11-8.93Q661.38,739,605,706.7l-49.61-28.58c-1.47-17.52-4.06-35-4.21-52.54-.52-61.59-.34-123.19-.1-184.78.06-15,1.46-30.05,2-45.09.28-7.3,0-14.63,0-23.28,20.17,15.21,42.41,23.76,68.14,17.66q.44,33.14.88,66.28c.57,2.27,1.14,4.55,1.7,6.82,2.57,4.28,4.12,10.17,7.88,12.55,15.48,9.81,31.62,18.56,47.52,27.7,4,2.6,7.87,5.36,12,7.79q38.88,23,77.84,45.91c-15.41,5-23.67,17.28-16.66,27.13,7.36,10.32,2.53,16.81-3.57,24.07-14.89,17.72-14.67,22.25,1.53,38.5,5.91,5.93,10.86,12.26,4.37,20.88-.13-10-6.77-13.93-15.07-16.49-9-2.78-17-5.42-17-18.1,0-4-8.91-11.18-13.64-11.1-6.09.1-14.21,4.72-17.44,9.9-2.48,4-.9,14.57,2.68,17.38,8,6.28,7.37,12.32,5,20.25-5.78,19-4.76,21.38,13.86,29,9.23,3.78,13.19,10.09,9.51,19-6.3,15.26,2.54,28.57,18.79,33.7l4.82,1,3.85.32c8.95,1,10,7.75,11.14,14Z" transform="translate(-134.67 -77.4)"/><path class="cls-2" d="M866.62,816.06q0,20.75,0,41.49l-.51,108.2-.6,2.49c-7.53,7.62-13.72,18.1-22.82,22.34-34.73,16.16-70.49,15.82-105.61.24-15.61-6.92-24.62-17.87-23.58-36.91,1.37-25.24.23-50.62.17-75.94l14.2,10.91,3-3.81-16.42-14.22-1-57.23c3.43,4,6.59,8.2,10.34,11.83,11.89,11.5,27.15,16.3,42.79,18.17,36.15,4.31,71.67,4.55,97.84-27.53C864.78,815.74,865.89,816.05,866.62,816.06ZM737.86,857.58l3.43-.69c-.45-5.34-.35-10.83-1.72-15.92-.38-1.38-6.92-3-7.68-2.06-3.88,4.73-9.24,10.11-9.52,15.51-.54,10,7.46,16.32,17,16.35,8.66,0,13.09-3.82,14.28-14-5.11,2.78-9,6.07-13.52,7.1-7.35,1.69-11.18-6-7.38-14.52Z" transform="translate(-134.67 -77.4)"/><path class="cls-3" d="M447.86,361.17l.93,9.2c-.61,2-1.75,4.06-1.77,6.11-.37,37.5-.54,75-1,112.49,0,3.3-1.85,6.57-3.15,10.9L434,494c-10.21,14.27-23.44,21-40.83,20.34-15.88-.63-21.63-6-21.77-22.32-.07-8.6,0-17.21,0-25.81l-3.9-2c-4.14,3.88-8.74,7.37-12.33,11.71-7.32,8.86-14.09,18.17-21.1,27.3l-.09,0c-16.32-10.81-17.34-16.08-6.57-29.84A249.58,249.58,0,0,0,344.92,449c3.9-6.45,6.24-13.85,9.71-21.84-1-1.52-2.71-4.21-5.45-8.47-13.24,0-27.44.54-41.57-.25-6.07-.34-12.46-2.61-11.55-11.58.87-8.47,6.77-9.9,13.25-10.11,10.32-.35,20.65-.2,31-.05s18.59-4.95,22.94-13c4.87-9,6.59-19.66,9.68-29.6l.19,0,4.43-7.06,1.28-6.39,5.91-4.54c5.13,4.05,9.21,9.95,13.86,10.43,13.09,1.35,26.42.47,38.38.47C440.69,351.85,444.28,356.51,447.86,361.17Z" transform="translate(-134.67 -77.4)"/><path class="cls-4" d="M143.81,358.74c-7.26-4.08-9.56-10.27-9.07-18.48,2.35-39.7,3.89-79.46,6.71-119.13,1.64-23.08,19.39-38.63,45.3-42l.3,4L185,186l-.19-.26c-8.89,3.58-7.08,10.19-.85,12.3a52.23,52.23,0,0,0,26.26,1.88c9.3-1.94,9.58-8.16,2.36-15.81l.06-2.33c11.83-.29,19.38,5.61,23.64,16.29a1.65,1.65,0,0,0,.26,1.53c.19,1.3.38,2.6.56,3.9q-1.29,9.2-2.59,18.39l-13.2,93.44q-2.23,14.1-4.49,28.2c-9.16-15.16-21.41-29.31-26.72-45.7-7.25-22.36-9.05-46.46-13.52-69.74-1.4-7.33-2.66-15.15-6.32-21.37-1.84-3.12-11.22-5.8-13.16-4.09-5,4.41-10.69,11.25-10.94,17.33a247.12,247.12,0,0,0,2.91,46c4.39,29.72,14.41,57.51,32,82.2l4.09,2.5q1.14,2,2.3,4c.11,2.06.21,4.12.32,6.17l-2.15.44c-3-1.37-7.23-4.74-8.89-3.77C165.79,363.93,154.86,360.89,143.81,358.74Z" transform="translate(-134.67 -77.4)"/><path class="cls-5" d="M963.68,907.94c.48-46.05,1.29-92.09,1.38-138.14.23-122.09,0-244.19.48-366.27.05-10.43-3.6-16-12.09-20.72Q832,315,710.74,246.76c-50.65-28.54-101.08-57.49-151.65-86.18-2.5-1.42-5.41-2.13-8.13-3.17-.2-2.16-.41-4.32-.61-6.48,3-.06,6.63-1.24,9,0,17.26,9.14,34.32,18.66,51.35,28.24Q667,210.86,723.23,242.72c28.18,16,56.15,32.33,84.39,48.2,47.8,26.87,95.35,54.24,143.83,79.83,16.48,8.69,23.4,17.79,23.26,37.61-1.16,162.41-.86,324.84-1,487.26C973.72,902.5,974.45,909.89,963.68,907.94Z" transform="translate(-134.67 -77.4)"/><path class="cls-6" d="M621.28,390.09c-25.73,6.1-48-2.45-68.14-17.66,0,8.65.23,16,0,23.28-.57,15-2,30.06-2,45.09-.24,61.59-.42,123.19.1,184.78.15,17.52,2.74,35,4.21,52.54-9.83.43-8.84-6.56-8.84-12.89q0-103.44,0-206.88c0-26.9,2.66-54-.09-80.61-2-19,2.37-36.95,2-55.36-.27-15.11-2.88-30.17-3.7-45.3-.37-6.85,1.58-13.8,1.63-20.71.2-28.39,0-56.79.17-85.18,0-3.83,1.38-7.65,2.12-11.47,5.83,9.38,4.59,18.53,3,29.42-2.76,19.52-.83,39.72-.78,59.63,0,6.74,2.73,9.24,9.82,7,15-4.61,30.11-8.6,45.17-12.91s29,1.23,43.11,4.86a180.24,180.24,0,0,1,26.69,9.31c3.89,1.7,7.28,5.28,10,8.7,4.49,5.6,8.27,11.77,12,17.22l-7.34,12L668,284.24c-4.55-3-8.8-6.57-13.71-8.71-9.69-4.23-19.75-7.65-29.66-11.41-3.85.68-8.4,3-11.44,1.76-13.36-5.57-22.33,1.08-32.71,8.24-19.44,13.43-25.16,32-22.62,53.68,2.44,20.79,13.16,36.38,34.4,41.72,9.4,2.36,19.48,2,29.25,2.85l.51,15.68A4.67,4.67,0,0,1,621.28,390.09Z" transform="translate(-134.67 -77.4)"/><path class="cls-7" d="M448.45,505l-10.94,24.69c-6.12,2-12.45,6-18.33,5.47-10.43-1-11.32,4.72-12.22,12.06-1.32,10.77-2.89,21.5-4.35,32.24-.62,1.32-1.66,2.59-1.79,4Q395,644,389.29,704.65c-.78,12.06-1.26,24.14-2.42,36.16-1.12,11.61-2.94,23.16-4.45,34.73L376,779.92l-17.58-2.24-2.14-2.25-2.44-4.63a9.86,9.86,0,0,0-.28-1.95q1.31-27.66,2.59-55.33c1.49-1.76,4-3.38,4.28-5.3,1.77-13.06,3-26.18,4.5-39.27,4.12-35.62,8.44-71.22,12.3-106.87.6-5.53-.76-11.27-1.22-16.91.19-1.48.39-3,.58-4.44q3-10.87,6.12-21.76c14.11-1.83,28.33-3,42.28-5.71C433,511.71,440.63,507.81,448.45,505Z" transform="translate(-134.67 -77.4)"/><path class="cls-8" d="M402.61,579.44c1.46-10.74,3-21.47,4.35-32.24.9-7.34,1.79-13.07,12.22-12.06,5.88.56,12.21-3.49,18.33-5.47-.6,24.62-3.37,49.43-1.3,73.83,3.31,39,9.83,77.8,15,116.67q-2.18,8.88-4.36,17.76l-3,1.27c-12.17,3.5-18.84-4.44-25.56-12.29q-1.55-10.23-3.08-20.48c-.09-1.82-.09-3.65-.28-5.47q-5.34-53.24-10.72-106.46c0-1.17,0-2.33-.08-3.5l.1-3.13c-.18-1.65-.35-3.29-.53-4.93C403.3,581.77,403,580.61,402.61,579.44Z" transform="translate(-134.67 -77.4)"/><path class="cls-9" d="M866.62,816.06c-.73,0-1.84-.32-2.12,0-26.17,32.08-61.69,31.84-97.84,27.53-15.64-1.87-30.9-6.67-42.79-18.17-3.75-3.63-6.91-7.87-10.34-11.83-3.6-14.94,4.72-24.44,15.06-33l32.63-14c-1.1-6.24-2.19-13-11.14-14,5.57-2.13,3.9-5.49,2-9.48q-21.52-45.92-42.73-92c-1.38-3-2.3-6.18-3.94-10.66,2.78,1,3.81,1.09,4,1.54,11.45,24.24,22.68,48.6,34.29,72.77,5.69,11.82,12.07,23.31,18.14,35,2.53,16.7,6.22,19.31,21.84,14.52-.8-11.71-1.62-23.65-2.44-35.59l-.57-2.4.12-.06,5.14.61v35.92c20.52,4.36,20.69,4.28,24.67-9.12q5.85-9,11.71-18.09l2.78,1.73q-4.2,9.11-8.42,18.2l-5.9,9.91c10.64,3.51,21.09,6.34,31,10.38C861,783.55,868.88,796.87,866.62,816.06Zm-134.21-7.8c.17,2.45-.61,6.2.65,7.12,7.93,5.74,15.72,12.42,24.67,15.84,21.68,8.29,44.14,7.45,65.82-.27,10.66-3.8,23-7.4,24.29-22.22,0-2.56.37-5.19-.08-7.67-2.12-11.6-11.14-15.72-20.83-19.61-8.84-3.56-14.72-1-19,6.87a4.51,4.51,0,0,1-2.16.08l-4.47-.09-13.08,30c-4.55-8.35-9-14.2-11-20.8-2.29-7.88-6.33-9.83-13.52-7.87-4.27-2.37-9.13-7.42-12.71-6.63C737.72,786,732.78,793.78,732.41,808.26Zm77.28-31-3.7-1.78-2.37,7.23,2.69,1.08Z" transform="translate(-134.67 -77.4)"/><path class="cls-10" d="M205.59,562.71q-1.76-3.35-3.53-6.67c-.53-6.22-1.18-12.42-1.56-18.64-3.58-57.84,1.86-116.23-10.6-173.53,1.55,2.36,3,4.83,4.68,7.07,9,11.75,11.34,31.1,32.74,28.65.26,1.29.53,2.57.79,3.85,1.37,43.47,2.82,86.93,4,130.4.22,8-.49,16.11-.77,24.17l-2,4.73Z" transform="translate(-134.67 -77.4)"/><path class="cls-11" d="M184.69,160.71c-20-10.86-25.77-47.39-10.39-66.17,11.82-14.43,32.85-20.79,49.7-15,20.62,7,33.67,24.19,35.09,43.74,1,13.52-7.1,18.09-17.54,21.49-14.45,2-25-5-35.1-14.16-3.14-2.84-8-3.78-12.1-5.58-1.45,4.38-3.27,8.68-4.23,13.17-.67,3.16.45,6.73-.36,9.83C188.62,152.38,186.43,156.48,184.69,160.71Z" transform="translate(-134.67 -77.4)"/><path class="cls-10" d="M144.35,584.65l-3.66-17.58q.87-51.59,1.78-103.15c.06-3.28.48-6.55.74-9.82,2.23-1,4.8-1.66,6.63-3.18,8.29-6.88,16.37-14,24.53-21.06,0,4.78.07,9.56,0,14.34q-.33,56.25-.68,112.49-2.35,14-4.69,28ZM150,505.29l-2.24-3.49-1.32,1.38,3.56,2.1,16.76,20.38,3.68-3.89Z" transform="translate(-134.67 -77.4)"/><path class="cls-10" d="M367.85,270c1-4.47.58-10.14,3.2-13.21,11.45-13.36,34-15.87,49.44-6.41,13.8,8.47,19.73,29.51,13.45,46C429.82,307.2,421.37,312,411,314.57l-8.18-.15-14.12-9.74c7.42-5.94,11.43-9.22,14.33-13.3.66-.91-2.76-6.71-4-6.59-4.41.43-8.67,2.39-13,3.78C381.24,268.8,381.24,268.8,367.85,270Z" transform="translate(-134.67 -77.4)"/><path class="cls-10" d="M143.81,358.74c11.05,2.15,22,5.19,33-1.25,1.66-1,5.86,2.4,8.89,3.77-9.63,5.74-11.43,14.46-10.9,25,.62,12.33-.27,24.75-.5,37.13l-31.1,29Q143.49,405.57,143.81,358.74Z" transform="translate(-134.67 -77.4)"/><path class="cls-12" d="M448.45,505c-7.82,2.83-15.43,6.73-23.5,8.28-13.95,2.67-28.17,3.88-42.28,5.71a1.7,1.7,0,0,0-1.52-.43c-11.2-2.52-15.45-9.37-14.36-20.81.67-7-.53-14.25-.88-21.38l-3.52-1.29c-3.22,4.38-5.93,9.29-9.79,13-5.74,5.52-12.3,10.19-18.51,15.22,7-9.13,13.78-18.44,21.1-27.3,3.59-4.34,8.19-7.83,12.33-11.71l3.9,2c0,8.6-.06,17.21,0,25.81.14,16.33,5.89,21.69,21.77,22.32,17.39.69,30.62-6.07,40.83-20.34l8.83,5.84c1.3-4.33,3.11-7.6,3.15-10.9.47-37.49.64-75,1-112.49,0-2.05,1.16-4.08,1.77-6.11,1.13,14.19,3,28.37,3.22,42.57.35,25.65-.17,51.33-.7,77C451.21,495,449.45,500,448.45,505Z" transform="translate(-134.67 -77.4)"/><path class="cls-13" d="M228.11,403.44c-.26-1.28-.53-2.56-.79-3.85l10.88-16,2.61,0L274.05,398l13.3,0,4.59,1.11,2.13,19.63c-10.36-2-18.36,3.6-27.05,7.81-14.92,7.24-22.55,3.7-29.15-10.95C235.79,411.06,231.42,407.49,228.11,403.44Z" transform="translate(-134.67 -77.4)"/><path class="cls-13" d="M329.32,505.31c-2.51,7-4.56,14.27-7.64,21-3.93,8.6-11,14-20.64,13.6-10.11-.43-18.36-9.85-19.46-20.6-.77-7.58,6.5-17.34,14.42-20.09,6.45-2.23,12.69-5.05,19-7.62Z" transform="translate(-134.67 -77.4)"/><path class="cls-12" d="M329.32,505.31,315,491.63c.17-2,.34-4.07.52-6.1l.48-2.29c9.52-15.7,19.14-31.34,28.47-47.16,1.7-2.89,2.17-6.5,3.73-11.39-13.58,0-25.33.62-37-.27-5.84-.44-11.46-3.66-17.18-5.62l-2.13-19.64c10.6-12,24.67-6.77,37.29-6.81,10.95,0,20.1-1.84,26.68-11.15l.08-.06c3.32-3.82,7.18-7.31,9.79-11.56,3-4.8,4.8-10.3,7.13-15.49-3.09,9.94-4.81,20.63-9.68,29.6-4.35,8-12.68,13.13-22.94,13s-20.66-.3-31,.05c-6.48.21-12.38,1.64-13.25,10.11-.91,9,5.48,11.24,11.55,11.58,14.13.79,28.33.25,41.57.25,2.74,4.26,4.48,6.95,5.45,8.47-3.47,8-5.81,15.39-9.71,21.84a249.58,249.58,0,0,1-17.49,24.5c-10.77,13.76-9.75,19,6.57,29.84Z" transform="translate(-134.67 -77.4)"/><path class="cls-13" d="M367.85,270c13.39-1.22,13.39-1.22,18.25,18.55,4.32-1.39,8.58-3.35,13-3.78,1.19-.12,4.61,5.68,4,6.59-2.9,4.08-6.91,7.36-14.33,13.3l14.12,9.74-11.37,11-4.62-.1c-6.72-6.26-13.95-12.07-20-18.88C355.18,293.44,355.79,282.63,367.85,270Z" transform="translate(-134.67 -77.4)"/><path class="cls-13" d="M184.69,160.71c1.74-4.23,3.93-8.33,5.07-12.71.81-3.1-.31-6.67.36-9.83,1-4.49,2.78-8.79,4.23-13.17,4.08,1.8,9,2.74,12.1,5.58,10.09,9.13,20.65,16.21,35.1,14.16q-1.32,3.25-2.65,6.5c-3.52,1.1-10.11,2.23-10.1,3.31.09,13.27-9.85,14.29-18.92,16.55l-19-2.25Z" transform="translate(-134.67 -77.4)"/><path class="cls-14" d="M234.49,221.84q1.29-9.19,2.59-18.39c2.88,17.63,5.18,35.37,8.75,52.85,5.85,28.68,12.52,57.2,18.85,85.78-4.77,16.51-10.06,19.3-27.91,14.77-.17-1.39-.34-2.8-.5-4.2,1.83,0,3.67-.15,5.51-.15,18.55-.05,20.76-4,13.45-20.81a99.59,99.59,0,0,1-7.57-26c-3.57-26.42-6.12-53-9.32-79.47C238.15,224.64,235.82,223.3,234.49,221.84Z" transform="translate(-134.67 -77.4)"/><path class="cls-12" d="M386.84,325.3l4.62.1c3.68,14.42,5.75,15.69,18.8,11.49,2.39,1.56,6.48,4.85,6.9,4.43,3.5-3.49,6.34-7.66,9.37-11.62-3.63-.35-7.26-.86-10.9-1-1.33,0-2.7.89-4.05,1.37,1.13-3.6-4.5-11.67,6-9.11,13.34,1.59,21.8,8.31,24.51,22,1.22,6.19,3.81,12.12,5.77,18.16-3.58-4.67-7.17-9.33-10.9-14.2-12,0-25.29.88-38.38-.47-4.65-.48-8.73-6.38-13.86-10.43l-5.91,4.54,1.86-8Z" transform="translate(-134.67 -77.4)"/><path class="cls-12" d="M383.63,783a17.73,17.73,0,0,0,.88,1.87q1,6.17,2.09,12.35-2.48,4.51-4.94,9L373,809.73l-12.26-1.89-4.53-3.78c-9.18-5.25-18.92-9.77-27.24-16.14-3.33-2.55-5.89-10.17-4.45-13.71s8.19-5.31,12.95-6.59c2.86-.76,6.37.92,9.58,1.5l-.08-.07,6.8,1.75,2.44,4.63-.12,2.4-.81-.05c-5.88-1.92-11.69-4.15-17.68-5.61-2.05-.49-5.89.28-6.57,1.64a10.18,10.18,0,0,0-.11,8.08c3.91,7.8,16.47,12.06,25.19,9.15,5.46,2,11.49,6.41,16.2,5.28,3.72-.89,5.81-8.57,8.63-13.23Z" transform="translate(-134.67 -77.4)"/><path class="cls-5" d="M356.11,713.52c0-1.43,0-2.86,0-4.3,3-32.79,5.33-65.66,9.11-98.36,2.54-22,7.08-43.8,10.73-65.69.46,5.64,1.82,11.38,1.22,16.91-3.86,35.65-8.18,71.25-12.3,106.87-1.51,13.09-2.73,26.21-4.5,39.27C360.13,710.14,357.6,711.76,356.11,713.52Z" transform="translate(-134.67 -77.4)"/><path class="cls-11" d="M236.77,356.83c17.85,4.55,23.14,1.76,27.91-14.75,9.29,1.78,10,9.89,8.58,15.88s-6.56,11.73-11.13,16.54c-2.06,2.17-6.74,1.85-10.22,2.66q-7.6-4-15.21-8c-.25-1.15-.5-2.3-.74-3.46Z" transform="translate(-134.67 -77.4)"/><path class="cls-11" d="M190.89,168.85l19,2.25,1.11,6q.81,2.32,1.63,4.65c0,.77,0,1.55-.07,2.32-1.72,1.5-4.65,2.79-5,4.54-1.53,8.83-7.26,9.36-14.52,8.91-8.24-.52-7.18-6.74-8.29-11.82l.2.26,2.06-2.82-.3-4a12,12,0,0,1,1.17-1.68l2.41-4.35C190.52,171.69,190.71,170.27,190.89,168.85Z" transform="translate(-134.67 -77.4)"/><path class="cls-11" d="M417.58,321c-10.5-2.56-4.87,5.51-6,9.12l-1.32,6.77c-13.05,4.2-15.12,2.93-18.8-11.49l11.37-11,8.18.15Z" transform="translate(-134.67 -77.4)"/><path class="cls-15" d="M211,177.09l-1.11-6c9.07-2.26,19-3.28,18.92-16.55,0-1.08,6.58-2.21,10.1-3.31-2.67,13.67-7.63,18.54-20.78,21.43C215.55,173.23,213.36,175.57,211,177.09Z" transform="translate(-134.67 -77.4)"/><path class="cls-2" d="M143.16,452.4l31.1-29c0,2.15.07,4.31.11,6.46-8.16,7-16.24,14.18-24.53,21.06-1.83,1.52-4.4,2.14-6.63,3.18A1.23,1.23,0,0,1,143.16,452.4Z" transform="translate(-134.67 -77.4)"/><path class="cls-9" d="M714.49,870.85l16.42,14.22-3,3.81L713.71,878Z" transform="translate(-134.67 -77.4)"/><path class="cls-5" d="M381.15,518.54a1.7,1.7,0,0,1,1.52.43q-3.06,10.89-6.12,21.76Q378.85,529.63,381.15,518.54Z" transform="translate(-134.67 -77.4)"/><path class="cls-6" d="M947.4,895.2l6.72,0h0c0,2.93,0,5.85,0,8.78Z" transform="translate(-134.67 -77.4)"/><path class="cls-13" d="M190.33,173.12l-2.41,4.35Z" transform="translate(-134.67 -77.4)"/><polygon class="cls-13" points="20.54 709.4 20.92 708.6 21.17 709.47 20.54 709.4"/><path class="cls-13" d="M316,483.24l-.48,2.29a8.44,8.44,0,0,1-.35-1.76C315.18,483.6,315.73,483.42,316,483.24Z" transform="translate(-134.67 -77.4)"/><path class="cls-9" d="M865.55,968.24l.6-2.49Z" transform="translate(-134.67 -77.4)"/><path class="cls-14" d="M236.52,199.55a1.65,1.65,0,0,1-.26-1.53,9.5,9.5,0,0,1,.73,1.06S236.69,199.38,236.52,199.55Z" transform="translate(-134.67 -77.4)"/><path class="cls-16" d="M623.86,463.19c-.56-2.27-1.13-4.55-1.7-6.82.63-3.45,1.77-6.9,1.81-10.36.17-19.3.08-38.59.08-57.9l6.48-.49c2.19,1.85,4.17,4.05,6.62,5.43,2.62,1.47,5.68,2.17,8.55,3.2q1.27-4.28,2.54-8.57l-.06,0c10.84-1.83,23-7.64,27,9.89.36,1.59,4,2.42,6.17,3.61l.6,3.69,5.63,11.6,9.55-6.53,4.79,1.39q8.89,30.5,17.78,61c-.36,2.11-.72,4.21-1.09,6.32l-3.41,3.24,4.31,3.27,0,0c1.45,1.46,2.91,2.92,4.36,4.39l8.56.07,10.84,5.19C740.51,484,745,481.4,754,480.63c18.25-1.55,6.49,12.85,10,17.75l20.47,4.35,1.61,1.76,1.75,3c.11,2.18.21,4.36.32,6.54.44,3,.23,8.35,1.44,8.7,3.64,1.06,7.84.17,11.82,0l.52-.26.59.06c5.24,1.64,10.52,3.18,15.72,5,8.37,2.85,16.69,5.86,25,8.8,4.69,5.86,9.29,5.72,13.81-.21l8.3-9-9.65-3.73a2,2,0,0,1-1.17-.53l1.89-29.07q-.21-30.67-.43-61.37c-.32-3.07.31-6.84-1.27-9-1.25-1.7-6.09-2.77-7.72-1.69-2.07,1.36-2.13,5.43-3.71,7.91-2.25,3.56,5.29,10.45-4,11.41-3.78-2.36-7.6-13-11.31.06-2.64-1.84-5.13-4-8-5.46-4.73-2.51-7.62-1.17-7.72,4.55l-.71.71c-3.12-1.43-6.13-3.34-9.41-4.07-1.56-.35-3.63,1.54-5.47,2.42-.65,4.86-2.56,10-1.61,14.51,1,4.75,4.41,9.66,10.92,5l5.35.05c.45,2.86.91,5.71,1.36,8.57a3.47,3.47,0,0,0-.74.8,2,2,0,0,0,0,1c10,1.74,13.17,10.59,18.27,19,6.28-6.72,11.28-4.77,15.48,1.45h0q1,15,2,30.07l-4.33,1.12L836.7,523l-6.62-2.63c0-7.13-3.8-10-10.71-10.77-6.15-.69-12.14-2.75-18.2-4.2v0c-1.5-3.16-2.34-6.95-4.62-9.36-6.83-7.17-14.59-13.46-21.23-20.78a31.22,31.22,0,0,1-7.06-13.2c-2.5-10.52-5.63-11.93-15.67-5.54-2.11,2.31-4,4.93-6.37,6.87-4,3.26-8.4,6.1-12.62,9.11l-3.33-.33v0c-.45-6.86,1-14.58-1.72-20.42-6.84-14.91-13-29.51-9.49-46.38l0-.06c2.63-2.78,8-6.58,7.45-8.16-4-10.85,6.07-24.17-5.89-33.36l-27.74-16c4.94-16.4,6.21-32.8,0-49.2,23.08,12.94,46.27,25.69,69.22,38.86,31,17.77,61.76,35.9,92.66,53.81,13.19,7.65,20,18.37,19.9,34.23-.39,54.94,0,109.89-.4,164.83-.05,5.53-2.26,13.44-6.17,15.82-3.64,2.22-11.51-.22-16.43-2.74-20.26-10.38-40.1-21.57-60.09-32.46-4.27-9.81-12-14-22.45-13.86q-38.92-22.95-77.84-45.91c-4.09-2.43-8-5.19-12-7.8-2.63-3.27-4.66-7.42-8-9.65C655.67,483.29,639.7,473.34,623.86,463.19Z" transform="translate(-134.67 -77.4)"/><path class="cls-10" d="M769.06,557.14c10.46-.19,18.18,4.05,22.45,13.86,0,3.6,1.41,8.06-.2,10.64-5.81,9.32-1.11,15.16,5.39,20.88,1.66,1.46,3.31,2.92,5,4.37,13.53,11.76,14.27,18.65,3.86,32.94-2.56,3.53-5.3,7.22-6.64,11.27-2.6,7.81.43,12.77,8.76,16.26l.07-.29,2.37,2.34-.16-.22q1.2,2.87,2.41,5.73c8.22,13.09,5.46,25.46-2.45,37.49L786,725.59l-6-105-4.17.2q2.54,52.71,5.09,105.44l-.11.07a4,4,0,0,0-1.79.44c-13.81-2-25.19-7.34-31.42-20.93-5.86-12.82-4.55-24.08,5.71-34.09.92-.9,1-2.64,1.5-4,6.49-8.62,1.54-15-4.37-20.88-16.2-16.25-16.42-20.78-1.53-38.5,6.1-7.26,10.93-13.75,3.57-24.07C745.39,574.42,753.65,562.15,769.06,557.14Z" transform="translate(-134.67 -77.4)"/><path class="cls-6" d="M954.12,895.16V541.4L959,541c.6,2.72,1.72,5.44,1.72,8.15q.13,168.72.11,337.43c0,4.78,0,9.18-6.67,8.64Z" transform="translate(-134.67 -77.4)"/><path class="cls-17" d="M816.72,755.48l8.42-18.2-2.78-1.73-11.72,18.09c-1.71-3.17-3.54-6.29-5.12-9.52-5.42-11.11-.26-22.42,11.92-26.26,3.36-3.16,9.84-6.67,9.53-9.43-1.24-11.21,4.13-17.93,12.16-23.82,18.2,1,25.8,7.57,26.49,22.51.47,10.14-4.3,15.25-13.94,17.69-3.21.82-7.57,4.67-8,7.65C840.45,753.58,837.93,756.05,816.72,755.48Zm20.12-37.41L851,703.94l-4-3.09-10.39,17-11.45,12.93,4.27,2.84Q833.15,725.85,836.84,718.07Z" transform="translate(-134.67 -77.4)"/><path class="cls-8" d="M839.13,684.61c-8,5.89-13.4,12.61-12.16,23.82.31,2.76-6.17,6.27-9.53,9.43q-3.78-2.72-7.54-5.45c7.91-12,10.67-24.4,2.45-37.49q-1.22-2.86-2.41-5.73l.16.22-2.37-2.34-.07.29c-1.65-14.21,3.62-23.21,15.39-26.26,10.24-2.65,22.07,3.47,24.88,14.37,1.15,4.47-1,10.07-2.54,14.88S841.26,679.87,839.13,684.61Z" transform="translate(-134.67 -77.4)"/><path class="cls-18" d="M692.82,298.65c6.25,16.4,5,32.8,0,49.2l-13.49,2.3c0-13,1.55-26.28-.33-39-1.38-9.3-7.2-17.95-11-26.89L690.51,295Z" transform="translate(-134.67 -77.4)"/><path class="cls-6" d="M569.75,175.44c-2.13,1.86-3.91,3.95-4.36,3.7a17.19,17.19,0,0,1-5-4.54c-.22-.29,2.27-3.47,2.75-3.29C565.2,172.08,567,173.6,569.75,175.44Z" transform="translate(-134.67 -77.4)"/><path class="cls-2" d="M754.73,667.72c-.48,1.35-.58,3.09-1.5,4-10.26,10-11.57,21.27-5.71,34.09,6.23,13.59,17.61,19,31.42,20.93l.57,2.7-17.62,20.33c-6.07-11.64-12.45-23.13-18.14-35-11.61-24.17-22.84-48.53-34.29-72.77-.21-.45-1.24-.51-4-1.54,1.64,4.48,2.56,7.68,3.94,10.66q21.27,46,42.73,92c1.87,4,3.54,7.35-2,9.48l-3.85-.32-4.82-1c-16.25-5.13-25.09-18.44-18.79-33.7,3.68-8.93-.28-15.24-9.51-19-18.62-7.62-19.64-10-13.86-29,2.41-7.93,3-14-5-20.25-3.58-2.81-5.16-13.41-2.68-17.38,3.23-5.18,11.35-9.8,17.44-9.9,4.73-.08,13.64,7.13,13.64,11.1,0,12.68,8,15.32,17,18.1C748,653.79,754.6,657.75,754.73,667.72Z" transform="translate(-134.67 -77.4)"/><path class="cls-19" d="M623.86,463.19c15.84,10.15,31.81,20.1,47.41,30.59,3.33,2.23,5.36,6.38,8,9.65-15.9-9.13-32-17.88-47.52-27.69C628,473.36,626.43,467.47,623.86,463.19Z" transform="translate(-134.67 -77.4)"/><path class="cls-8" d="M624.05,388.12c0,19.3.09,38.59-.08,57.89,0,3.46-1.18,6.91-1.81,10.36q-.43-33.14-.88-66.28a4.67,4.67,0,0,0,.75-2l1-.07Z" transform="translate(-134.67 -77.4)"/><path class="cls-9" d="M741.41,751.28l4.82,1Z" transform="translate(-134.67 -77.4)"/><path class="cls-19" d="M737.86,857.58l-5.12-8.26c-3.8,8.52,0,16.21,7.38,14.52,4.47-1,8.41-4.32,13.52-7.1-1.19,10.21-5.62,14-14.28,14-9.53,0-17.53-6.34-17-16.35.28-5.4,5.64-10.78,9.52-15.51.76-.92,7.3.68,7.68,2.06,1.37,5.09,1.27,10.58,1.72,15.92Z" transform="translate(-134.67 -77.4)"/><path class="cls-12" d="M373.1,354.07l4.44-7.06C376.05,349.36,374.58,351.71,373.1,354.07Z" transform="translate(-134.67 -77.4)"/><path class="cls-12" d="M170.42,601.87c5.43,7.78,11.72,15.14,15.9,23.55,1.74,3.49.56,10.53-2.06,13.62-4.13,4.86-9.92,3.35-14.29-1.67-6.22-7.15-12.57-14.17-18.85-21.25C160.41,615.23,168.6,612.87,170.42,601.87Z" transform="translate(-134.67 -77.4)"/><path class="cls-2" d="M205.59,562.71l23.82,0,3.12,16.84c-3.6,8.79-8.14,16.16-19.61,14.14-2.48-.43-5.09-.13-7.64-.16-.71-5.33-2-10.66-2-16C203.34,572.62,204.78,567.66,205.59,562.71Z" transform="translate(-134.67 -77.4)"/><path class="cls-12" d="M205.28,593.56c2.55,0,5.16-.27,7.64.16,11.47,2,16-5.35,19.61-14.14,6.38,2.59,13.29,4.37,18.9,8.11,2.78,1.85,4.69,7.58,4.11,11.07-.49,3-5.79,7.86-7.84,7.36C233.4,602.6,219.39,597.89,205.28,593.56Z" transform="translate(-134.67 -77.4)"/><path class="cls-2" d="M170.42,601.87c-1.82,11-10,13.36-19.3,14.25-11.12-8.59-6.8-20.49-6.77-31.47l24.69.08Z" transform="translate(-134.67 -77.4)"/><path class="cls-20" d="M181.1,348.1c-17.64-24.69-27.66-52.48-32-82.2a247.12,247.12,0,0,1-2.91-46c.25-6.08,5.91-12.92,10.94-17.33,1.94-1.71,11.32,1,13.16,4.09,3.66,6.22,4.92,14,6.32,21.37,4.47,23.28,6.27,47.38,13.52,69.74,5.31,16.39,17.56,30.54,26.72,45.7l-.29-.07,1.35,2.22c1.09,2.17,2.18,4.33,3.26,6.5l-7.25,6.73c1,8.22,1.88,15.24,2.75,22.26l-.35.29c-5.74-5-11.59-9.82-17.17-15-4.06-3.74-7.76-7.85-11.62-11.8l-2.29-4Z" transform="translate(-134.67 -77.4)"/><path class="cls-20" d="M234.49,221.84c1.33,1.46,3.66,2.8,3.85,4.39,3.2,26.48,5.75,53,9.32,79.47a99.59,99.59,0,0,0,7.57,26c7.31,16.83,5.1,20.76-13.45,20.81-1.84,0-3.68.1-5.51.15v-.19l-4.53-11,.09.11V318.23l-8.67-3.34a11.71,11.71,0,0,1-1.87.39Z" transform="translate(-134.67 -77.4)"/><path class="cls-14" d="M216.62,381.12c-.87-7-1.73-14-2.75-22.26l7.25-6.73L235.81,375v0l2.4,8.54-10.88,16c-21.4,2.45-23.76-16.9-32.74-28.65-1.72-2.24-3.13-4.71-4.68-7.07l-2.09-3.05c-.11-2.05-.21-4.11-.32-6.17,3.85,4,7.55,8.06,11.61,11.8,5.58,5.14,11.43,10,17.17,15l1.8,5.74,2.35-1.25Z" transform="translate(-134.67 -77.4)"/><path class="cls-15" d="M184.79,185.69c1.11,5.08.05,11.3,8.29,11.82,7.26.45,13-.08,14.52-8.91.3-1.75,3.23-3,5-4.54,7.23,7.65,6.95,13.87-2.35,15.81A52.23,52.23,0,0,1,183.94,198C177.71,195.88,175.9,189.27,184.79,185.69Z" transform="translate(-134.67 -77.4)"/><path class="cls-14" d="M181.1,348.1l4.09,2.5Z" transform="translate(-134.67 -77.4)"/><path class="cls-15" d="M187.05,183.13,185,186Z" transform="translate(-134.67 -77.4)"/><path class="cls-1" d="M621.52,372.37c-9.77-.87-19.85-.49-29.25-2.85-21.24-5.34-32-20.93-34.4-41.72-2.54-21.72,3.18-40.25,22.62-53.68,10.38-7.16,19.35-13.81,32.71-8.24,3,1.26,7.59-1.08,11.44-1.76q-1.46,7.59-2.89,15.19h-.67c-4.28.75-8.88.76-12.81,2.38-22.54,9.32-34.19,19-32.85,40.54,1.61,25.85,25.94,40.4,46.08,27.88q.15,10.08.28,20.17C621.72,371,621.63,371.68,621.52,372.37ZM574.15,351.2l3-.16-1-6.45-2,.27Z" transform="translate(-134.67 -77.4)"/><path class="cls-17" d="M621.52,372.37c.11-.69.2-1.38.26-2.08,6.8-4.72,15.82-8,20-14.41,16.25-25.07,8.07-46.73-20-56.76-.1-3.68-.21-7.37-.32-11.05a4.32,4.32,0,0,0,.07-2c-.15-2.25-.31-4.51-.46-6.76h.68c29.48,4.3,40.06,21.29,46.1,47.32,3.69,15.88-7.11,38.54-20,45.73l-12.65-2.74q-1.12,6.86-2.27,13.71l-2.39,4.29-6.48.49-1-.13-1,.07Z" transform="translate(-134.67 -77.4)"/><path class="cls-16" d="M647.84,372.36c12.9-7.19,23.7-29.85,20-45.73-6-26-16.62-43-46.1-47.32q1.44-7.6,2.89-15.19c9.91,3.76,20,7.18,29.66,11.41,4.91,2.14,9.16,5.75,13.71,8.71,3.83,8.94,9.65,17.59,11,26.89,1.88,12.74.38,26,.33,39l-12.88,27.9Z" transform="translate(-134.67 -77.4)"/><path class="cls-13" d="M381,783.09c-2.82,4.66-4.91,12.34-8.63,13.23-4.71,1.13-10.74-3.27-16.2-5.28q-.42-6.63-.83-13.26l.81.05,2.26-.15L376,779.92Z" transform="translate(-134.67 -77.4)"/><path class="cls-15" d="M381,783.09l-5-3.17,6.46-4.38q.61,3.74,1.22,7.47Z" transform="translate(-134.67 -77.4)"/><path class="cls-18" d="M353.8,770.8l-6.8-1.75,6.52-.2A9.86,9.86,0,0,1,353.8,770.8Z" transform="translate(-134.67 -77.4)"/><path class="cls-15" d="M358.38,777.68l-2.26.15.12-2.4Z" transform="translate(-134.67 -77.4)"/><path class="cls-12" d="M451.27,753.78c7.86,8.8,8.14,17.38.76,23.73-6.9,5.94-16.84,4.82-23.47-2.8-7.93-9.12-16.41-17.88-23.27-27.76-2.78-4-4.27-12-2.06-15.52,2.11-3.33,9.77-3.15,15-4.52,6.72,7.85,13.39,15.79,25.58,12.28q-9.13,2.13-18.3,4.3c-2,16.9,2.26,27.06,11.57,27.64S450.89,766.26,451.27,753.78ZM420,757l4.12-1.74c-2.2-7-3.83-14.32-7-20.88-.84-1.77-6.3-1.33-9.64-1.91-.05,3.29-1.38,7.38.09,9.69C411,747.58,415.73,752.13,420,757Z" transform="translate(-134.67 -77.4)"/><path class="cls-13" d="M451.27,753.78c-.38,12.48-4.84,17.93-14.19,17.35s-13.57-10.74-11.57-27.64q9.15-2.16,18.3-4.3l3-1.26Q449.06,745.87,451.27,753.78Z" transform="translate(-134.67 -77.4)"/><path class="cls-7" d="M404.17,587.87l-.54-4.93C403.82,584.58,404,586.22,404.17,587.87Z" transform="translate(-134.67 -77.4)"/><path class="cls-7" d="M404.15,594.5c0-1.17,0-2.33-.08-3.49C404.1,592.17,404.13,593.33,404.15,594.5Z" transform="translate(-134.67 -77.4)"/><path class="cls-10" d="M763.69,789.67c7.19-2,11.23,0,13.52,7.87,1.92,6.6,6.42,12.45,11,20.8l13.08-30,4.47.08a4.51,4.51,0,0,0,2.16-.08c15.36,2.81,29.2,8.58,40,20.41-1.26,14.82-13.63,18.42-24.29,22.22-21.68,7.72-44.14,8.56-65.82.27-9-3.42-16.74-10.1-24.67-15.84-1.26-.92-.48-4.67-.65-7.11Z" transform="translate(-134.67 -77.4)"/><path class="cls-6" d="M809.9,712.41q3.76,2.73,7.54,5.45c-12.18,3.84-17.34,15.15-11.92,26.26,1.58,3.23,3.41,6.35,5.12,9.52-4,13.4-4.14,13.48-24.66,9.12V726.84a.86.86,0,0,0,0-1.25Z" transform="translate(-134.67 -77.4)"/><path class="cls-21" d="M786,725.59a.86.86,0,0,1,0,1.25l-5.14-.61q-2.55-52.74-5.09-105.45l4.17-.2Z" transform="translate(-134.67 -77.4)"/><path class="cls-22" d="M761.89,749.76l17.62-20.33,1.78-.74c.82,11.94,1.64,23.88,2.44,35.59C768.11,769.07,764.42,766.46,761.89,749.76Z" transform="translate(-134.67 -77.4)"/><path class="cls-8" d="M847.84,808.73c-10.75-11.83-24.59-17.6-40-20.41,4.32-7.91,10.2-10.43,19-6.87,9.69,3.89,18.71,8,20.83,19.61C848.21,803.54,847.83,806.17,847.84,808.73Z" transform="translate(-134.67 -77.4)"/><path class="cls-8" d="M763.69,789.67l-31.28,18.6C732.78,793.78,737.72,786,751,783,754.56,782.25,759.42,787.3,763.69,789.67Z" transform="translate(-134.67 -77.4)"/><path class="cls-8" d="M809.69,777.21l-3.38,6.53-2.69-1.08,2.37-7.23Z" transform="translate(-134.67 -77.4)"/><path class="cls-8" d="M805.73,788.4l-4.47-.08Z" transform="translate(-134.67 -77.4)"/><path class="cls-21" d="M781.29,728.69l-1.78.74-.57-2.7a4,4,0,0,1,1.79-.44C780.91,727.09,781.1,727.89,781.29,728.69Z" transform="translate(-134.67 -77.4)"/><path class="cls-2" d="M150,505.29l20.44,16.48-3.68,3.89L150,505.28Z" transform="translate(-134.67 -77.4)"/><path class="cls-2" d="M150,505.28l-3.56-2.1,1.32-1.38,2.24,3.49Z" transform="translate(-134.67 -77.4)"/><path class="cls-23" d="M238.2,383.56,235.8,375l5,8.58Z" transform="translate(-134.67 -77.4)"/><path class="cls-2" d="M410.26,336.89l1.32-6.77c1.35-.49,2.72-1.41,4.05-1.38,3.64.1,7.27.61,10.9,1-3,4-5.87,8.13-9.37,11.62C416.74,341.74,412.65,338.45,410.26,336.89Z" transform="translate(-134.67 -77.4)"/><path class="cls-24" d="M355.31,777.78q.42,6.63.83,13.26c-8.72,2.91-21.28-1.35-25.19-9.15a10.18,10.18,0,0,1,.11-8.08c.68-1.36,4.52-2.13,6.57-1.64C343.62,773.63,349.43,775.86,355.31,777.78Z" transform="translate(-134.67 -77.4)"/><path class="cls-6" d="M647.84,372.36l18.65,5.69,12.88-27.9,13.49-2.3,27.75,16c1.28,13.91,5.69,27.94-1.57,41.52l0,.06c-8.88,3-10,8.58-7.15,17.1,4.6,13.78,7.81,28,12.13,41.89.92,3,4.09,5.23,6.23,7.81v0l3.33.33c4.22-3,8.59-5.85,12.62-9.11,2.4-1.94,4.26-4.56,6.37-6.87,4.32,3.59,9.39,6.6,12.75,10.93,3.79,4.89,5.79,11.13,9,16.51,2.94,4.9,6.49,9.43,9.77,14.13-.28.26-.56.52-.85.77-5.39-5.93-10.64-12-16.19-17.75-7.45-7.76-18.31-10.11-26.76-4.35-3.8,2.6-5.35,8.5-7.93,12.9l-8.55-.07c-1.45-1.47-2.91-2.93-4.36-4.39l0,0-.9-6.51c.37-2.11.73-4.21,1.09-6.32Q711.36,442,703,411.73c-.05-.2-.65-.25-1-.38L697.16,410,682,404.89l-.6-3.69c-4.1-18.25-10.83-23.21-27.91-19.72-2.1.43-3.54,4.07-5.29,6.22l.07,0c-6.84,4.64-10.81-.81-15.33-4.35q1.14-6.85,2.27-13.71ZM719.59,386c-.11-9.78-9.42-26.29-17.45-31s-14.88-3.57-20.57,3.55c-9.11,11.39-5.23,29,7.52,36.2,2.06,1.16,3.1,4,5.08,5.47,3.16,2.29,6.63,5.55,10.11,5.73C714.17,406.38,719.74,398.53,719.59,386Z" transform="translate(-134.67 -77.4)"/><path class="cls-19" d="M845.75,489.63c-4.2-6.22-9.2-8.17-15.48-1.45-5.1-8.39-8.26-17.24-18.27-19a2,2,0,0,1,0-1,3.47,3.47,0,0,1,.74-.8l8.73,1.69c0-5.49-.27-9.89.06-14.25.56-7.3-.72-13.18-9.22-14.65.1-5.72,3-7.06,7.72-4.55,2.82,1.49,5.31,3.62,8,5.46.07,8.74.49,17.51.12,26.24-.31,7.43,2.63,11.33,11.19,12.54V441c9.26-1,1.72-7.85,4-11.41,1.58-2.48,1.64-6.55,3.71-7.91,1.63-1.08,6.47,0,7.72,1.69,1.58,2.15.95,5.92,1.27,9L845.75,428Z" transform="translate(-134.67 -77.4)"/><path class="cls-6" d="M788.11,514.06c-.11-2.18-.21-4.36-.32-6.54l-1.75-3-1.62-1.76c-.38-1.29-.75-2.58-1.13-3.87.29-.25.57-.51.84-.77l17,7.31v0c5.5,13,17.91,12.61,28.91,15L836.7,523l6.67-2.17,4.33-1.11,6.82,3.14a2,2,0,0,0,1.18.53q.67,6.38,1.34,12.77c-4.52,5.93-9.12,6.07-13.81.21-3.25-8.06-31.36-20.07-39.25-16.63-.77.33-1,1.88-1.5,2.87l-.59-.06-.52.27Z" transform="translate(-134.67 -77.4)"/><path class="cls-25" d="M845.75,489.63V428L856,432.4q.21,30.69.43,61.38l-10.71-4.16Z" transform="translate(-134.67 -77.4)"/><path class="cls-19" d="M783.29,498.86c.38,1.29.75,2.58,1.13,3.87L764,498.38c-3.47-4.9,8.29-19.3-10-17.75-9,.77-13.49,3.33-10.74,14.22l-10.84-5.19c2.57-4.4,4.12-10.3,7.92-12.9,8.45-5.76,19.31-3.41,26.76,4.35C772.65,486.88,777.9,492.93,783.29,498.86Z" transform="translate(-134.67 -77.4)"/><path class="cls-25" d="M839.31,441v38.84c-8.56-1.21-11.5-5.11-11.19-12.54.37-8.73,0-17.5-.12-26.24C831.71,428.09,835.53,438.68,839.31,441Z" transform="translate(-134.67 -77.4)"/><path class="cls-19" d="M801.18,505.4l-17-7.31c-3.27-4.7-6.82-9.23-9.76-14.13-3.23-5.38-5.23-11.62-9-16.51-3.36-4.33-8.43-7.34-12.75-10.93,10-6.39,13.17-5,15.67,5.54a31.22,31.22,0,0,0,7.06,13.2c6.64,7.32,14.4,13.61,21.23,20.78C798.84,498.45,799.68,502.24,801.18,505.4Z" transform="translate(-134.67 -77.4)"/><path class="cls-19" d="M730.27,472.19c-2.14-2.58-5.31-4.85-6.23-7.81-4.32-13.88-7.53-28.11-12.13-41.89-2.85-8.52-1.73-14.1,7.15-17.1-3.56,16.87,2.65,31.47,9.49,46.38C731.23,457.61,729.82,465.33,730.27,472.19Z" transform="translate(-134.67 -77.4)"/><path class="cls-19" d="M702,411.35c.35.13.95.18,1,.38q8.43,30.28,16.78,60.6Q710.85,441.85,702,411.35Z" transform="translate(-134.67 -77.4)"/><path class="cls-19" d="M802.48,522.59c.48-1,.73-2.54,1.5-2.87,7.89-3.44,36,8.57,39.25,16.63-8.34-2.94-16.66-6-25-8.8C813,525.77,807.72,524.23,802.48,522.59Z" transform="translate(-134.67 -77.4)"/><path class="cls-25" d="M812.33,440.19c8.5,1.47,9.78,7.35,9.22,14.65-.33,4.36-.06,8.76-.06,14.25l-8.73-1.69c-.45-2.86-.91-5.71-1.36-8.57q.12-9,.22-17.93Z" transform="translate(-134.67 -77.4)"/><path class="cls-19" d="M648.18,387.7c1.75-2.15,3.19-5.79,5.29-6.22,17.08-3.49,23.81,1.47,27.91,19.72-2.14-1.19-5.81-2-6.17-3.61C671.21,380.06,659,385.87,648.18,387.7Z" transform="translate(-134.67 -77.4)"/><path class="cls-19" d="M845.7,489.62l10.71,4.16-1.89,29.06-6.82-3.14Q846.7,504.66,845.7,489.62Z" transform="translate(-134.67 -77.4)"/><path class="cls-19" d="M830.08,520.35c-11-2.36-23.41-2-28.91-15,6.06,1.45,12.05,3.51,18.2,4.2C826.28,510.36,830.06,513.22,830.08,520.35Z" transform="translate(-134.67 -77.4)"/><path class="cls-6" d="M806.05,458.78c-6.51,4.64-9.93-.27-10.92-5-1-4.53,1-9.65,1.61-14.51C805.24,443.18,806.37,450.63,806.05,458.78Z" transform="translate(-134.67 -77.4)"/><path class="cls-19" d="M806.05,458.78c.32-8.15-.81-15.6-9.31-19.53,1.84-.88,3.91-2.77,5.47-2.42,3.28.73,6.29,2.64,9.41,4.07q-.11,9-.22,17.93Z" transform="translate(-134.67 -77.4)"/><path class="cls-19" d="M719,405.33c7.26-13.58,2.85-27.61,1.57-41.52,11.95,9.19,1.83,22.51,5.88,33.36C727.07,398.75,721.67,402.55,719,405.33Z" transform="translate(-134.67 -77.4)"/><path class="cls-19" d="M632.92,383.33c4.52,3.54,8.49,9,15.33,4.35l-2.55,8.57c-2.87-1-5.93-1.73-8.55-3.2-2.45-1.38-4.43-3.58-6.62-5.43Z" transform="translate(-134.67 -77.4)"/><path class="cls-19" d="M857,536.14q-.67-6.39-1.34-12.77l9.64,3.73Z" transform="translate(-134.67 -77.4)"/><path class="cls-19" d="M682,404.89,697.16,410l-9.55,6.53Z" transform="translate(-134.67 -77.4)"/><path class="cls-19" d="M788.11,514.06l13.26,8.74c-4,.13-8.18,1-11.82,0C788.34,522.41,788.55,517.1,788.11,514.06Z" transform="translate(-134.67 -77.4)"/><path class="cls-19" d="M718.64,478.65l.9,6.51-4.31-3.27Z" transform="translate(-134.67 -77.4)"/><path class="cls-19" d="M719.5,485.2c1.45,1.46,2.91,2.92,4.36,4.39C722.41,488.12,721,486.66,719.5,485.2Z" transform="translate(-134.67 -77.4)"/><path class="cls-19" d="M843.37,520.81,836.7,523Z" transform="translate(-134.67 -77.4)"/><path class="cls-19" d="M786,504.49l1.75,3Z" transform="translate(-134.67 -77.4)"/><path class="cls-19" d="M733.61,472.5l-3.33-.33Z" transform="translate(-134.67 -77.4)"/><path class="cls-1" d="M809.94,669.19q1.2,2.87,2.41,5.73Q811.14,672.06,809.94,669.19Z" transform="translate(-134.67 -77.4)"/><path class="cls-1" d="M807.73,667.07l2.37,2.34Z" transform="translate(-134.67 -77.4)"/><path class="cls-9" d="M836.62,717.85l10.39-17,4,3.09-14.19,14.13Z" transform="translate(-134.67 -77.4)"/><path class="cls-9" d="M836.84,718.07q-3.71,7.77-7.4,15.55l-4.27-2.84,11.45-12.93Z" transform="translate(-134.67 -77.4)"/><path class="cls-4" d="M216.51,343.41l1.35,2.22Z" transform="translate(-134.67 -77.4)"/><path class="cls-14" d="M231.83,341.54l-8.67-26.65,8.67,3.34Z" transform="translate(-134.67 -77.4)"/><path class="cls-14" d="M236.27,352.46l-4.59-6.69.06-4.34Z" transform="translate(-134.67 -77.4)"/><path class="cls-20" d="M216.62,381.12l3.8,4.78-2.35,1.25-1.8-5.74Z" transform="translate(-134.67 -77.4)"/><path class="cls-6" d="M621.46,288.07c.11,3.68.22,7.37.32,11.05l-.48.06c-7.93,1.16-16.94.45-19.38,11.15l0,0c-7.78-.69-9,6.2-8.3,10.24,1.3,7.78,4,15.87,8.44,22.28,1.43,2.1,9.88-.62,15.12-1.13l-2.87-3.87,7.17-14.25q.19,13.29.4,26.58l-.36-.09c-20.14,12.52-44.47-2-46.08-27.88-1.34-21.56,10.31-31.22,32.85-40.54,3.93-1.62,8.53-1.63,12.81-2.38.14,2.25.3,4.51.45,6.76-.24.18-.71.42-.68.55A8.18,8.18,0,0,0,621.46,288.07Z" transform="translate(-134.67 -77.4)"/><path class="cls-16" d="M621.78,299.12c28.06,10,36.24,31.69,20,56.76-4.17,6.42-13.19,9.69-20,14.41q-.13-10.08-.28-20.17l.36.09c8.72-2.11,11-8.71,10.94-16.45,0-7.13-3.59-11.6-11.12-12.16q-.2-11.21-.38-22.42Z" transform="translate(-134.67 -77.4)"/><path class="cls-6" d="M574.15,351.2v-6.34l2-.27,1,6.45Z" transform="translate(-134.67 -77.4)"/><path class="cls-1" d="M621.46,288.07a8.18,8.18,0,0,1-.61-1.44c0-.13.44-.37.68-.55A4.32,4.32,0,0,1,621.46,288.07Z" transform="translate(-134.67 -77.4)"/><path class="cls-24" d="M420,757c-4.22-4.89-9-9.44-12.41-14.84-1.47-2.31-.14-6.4-.09-9.69,3.34.58,8.8.14,9.64,1.91,3.15,6.56,4.78,13.86,7,20.88Z" transform="translate(-134.67 -77.4)"/><path class="cls-2" d="M719.59,386c.15,12.58-5.42,20.43-15.31,19.92-3.48-.18-6.95-3.44-10.11-5.73-2-1.43-3-4.31-5.08-5.47-12.75-7.15-16.63-24.81-7.52-36.2,5.69-7.12,12.69-8.21,20.57-3.55S719.48,376.17,719.59,386Z" transform="translate(-134.67 -77.4)"/><path class="cls-1" d="M621.3,299.18q.19,11.2.38,22.42a13.85,13.85,0,0,1-.22,2l-7.17,14.25,2.87,3.87c-5.24.51-13.69,3.23-15.12,1.13-4.4-6.41-7.14-14.5-8.44-22.28-.68-4,.52-10.93,8.3-10.24l2.67,3.36.71-.72-3.36-2.67C604.36,299.63,613.37,300.34,621.3,299.18Z" transform="translate(-134.67 -77.4)"/><path class="cls-18" d="M621.46,323.63a13.85,13.85,0,0,0,.22-2c7.53.56,11.08,5,11.12,12.16,0,7.74-2.22,14.34-10.94,16.45Q621.67,336.92,621.46,323.63Z" transform="translate(-134.67 -77.4)"/><path class="cls-6" d="M601.92,310.33l3.36,2.67-.71.72-2.67-3.36Z" transform="translate(-134.67 -77.4)"/></svg>