<svg id="Layer_1" data-name="Layer 1" xmlns="http://www.w3.org/2000/svg" viewBox="0 0 874.02 978"><defs><style>.cls-1{fill:#acd0eb;}.cls-2{fill:#d9f5fb;}.cls-3{fill:#6166a2;}.cls-4{fill:#484663;}.cls-5{fill:#95a8dc;}.cls-6{fill:#9bacd2;}.cls-7{fill:#92a6e7;}.cls-8{fill:#fccb5e;}.cls-9{fill:#218ad3;}.cls-10{fill:#d3633e;}.cls-11{fill:#f1c39b;}.cls-12{fill:#7e8cc6;}.cls-13{fill:#d0755e;}.cls-14{fill:#eba37f;}.cls-15{fill:#edf9fc;}.cls-16{fill:#92a1b2;}.cls-17{fill:#d7a6b0;}.cls-18{fill:#a8d1f0;}.cls-19{fill:#c7effc;}.cls-20{fill:#0689ed;}</style></defs><path class="cls-1" d="M503.55,779l0-1Z" transform="translate(-102.99 -51)"/><path class="cls-2" d="M537,173.51c-1.66,1.58-4.65,3.06-4.77,4.76-.9,11.9-1.2,23.84-1.7,35.78-1.29.3-2.8,1.19-3.85.82-11.52-4.1-16.83,6.24-24.57,10.68-1.63.94-2.62,4.33-2.59,6.58.07,7.52-.37,15.33,1.53,22.45,1.48,5.59,6.14,10.33,9.39,15.44l4.3,4.17q-2.13,6.42-4.28,12.84c-12,1.71-19,9.63-24.86,19.42-22.81,37.92-50.74,71.2-87.87,96.12-2.51,1.69-3.68,5.38-5.47,8.14l-7.37.44-18.72,1.6-1.66-3.48c-2.1-22.78-4.05-45.57-6.33-68.33-2.94-29.31-6.21-58.58-9.2-87.89-1.36-13.3-2.17-26.66-3.67-39.94-.7-6.13-3.85-11.14-10.89-11.09-6.63,0-9.65,4.41-10.13,10.67-.59,7.84-1.08,15.7-1.62,23.56l-46.38,27.86-4.75,3.13c-2.67,1.32-5.43,2.5-8,4Q229.69,290.55,196,310c-.64-4.05-1.4-8.09-1.89-12.16-.71-6-4-8.16-9.89-8.74-6.35-.64-8.37,2.95-9.35,7.79-1,5.08-1.55,10.26-2.12,15.41-3,26.6-5.86,53.21-8.83,79.81-3.09,27.69-6.29,55.35-9.34,83-2.42,22-4.59,44-7.05,66q-3.73,33.38-7.85,66.7c-2.45,20.05-5.08,40.08-7.64,60.12-5.51,3.18-11,6.41-16.56,9.48a44.87,44.87,0,0,1-5.62,2.2c0-2.2.14-4.39.14-6.59-.07-121.87.07-243.74-.58-365.6-.07-11.86,3.92-18.34,13.88-22.63.5-.22,1-.47,1.47-.74q55-30.85,109.9-61.74c21.89-12.36,43.62-25,65.47-37.44Q354.42,154,408.8,123.17q59-33.39,118.1-66.67c1.41,2.79,3.6,5.46,4,8.39.55,3.67-.55,7.56-.56,11.36-.07,24.63.13,49.26-.13,73.89C530.16,158.75,531.09,166.76,537,173.51Z" transform="translate(-102.99 -51)"/><path class="cls-3" d="M469.67,752.17c-.14,28.78-.7,57.57-.17,86.34.18,9.75-3.14,15-12.32,17l-19-.61-16.59-3.58-17.05-7.55c-1.26-4.34-3.55-8.67-3.62-13-.44-28-.31-55.93-.63-83.89,0-3.3-.87-7.21-2.76-9.78-16.86-22.82-16.21-44.69,2.39-66.34.56.6,1,1.45,1.7,1.75,4,1.72,8,3.3,12,4.93,1.46-3.77,3.53-7.44,4.24-11.35.86-4.77.58-9.75.79-14.64l6.5-2.47,7.73-2.05q1.32,3,2.62,6.08a6.59,6.59,0,0,0-1.55.53c-6.26,4-12.85,22-10.2,28.63a6.24,6.24,0,0,0,4.15,3.39c10.55,1.18,19.75-6.11,18.89-17.1-.29-3.77-1.7-7.45-2.6-11.17l5.39-7c6.48,4,12.88,8.18,19.46,12,14.94,8.79,29.23,18.34,39.52,32.73,8.58,20.29,4.18,33.72-15,45.25-4.18,2.51-8.55,4.7-12.83,7l-8.43-2.21c3.14-5.16,5.48-9.81,8.55-13.92,16.33-21.91,10.77-28.88-10.47-40.68-.2-.11-.51,0-1.6,0-9.65,15.08-19.6,30.48-29.4,46-4.69,7.4-3.15,15.51,3.71,21.15s15.06,4.95,21.48-1.4A56.65,56.65,0,0,1,469.67,752.17Z" transform="translate(-102.99 -51)"/><path class="cls-3" d="M392.23,410.71c1.79-2.76,3-6.45,5.47-8.14,37.13-24.92,65.06-58.2,87.87-96.12,5.89-9.79,12.85-17.71,24.86-19.42,0,1,0,2,0,3.06-.91,2.37-2.93,5-2.55,7.09,3.61,20.36,13.1,38.36,23.29,56.22a65.54,65.54,0,0,0,.75-15.5c-1.27-15.22-2.84-30.41-4.3-45.6,0-1.6,0-3.2,0-4.79,11.71,3.24,18.73,10.41,23,22.22,11.82,32.46,24.81,64.49,37.39,96.67,3,7.79.89,15.07-5.38,17.48-6.86,2.65-13.21-.35-16.51-7.89-4.24-9.71-8.43-19.45-14.16-28.87,0,7.58-.43,15.2.12,22.75s-1.82,12.77-8.62,16c-2-.68-4.91-.79-5.74-2.16-1.54-2.55-2-5.8-2.63-8.82-1-5.24-1.86-10.53-2.77-15.8-2.66,7.08-5.38,14.23-4.26,20.72,1.16,6.73-1.62,9.85-5.64,13.37-2,1.79-4.14,3.51-5.09,4.31l-27.09-3.69c-4.89-3.09-6.32-7.49-6.25-13.23.25-20.52.06-41.05,0-61.57a55.15,55.15,0,0,0-.81-6c-2.57,3.13-4.26,5.25-6,7.32-19.08,22.63-38.81,44.62-64.17,60.5-3.63,2.27-8.62,2.37-13,3.47,3.26-3.28,6.87-6.5,3.45-11.7C400.47,407.92,396.44,408.58,392.23,410.71Z" transform="translate(-102.99 -51)"/><path class="cls-2" d="M400.08,424.26c4.36-1.1,9.35-1.2,13-3.47,25.36-15.88,45.09-37.87,64.17-60.5,1.75-2.07,3.44-4.19,6-7.32a55.15,55.15,0,0,1,.81,6c.07,20.52.26,41.05,0,61.57-.07,5.74,1.36,10.14,6.25,13.23q-.54,13.35-1.1,26.7c0,1.09,0,2.17.05,3.25l-.6-.1c-10.16,6.52-20.15,13.32-30.53,19.48-14.59,8.66-29.44,16.87-44.22,25.2-9.62,5.41-19.2,10.91-29,15.91-4.68,2.39-7.16,5.4-6.48,10.7a12,12,0,0,1-1.17-3q-4.53-44.76-8.93-89.52l2.11-.48c4.35,2.83,8.29,2,12-1.3,1.66.91,3.32,1.83,5,2.73l8.55,4.6q-1.9-4.74-3.82-9.47a6.16,6.16,0,0,0-.4-.71c0-.76,0-1.51.05-2.27a5.12,5.12,0,0,1,.42-1.53Z" transform="translate(-102.99 -51)"/><path class="cls-4" d="M489.21,460.49q.56-13.35,1.1-26.7l27.09,3.69c1-.8,3.05-2.52,5.09-4.31,4-3.52,6.8-6.64,5.64-13.37-1.12-6.49,1.6-13.64,4.26-20.72.91,5.27,1.72,10.56,2.77,15.8.61,3,1.09,6.27,2.63,8.82.83,1.37,3.76,1.48,5.74,2.16q2.38,78.33,4.72,156.65c.11,3.8-.5,7.61-.77,11.41-.45.5-.89,1-1.33,1.51-5.77,5.85-12.25,3.3-18.66,1.58l-2.82-6.5-4.26-145.86-2.79-.76c-1.48,3.1-4,6.12-4.27,9.33-1,11.2-1.37,22.47-1.85,33.72q-2.31,54.32-4.54,108.63-2.31,13.18-4.63,26.35c-6,1.91-12,5.06-18,0q-1.17-10.73-2.33-21.45,3.32-68.41,6.64-136.84l.6.1,8.1-8.25q6.58-6.6,13.19-13.18c.21-.72.43-1.44.64-2.16-.21.72-.41,1.45-.62,2.17l-13.19,13.19Z" transform="translate(-102.99 -51)"/><path class="cls-5" d="M228.85,631.58l4.65,36.49c-.49.06-1,.13-1.45.22l-8.28,1.47-1.51-.23Q221,653.75,219.79,638c0-1.37.05-2.74.08-4.11l-.78-1.92c-.52-3.39-1-6.77-1.57-10.16-2.41-25.6-4.77-51.2-7.26-76.79q-3.21-33.06-6.66-66.09c-3.07-29.07-6.37-58.12-9.41-87.19-3.06-29.31-5.93-58.63-9.05-89.62-1.22,2.83-2.2,4.18-2.37,5.62-1.81,16-3.49,32.06-5.2,48.1-2.38,22.28-4.64,44.57-7.15,66.84-3.58,31.78-7.34,63.54-11,95.31-2.52,21.71-5.25,43.41-7.54,65.15-2.64,25-4.91,50-7.34,75.08h0c-.37,1.11-.74,2.21-1.1,3.31l-2.22,21.6-1.74,7.7c-6.07,2.19-9,.34-8.24-6.35.49-4.34.91-8.69,1.36-13l-.81-2.14a5.76,5.76,0,0,0,.22-1.36c2.56-20,5.19-40.08,7.64-60.13q4.08-33.33,7.85-66.7c2.46-22,4.63-44,7.05-66,3.05-27.69,6.25-55.35,9.34-83,3-26.6,5.86-53.21,8.83-79.81.57-5.15,1.1-10.33,2.12-15.41,1-4.84,3-8.43,9.35-7.79,5.85.58,9.18,2.79,9.89,8.74.49,4.07,1.25,8.11,1.88,12.16q3.65,37.23,7.27,74.46c2.43,24.8,4.72,49.62,7.37,74.41,1.1,10.28,2.95,20.47,4.47,30.7l-.06.06c2.64,28.22,5.14,56.45,8,84.64,1,9.6,2.83,19.11,4.29,28.67l-.1,9.27Z" transform="translate(-102.99 -51)"/><path class="cls-6" d="M314.45,168.88Q407.19,116.29,500,63.69c6.42-3.64,12.62-7.71,19.24-10.93,2.92-1.42,6.63-1.22,10-1.76.25.74.51,1.47.76,2.21-1,1.1-2,2.19-3.05,3.29q-59.06,33.33-118.1,66.67Q354.41,154,300.09,184.86c-21.85,12.43-43.58,25.08-65.47,37.44q-54.88,31-109.9,61.74c-.48.27-1,.52-1.47.74-10,4.29-14,10.77-13.88,22.63.65,121.86.51,243.73.58,365.6,0,2.2-.09,4.39-.14,6.59-7-.92-6.51-6.15-6.51-11.19q0-106.63-.08-213.26,0-64.65-.08-129.28c0-10.11.24-20.22-.14-30.31-.19-5,1.47-8.14,5.81-10.58q59.41-33.36,118.7-67c17-9.66,33.86-19.64,50.78-29.48l-.12,0,3.27-.11,8.32-6.2,6.61-5.24v0l8.49-3.24Z" transform="translate(-102.99 -51)"/><path class="cls-7" d="M639.57,943.71c-.51-11.92-1-23.85-1.6-35.76-.07-1.36-1.29-2.65-2-4-.25-1.77.17-4.39-.85-5.17-3.93-3.07-8.32-5.56-12.54-8.26,4.54-18.75,15-34.42,26.34-49.48,8.48-11.29,21.76-12.87,34.58-5.45,3.51,2,7.25,3.67,10.88,5.48.14,1.36.36,2.72.4,4.08.5,14.46,2.87,16.89,17.39,17.15a34.32,34.32,0,0,0,9.77-.91c9.72-2.73,19.33-5.85,29-8.82l1.83,3.55c-6.26,25.29-18.8,31.88-43.58,23.74-11.06-3.63-22.53-6-33.81-8.89-7.81-1.83-12.3,0-12.46,9.26-.2,11.68-1.43,23.33-2.21,35l1.41,5.12q-1.64,11.6-3.26,23.18C652.47,947.37,646,947.92,639.57,943.71Z" transform="translate(-102.99 -51)"/><path class="cls-4" d="M751,852.59c-9.66,3-19.27,6.09-29,8.82a34.32,34.32,0,0,1-9.77.91c-14.52-.26-16.89-2.69-17.39-17.15,0-1.36-.26-2.72-.4-4.08q.15-18.83.31-37.65l-1.39-1.19c-5.13,3.65-10.51,7-15.32,11-5.38,4.5-10.83,6.19-17.33,2.92l-4.47-10.85c2.24-3.53,4.06-7.46,6.85-10.48s6.66-5.31,10-7.9L697,769.23l19.38-13.69,1.6.31c-.66,2.34-1.16,4.74-2,7-8.61,23.85,3.5,44.24,28.88,48.5l11.62,2c-.12,8.47.32,17-.58,25.39C755.38,843.46,752.67,848,751,852.59Z" transform="translate(-102.99 -51)"/><path class="cls-8" d="M744.85,811.37c-25.38-4.26-37.49-24.65-28.88-48.5.82-2.28,1.32-4.68,2-7,9-13.6-.6-22.86-8.11-32.75-4.58-.27-10.75,7.07-14.48-2.15-.11-1.05-.21-2.09-.32-3.14,1.49-12.24,13.06-22.35,24.72-21.59,8.4.54,20,15.78,19.33,25.57l5.67,1.17c-3.49,13.56-1.79,24.73,9.58,33.54,6.17,4.78,11.3,10.91,16.95,16.38a7.6,7.6,0,0,0,2.21,1q-.06,7.22-.11,14.43c-2.16,3.31-4.92,6.39-6.37,10-3,7.45-8.65,10.57-16.08,11.61C748.88,810.22,746.88,810.88,744.85,811.37Z" transform="translate(-102.99 -51)"/><path class="cls-7" d="M893,782,880,782c-10.75-1-20.66.74-28.7,8.68-3.07,2.89-7,5.29-9.07,8.79-6,10-11,20.47-8.45,32.76l-.11,3.83c-6.86,4.57-3.2,11.54-3,17,.64,14.56-4.51,19.84-21.74,14.42q-.87-16.47-1.73-32.93c3.63-25.72,8.86-50.65,33.08-66.05l9.9-6.16,19-3.66,28.49-1.62c1.62,6,4.83,10.79,11.47,11.35,18.17,1.55,35.5-1.07,51-11.59,1.28,12.81-12.23,25.32-25.61,25.25S908,782,894.7,782Z" transform="translate(-102.99 -51)"/><path class="cls-9" d="M960.15,756.88c-15.48,10.52-32.81,13.14-51,11.59-6.64-.56-9.85-5.33-11.46-11.35q.06-5.91.14-11.83l.57-.19.58.16c.74,2.48,1.43,5,2.22,7.45.74,2.3,1,5,2.46,6.76,5,6.29,23.54,5.69,28.62-.5a49.12,49.12,0,0,1,6.2-5.65c11.23-9.73,22.38-19.2,20.65-36.59-1-9.78-.15-19.75-.19-29.63,0-5.29,1.49-11.06-5.75-13.7-1.42-.51-2.15-4.25-2.33-6.57-.36-4.64.12-9.34-.17-14-.36-5.73-1.14-11.44-1.67-16.49l-17.47,10.86c-5.22-1.11-10.47-3.34-11.32-2.23-4.66,6.15-8.3,3.65-13.23-1.26-.95,4.7-1.64,8.62-2.54,12.48-1.44,6.16.42,13.17-6.18,18.09-1.55,1.15.34,7,.72,10.66.25,2.41.61,4.81.92,7.21l-3.21,1a17.83,17.83,0,0,0-2.17-3.43c-.83-.82-2.1-1.19-5.47-3,1.1,5.26,1.84,8.43,2.39,11.63.26,1.48.71,4,.09,4.33a8.41,8.41,0,0,1-5.07.62c-1.45-.2-2.79-1.22-5.29-2.4-.75,4.39-1.36,8-2,11.57-2.46.57-5.93.35-7.35,1.94a30.66,30.66,0,0,0-6,10.86c-.38,1.2,3.06,5.22,4.17,5,3.26-.64,8.29-2.15,9-4.41,2.53-8.41,11.89-8.88,16.12-15.21,1-1.46,6-.23,9.14-.24a52.57,52.57,0,0,1-.14,7.54c-1.09,6.94-2.46,13.83-3.72,20.74l1.36.34,3.59-4.74v20.5c-2.19-4.84-3.91-8.66-5.64-12.47V714.41A85.33,85.33,0,0,0,884,730.59c-5,6.65-11,8.6-18.69,5.57l-5.73-10.34c5-7.42,9.39-15.29,15-22.15,10.08-12.23,17.89-25.4,22.23-40.77,2-7.24,6-13.93,8.57-21,1.34-3.73,1.56-7.87,2.28-11.82l-6.06-6.35-.4-.49,4-6,3,1.17,4.49,1.88L915,622q.7,4.9,1.39,9.81c.49.54,1,1.09,1.46,1.64a2.2,2.2,0,0,1,.46,1.06c2.31,1.79,5,5.45,6.84,5,7-1.59,16.89,3.67,20.21-7.81.3-1,3.3-1.26,5-1.86l2.79,2.17,1,3.11,4.5,12.14.75,2.68c.79,32.43,1.65,64.86,2.31,97.3C961.8,750.49,960.71,753.69,960.15,756.88Z" transform="translate(-102.99 -51)"/><path class="cls-10" d="M467.3,612.21Q464.15,625.11,461,638l-11.44,9.15c-3.9-3.11-7.63-6.49-11.84-9.11-1-.6-3.54,1.41-5.37,2.21l-7.44.52-10-5.64c-1.19-12-3.19-23.83,2.54-35.44,7.63-15.45,20.44-20.82,35-14,7.62,3.58,11.13,10.18,13,17.92C466.13,606.47,466.68,609.35,467.3,612.21Z" transform="translate(-102.99 -51)"/><path class="cls-11" d="M386.66,941.37c1.93-7.82,4-15.61,5.66-23.49.49-2.39-.37-5.07-.61-7.62,2.29-9.26,5-18.45,6.76-27.81,2.42-12.83,4.1-25.79,6.11-38.69l17.05,7.55q-1.35,14.15-2.69,28.29-1.23,13.08-2.41,26.16-1.8,7.59-3.62,15.18l-2.12,4.55-5.52,21.27c-1.63,2.4-2.95,5.11-4.94,7.16-4.53,4.62-11.8,3.43-13.64-2.47C385.74,948.38,386.61,944.75,386.66,941.37Z" transform="translate(-102.99 -51)"/><path class="cls-4" d="M510.41,270c-3.25-5.11-7.91-9.85-9.39-15.44-1.9-7.12-1.46-14.93-1.53-22.45,0-2.25,1-5.64,2.59-6.58,7.74-4.44,13.05-14.78,24.57-10.68,1.05.37,2.56-.52,3.85-.82,7.63.21,22.23,7.2,26.68,12.6a11.31,11.31,0,0,0,3.65,2.87c8.1,3.86,10.9,8.55,8.84,15.11-1.91,6.08-7.8,8.61-16.23,7-9.74-7.62-19.83-13.77-33.05-9.1-5.09,1.81-10.39,3-16,4.65Z" transform="translate(-102.99 -51)"/><path class="cls-11" d="M438.22,854.89l19,.61c.24,15.27.45,30.54.73,45.81.06,3,.37,6,.55,9q.65,17.24,1.31,34.47c-.1,3.28-.33,6.58-.25,9.86.15,6-1,11.12-8.24,11.9s-9.7-3.57-10.19-9.87c.55-4,1.64-8.09,1.55-12.12-.25-10.92-.92-21.84-1.63-32.75-.13-2.08-1.24-4.1-1.9-6.15Q438.66,880.26,438.22,854.89Z" transform="translate(-102.99 -51)"/><path class="cls-5" d="M377.07,663l3.18-8.16c-1.63-15.78-3.19-31.57-4.92-47.34-2.38-21.74-4.89-43.47-7.35-65.2q-.42-9.69-.85-19.4c5.18-4.2,3.44-9.75,2.9-15q-3.52-34.47-7.12-68.92l5.38,3.44q4.45,44.76,8.94,89.52a12,12,0,0,0,1.17,3q3.92,39.12,7.85,78.24c1.2,12,2.67,23.88,3.64,35.85C391.07,663.52,390.89,663.54,377.07,663Z" transform="translate(-102.99 -51)"/><path class="cls-2" d="M971.74,763.16a80.25,80.25,0,0,1-5.93-8.77,5.26,5.26,0,0,1-5.22.33c-.16.72-.31,1.44-.44,2.16,1.28,12.81-12.23,25.32-25.61,25.25S908,782,894.7,782c4.79,11.63,15.75,15.37,26.11,17.23,13.93,2.5,28.48,2.48,41.51-5.1,4.65-2.7,8.83-6.22,13.23-9.38C978.7,776.74,976.46,769.88,971.74,763.16Z" transform="translate(-102.99 -51)"/><path class="cls-2" d="M469.67,752.17a56.65,56.65,0,0,0-5.06,4c-6.42,6.35-14.73,6.94-21.48,1.4s-8.4-13.75-3.71-21.15c9.8-15.48,19.75-30.88,29.4-46,1.09,0,1.4-.09,1.6,0,21.24,11.8,26.8,18.77,10.47,40.68-3.07,4.11-5.41,8.76-8.55,13.92l8.43,2.21Zm-4.07-6.63c0-5.9-6.29-12.63-11.88-12.78a12.4,12.4,0,0,0-12.67,12.34c-.05,7.35,5,12.4,12.36,12.32C460.08,757.35,465.64,751.93,465.6,745.54Z" transform="translate(-102.99 -51)"/><path class="cls-4" d="M912.37,567.54c11.21-3.84,21.91-3.09,30.56,5.46,8.09,8,9.41,18.28,6.42,29-2.78,10-10,14.6-20,15.28l-1.66-.17-10.08-7.67c3.63-4.1,6.35-6.76,8.43-9.86.38-.56-1.89-4.17-2.87-4.14-3.28.1-6.52,1.21-10.29,2.05-.84-7.12-1-16.3-13.39-13.78Q905.93,575.63,912.37,567.54Z" transform="translate(-102.99 -51)"/><path class="cls-2" d="M675.4,871c11.28,2.92,22.75,5.26,33.81,8.89,24.78,8.14,37.32,1.55,43.58-23.74,8.45,1.7,9.23,9.16,11.64,15.43,1,2.57,2.17,5.06,3.26,7.59.08,1.44.15,2.87.22,4.3l-4.59,4.08c0-2.49,0-5,0-8-26.13,26.31-62,25.21-82.89-2Z" transform="translate(-102.99 -51)"/><path class="cls-12" d="M851.31,790.72c8-7.94,18-9.69,28.7-8.68-7.25,13.63-7,28.42-7.08,43.26,0,4.22-1.49,8.43-2.29,12.65-6.17,4.42-12.46,2.78-18.75.29l-1.93-5.1Z" transform="translate(-102.99 -51)"/><path class="cls-12" d="M609.91,778.75c-6.47-13.67-3.62-10.57,5.48-19,1.79-1.67,4-2.9,5.78-4.57,5.71-5.29,11-5.53,15.74,1.13,1.84,3.55,5.32,7.18,5.16,10.65-.33,7.48,4.24,10.37,9.23,13.71,1.83,1.24,3.12,3.3,4.66,5-4.19,3.7-8.69,7.12-12.47,11.2-3.38,3.67-6.71,3.86-10.74,1.8C628.19,788.49,617.59,785.3,609.91,778.75Z" transform="translate(-102.99 -51)"/><path class="cls-11" d="M510.41,270l-6-22.88c5.62-1.61,10.92-2.84,16-4.65,13.22-4.67,23.31,1.48,33.05,9.1.43,10.93-5.58,17.55-14.59,22.47-3.49,1.91-6.48,4.76-9.7,7.17-1.72-1.82-3.11-4.34-5.22-5.27-2.78-1.24-6.12-1.24-9.22-1.77Z" transform="translate(-102.99 -51)"/><path class="cls-5" d="M971,906.81c-.18,3.26.2,6.68-.71,9.72-.63,2.08-3,3.61-4.67,5.39-1.64-1.76-4.5-3.39-4.69-5.3-.66-6.48-.38-13-.45-19.59q.06-44.35.13-88.7l9.93-5Q970.74,855.07,971,906.81Z" transform="translate(-102.99 -51)"/><path class="cls-5" d="M911.29,893.84c0,6.23.27,12.5-.26,18.69-.22,2.65-2.17,5.15-3.34,7.72-2.05-2.18-4.23-4.26-6.09-6.59-.55-.7-.23-2.1-.3-3.18-.07-2.26-.13-4.53-.2-6.79q.17-44,.34-87.89c0-3.56.11-7.12.17-10.68l9.73,5.07Q911.33,852,911.29,893.84Z" transform="translate(-102.99 -51)"/><path class="cls-1" d="M680.42,877.57c20.92,27.22,56.76,28.32,82.89,2,0,3,0,5.47,0,8q-2.76,5.73-5.51,11.47l-10,6.61-19.34,6.59-9,.23-20.32-4.69-9.34-5.46C681.5,896,679.38,887.37,680.42,877.57Z" transform="translate(-102.99 -51)"/><path class="cls-7" d="M747.78,905.62l10-6.61q.11,46.05.2,92.12c0,.66,0,1.32.07,2,0,1,0,1.94,0,2.91-.07,3.55.25,7.18-.36,10.64-.36,2-2.19,3.83-3.36,5.73-2.07-1.8-5.33-3.27-5.94-5.47-.89-3.23.27-7,.26-10.51,0-3.37-.37-6.73-.58-10.1q.15-37,.29-74.1c.16-.17.49-.38.46-.53a6.76,6.76,0,0,0-.41-1.25C748.19,908.83,748,907.22,747.78,905.62Z" transform="translate(-102.99 -51)"/><path class="cls-1" d="M911.34,810.19l-9.73-5.07c-5.2-6.85-10.35-13.72-8.66-23.15h1.75c4.79,11.63,15.75,15.37,26.11,17.23,13.93,2.5,28.48,2.48,41.51-5.1,4.65-2.7,8.83-6.22,13.23-9.38q-2.52,9.3-5,18.62l-9.93,5-19.69,4.92-9.86,0Z" transform="translate(-102.99 -51)"/><path class="cls-11" d="M609.91,778.75c7.68,6.55,18.28,9.74,22.84,19.87,4.67,1.52,9.31,3.15,14,4.54,3.09.9,6.29,1.46,9.44,2.18l4.47,10.85c-1.21,1-2.33,2.84-3.65,3-12.92,1.45-31.92-.14-41-14.45-3-4.79-7.2-8.91-9.93-13.84C603.5,786.13,603.78,781.27,609.91,778.75Z" transform="translate(-102.99 -51)"/><path class="cls-11" d="M890.38,558.67c-1.24-2.89-2.47-5.79-3.75-8.66-1.73-3.91-3-8.16-5.36-11.63-5.23-7.63-5.44-14,.14-20.78,4.71-5.73,10.89-6.55,17-3.63,7.52,3.6,9.72,11.15,7.35,18.21a37.17,37.17,0,0,0-1.51,19.66c.27,1.43-.76,3.11-1.18,4.68Z" transform="translate(-102.99 -51)"/><path class="cls-11" d="M859.61,725.82l5.73,10.33c0,2.05,1,4.7,0,6.06-4.78,6.92-10,13.5-15.14,20.19l-9.9,6.16c-6.28-2.9-13.2-4.91-13.4-14-.23-10.69,3.05-14,13.13-17.29C847.08,735,853.13,729.75,859.61,725.82Z" transform="translate(-102.99 -51)"/><path class="cls-5" d="M689.75,902.29l9.34,5.46c-.1,1.39-.19,2.78-.29,4.17,0,.7,0,1.39,0,2.09q0,25.32,0,50.66V970q.06,7.13.14,14.26c-.12,6.52.18,13.08-.58,19.52-.29,2.5-3,4.71-4.56,7.06-1.17-2-2.79-3.89-3.41-6a90.9,90.9,0,0,1-1.77-10.35q.75-31.2,1.48-62.4l-.12-5.33Z" transform="translate(-102.99 -51)"/><path class="cls-11" d="M656,785.62c-1.54-1.69-2.83-3.75-4.66-5-5-3.34-9.56-6.23-9.23-13.71.16-3.47-3.32-7.1-5.16-10.65,9.05-4.15,13.83-3.11,18.3,4,6.18,9.82,11.62,12,22.56,10.29,6.32-1,12.8-.93,19.2-1.34Q685,778.1,673.1,787Z" transform="translate(-102.99 -51)"/><path class="cls-13" d="M628.71,916.93c-3.47,7.74-9.36,7.13-15.61,4.27-7.6-3.48-15.07-7.27-22.59-10.92-1.19-1.1-3-2-3.46-3.33-1.26-3.79-3.94-9.3-2.4-11.29,2.15-2.76,7.86-4.47,11.62-3.89,7.16,1.1,14,4.15,21,6.39-.27,4.77-2.18,10.38-.3,14.06C618.4,915.05,624.62,915.45,628.71,916.93Z" transform="translate(-102.99 -51)"/><path class="cls-11" d="M773.49,773.9a7.6,7.6,0,0,1-2.21-1c-5.65-5.47-10.78-11.6-16.95-16.38-11.37-8.81-13.07-20-9.58-33.54l-5.67-1.17c.66-9.79-10.93-25-19.33-25.57-11.66-.76-23.23,9.35-24.72,21.59-.79-1.45-2.41-3-2.22-4.32,2.05-14,18.1-23.62,31.62-19.24,19.07,6.18,24.76,15.62,21.68,36-1.55,10.2,4.14,19.65,15.18,25.37C768.7,759.45,774.28,764.57,773.49,773.9Z" transform="translate(-102.99 -51)"/><path class="cls-10" d="M418.66,651.41c-.21,4.89.07,9.87-.79,14.64-.71,3.91-2.78,7.58-4.24,11.35-4-1.63-8-3.21-12-4.93-.69-.3-1.14-1.15-1.7-1.75-2.59-10.81,1.07-19.62,8.68-27.17Z" transform="translate(-102.99 -51)"/><path class="cls-11" d="M695.35,721c3.73,9.22,9.9,1.88,14.48,2.15,7.51,9.89,17.09,19.15,8.11,32.75l-1.59-.31c-2.75-3.68-4.75-8.63-8.4-10.79C698.65,739.26,694.19,732.05,695.35,721Z" transform="translate(-102.99 -51)"/><path class="cls-11" d="M851.89,838.24c6.29,2.49,12.58,4.13,18.75-.29l2.57,2.94q-.18,5.94-.35,11.89c-.92,1.17-2.45,2.22-2.68,3.51-1,5.83-4.2,8.91-10.17,8-5.7-.92-8.26-4.72-8.19-10.44C851.9,848.62,851.87,843.43,851.89,838.24Z" transform="translate(-102.99 -51)"/><path class="cls-3" d="M628.71,916.93c-4.09-1.48-10.31-1.88-11.75-4.71-1.88-3.68,0-9.29.3-14.06l5.35-7.62c4.22,2.7,8.61,5.19,12.54,8.26,1,.78.6,3.4.85,5.17Z" transform="translate(-102.99 -51)"/><path class="cls-9" d="M890.38,558.67l12.67-2.15,9.33,11-12.9,16.16q-1.89,4.29-3.77,8.56c-4.45,3.89-3.74-1.67-5.38-2.94C888.79,579.1,882.68,568.88,890.38,558.67Zm16.45,1.63c-5.55,1.27-12.51,1.34-13.05,3.25-2.08,7.3-2.09,15.18-2.88,22.85l2.22.11C897.26,578.59,901.4,570.67,906.83,560.3Z" transform="translate(-102.99 -51)"/><path class="cls-14" d="M514.71,274.19c3.1.53,6.44.53,9.22,1.77,2.11.93,3.5,3.45,5.22,5.27a2,2,0,0,1-.45,1.18c-.51.62-1,1.23-1.54,1.84.16,1.09.33,2.17.5,3.26,0,1.59,0,3.19,0,4.78-3.48,3-4.62,10.65-11.11,7.6-2.92-1.37-4.11-6.42-6.08-9.8,0-1,0-2,0-3.06Q512.58,280.61,514.71,274.19Z" transform="translate(-102.99 -51)"/><path class="cls-3" d="M950.37,629.92c-1.75.6-4.75.84-5,1.86-3.32,11.48-13.24,6.22-20.21,7.81-1.8.41-4.53-3.25-6.84-5,13.15,1.78,14,1,13.8-12.53,0-.49.41-1,.62-1.48l17.81,8.1C950.45,629.07,950.41,629.49,950.37,629.92Z" transform="translate(-102.99 -51)"/><path class="cls-14" d="M932.69,620.54c-.21.5-.62,1-.62,1.48.23,13.51-.65,14.31-13.8,12.53a2.2,2.2,0,0,0-.46-1.06c-.49-.55-1-1.1-1.46-1.64q-.69-4.9-1.39-9.81l12.72-4.94,1.66.17Z" transform="translate(-102.99 -51)"/><path class="cls-1" d="M418.66,651.41l-10-7.86,6.24-8.42,10,5.64.24,8.17Z" transform="translate(-102.99 -51)"/><path class="cls-15" d="M599.88,434.08c-9.17-4.52-16.51-.64-23.44,5.11l.27-7.38c-1.72-4.4-2-8.47,2.92-11.07,5.5-2.92,8.36,1,11.31,4.54Z" transform="translate(-102.99 -51)"/><path class="cls-12" d="M890.33,589.32c1.64,1.27.93,6.83,5.38,2.94-3.39,10.83,4.38,17.38,9.56,24.91l-4,6C892.56,613.53,890.27,601.81,890.33,589.32Z" transform="translate(-102.99 -51)"/><path class="cls-11" d="M744.85,811.37c2-.49,4-1.15,6.08-1.44,7.43-1,13.07-4.16,16.08-11.61,1.45-3.6,4.21-6.68,6.37-10,1.12,10.31-6.39,21.42-16.91,25Z" transform="translate(-102.99 -51)"/><path class="cls-12" d="M901.67,623.68l6.06,6.35Z" transform="translate(-102.99 -51)"/><path class="cls-2" d="M958.67,647.34l-4.5-12.14Z" transform="translate(-102.99 -51)"/><path class="cls-1" d="M689.92,926.75l.12,5.33Z" transform="translate(-102.99 -51)"/><path class="cls-7" d="M693.33,802.25l1.39,1.19Z" transform="translate(-102.99 -51)"/><path class="cls-2" d="M131.77,669.29l.81,2.14Z" transform="translate(-102.99 -51)"/><path class="cls-11" d="M527.16,284.25c.52-.61,1-1.22,1.54-1.84C528.19,283,527.68,283.64,527.16,284.25Z" transform="translate(-102.99 -51)"/><path class="cls-4" d="M215,489.53c-1.51-10.24-3.36-20.43-4.46-30.71-2.65-24.79-4.94-49.61-7.37-74.41s-4.84-49.64-7.27-74.46q33.78-19.38,67.56-38.74c2.58-1.47,5.34-2.65,8-4l38.95,38.19-9.63,28.7-3-.58c0-3.62.27-7.26-.06-10.85-.94-10.35-8.92-16.2-17.37-12.95-15.17,5.83-19.23,30.07-7,40.62a10.21,10.21,0,0,1,2.85,7.4c-1.07,16.42-2.59,32.8-4,49.19-.93,11.08-1.88,22.15-3,35.88-4.1-3.58-6.49-5.64-8.83-7.73-1.87-1.67-3.79-4.85-5.5-4.73-2.14.16-4.74,2.62-6,4.76-3,5.22-1.83,10,3.11,13.63l-18,21.28-10.27-6.3-3.3-3.29L215.33,453l-2.28,2.37,7.38,5.06,3.29,3.3c7.35,8.12,3.68,14-3.61,19.59C218,484.89,216.71,487.43,215,489.53Z" transform="translate(-102.99 -51)"/><path class="cls-4" d="M276.26,264.11l46.38-27.86,16.63-8.65c6.56,58.82,13,116.89,19.52,175-2.18-1.43-4.71-2.53-6.49-4.35-13.76-14.05-27.46-28.14-41-42.43-4.21-4.46-7.73-9.58-11.57-14.39,2.23-1.22,5.63-1.91,6.47-3.76,2.84-6.21,4.43-13,7.11-19.26,6.93-16.23,8.74-34.48,19.78-49.18,1.56-2.07.15-6.71-.64-10-.21-.86-4.21-2-4.82-1.35-2.52,2.58-5.25,5.51-6.33,8.83-1.4,4.27-.67,9.21-2,13.53-2.28,7.5-5.41,14.75-8.19,22.1-11-10.74-22.13-21.42-33-32.33C276.87,268.7,276.86,266.11,276.26,264.11Zm72.88,78.43-.26.56-26.41-23.87,1.35-1.4Z" transform="translate(-102.99 -51)"/><path class="cls-5" d="M358.79,402.57c-6.48-58.08-13-116.15-19.52-175l-16.63,8.65c.54-7.86,1-15.72,1.62-23.56.48-6.26,3.5-10.62,10.13-10.67,7-.05,10.19,5,10.89,11.09,1.5,13.28,2.31,26.64,3.67,39.94,3,29.31,6.26,58.58,9.2,87.89,2.28,22.76,4.23,45.55,6.34,68.34Q361.66,405.92,358.79,402.57Z" transform="translate(-102.99 -51)"/><path class="cls-12" d="M358.79,402.57q2.86,3.36,5.7,6.71c.54,1.15,1.1,2.31,1.64,3.46l-2.24,5-3.31,0-34.68-37a1.83,1.83,0,0,0-1.07-1c-2.32-3-4.31-6.28-7-8.86-8.81-8.46-17.89-16.66-26.86-25l-4.65-11.19,1.76-1.09,11.7,7.81c3.84,4.81,7.36,9.93,11.57,14.39,13.5,14.29,27.2,28.38,41,42.43C354.08,400,356.61,401.14,358.79,402.57Z" transform="translate(-102.99 -51)"/><path class="cls-11" d="M363.89,417.75q1.11-2.5,2.24-5l18.73-1.59c6.38,6.35,10.94,13.29,7.32,22.84a5.12,5.12,0,0,0-.42,1.53l-1.49.19c-2.51-2-4.82-4.37-7.57-6-3.66-2.13-7.66-3.67-11.52-5.46l-5.88,5L361,425.79c.08-1.59.15-3.18.22-4.77Z" transform="translate(-102.99 -51)"/><path class="cls-15" d="M392.18,434c3.62-9.55-.94-16.49-7.32-22.84l7.37-.44c4.21-2.13,8.24-2.79,11.3,1.85,3.42,5.2-.19,8.42-3.45,11.7Z" transform="translate(-102.99 -51)"/><path class="cls-3" d="M276.26,264.11c.6,2,.61,4.59,1.91,5.89,10.87,10.91,22,21.59,33,32.33-.24,1-.47,2.07-.71,3.1l-38.95-38.19Z" transform="translate(-102.99 -51)"/><path class="cls-10" d="M444.2,657.25c.9,3.72,2.31,7.4,2.6,11.17.86,11-8.34,18.28-18.89,17.1a6.24,6.24,0,0,1-4.15-3.39c-2.65-6.62,3.94-24.62,10.2-28.63a6.15,6.15,0,0,1,1.55-.52Z" transform="translate(-102.99 -51)"/><path class="cls-1" d="M444.2,657.25,435.51,653q-1.31-3-2.62-6.09c-.18-2.21-.35-4.42-.53-6.64,1.83-.8,4.42-2.81,5.37-2.21,4.21,2.62,7.94,6,11.84,9.11,0,1,0,2.05,0,3.07Z" transform="translate(-102.99 -51)"/><path class="cls-15" d="M432.36,640.25c.18,2.22.35,4.43.53,6.64l-7.73,2.05-.24-8.17Z" transform="translate(-102.99 -51)"/><path class="cls-15" d="M510.42,290.09c2,3.38,3.16,8.43,6.08,9.8,6.49,3.05,7.63-4.55,11.11-7.6,1.46,15.2,3,30.39,4.3,45.61a65.54,65.54,0,0,1-.75,15.5c-10.19-17.86-19.68-35.86-23.29-56.22C507.49,295,509.51,292.46,510.42,290.09Z" transform="translate(-102.99 -51)"/><path class="cls-16" d="M371.18,424.28c3.86,1.79,7.86,3.33,11.52,5.46,2.75,1.6,5.06,3.95,7.56,6,.49.69,1,1.39,1.45,2.08a6.16,6.16,0,0,1,.4.71q1.92,4.72,3.82,9.47l-8.55-4.6c-1.67-.9-3.33-1.82-5-2.73Q376.79,432.47,371.18,424.28Z" transform="translate(-102.99 -51)"/><path class="cls-14" d="M371.18,424.28q5.61,8.18,11.2,16.36c-3.68,3.29-7.62,4.13-12,1.31l-5.11-12.69Z" transform="translate(-102.99 -51)"/><path class="cls-17" d="M365.3,429.26,370.41,442l-2.11.47L362.91,439q-1-6.6-1.94-13.19Z" transform="translate(-102.99 -51)"/><path class="cls-3" d="M489.21,460.49l8.17-5,0,0-8.1,8.25C489.25,462.66,489.23,461.58,489.21,460.49Z" transform="translate(-102.99 -51)"/><path class="cls-15" d="M391.71,437.79c-.48-.69-1-1.39-1.45-2.08l1.5-.19C391.74,436.28,391.73,437,391.71,437.79Z" transform="translate(-102.99 -51)"/><path class="cls-13" d="M459.77,944.74l7.9-3.2,3.31-1.46,6.61-.07c1.65,1.7,3.31,3.4,5,5.11-1.69,3.74-2.89,7.81-5.19,11.13s-5.6,5.67-8.47,8.46a1.36,1.36,0,0,0-1.17.53L457.64,973l-3.16,1.87-14.6-2.51a.89.89,0,0,0-.49-.92c-.86-5.11-4.5-10.54,1.7-14.85.49,6.3,2.94,10.66,10.19,9.87s8.39-5.86,8.24-11.9C459.44,951.32,459.67,948,459.77,944.74Z" transform="translate(-102.99 -51)"/><path class="cls-13" d="M410.79,925.49l2.12-4.55c11.15,1.83,14.15,8.19,7.36,16.77a250.18,250.18,0,0,1-18.48,20.71c-5.9,6-12.52,6-17.2.92-5.39-5.83-4.69-11.91,2.08-18-.06,3.39-.93,7,0,10.09,1.84,5.9,9.11,7.09,13.64,2.47,2-2,3.31-4.76,4.94-7.16,3.61-3.43,7.64-6.54,10.66-10.43a10.1,10.1,0,0,0,1.5-8C417,926.81,413.12,926.39,410.79,925.49Z" transform="translate(-102.99 -51)"/><path class="cls-5" d="M280.86,603.51q.43-8,.86-16.07,1.45-8.37,2.92-16.76l9.93-6.34q-.66,5.79-1.33,11.57l-2.43,23c-.15.17-.46.37-.44.52a7.2,7.2,0,0,0,.36,1.26c.19,1.61.38,3.22.56,4.83Z" transform="translate(-102.99 -51)"/><path class="cls-3" d="M502.33,621.92l1.86,9.76c-7.22,11.79-7.39,11.83-18.92,5.15a8.05,8.05,0,0,0-2.36-.51l1.44-14.39C490.35,627,496.34,623.83,502.33,621.92Z" transform="translate(-102.99 -51)"/><path class="cls-3" d="M546.15,595.43c.24,2.64.48,5.27.73,7.91-.69,1.79-1.24,3.64-2.07,5.36-3.85,7.94-9.31,8.58-15,1.67a40.57,40.57,0,0,1-3.27-5.58c.31-2.59.63-5.19.94-7.78C533.9,598.73,540.38,601.28,546.15,595.43Z" transform="translate(-102.99 -51)"/><path class="cls-3" d="M510.55,442.31q-6.6,6.58-13.19,13.18l0,0,13.19-13.19Z" transform="translate(-102.99 -51)"/><path class="cls-3" d="M510.57,442.32c.21-.72.41-1.45.62-2.17-.21.72-.43,1.44-.64,2.16Z" transform="translate(-102.99 -51)"/><path class="cls-4" d="M294.57,564.34l-9.93,6.35c-2.68,1.23-5.46,2.27-8,3.73q-24.74,14.16-49.36,28.47c-1.46-9.56-3.31-19.07-4.29-28.67-2.85-28.19-5.35-56.42-8-84.64,2.28-1.17,5-1.86,6.77-3.58,10.63-10.62,21-21.48,31.49-32.25q5.17,21.38,10.36,42.77L261.67,498c-5-4.6-10.1-9.13-15-13.81-2.3-2.17-4.33-4.62-6.48-6.94-2.17,2.87-6,5.66-6.12,8.64-.19,3.82,3.65,7.72,3.85,11.69.84,16.8,7.68,33.15,3.6,50.4-.54,2.28,2.33,5.37,3.63,8.08,2.61-1.54,6.06-2.51,7.58-4.78s2.25-6.73,1-8.43c-7.12-9.3-4.79-20.45-6.87-30.68-1.14-5.61-1.41-11.4-2.07-17.11l2.63-1.4c5.81,5.78,11.56,11.63,17.51,17.27,1.08,1,3.28,2,4.47,1.58,5.78-2.05,8-12.05,4.55-16.89-2.7-3.75-5.45-7.88-6.57-12.26-3.14-12.29-5.45-24.8-8.09-37.22l2.5-1.13c1.54,2.16,3.26,4.2,4.58,6.48,2.85,4.95,7,5.62,10.07.78,1.7-2.72,2.05-6.55,2.17-9.91.19-5-.37-10-.6-15.06,2.44-1.55,5.24-2.73,7.26-4.71q15.6-15.19,30.8-30.77c2-2.06,3.35-4.77,5-7.18l0,0,4.94-3.9,34.68,37c.21,1.08.41,2.17.61,3.26-.07,1.59-.14,3.18-.22,4.77q1,6.6,1.94,13.19,3.57,34.45,7.12,68.92c.54,5.28,2.28,10.83-2.9,15Q330.86,543.65,294.57,564.34Zm8.26-21.46,1.66,1.64,5.45,7.2,2.22-2.29-7.66-4.91-1.64-1.66-3.32-3.28-9.88-9.9-3.3-3.29c-3.3-3.3-6.6-6.6-10-9.63l.61-1-3.56-2.45-.9,1.45a20.66,20.66,0,0,0,4,1.68q4.95,4.95,9.89,9.89l3.29,3.31,9.9,9.88C300.64,540.68,301.74,541.78,302.83,542.88Z" transform="translate(-102.99 -51)"/><path class="cls-2" d="M144.5,658.19c2.43-25,4.7-50.07,7.34-75.08,2.29-21.74,5-43.44,7.54-65.15,3.7-31.77,7.46-63.53,11-95.31,2.51-22.27,4.77-44.56,7.15-66.84,1.71-16,3.39-32.08,5.2-48.1.17-1.44,1.15-2.79,2.37-5.62,3.12,31,6,60.31,9.05,89.62,3,29.07,6.34,58.12,9.41,87.19q3.5,33,6.66,66.09c2.49,25.59,4.85,51.19,7.26,76.79-3.46.47-7.45,0-10.28,1.58-10.59,5.95-20.61,12.91-31.21,18.84C165.75,648,155,652.89,144.5,658.19Z" transform="translate(-102.99 -51)"/><path class="cls-2" d="M227.27,602.89q24.66-14.25,49.36-28.47c2.55-1.46,5.33-2.5,8-3.73q-1.45,8.37-2.92,16.75c-2.71.12-5.87-.63-8.06.5-15.06,7.81-29.92,16-44.87,24.08a4.46,4.46,0,0,1-1.62.14C227.2,609.07,227.24,606,227.27,602.89Z" transform="translate(-102.99 -51)"/><path class="cls-3" d="M253.25,453.75c-10.47,10.77-20.86,21.63-31.49,32.25-1.73,1.72-4.49,2.41-6.77,3.58l.06-.06c1.66-2.09,3-4.63,5.06-6.2,7.29-5.54,11-11.47,3.61-19.59v0l10.27,6.3,18-21.28Z" transform="translate(-102.99 -51)"/><path class="cls-2" d="M144.52,658.2l-1.11,3.31Z" transform="translate(-102.99 -51)"/><path class="cls-18" d="M219.87,633.86l-.78-1.92Z" transform="translate(-102.99 -51)"/><path class="cls-19" d="M289.76,182.22l6.61-5.24Z" transform="translate(-102.99 -51)"/><path class="cls-3" d="M639.57,943.71c6.47,4.21,12.9,3.66,19.31-.17q.18,10.66.37,21.33c0,5.31-1.73,9.66-7.59,10.58-5.53.87-10-1.05-12.38-6.46q0-12.32.08-24.63Z" transform="translate(-102.99 -51)"/><path class="cls-13" d="M639.36,944.36q0,12.32-.08,24.63c-3.65-3.66-7.8-7-10.78-11.08-2.18-3-2.82-7.18-4.15-10.82,3.4-1.23,6.73-2.69,10.22-3.58C636,943.15,637.75,944,639.36,944.36Z" transform="translate(-102.99 -51)"/><path class="cls-13" d="M526.55,604.79a40.57,40.57,0,0,0,3.27,5.58c5.68,6.91,11.14,6.27,15-1.67.83-1.72,1.38-3.57,2.07-5.36,7.16,2.52,14.59,4.51,21.34,7.87,2.24,1.12,4.34,6.28,3.59,8.68-.9,2.88-5.11,6.92-7.56,6.71a190.88,190.88,0,0,1-32.18-5.21C524,619.25,522.06,611.68,526.55,604.79Z" transform="translate(-102.99 -51)"/><path class="cls-13" d="M482.91,636.32a8.05,8.05,0,0,1,2.36.51c11.53,6.68,11.7,6.64,18.92-5.15,5.86,6.38,12.12,12.45,17.34,19.31,1.7,2.23,1.82,7,.57,9.69-1,2.14-5.15,4-7.89,3.93C506.11,664.55,484.76,644.72,482.91,636.32Z" transform="translate(-102.99 -51)"/><path class="cls-13" d="M851.89,838.24c0,5.19,0,10.38-.07,15.56-.07,5.72,2.49,9.52,8.19,10.44,6,1,9.13-2.12,10.17-8,.23-1.29,1.76-2.34,2.68-3.51,3.49,6.65,3.15,13-3.57,17-6.48,3.86-12.3,1.91-17-4.19-4.31-5.59-9.64-10.43-13.56-16.25-2.56-3.8-3.42-8.75-5-13.18,0-1.29.08-2.56.11-3.84l16.17.87Z" transform="translate(-102.99 -51)"/><path class="cls-12" d="M869.21,758.74c8-7.85,17.33-12.72,28.64-13.44q-.08,5.91-.14,11.82Z" transform="translate(-102.99 -51)"/><path class="cls-13" d="M787.62,876l21.08,1.89a89.1,89.1,0,0,0,.74,9.7c1,5.7,3.77,10.86,10.19,10.79s9.11-4.94,9.16-11.15c5.33,4.37,4.7,9.83,1.57,14.65s-8.29,6.63-13.7,3.82c-9.43-4.89-18.86-9.87-27.81-15.56-5.75-3.65-2.61-9.27-1.2-14.17Z" transform="translate(-102.99 -51)"/><path class="cls-11" d="M828.79,887.25c0,6.21-2.61,11.08-9.16,11.15s-9.14-5.09-10.19-10.79a89.1,89.1,0,0,1-.74-9.7c3.12-7.44,9.79-6.18,15.19-4.89,1.92.46,2.63,6.2,3.79,9.57C828.19,884.09,828.43,885.7,828.79,887.25Z" transform="translate(-102.99 -51)"/><path class="cls-20" d="M899,745.26l.71-2.94c1.73,3.81,3.45,7.63,5.64,12.47v-20.5L901.76,739l-1.36-.34c1.26-6.91,2.63-13.8,3.72-20.74a52.57,52.57,0,0,0,.14-7.54c-3.16,0-8.17-1.22-9.14.24-4.23,6.33-13.59,6.8-16.12,15.21-.67,2.26-5.7,3.77-9,4.41-1.11.22-4.55-3.8-4.17-5a30.66,30.66,0,0,1,6-10.86c1.42-1.59,4.89-1.37,7.35-1.94.61-3.59,1.22-7.18,2-11.57,2.5,1.18,3.84,2.2,5.29,2.4a8.41,8.41,0,0,0,5.07-.62c.62-.36.17-2.85-.09-4.33-.55-3.2-1.29-6.37-2.39-11.63,3.37,1.8,4.64,2.17,5.47,3a17.83,17.83,0,0,1,2.17,3.43l3.21-1c-.31-2.4-.67-4.8-.92-7.21-.38-3.68-2.27-9.51-.72-10.66,6.6-4.92,4.74-11.93,6.18-18.09.9-3.86,1.59-7.78,2.54-12.48,4.93,4.91,8.57,7.41,13.23,1.26.85-1.11,6.1,1.12,11.32,2.23L949,636.35c.53,5,1.31,10.76,1.67,16.49.29,4.65-.19,9.35.17,14,.18,2.32.91,6.06,2.33,6.57,7.24,2.64,5.72,8.41,5.75,13.7,0,9.88-.78,19.85.19,29.63,1.73,17.39-9.42,26.86-20.65,36.59a49.12,49.12,0,0,0-6.2,5.65c-5.08,6.19-23.6,6.79-28.62.5-1.42-1.77-1.72-4.46-2.46-6.76C900.43,750.24,899.74,747.74,899,745.26Z" transform="translate(-102.99 -51)"/><path class="cls-11" d="M905.27,617.17c-5.18-7.53-12.95-14.08-9.56-24.91q1.89-4.28,3.77-8.56c12.34-2.52,12.55,6.66,13.39,13.78,3.77-.84,7-2,10.29-2.05,1,0,3.25,3.58,2.87,4.14-2.08,3.1-4.8,5.76-8.43,9.86l10.08,7.67L915,622l-2.23-1.82-4.49-1.88Z" transform="translate(-102.99 -51)"/><path class="cls-12" d="M908.24,618.34l4.49,1.88Z" transform="translate(-102.99 -51)"/><path class="cls-3" d="M916.35,631.85c.49.54,1,1.09,1.46,1.64C917.32,632.94,916.84,632.39,916.35,631.85Z" transform="translate(-102.99 -51)"/><path class="cls-5" d="M728.44,912.21l.21,70.4c-.15,13.16-.14,26.34-.63,39.49-.08,2.34-2.22,4.6-3.42,6.9-1.57-2.38-4.42-4.72-4.52-7.16-.56-13.59-.46-27.2-.58-40.8l-.09-68.6Z" transform="translate(-102.99 -51)"/><path class="cls-5" d="M930.82,892.21q.1-39.5.2-79l9.86,0,.18,78.86v45.08c-7.46,2.69-10.38,1.16-10.19-6.38C931.21,918,930.87,905.08,930.82,892.21Z" transform="translate(-102.99 -51)"/><path class="cls-10" d="M410.79,925.49c2.33.9,6.16,1.32,6.64,2.8a10.1,10.1,0,0,1-1.5,8c-3,3.89-7.05,7-10.66,10.43Z" transform="translate(-102.99 -51)"/><path class="cls-19" d="M273.2,175.19l.37-.65-.34.69Z" transform="translate(-102.99 -51)"/><path class="cls-2" d="M294.57,564.34q36.29-20.7,72.56-41.41.42,9.71.85,19.4c-16.9-3.54-28.16,8.93-41.52,15.07-11.49,5.27-22.18,12.27-33.23,18.51Q293.9,570.12,294.57,564.34Z" transform="translate(-102.99 -51)"/><path class="cls-12" d="M465.6,745.54c0,6.39-5.52,11.81-12.19,11.88-7.36.08-12.41-5-12.36-12.32a12.4,12.4,0,0,1,12.67-12.34C459.31,732.91,465.56,739.64,465.6,745.54Z" transform="translate(-102.99 -51)"/><path class="cls-1" d="M748.35,912.21c0-.59,0-1.18,0-1.78a6.76,6.76,0,0,1,.41,1.25C748.84,911.83,748.51,912,748.35,912.21Z" transform="translate(-102.99 -51)"/><path class="cls-5" d="M235.29,684.61c0,3.86,0,7.71,0,11.57h-9.32v-11l7.79-.82A8.35,8.35,0,0,0,235.29,684.61Z" transform="translate(-102.99 -51)"/><path class="cls-5" d="M226.89,712.59c.1-.47.19-1,.27-1.42l9.75-.17a6.55,6.55,0,0,0,.33,1.52c0,1.64-.57,3.52,0,4.88,3.46,7.67-.38,10.9-7.7,12.82C228.65,724.21,227.77,718.4,226.89,712.59Z" transform="translate(-102.99 -51)"/><path class="cls-1" d="M698.74,964.67v0Z" transform="translate(-102.99 -51)"/><path class="cls-1" d="M698.8,911.92c0,.7,0,1.39,0,2.09C698.77,913.31,698.78,912.62,698.8,911.92Z" transform="translate(-102.99 -51)"/><path class="cls-20" d="M906.83,560.3c-5.43,10.37-9.57,18.29-13.71,26.21l-2.22-.11c.79-7.67.8-15.55,2.88-22.85C894.32,561.64,901.28,561.57,906.83,560.3Z" transform="translate(-102.99 -51)"/><path class="cls-15" d="M253.25,453.75l-1.23-5c-4.94-3.65-6.16-8.41-3.11-13.63,1.24-2.14,3.84-4.6,6-4.76,1.71-.12,3.63,3.06,5.5,4.73,2.34,2.09,4.73,4.15,8.83,7.73,1.16-13.73,2.11-24.8,3-35.88,1.38-16.39,2.9-32.77,4-49.19a10.21,10.21,0,0,0-2.85-7.4c-12.19-10.55-8.13-34.79,7-40.62,8.45-3.25,16.43,2.6,17.37,12.95.33,3.59.06,7.23.06,10.85l3,.58,9.63-28.7c.24-1,.47-2.07.71-3.1,2.78-7.35,5.91-14.6,8.19-22.1,1.31-4.32.58-9.26,2-13.53,1.08-3.32,3.81-6.25,6.33-8.83.61-.62,4.61.49,4.82,1.35.79,3.27,2.2,7.91.64,10-11,14.7-12.85,32.95-19.78,49.18-2.68,6.29-4.27,13.05-7.11,19.26-.84,1.85-4.24,2.54-6.47,3.76l-11.7-7.81-1.76,1.09L291,345.87c-2.58,2.84-7.13,5.5-7.43,8.57-2.31,23.26-3.78,46.61-5.52,69.92l-.08,2.9c.23,5,.79,10.05.6,15.06-.12,3.36-.47,7.19-2.17,9.91-3,4.84-7.22,4.17-10.07-.78-1.32-2.28-3-4.32-4.58-6.48l-2.5,1.13c2.64,12.42,5,24.93,8.09,37.22,1.12,4.38,3.87,8.51,6.57,12.26,3.48,4.84,1.23,14.84-4.55,16.89-1.19.42-3.39-.56-4.47-1.58-6-5.64-11.7-11.49-17.51-17.27l-2.63,1.4c.66,5.71.93,11.5,2.07,17.11,2.08,10.23-.25,21.38,6.87,30.68,1.29,1.7.48,6.27-1,8.43s-5,3.24-7.58,4.78c-1.3-2.71-4.17-5.8-3.63-8.08,4.08-17.25-2.76-33.6-3.6-50.4-.2-4-4-7.87-3.85-11.69.15-3,3.95-5.77,6.12-8.64,2.15,2.32,4.18,4.77,6.48,6.94,4.94,4.68,10,9.21,15,13.81l1.94-1.44Z" transform="translate(-102.99 -51)"/><path class="cls-3" d="M220.43,460.43l-7.38-5.06,2.28-2.37,5.08,7.46Z" transform="translate(-102.99 -51)"/><path class="cls-3" d="M223.72,463.73l-3.29-3.3,0,0,3.3,3.29Z" transform="translate(-102.99 -51)"/><path class="cls-3" d="M349.14,342.54l-25.32-24.71-1.35,1.4,26.41,23.87Z" transform="translate(-102.99 -51)"/><path class="cls-4" d="M278,424.36c1.74-23.31,3.21-46.66,5.52-69.92.3-3.07,4.85-5.73,7.43-8.57,9,8.3,18.05,16.5,26.86,25,2.7,2.58,4.69,5.88,7,8.86-1.29,1.64-2.57,3.29-3.86,4.94l0,0c-2.41,1.65-5.1,3-7.18,5C301.81,401.1,289.93,412.76,278,424.36Z" transform="translate(-102.99 -51)"/><path class="cls-3" d="M321,384.63c1.29-1.65,2.57-3.3,3.86-4.94a1.82,1.82,0,0,1,1.08,1Z" transform="translate(-102.99 -51)"/><path class="cls-17" d="M361.19,421c-.2-1.09-.4-2.18-.61-3.26l3.31,0Z" transform="translate(-102.99 -51)"/><path class="cls-18" d="M290.73,600.64a7.2,7.2,0,0,1-.36-1.26c0-.15.29-.35.44-.52C290.78,599.45,290.76,600.05,290.73,600.64Z" transform="translate(-102.99 -51)"/><path class="cls-3" d="M278,424.36c11.92-11.6,23.8-23.26,35.81-34.76,2.08-2,4.77-3.35,7.18-5-1.66,2.41-3,5.12-5,7.18q-15.23,15.56-30.8,30.77c-2,2-4.82,3.16-7.26,4.71C278,426.29,278,425.33,278,424.36Z" transform="translate(-102.99 -51)"/><path class="cls-3" d="M276.47,516.49l9.89,9.9h0Z" transform="translate(-102.99 -51)"/><path class="cls-3" d="M299.55,539.57l-9.9-9.88h0l9.88,9.9Z" transform="translate(-102.99 -51)"/><path class="cls-3" d="M304.5,544.52l7.66,4.91-2.22,2.29-5.45-7.2Z" transform="translate(-102.99 -51)"/><path class="cls-3" d="M276.33,516.76l-3.85-2,.9-1.45,3.56,2.45Z" transform="translate(-102.99 -51)"/><path class="cls-3" d="M302.83,542.88c-1.09-1.1-2.19-2.2-3.28-3.31h0l3.32,3.28Z" transform="translate(-102.99 -51)"/><path class="cls-3" d="M286.36,526.39l3.3,3.29h0l-3.29-3.31Z" transform="translate(-102.99 -51)"/><path class="cls-3" d="M302.86,542.86l1.64,1.66h0l-1.66-1.64Z" transform="translate(-102.99 -51)"/><path class="cls-5" d="M227.19,733.49l3.18-8.16c-1.63-15.78-3.2-31.57-4.92-47.34-2.38-21.74-4.89-43.47-7.35-65.2q-.43-9.69-.85-19.4c5.18-4.2,3.43-9.76,2.89-15q-3.51-34.47-7.11-68.92l5.38,3.44q4.46,44.76,8.93,89.52a12.07,12.07,0,0,0,1.18,3q3.91,39.12,7.84,78.24c1.21,12,2.68,23.88,3.65,35.84C241.18,734,241,734,227.19,733.49Z" transform="translate(-102.99 -51)"/><path class="cls-11" d="M573.94,432.64c4.78,1.1,9.39,2.92,13.9,2.68,1.11-.06,1.86-6.83,3.08-11.72,6.28-1.82,10.58,2.89,13.69,9,3.34,6.56,1.67,16.87-4.92,19.39-6.26,2.39-14.48,2.45-21,.58S571,440.89,573.94,432.64Z" transform="translate(-102.99 -51)"/></svg>